<svg width="301" height="328" viewBox="0 0 301 328" fill="none" xmlns="http://www.w3.org/2000/svg">
<path d="M4.61256 59.9222C4.27525 59.8367 3.9777 59.6957 3.65802 59.5737C3.38682 59.4701 3.12315 59.3189 2.91209 59.1196C2.36909 58.6066 2.40562 57.9375 2.45486 57.2432C2.5209 56.3123 2.39301 55.3866 2.44042 54.4522C2.4887 53.5006 2.51992 52.5573 2.53212 51.6046C2.53853 51.1041 2.57013 50.7463 2.64517 50.3388C2.73545 49.8486 2.82256 49.3551 2.86139 48.8578C2.89896 48.3764 2.83903 47.9118 2.79714 47.4334C2.75641 46.9684 2.74131 46.5015 2.7356 46.0349C2.72372 45.0649 2.751 44.0914 2.63878 43.1254C2.60712 42.8528 2.55493 42.6007 2.48272 42.3378C2.46975 42.2907 2.45804 42.2432 2.44509 42.196C2.43699 42.1665 2.42495 42.0172 2.43326 42.1593C2.44224 42.3124 2.43953 42.1352 2.44106 42.1148C2.4513 41.979 2.45894 42.0319 2.43315 42.1307C2.56471 41.6265 2.65752 41.11 2.66151 40.5882C2.67648 38.6271 2.62067 36.6653 2.57176 34.7049C2.52181 32.7026 2.49722 30.7042 2.51818 28.7012C2.5283 27.7345 2.40515 26.7876 2.36414 25.824C2.32207 24.8358 2.3777 23.8394 2.40322 22.8513C2.42895 21.8547 2.45258 20.8581 2.47549 19.8614C2.48715 19.3534 2.49864 18.8453 2.51011 18.3372C2.52101 17.8548 2.46461 17.3085 2.56756 16.8354C2.51907 17.0582 2.56995 16.8381 2.58616 16.7405C2.60393 16.6334 2.62301 16.5266 2.64062 16.4195C2.69179 16.1083 2.74228 15.7944 2.76552 15.4797C2.78003 15.2834 2.79041 15.0578 2.76471 14.8626C2.74202 14.6904 2.68861 15.0654 2.75321 14.9158C2.76001 14.9001 2.80017 14.7979 2.79524 14.7839C2.80187 14.8027 2.68147 15.008 2.75802 14.8909C2.79091 14.8405 2.8159 14.7806 2.84286 14.7269C3.28962 13.8357 3.45108 12.7983 3.71001 11.8421C3.83658 11.3748 3.9907 10.916 4.12128 10.4501C4.24337 10.0146 4.31183 9.5664 4.42624 9.12897C4.55625 8.63194 4.65612 8.12604 4.71705 7.61568C4.72777 7.52586 4.73985 7.43499 4.74434 7.3446C4.75187 7.19285 4.72578 7.46991 4.72548 7.47115C4.74072 7.41169 4.78798 7.32573 4.70569 7.46639C4.60036 7.64643 4.73803 7.42545 4.76501 7.38473C4.81058 7.31594 4.86268 7.2518 4.90156 7.1787C5.11152 6.78396 5.14466 6.33769 5.04713 5.90715C5.0058 5.72465 4.9206 5.55912 4.88664 5.37367V5.95671C4.88924 5.93819 4.91714 5.73237 4.93108 5.73378C5.06211 5.74701 4.77102 5.92948 4.9051 5.7989C4.99198 5.71431 4.87352 5.76853 4.89774 5.79316C4.91007 5.80568 4.81163 5.88039 4.90001 5.79369C4.9244 5.76975 4.94724 5.74427 4.97166 5.72032C5.03794 5.65528 5.10943 5.5961 5.18177 5.53791C5.45642 5.31706 5.72796 5.10107 5.98529 4.85977C6.12664 4.72721 6.26801 4.59546 6.41517 4.46923C6.49571 4.40015 6.4107 4.46988 6.39596 4.48067C6.43074 4.45523 6.46623 4.43082 6.50222 4.40713C6.53822 4.38345 6.57455 4.36023 6.61184 4.33861C6.60972 4.33983 6.82236 4.23489 6.73701 4.26963C6.65003 4.30503 6.79024 4.25391 6.79503 4.2526C6.84052 4.24014 6.88538 4.22709 6.93136 4.21648C7.05443 4.18807 7.18018 4.17117 7.30512 4.15286C7.48421 4.12663 7.77025 4.09298 7.9871 4.06604C9.06515 3.93204 10.0307 3.79957 11.0613 3.67451C11.5938 3.60991 12.127 3.54316 12.6547 3.4465C13.1389 3.35781 13.6146 3.23058 14.0996 3.14561C14.219 3.1247 14.3387 3.10427 14.4589 3.08858C14.3118 3.10778 14.5632 3.07936 14.6045 3.07542C14.8512 3.05198 15.099 3.0391 15.3468 3.03704C15.8624 3.03275 16.3755 3.03728 16.8908 3.01011C17.9126 2.95623 18.9298 2.84095 19.9514 2.78444C20.4663 2.75596 20.979 2.75484 21.4943 2.75325C22.0477 2.75153 22.5973 2.67267 23.144 2.59507C23.3763 2.5621 23.609 2.53001 23.8409 2.49442C23.9479 2.478 24.0546 2.4601 24.1616 2.44349C24.1394 2.44694 24.0016 2.46068 24.1347 2.44725C24.2257 2.43809 24.3163 2.42684 24.4076 2.41922C24.9361 2.37513 25.4509 2.35965 25.9731 2.24859C26.4828 2.14022 26.9923 2.05908 27.4966 1.92826C27.5405 1.91688 27.8104 1.85986 27.6712 1.87796C27.8087 1.86008 27.9505 1.86732 28.0885 1.87309C28.3159 1.88258 28.6005 1.90882 28.7754 1.9338C29.2278 1.99842 29.7999 2.03316 30.2129 2.20876C30.4563 2.31227 30.6856 2.44619 30.9307 2.54943C31.0224 2.58809 31.0275 2.58549 31.1524 2.64792C31.1911 2.66722 31.229 2.68757 31.2663 2.70915C31.3816 2.77567 31.1719 2.60794 31.3377 2.75904C31.6489 3.04276 32.1364 3.0648 32.4442 2.75904C32.7337 2.47142 32.7567 1.94478 32.4442 1.65993C32.1649 1.40535 31.8555 1.26758 31.5088 1.12685C31.2575 1.02483 30.9486 0.858208 30.6247 0.729862C29.9655 0.468674 29.2633 0.232189 28.5457 0.103523C28.1779 0.03759 27.8015 -0.027977 27.4273 0.00970459C27.2304 0.0295334 27.0334 0.0568733 26.8384 0.0911407C26.5393 0.143715 27.0256 0.0942688 26.7197 0.107521C26.6175 0.111942 26.5156 0.114559 26.4134 0.117638C26.0687 0.127987 25.7262 0.170567 25.3823 0.193016C25.0209 0.216614 24.6594 0.200466 24.298 0.222332C23.8736 0.248001 23.4481 0.302845 23.0295 0.374794C22.8521 0.405273 22.6752 0.437721 22.4978 0.467846C22.4269 0.479893 22.3559 0.491837 22.2848 0.503178C22.2136 0.514606 22.1424 0.525459 22.0711 0.535774C22.1681 0.523357 22.1764 0.521976 22.0959 0.531673C21.3258 0.601639 20.5519 0.599857 19.7809 0.669666C19.0251 0.738094 18.2718 0.831547 17.5165 0.90461C16.7563 0.978134 15.9999 0.994629 15.238 1.02886C13.7146 1.09732 12.2537 1.59266 10.7507 1.81121C9.97735 1.92367 9.20613 2.04819 8.43355 2.16576C8.06886 2.22128 7.70396 2.27548 7.33908 2.32973C6.98251 2.38276 6.58614 2.39054 6.21731 2.51204C5.5365 2.73632 5.03714 3.19675 4.5053 3.65205C4.48508 3.66936 4.29441 3.77455 4.40807 3.7299C4.53167 3.68133 4.32603 3.76472 4.3126 3.77217C4.20569 3.83152 4.09616 3.88604 3.98873 3.94443C3.73131 4.08435 3.47676 4.25269 3.27301 4.46353C3.14883 4.59203 3.03389 4.74533 2.94689 4.90285C2.87788 5.0278 2.85043 5.17637 2.779 5.2981C2.85146 5.1746 2.87716 4.95222 2.72115 5.4485C2.71285 5.47488 2.6356 5.86632 2.63264 5.86632C2.58981 5.8662 2.76909 5.63166 2.65018 5.78596C2.59235 5.86102 2.5437 5.94434 2.49034 6.02276C2.24332 6.38585 2.15269 6.77986 2.10109 7.20821C2.09012 7.29932 2.0814 7.39061 2.07376 7.48206C2.05644 7.68939 2.10832 7.41473 2.08567 7.39127C2.12042 7.42725 1.9861 7.92743 1.97539 7.97953C1.68109 9.41287 1.23142 10.8083 0.862654 12.2238C0.768673 12.5846 0.675835 12.9461 0.57026 13.3037C0.566377 13.3169 0.53448 13.4749 0.509458 13.4993L0.568656 13.3531C0.541016 13.4081 0.51277 13.4628 0.483918 13.5172C0.370418 13.7404 0.251911 13.9711 0.190095 14.214C0.0816165 14.6401 0.147137 15.0025 0.146799 15.4246C0.146478 15.8238 0.0731017 16.2208 0.0341522 16.617C-0.0408082 17.3795 0.0279586 18.1589 0.0487779 18.9235C0.0700782 19.7051 0.0911985 20.4868 0.111466 21.2685C0.131733 22.0501 0.151146 22.8317 0.169045 23.6135C0.187175 24.4053 0.152019 25.2022 0.206677 25.9925C0.259696 26.7589 0.380107 27.5188 0.382707 28.2883C0.385378 29.075 0.38817 29.8616 0.393691 30.6483C0.40468 32.2134 0.353871 33.7768 0.314851 35.3413C0.275883 36.9035 0.215422 38.4688 0.263419 40.0315C0.269118 40.217 0.277806 40.4025 0.277414 40.5882C0.277254 40.662 0.2764 40.7358 0.273283 40.8095C0.271467 40.8525 0.21841 41.1965 0.271696 40.9215C0.194812 41.3182 0.0740121 41.7067 0.0666212 42.1148C0.0592658 42.5203 0.187617 42.9065 0.287208 43.2938C0.341117 43.5033 0.292818 43.332 0.28817 43.2852C0.299194 43.3964 0.307689 43.5079 0.31597 43.6193C0.329826 43.8057 0.340904 43.9922 0.350521 44.1788C0.390147 44.9481 0.433018 45.7174 0.508958 46.4842C0.549866 46.8972 0.601976 47.3099 0.666857 47.7199C0.695975 47.9039 0.733801 48.0862 0.764932 48.2699C0.737078 48.1056 0.771664 48.3337 0.77503 48.3742C0.785484 48.4997 0.791075 48.6254 0.792357 48.7513C0.799677 49.4673 0.645768 50.1708 0.636062 50.8851C0.626053 51.6229 0.725093 52.3572 0.747159 53.094C0.77033 53.8671 0.772878 54.6439 0.853501 55.414C0.893288 55.7942 0.971897 56.1651 1.02525 56.5424C1.07072 56.8638 1.05366 57.2169 1.06593 57.5489C1.09179 58.2475 1.22082 58.8822 1.66941 59.4363C2.01958 59.8689 2.51096 60.1617 3.0361 60.3378C3.30516 60.428 3.60429 60.5037 3.88604 60.4856C4.1272 60.47 4.37657 60.4277 4.61255 60.374C4.84067 60.322 4.83376 59.9783 4.61256 59.9222Z" fill="#F2C91E"/>
<path d="M296.387 59.9222C296.725 59.8367 297.022 59.6957 297.342 59.5737C297.613 59.4701 297.877 59.3189 298.088 59.1196C298.631 58.6066 298.594 57.9375 298.545 57.2432C298.479 56.3123 298.607 55.3866 298.56 54.4522C298.511 53.5006 298.48 52.5573 298.468 51.6046C298.461 51.1041 298.43 50.7463 298.355 50.3388C298.265 49.8486 298.177 49.355 298.139 48.8578C298.101 48.3764 298.161 47.9118 298.203 47.4334C298.244 46.9684 298.259 46.5015 298.264 46.0349C298.276 45.0649 298.249 44.0914 298.361 43.1254C298.393 42.8528 298.445 42.6007 298.517 42.3378C298.53 42.2907 298.542 42.2432 298.555 42.196C298.563 42.1665 298.575 42.0172 298.567 42.1593C298.558 42.3124 298.56 42.1352 298.559 42.1148C298.549 41.979 298.541 42.0319 298.567 42.1307C298.435 41.6265 298.342 41.11 298.338 40.5882C298.324 38.6271 298.379 36.6653 298.428 34.7049C298.478 32.7026 298.503 30.7042 298.482 28.7012C298.472 27.7345 298.595 26.7876 298.636 25.824C298.678 24.8358 298.622 23.8394 298.597 22.8513C298.571 21.8547 298.547 20.8581 298.525 19.8614C298.513 19.3534 298.501 18.8453 298.49 18.3372C298.479 17.8548 298.535 17.3085 298.432 16.8354C298.481 17.0582 298.43 16.8381 298.414 16.7405C298.396 16.6334 298.377 16.5266 298.359 16.4195C298.308 16.1083 298.258 15.7944 298.234 15.4797C298.22 15.2834 298.21 15.0578 298.235 14.8626C298.258 14.6904 298.311 15.0654 298.247 14.9158C298.24 14.9001 298.2 14.7979 298.205 14.7839C298.198 14.8027 298.319 15.008 298.242 14.8909C298.209 14.8405 298.184 14.7806 298.157 14.7269C297.71 13.8357 297.549 12.7983 297.29 11.8421C297.163 11.3748 297.009 10.916 296.879 10.4501C296.757 10.0146 296.688 9.5664 296.574 9.12897C296.444 8.63193 296.344 8.12604 296.283 7.61568C296.272 7.52586 296.26 7.43498 296.256 7.3446C296.248 7.19285 296.275 7.47115 296.275 7.47115C296.259 7.41169 296.212 7.32573 296.294 7.46639C296.4 7.64643 296.262 7.42545 296.235 7.38472C296.189 7.31594 296.137 7.25179 296.098 7.1787C295.888 6.78396 295.855 6.33769 295.953 5.90715C295.994 5.72465 296.079 5.55912 296.113 5.37366V5.95671C296.111 5.93818 296.083 5.73236 296.069 5.73378C295.938 5.74701 296.229 5.92948 296.095 5.7989C296.008 5.7143 296.126 5.76853 296.102 5.79316C296.09 5.80568 296.188 5.88039 296.1 5.79369C296.076 5.76975 296.053 5.74427 296.028 5.72031C295.962 5.65528 295.891 5.5961 295.818 5.53791C295.544 5.31706 295.272 5.10107 295.015 4.85976C294.873 4.72721 294.732 4.59545 294.585 4.46923C294.504 4.40014 294.589 4.46988 294.604 4.48067C294.569 4.45523 294.534 4.43082 294.498 4.40713C294.462 4.38344 294.425 4.36023 294.388 4.33861C294.39 4.33983 294.178 4.23489 294.263 4.26963C294.35 4.30503 294.21 4.2539 294.205 4.25259C294.159 4.24014 294.115 4.22709 294.069 4.21648C293.946 4.18806 293.82 4.17117 293.695 4.15285C293.516 4.12662 293.23 4.09298 293.013 4.06603C291.935 3.93204 290.969 3.79957 289.939 3.67451C289.406 3.60991 288.873 3.54316 288.345 3.4465C287.861 3.35781 287.385 3.23058 286.9 3.14561C286.781 3.1247 286.661 3.10427 286.541 3.08858C286.688 3.10777 286.437 3.07936 286.395 3.07542C286.149 3.05198 285.901 3.03909 285.653 3.03704C285.138 3.03274 284.624 3.03727 284.109 3.0101C283.087 2.95623 282.07 2.84095 281.049 2.78444C280.534 2.75596 280.021 2.75484 279.506 2.75325C278.952 2.75153 278.403 2.67266 277.856 2.59507C277.624 2.5621 277.391 2.53001 277.159 2.49442C277.052 2.478 276.945 2.4601 276.838 2.44349C276.861 2.44693 276.998 2.46068 276.865 2.44725C276.774 2.43809 276.684 2.42684 276.592 2.41921C276.064 2.37513 275.549 2.35965 275.027 2.24859C274.517 2.14021 274.008 2.05908 273.503 1.92826C273.46 1.91688 273.19 1.85986 273.329 1.87796C273.191 1.86007 273.049 1.86732 272.912 1.87309C272.684 1.88257 272.4 1.90882 272.225 1.9338C271.772 1.99842 271.2 2.03315 270.787 2.20876C270.544 2.31226 270.314 2.44619 270.069 2.54943C269.978 2.58809 269.972 2.58548 269.848 2.64791C269.809 2.66722 269.771 2.68757 269.734 2.70915C269.618 2.77567 269.828 2.60794 269.662 2.75903C269.351 3.04276 268.864 3.0648 268.556 2.75903C268.266 2.47142 268.243 1.94478 268.556 1.65992C268.835 1.40535 269.145 1.26757 269.491 1.12685C269.742 1.02482 270.051 0.858208 270.375 0.729862C271.035 0.468674 271.737 0.232185 272.454 0.103523C272.822 0.0375862 273.198 -0.0279808 273.573 0.00970078C273.77 0.0295296 273.967 0.0568733 274.162 0.0911369C274.461 0.143715 273.974 0.094265 274.28 0.107517C274.382 0.111938 274.484 0.114555 274.587 0.117634C274.931 0.127983 275.274 0.170563 275.618 0.193012C275.979 0.216614 276.341 0.200462 276.702 0.222328C277.126 0.247997 277.552 0.302841 277.971 0.37479C278.148 0.40527 278.325 0.437717 278.502 0.467846C278.573 0.479893 278.644 0.491833 278.715 0.503174C278.786 0.514603 278.858 0.525455 278.929 0.53577C278.832 0.52335 278.824 0.521973 278.904 0.531666C279.674 0.601635 280.448 0.599854 281.219 0.669662C281.975 0.738091 282.728 0.831543 283.484 0.904606C284.244 0.97813 285 0.994625 285.762 1.02885C287.285 1.09732 288.746 1.59266 290.249 1.81121C291.023 1.92367 291.794 2.04818 292.566 2.16576C292.931 2.22127 293.296 2.27547 293.661 2.32973C294.017 2.38275 294.414 2.39054 294.783 2.51204C295.463 2.73632 295.963 3.19674 296.495 3.65205C296.515 3.66935 296.706 3.77454 296.592 3.72989C296.468 3.68133 296.674 3.76471 296.687 3.77216C296.794 3.83152 296.904 3.88603 297.011 3.94443C297.269 4.08435 297.523 4.25269 297.727 4.46353C297.851 4.59203 297.966 4.74533 298.053 4.90285C298.122 5.0278 298.15 5.17636 298.221 5.2981C298.149 5.1746 298.123 4.95221 298.279 5.44849C298.287 5.47487 298.364 5.86632 298.367 5.86632C298.41 5.8662 298.231 5.63166 298.35 5.78595C298.408 5.86102 298.456 5.94433 298.51 6.02275C298.757 6.38584 298.847 6.77986 298.899 7.20821C298.91 7.29932 298.919 7.39061 298.926 7.48206C298.944 7.68939 298.892 7.41473 298.914 7.39127C298.88 7.42725 299.014 7.92742 299.025 7.97952C299.319 9.41287 299.769 10.8083 300.137 12.2238C300.231 12.5845 300.324 12.9461 300.43 13.3037C300.434 13.3169 300.466 13.4749 300.491 13.4993L300.431 13.3531C300.459 13.4081 300.487 13.4628 300.516 13.5172C300.63 13.7404 300.748 13.9711 300.81 14.214C300.918 14.6401 300.853 15.0025 300.853 15.4246C300.854 15.8238 300.927 16.2208 300.966 16.617C301.041 17.3795 300.972 18.1589 300.951 18.9235C300.93 19.7051 300.909 20.4868 300.889 21.2685C300.868 22.0501 300.849 22.8317 300.831 23.6134C300.813 24.4053 300.848 25.2022 300.793 25.9925C300.74 26.7589 300.62 27.5188 300.617 28.2883C300.615 29.075 300.612 29.8616 300.606 30.6483C300.595 32.2134 300.646 33.7768 300.685 35.3413C300.724 36.9035 300.785 38.4688 300.737 40.0315C300.731 40.217 300.722 40.4025 300.723 40.5882C300.723 40.662 300.724 40.7358 300.727 40.8095C300.729 40.8525 300.782 41.1965 300.728 40.9215C300.805 41.3182 300.926 41.7067 300.933 42.1148C300.941 42.5203 300.812 42.9065 300.713 43.2938C300.659 43.5033 300.707 43.332 300.712 43.2852C300.701 43.3964 300.692 43.5079 300.684 43.6193C300.67 43.8057 300.659 43.9922 300.649 44.1788C300.61 44.9481 300.567 45.7174 300.491 46.4842C300.45 46.8972 300.398 47.3099 300.333 47.7199C300.304 47.9039 300.266 48.0862 300.235 48.2699C300.263 48.1056 300.228 48.3337 300.225 48.3742C300.215 48.4997 300.209 48.6254 300.208 48.7513C300.2 49.4673 300.354 50.1708 300.364 50.8851C300.374 51.6229 300.275 52.3572 300.253 53.094C300.23 53.8671 300.227 54.6439 300.146 55.414C300.107 55.7942 300.028 56.1651 299.975 56.5424C299.929 56.8638 299.946 57.2169 299.934 57.5489C299.908 58.2475 299.779 58.8822 299.331 59.4363C298.98 59.8689 298.489 60.1617 297.964 60.3378C297.695 60.428 297.396 60.5037 297.114 60.4856C296.873 60.47 296.623 60.4277 296.387 60.374C296.159 60.322 296.166 59.9783 296.387 59.9222Z" fill="#F2C91E"/>
<path d="M4.61256 267.648C4.27525 267.734 3.9777 267.875 3.65802 267.997C3.38682 268.1 3.12315 268.251 2.91209 268.451C2.36909 268.964 2.40562 269.633 2.45486 270.327C2.5209 271.258 2.39301 272.184 2.44042 273.118C2.4887 274.07 2.51992 275.013 2.53212 275.966C2.53853 276.466 2.57012 276.824 2.64517 277.232C2.73545 277.722 2.82256 278.215 2.86138 278.713C2.89896 279.194 2.83903 279.658 2.79714 280.137C2.75641 280.602 2.74131 281.069 2.73559 281.535C2.72372 282.505 2.751 283.479 2.63878 284.445C2.60711 284.718 2.55493 284.97 2.48271 285.232C2.46975 285.28 2.45803 285.327 2.44509 285.374C2.43698 285.404 2.42494 285.553 2.43326 285.411C2.44224 285.258 2.43953 285.435 2.44106 285.456C2.4513 285.591 2.45894 285.538 2.43315 285.44C2.56471 285.944 2.65751 286.46 2.6615 286.982C2.67648 288.943 2.62066 290.905 2.57176 292.865C2.5218 294.868 2.49721 296.866 2.51817 298.869C2.52829 299.836 2.40515 300.783 2.36413 301.746C2.32207 302.734 2.37769 303.731 2.40321 304.719C2.42895 305.716 2.45258 306.712 2.47548 307.709C2.48715 308.217 2.49863 308.725 2.5101 309.233C2.521 309.716 2.4646 310.262 2.56755 310.735C2.51906 310.512 2.56994 310.732 2.58615 310.83C2.60392 310.937 2.623 311.044 2.64061 311.151C2.69178 311.462 2.74227 311.776 2.76551 312.091C2.78002 312.287 2.7904 312.512 2.7647 312.708C2.74202 312.88 2.6886 312.505 2.7532 312.654C2.76 312.67 2.80017 312.772 2.79523 312.786C2.80186 312.768 2.68146 312.562 2.75801 312.679C2.7909 312.73 2.81589 312.79 2.84286 312.843C3.28961 313.735 3.45107 314.772 3.71 315.728C3.83657 316.196 3.9907 316.654 4.12127 317.12C4.24336 317.556 4.31182 318.004 4.42623 318.441C4.55624 318.938 4.65612 319.444 4.71704 319.955C4.72776 320.044 4.73984 320.135 4.74433 320.226C4.75186 320.377 4.72577 320.1 4.72547 320.099C4.74071 320.159 4.78798 320.245 4.70568 320.104C4.60035 319.924 4.73802 320.145 4.765 320.186C4.81058 320.254 4.86267 320.319 4.90155 320.392C5.11151 320.786 5.14465 321.233 5.04712 321.663C5.00579 321.846 4.92059 322.011 4.88663 322.197L4.88663 321.614C4.88923 321.632 4.91713 321.838 4.93107 321.837C5.0621 321.823 4.77101 321.641 4.90509 321.771C4.99197 321.856 4.87351 321.802 4.89774 321.777C4.91006 321.765 4.81162 321.69 4.9 321.777C4.9244 321.801 4.94723 321.826 4.97165 321.85C5.03793 321.915 5.10942 321.974 5.18177 322.032C5.45641 322.253 5.72795 322.469 5.98528 322.711C6.12663 322.843 6.268 322.975 6.41516 323.101C6.4957 323.17 6.41069 323.1 6.39595 323.09C6.43073 323.115 6.46622 323.139 6.50221 323.163C6.53821 323.187 6.57454 323.21 6.61183 323.232C6.60971 323.23 6.82235 323.335 6.737 323.301C6.65002 323.265 6.79023 323.316 6.79502 323.318C6.84051 323.33 6.88537 323.343 6.93135 323.354C7.05442 323.382 7.18017 323.399 7.30511 323.417C7.4842 323.444 7.77024 323.477 7.98709 323.504C9.06514 323.638 10.0307 323.771 11.0613 323.896C11.5938 323.96 12.127 324.027 12.6547 324.124C13.1388 324.213 13.6146 324.34 14.0996 324.425C14.219 324.446 14.3387 324.466 14.4589 324.482C14.3118 324.463 14.5632 324.491 14.6045 324.495C14.8512 324.518 15.099 324.531 15.3468 324.533C15.8624 324.538 16.3755 324.533 16.8908 324.56C17.9126 324.614 18.9298 324.729 19.9514 324.786C20.4663 324.814 20.9789 324.815 21.4943 324.817C22.0477 324.819 22.5973 324.898 23.144 324.975C23.3763 325.008 23.609 325.04 23.8409 325.076C23.9479 325.092 24.0546 325.11 24.1616 325.127C24.1394 325.123 24.0015 325.11 24.1347 325.123C24.2257 325.132 24.3163 325.143 24.4075 325.151C24.9361 325.195 25.4509 325.211 25.9731 325.322C26.4828 325.43 26.9923 325.511 27.4966 325.642C27.5405 325.653 27.8104 325.71 27.6712 325.692C27.8087 325.71 27.9505 325.703 28.0885 325.697C28.3159 325.688 28.6005 325.662 28.7754 325.637C29.2278 325.572 29.7999 325.537 30.2129 325.362C30.4563 325.258 30.6856 325.124 30.9307 325.021C31.0224 324.982 31.0275 324.985 31.1524 324.922C31.1911 324.903 31.229 324.883 31.2663 324.861C31.3816 324.795 31.1719 324.962 31.3377 324.811C31.6489 324.528 32.1364 324.506 32.4442 324.811C32.7337 325.099 32.7566 325.626 32.4442 325.91C32.1649 326.165 31.8554 326.303 31.5088 326.443C31.2575 326.545 30.9486 326.712 30.6247 326.84C29.9654 327.102 29.2633 327.338 28.5457 327.467C28.1779 327.533 27.8015 327.598 27.4273 327.561C27.2304 327.541 27.0334 327.513 26.8384 327.479C26.5393 327.427 27.0256 327.476 26.7197 327.463C26.6175 327.458 26.5156 327.456 26.4134 327.453C26.0687 327.442 25.7262 327.4 25.3823 327.377C25.0209 327.354 24.6594 327.37 24.298 327.348C23.8736 327.322 23.4481 327.267 23.0294 327.196C22.8521 327.165 22.6752 327.133 22.4978 327.102C22.4268 327.09 22.3559 327.078 22.2848 327.067C22.2136 327.056 22.1424 327.045 22.071 327.035C22.1681 327.047 22.1764 327.048 22.0959 327.039C21.3258 326.969 20.5519 326.97 19.7809 326.901C19.0251 326.832 18.2718 326.739 17.5165 326.666C16.7563 326.592 15.9999 326.576 15.238 326.541C13.7146 326.473 12.2537 325.978 10.7507 325.759C9.97734 325.647 9.20612 325.522 8.43354 325.405C8.06885 325.349 7.70395 325.295 7.33907 325.241C6.9825 325.188 6.58613 325.18 6.2173 325.058C5.53649 324.834 5.03713 324.374 4.50529 323.918C4.48507 323.901 4.2944 323.796 4.40806 323.84C4.53166 323.889 4.32602 323.806 4.31259 323.798C4.20568 323.739 4.09615 323.684 3.98872 323.626C3.7313 323.486 3.47675 323.318 3.273 323.107C3.14882 322.978 3.03388 322.825 2.94688 322.667C2.87787 322.543 2.85042 322.394 2.77899 322.272C2.85145 322.396 2.87715 322.618 2.72114 322.122C2.71284 322.095 2.63559 321.704 2.63263 321.704C2.5898 321.704 2.76909 321.939 2.65017 321.784C2.59234 321.709 2.54369 321.626 2.49033 321.548C2.24331 321.184 2.15268 320.79 2.10108 320.362C2.09011 320.271 2.08139 320.18 2.07375 320.088C2.05644 319.881 2.10831 320.156 2.08566 320.179C2.12041 320.143 1.98609 319.643 1.97538 319.591C1.68108 318.157 1.23141 316.762 0.862646 315.347C0.768665 314.986 0.675826 314.624 0.570251 314.267C0.566369 314.253 0.534472 314.095 0.509449 314.071L0.568648 314.217C0.541008 314.162 0.512762 314.107 0.48391 314.053C0.37041 313.83 0.251903 313.599 0.190086 313.356C0.0816085 312.93 0.147129 312.568 0.146791 312.146C0.146471 311.747 0.073094 311.35 0.0341446 310.953C-0.0408157 310.191 0.0279512 309.411 0.0487707 308.647C0.070071 307.865 0.0911915 307.084 0.111459 306.302C0.131726 305.52 0.151139 304.739 0.169038 303.957C0.187168 303.165 0.152013 302.368 0.206671 301.578C0.25969 300.811 0.380101 300.052 0.382701 299.282C0.385373 298.495 0.388165 297.709 0.393686 296.922C0.404675 295.357 0.353867 293.794 0.314846 292.229C0.275879 290.667 0.215418 289.102 0.263415 287.539C0.269114 287.353 0.277802 287.168 0.27741 286.982C0.27725 286.908 0.276397 286.835 0.27328 286.761C0.271463 286.718 0.218407 286.374 0.271693 286.649C0.194809 286.252 0.0740089 285.864 0.066618 285.455C0.0592627 285.05 0.187614 284.664 0.287205 284.277C0.341114 284.067 0.292815 284.238 0.288167 284.285C0.299191 284.174 0.307686 284.062 0.315967 283.951C0.329823 283.765 0.340901 283.578 0.350518 283.392C0.390144 282.622 0.433015 281.853 0.508955 281.086C0.549864 280.673 0.601974 280.26 0.666854 279.85C0.695973 279.666 0.733799 279.484 0.76493 279.3C0.737076 279.465 0.771662 279.237 0.775028 279.196C0.785482 279.071 0.791073 278.945 0.792355 278.819C0.799675 278.103 0.645766 277.399 0.63606 276.685C0.626051 275.947 0.725092 275.213 0.747158 274.476C0.770328 273.703 0.772876 272.926 0.8535 272.156C0.893287 271.776 0.971896 271.405 1.02525 271.028C1.07072 270.707 1.05366 270.353 1.06593 270.021C1.09179 269.323 1.22082 268.688 1.66941 268.134C2.01958 267.701 2.51096 267.409 3.0361 267.233C3.30516 267.142 3.60429 267.067 3.88604 267.085C4.1272 267.1 4.37657 267.143 4.61255 267.196C4.84067 267.248 4.83376 267.592 4.61256 267.648Z" fill="#F2C91E"/>
<path d="M296.387 267.648C296.725 267.734 297.022 267.875 297.342 267.997C297.613 268.1 297.877 268.251 298.088 268.451C298.631 268.964 298.594 269.633 298.545 270.327C298.479 271.258 298.607 272.184 298.56 273.118C298.511 274.07 298.48 275.013 298.468 275.966C298.461 276.466 298.43 276.824 298.355 277.232C298.265 277.722 298.177 278.215 298.139 278.713C298.101 279.194 298.161 279.658 298.203 280.137C298.244 280.602 298.259 281.069 298.264 281.535C298.276 282.505 298.249 283.479 298.361 284.445C298.393 284.718 298.445 284.97 298.517 285.232C298.53 285.28 298.542 285.327 298.555 285.374C298.563 285.404 298.575 285.553 298.567 285.411C298.558 285.258 298.56 285.435 298.559 285.456C298.549 285.591 298.541 285.538 298.567 285.44C298.435 285.944 298.342 286.46 298.338 286.982C298.324 288.943 298.379 290.905 298.428 292.865C298.478 294.868 298.503 296.866 298.482 298.869C298.472 299.836 298.595 300.783 298.636 301.746C298.678 302.734 298.622 303.731 298.597 304.719C298.571 305.716 298.547 306.712 298.525 307.709C298.513 308.217 298.501 308.725 298.49 309.233C298.479 309.716 298.535 310.262 298.432 310.735C298.481 310.512 298.43 310.732 298.414 310.83C298.396 310.937 298.377 311.044 298.359 311.151C298.308 311.462 298.258 311.776 298.234 312.091C298.22 312.287 298.21 312.512 298.235 312.708C298.258 312.88 298.311 312.505 298.247 312.654C298.24 312.67 298.2 312.772 298.205 312.786C298.198 312.768 298.319 312.562 298.242 312.679C298.209 312.73 298.184 312.79 298.157 312.843C297.71 313.735 297.549 314.772 297.29 315.728C297.163 316.196 297.009 316.654 296.879 317.12C296.757 317.556 296.688 318.004 296.574 318.441C296.444 318.938 296.344 319.444 296.283 319.955C296.272 320.044 296.26 320.135 296.256 320.226C296.248 320.377 296.274 320.1 296.275 320.099C296.259 320.159 296.212 320.245 296.294 320.104C296.4 319.924 296.262 320.145 296.235 320.186C296.189 320.254 296.137 320.319 296.098 320.392C295.888 320.786 295.855 321.233 295.953 321.663C295.994 321.846 296.079 322.011 296.113 322.197L296.113 321.614C296.111 321.632 296.083 321.838 296.069 321.837C295.938 321.823 296.229 321.641 296.095 321.771C296.008 321.856 296.126 321.802 296.102 321.777C296.09 321.765 296.188 321.69 296.1 321.777C296.076 321.801 296.053 321.826 296.028 321.85C295.962 321.915 295.891 321.974 295.818 322.032C295.544 322.253 295.272 322.469 295.015 322.711C294.873 322.843 294.732 322.975 294.585 323.101C294.504 323.17 294.589 323.1 294.604 323.09C294.569 323.115 294.534 323.139 294.498 323.163C294.462 323.187 294.425 323.21 294.388 323.232C294.39 323.23 294.178 323.335 294.263 323.301C294.35 323.265 294.21 323.316 294.205 323.318C294.159 323.33 294.115 323.343 294.069 323.354C293.946 323.382 293.82 323.399 293.695 323.417C293.516 323.444 293.23 323.477 293.013 323.504C291.935 323.638 290.969 323.771 289.939 323.896C289.406 323.96 288.873 324.027 288.345 324.124C287.861 324.212 287.385 324.34 286.9 324.425C286.781 324.446 286.661 324.466 286.541 324.482C286.688 324.463 286.437 324.491 286.395 324.495C286.149 324.518 285.901 324.531 285.653 324.533C285.138 324.538 284.624 324.533 284.109 324.56C283.087 324.614 282.07 324.729 281.049 324.786C280.534 324.814 280.021 324.815 279.506 324.817C278.952 324.819 278.403 324.898 277.856 324.975C277.624 325.008 277.391 325.04 277.159 325.076C277.052 325.092 276.945 325.11 276.838 325.127C276.861 325.123 276.998 325.11 276.865 325.123C276.774 325.132 276.684 325.143 276.592 325.151C276.064 325.195 275.549 325.211 275.027 325.322C274.517 325.43 274.008 325.511 273.503 325.642C273.46 325.653 273.19 325.71 273.329 325.692C273.191 325.71 273.049 325.703 272.912 325.697C272.684 325.688 272.4 325.661 272.225 325.637C271.772 325.572 271.2 325.537 270.787 325.362C270.544 325.258 270.314 325.124 270.069 325.021C269.978 324.982 269.972 324.985 269.848 324.922C269.809 324.903 269.771 324.883 269.734 324.861C269.618 324.795 269.828 324.962 269.662 324.811C269.351 324.528 268.864 324.506 268.556 324.811C268.266 325.099 268.243 325.626 268.556 325.91C268.835 326.165 269.145 326.303 269.491 326.443C269.742 326.545 270.051 326.712 270.375 326.84C271.035 327.102 271.737 327.338 272.454 327.467C272.822 327.533 273.198 327.598 273.573 327.561C273.77 327.541 273.967 327.513 274.162 327.479C274.461 327.427 273.974 327.476 274.28 327.463C274.382 327.458 274.484 327.456 274.587 327.453C274.931 327.442 275.274 327.4 275.618 327.377C275.979 327.354 276.341 327.37 276.702 327.348C277.126 327.322 277.552 327.267 277.971 327.196C278.148 327.165 278.325 327.133 278.502 327.102C278.573 327.09 278.644 327.078 278.715 327.067C278.786 327.056 278.858 327.045 278.929 327.035C278.832 327.047 278.824 327.048 278.904 327.039C279.674 326.969 280.448 326.97 281.219 326.901C281.975 326.832 282.728 326.739 283.484 326.666C284.244 326.592 285 326.576 285.762 326.541C287.285 326.473 288.746 325.978 290.249 325.759C291.023 325.647 291.794 325.522 292.566 325.405C292.931 325.349 293.296 325.295 293.661 325.241C294.017 325.188 294.414 325.18 294.783 325.058C295.463 324.834 295.963 324.374 296.495 323.918C296.515 323.901 296.706 323.796 296.592 323.84C296.468 323.889 296.674 323.806 296.687 323.798C296.794 323.739 296.904 323.684 297.011 323.626C297.269 323.486 297.523 323.318 297.727 323.107C297.851 322.978 297.966 322.825 298.053 322.667C298.122 322.543 298.15 322.394 298.221 322.272C298.149 322.396 298.123 322.618 298.279 322.122C298.287 322.095 298.364 321.704 298.367 321.704C298.41 321.704 298.231 321.939 298.35 321.784C298.408 321.709 298.456 321.626 298.51 321.548C298.757 321.184 298.847 320.79 298.899 320.362C298.91 320.271 298.919 320.18 298.926 320.088C298.944 319.881 298.892 320.156 298.914 320.179C298.88 320.143 299.014 319.643 299.025 319.591C299.319 318.157 299.769 316.762 300.137 315.347C300.231 314.986 300.324 314.624 300.43 314.267C300.434 314.253 300.466 314.095 300.491 314.071L300.431 314.217C300.459 314.162 300.487 314.107 300.516 314.053C300.63 313.83 300.748 313.599 300.81 313.356C300.918 312.93 300.853 312.568 300.853 312.146C300.854 311.747 300.927 311.35 300.966 310.953C301.041 310.191 300.972 309.411 300.951 308.647C300.93 307.865 300.909 307.084 300.889 306.302C300.868 305.52 300.849 304.739 300.831 303.957C300.813 303.165 300.848 302.368 300.793 301.578C300.74 300.811 300.62 300.052 300.617 299.282C300.615 298.495 300.612 297.709 300.606 296.922C300.595 295.357 300.646 293.794 300.685 292.229C300.724 290.667 300.785 289.102 300.737 287.539C300.731 287.353 300.722 287.168 300.723 286.982C300.723 286.908 300.724 286.835 300.727 286.761C300.729 286.718 300.782 286.374 300.728 286.649C300.805 286.252 300.926 285.864 300.933 285.455C300.941 285.05 300.812 284.664 300.713 284.277C300.659 284.067 300.707 284.238 300.712 284.285C300.701 284.174 300.692 284.062 300.684 283.951C300.67 283.765 300.659 283.578 300.649 283.392C300.61 282.622 300.567 281.853 300.491 281.086C300.45 280.673 300.398 280.26 300.333 279.85C300.304 279.666 300.266 279.484 300.235 279.3C300.263 279.465 300.228 279.237 300.225 279.196C300.215 279.071 300.209 278.945 300.208 278.819C300.2 278.103 300.354 277.399 300.364 276.685C300.374 275.947 300.275 275.213 300.253 274.476C300.23 273.703 300.227 272.926 300.146 272.156C300.107 271.776 300.028 271.405 299.975 271.028C299.929 270.707 299.946 270.353 299.934 270.021C299.908 269.323 299.779 268.688 299.331 268.134C298.98 267.701 298.489 267.409 297.964 267.233C297.695 267.142 297.396 267.067 297.114 267.085C296.873 267.1 296.623 267.143 296.387 267.196C296.159 267.248 296.166 267.592 296.387 267.648Z" fill="#F2C91E"/>
</svg>
