<svg width="67" height="67" viewBox="0 0 67 68" fill="none" xmlns="http://www.w3.org/2000/svg">
<path d="M67 33.5C67 52.0015 51.2121 67 31.7368 67C12.2615 67 0 59.0542 0 40.5526C0 22.0511 12.2615 0 31.7368 0C51.2121 0 67 14.9985 67 33.5Z" fill="#18181B"/>
<path fill-rule="evenodd" clip-rule="evenodd" d="M36.694 51.6394C35.1136 52.0982 33.4173 52.1392 31.8063 51.6654C30.3452 51.2356 28.8449 50.2899 27.7696 49.0384C26.8143 47.9266 26.1956 46.5756 26.2199 45.1334C26.2226 44.9687 26.2814 44.8313 26.3718 44.7246C26.4691 44.6097 26.605 44.5308 26.7506 44.4965C26.9004 44.4613 27.0586 44.4738 27.1934 44.5352C27.3155 44.5907 27.42 44.6851 27.4854 44.823C27.6506 45.0406 27.8153 45.255 27.9805 45.4634C29.3093 47.1079 30.5962 48.3369 32.5943 48.7777C33.6785 49.0169 34.7612 48.9108 35.7547 48.5458C36.8182 48.1552 37.7795 47.4682 38.5328 46.5892C38.8733 46.192 39.2752 46.0298 39.6682 46.0271C40.1136 46.024 40.5538 46.2314 40.8855 46.5629C41.2115 46.8888 41.4298 47.3316 41.4495 47.7949C41.4669 48.2014 41.3346 48.6261 40.9825 49.005C39.8229 50.2531 38.3201 51.1674 36.694 51.6394ZM36.6452 31.0426C38.2652 32.0295 40.7336 34.3309 38.9909 36.7776C36.9395 38.935 33.9859 36.4614 32.5305 35.3427C31.1809 34.4757 29.6646 36.7055 30.9167 37.7179C41.4339 45.522 45.702 31.3006 37.4646 29.8822C36.5576 29.7259 36.2208 30.7372 36.6452 31.0426ZM21.4908 26.6999C20.9701 26.3661 20.3576 26.2516 19.6788 26.5611C19.1483 26.8029 18.2179 27.6089 17.5704 28.6684C17.1274 29.3933 16.8133 30.2436 16.8787 31.1294C16.8939 31.3351 16.8181 31.4868 16.6984 31.5989C16.604 31.6875 16.4675 31.7526 16.3072 31.7729C16.1711 31.7902 16.0188 31.7746 15.895 31.7359C15.6594 31.6622 15.5347 31.509 15.4877 31.384C15.0343 30.1773 15.2296 28.8307 15.7377 27.6158C16.4234 25.9763 17.6687 24.6029 18.4846 24.1602C19.8807 23.4022 21.5277 23.3673 22.9258 24.1395C24.1159 24.7967 24.8601 25.8577 25.6002 26.9392C25.7575 27.1691 25.9137 27.3974 26.075 27.6216C26.3985 28.0708 26.4307 28.5164 26.3054 28.8985C26.1667 29.3218 25.8129 29.679 25.3704 29.866C24.9615 30.0387 24.4869 30.0631 24.0669 29.8855C23.7121 29.7356 23.3865 29.4432 23.1805 28.9471C22.8335 28.1117 22.2554 27.19 21.4908 26.6999ZM47.9353 28.5585C47.5787 28.7447 47.2997 28.8009 46.9042 28.6821C46.6854 28.6163 46.4692 28.49 46.2999 28.3204C46.1322 28.1523 46.0112 27.9432 45.9641 27.7112C45.8484 27.1388 45.5359 26.6029 45.0906 26.2536C44.71 25.9551 44.2295 25.7968 43.6966 25.8861C43.1216 25.9823 42.5737 26.3519 42.1964 26.7877C42.0703 26.9335 41.9714 27.0991 41.872 27.2636C41.6861 27.5713 41.5054 27.8572 41.249 28.0831C41.1518 28.1691 41.0053 28.2286 40.8635 28.2286C40.8058 28.2286 40.7473 28.2192 40.6916 28.2018C40.1192 27.626 40.0092 27.1893 40.0276 26.7561C40.047 26.3018 40.2257 25.8418 40.5144 25.4127C41.1919 24.406 42.478 23.5806 43.346 23.3936C44.5346 23.1376 45.715 23.4449 46.6614 24.1103C47.6352 24.7949 48.3568 25.8578 48.5818 27.0557C48.6359 27.3442 48.6129 27.6556 48.5033 27.9256C48.3962 28.1895 48.2095 28.4154 47.9353 28.5585ZM24.1122 15.9668C23.3989 16.6633 22.5546 16.7712 21.7005 16.8672C21.2259 16.921 20.8471 16.9644 20.4743 17.0487C19.4496 17.2805 18.4367 17.6297 17.5127 18.1325C16.5467 18.6582 15.494 19.2921 14.7367 20.1043C14.5566 20.2975 14.3868 20.5003 14.2168 20.7035C14.0618 20.8889 13.9125 21.0673 13.7551 21.2393C13.5744 21.4369 13.4028 21.644 13.2321 21.8505C13.1265 22.0248 13.1056 22.0677 13.0844 22.1123C13.0524 22.1793 13.0152 22.2544 12.9727 22.3349C12.9145 22.4451 12.8463 22.5658 12.7749 22.6752C12.6561 22.8752 12.5924 22.9303 12.5373 22.955C12.4459 22.9958 12.3592 23.0159 12.2751 23.005C12.1963 22.9948 12.122 22.9568 12.0486 22.8947C11.6824 22.5846 11.5744 22.0756 11.5855 21.5354C11.6023 20.7156 11.904 19.8079 12.1821 19.2499C12.8288 17.9535 13.7256 16.6057 14.804 15.638C16.0346 14.5335 17.3809 13.6973 18.9272 13.1211C19.8882 12.7629 21.0008 12.4341 22.0478 12.4757C22.8013 12.5056 23.5208 12.7301 24.1149 13.2907C24.4797 13.6349 24.6548 14.1245 24.6548 14.6137C24.6548 15.1127 24.4729 15.6146 24.1122 15.9668ZM49.386 22.3452C49.3407 22.4197 49.2779 22.4711 49.208 22.5019C49.1348 22.5343 49.053 22.5436 48.9746 22.5303C48.8965 22.5171 48.8222 22.4816 48.7633 22.4274C48.7069 22.3754 48.6639 22.3065 48.6446 22.222C48.1711 20.1373 47.2515 18.5863 45.2887 17.5861C44.3232 17.094 43.213 16.7814 42.162 16.5321C41.8566 16.4597 41.5339 16.4128 41.2089 16.3652C40.1903 16.2161 39.1644 16.0454 38.5004 15.2203C38.1002 14.7232 37.9323 14.0875 38.0273 13.5061C38.1167 12.9588 38.4358 12.4568 39.016 12.1561C40.4603 11.4076 42.2552 12.142 43.7137 12.7677C43.8219 12.8141 43.9281 12.8596 44.032 12.9036C45.4584 13.507 46.7593 14.3035 47.8287 15.4426C48.6772 16.3463 49.4633 17.6823 49.7799 19.0566C50.0433 20.2 49.9814 21.3672 49.386 22.3452Z" fill="#FAFAFA"/>
</svg>
