<svg width="55" height="71" viewBox="0 0 55 71" fill="none" xmlns="http://www.w3.org/2000/svg">
<path d="M0.424484 10.8591C0.195974 5.01338 5.01235 0.220761 10.8569 0.478173L18.6364 0.820809L43.8033 0.230601C49.2601 0.10263 53.8115 4.37395 54.0298 9.82785L55 34.0636L53.9907 60.492C53.7909 65.7232 49.5904 69.9149 44.3589 70.1039L19.5455 71L9.7451 70.3827C4.32586 70.0413 0.169304 65.4377 0.381401 60.0118L1.36364 34.8844L0.424484 10.8591Z" fill="#18181B"/>
<path fill-rule="evenodd" clip-rule="evenodd" d="M37.8027 53.5335C39.2481 53.1959 40.3833 54.4226 40.0993 55.8353C39.7985 57.3307 38.1942 57.8432 36.849 57.7962C35.3238 57.7433 33.7998 57.4276 32.267 57.3642C30.6925 57.2991 29.1119 57.2871 27.5364 57.3298C26.0792 57.3692 24.5835 57.6266 23.1376 57.3955C22.5746 57.3055 22.6279 56.5605 22.9942 56.2958C24.0819 55.5096 25.4916 55.1891 26.7737 54.8593C28.0809 54.5228 29.4172 54.2652 30.7579 54.1079C32.117 53.9486 33.4874 53.8691 34.8554 53.8535C35.4782 53.8464 36.2418 53.9851 36.849 53.8728C37.1584 53.8152 37.4736 53.6105 37.8027 53.5335ZM33.6301 34.109C35.357 35.1611 37.9884 37.6144 36.1306 40.2227C33.9438 42.5225 30.7952 39.8856 29.2436 38.693C27.8049 37.7688 26.1885 40.1459 27.5233 41.2251C38.7349 49.5445 43.2849 34.3841 34.5035 32.872C33.5367 32.7053 33.1776 33.7835 33.6301 34.109ZM21.1077 26.2525C23.4178 25.8674 23.8219 29.1681 21.5324 29.3987C21.0519 29.4471 20.5741 29.4892 20.0973 29.5312C20.1437 29.6806 20.1746 29.8344 20.1915 29.9926C20.2132 30.1269 20.2295 30.2695 20.2439 30.4325C20.3164 31.2446 19.7419 32.089 19.0707 32.4828C18.3731 32.8919 17.3719 32.9465 16.6792 32.4828C16.3219 32.2435 15.9652 31.9737 15.7683 31.5781C15.5041 31.1717 15.36 30.7013 15.3454 30.2186C14.2922 30.4927 13.2199 30.8634 12.1562 31.0598C12.1953 31.0983 12.2337 31.1393 12.271 31.1845C12.2994 31.2191 12.2605 31.284 12.2191 31.2521L11.6855 31.1336C11.5213 31.1552 11.3571 31.1728 11.1934 31.1831L11.1973 31.1687C10.9235 31.1639 10.6994 30.8395 10.9443 30.5801C11.8841 29.5845 13.3504 28.9229 14.6874 28.3697L15.9754 27.8405C17.6225 27.1695 19.3612 26.5436 21.1077 26.2525ZM39.6918 27.2736C41.2048 27.1005 42.703 27.1693 44.2186 27.2619C46.7693 27.4175 45.6995 31.1455 43.6521 30.2848C43.6732 30.4212 43.6787 30.5578 43.6629 30.685C43.5829 31.3403 43.3697 31.8941 42.7696 32.2462C42.2123 32.573 41.5058 32.5721 40.9485 32.2462C40.3516 31.8973 40.0824 31.4057 39.9301 30.7668C39.8121 30.2715 39.8594 29.8571 39.9276 29.3666C39.9502 29.204 40.0209 29.0525 40.1188 28.9164C39.9761 28.8806 39.8331 28.846 39.6899 28.8137C38.417 28.5235 37.1612 28.5817 35.892 28.3979C35.7566 28.3782 35.7351 28.1591 35.8535 28.1034C36.9941 27.5663 38.444 27.4162 39.6918 27.2736ZM20.8745 15.7599C21.7476 15.426 22.8445 15.9814 23.2902 16.7453C23.7961 17.6122 23.58 18.613 22.9556 19.3435C21.9979 20.4641 20.1739 21.1544 18.8296 21.7939L18.7217 21.8456C17.3413 22.5131 15.9231 23.126 14.4858 23.6601C13.0722 24.1856 11.6017 24.5973 10.1362 24.9508C9.36338 25.1371 8.57414 25.2911 7.78445 25.3883C7.16102 25.4649 6.68029 25.2934 6.08385 25.2934C5.99671 25.2937 5.9695 25.1779 6.04062 25.1334C6.59796 24.7823 7.01168 24.32 7.61956 23.9947C8.25259 23.6562 8.88792 23.3233 9.52553 22.9937C10.8147 22.3276 12.0561 21.5864 13.2997 20.8403C14.6106 20.0538 15.8918 19.2257 17.1378 18.3391C18.3569 17.4715 19.4805 16.2929 20.8745 15.7599ZM36.4344 15.0467C37.5248 14.8346 38.6047 15.3517 38.9274 16.4655C39.2368 17.5325 38.9132 17.7612 39.7386 18.5248C40.3965 19.1332 41.1059 19.6763 41.8218 20.2111L42.8756 20.9962C44.7841 22.4122 46.7085 23.751 48.903 24.7064C49.0885 24.7871 48.9812 25.0633 48.8053 25.067C45.3168 25.1344 41.9716 24.6611 38.8227 23.0958C37.3517 22.3646 35.8738 21.4397 35.0215 19.98C34.0342 18.2898 34.063 15.5074 36.4344 15.0467Z" fill="#FAFAFA"/>
</svg>
