<svg width="55" height="71" viewBox="0 0 55 71" fill="none" xmlns="http://www.w3.org/2000/svg">
<path d="M0.424484 10.8591C0.195974 5.01338 5.01235 0.220761 10.8569 0.478173L18.6364 0.820809L43.8033 0.230601C49.2601 0.10263 53.8115 4.37395 54.0298 9.82785L55 34.0636L53.9907 60.492C53.7909 65.7232 49.5904 69.9149 44.3589 70.1039L19.5455 71L9.7451 70.3827C4.32586 70.0413 0.169304 65.4377 0.381401 60.0118L1.36364 34.8844L0.424484 10.8591Z" fill="#18181B"/>
<path fill-rule="evenodd" clip-rule="evenodd" d="M30.7165 56.1528L31.2393 56.0147C33.1115 55.5075 35.0544 54.7024 36.8422 55.8058C37.4878 56.2042 37.585 57.0515 37.0748 57.5998C35.6266 59.1555 33.489 58.8536 31.5306 58.8693L31.4344 58.8703C29.464 58.8973 27.5083 58.7996 25.5582 58.5187C25.3012 58.4816 25.2504 58.0569 25.484 57.955C27.1819 57.2149 28.9282 56.6313 30.7165 56.1528ZM33.8929 27.7102C35.7436 28.8287 38.5634 31.4368 36.5726 34.2097C34.2291 36.6546 30.8551 33.8513 29.1924 32.5835C27.6507 31.6009 25.9185 34.128 27.3489 35.2753C39.3634 44.1197 44.2391 28.0027 34.829 26.3951C33.7929 26.218 33.4081 27.3642 33.8929 27.7102ZM46.7599 13.0013C49.7454 12.9104 49.7481 17.6263 46.7599 17.6136C45.8678 17.6097 44.9757 17.6095 44.0836 17.6076C44.602 19.4866 44.3059 21.7272 43.3697 23.3055C42.7522 24.3472 41.2741 24.5365 40.4107 23.6846C38.9202 22.2138 38.6263 20.0629 39.153 18.1125L39.0447 17.8573C39.0094 17.7737 38.9841 17.6892 38.9635 17.6041C36.0802 17.6066 33.1968 17.6135 30.3134 17.6181L25.9883 17.6227C23.1802 17.6236 20.3709 17.6463 17.5626 17.6202C17.5972 17.6721 17.6317 17.7238 17.6599 17.783C17.8352 18.1497 17.9094 18.6127 17.9646 19.0092C18.0587 19.6895 18.0474 20.4223 17.9396 21.1C17.8609 21.5951 17.7163 22.1848 17.4391 22.6515L17.4374 22.6612C17.3068 23.2148 17.1418 23.7448 16.7112 24.1442C16.5818 24.2639 16.4556 24.3492 16.3223 24.4096C16.0706 24.6715 15.7466 24.8448 15.3209 24.8503C15.095 24.8528 14.8472 24.7873 14.607 24.6942C14.2377 24.7249 13.8564 24.5587 13.5297 24.4115C13.2677 24.2934 13.0273 24.1364 12.8334 23.9317C12.7425 23.9103 12.6508 23.875 12.5592 23.8187C11.9975 23.4751 11.7828 22.7865 11.7536 22.1646C11.7517 22.1268 11.7531 22.0871 11.7519 22.0488C11.7311 21.9645 11.7124 21.8797 11.6982 21.7944C11.5115 20.6894 11.7384 19.4449 11.9761 18.371C12.0359 18.1022 12.0852 17.7901 12.1585 17.4881C11.598 17.4665 11.038 17.445 10.4775 17.4221C9.07373 17.3651 7.36041 17.552 6.06176 16.962C5.96716 16.9194 5.99265 16.7942 6.06176 16.7452C7.26072 15.893 9.12358 15.7551 10.5675 15.4744L10.6902 15.45C12.4121 15.0989 14.1331 14.8035 15.8723 14.5513C19.2203 14.0659 22.6112 13.8047 25.9883 13.6166C32.9026 13.2316 39.8385 13.2116 46.7599 13.0013Z" fill="#FAFAFA"/>
</svg>
