<svg width="68" height="76" viewBox="0 0 68 76" fill="none" xmlns="http://www.w3.org/2000/svg">
<path d="M67.75 42.5C67.75 61.0015 51.9621 76 32.4868 76C13.0115 76 0.75 68.0542 0.75 49.5526C0.75 31.0511 13.0115 9 32.4868 9C51.9621 9 67.75 23.9985 67.75 42.5Z" fill="#27272A"/>
<path d="M22.2601 41.5062C22.2087 41.0951 21.8386 40.8215 21.4427 41.0329C21.2124 41.1557 21.0338 41.3295 20.8919 41.5336C20.9008 41.506 20.9117 41.4803 20.9184 41.4513C20.9256 41.4183 20.9086 41.3725 20.871 41.3669C19.8898 41.2182 18.6132 42.6975 18.0059 43.3542C17.0934 44.3406 16.2787 45.4763 15.7186 46.7046C15.0043 48.2715 14.2329 50.6398 15.2143 52.2637C16.5792 54.5222 19.4391 52.8183 20.5234 51.2582C21.4317 49.9509 21.9015 48.3573 21.9542 46.77C21.9844 45.8611 21.8866 44.9531 21.9099 44.0442C21.9317 43.1942 22.3633 42.3315 22.2601 41.5062Z" fill="white"/>
<path d="M52.186 40.5634C51.7405 40.3388 51.2271 40.6133 51.2081 41.1299C51.1961 41.4547 51.2637 41.7793 51.3788 42.1002C51.2054 42.7784 51.1588 43.5131 51.0237 44.1895C50.794 45.339 50.5219 46.5344 50.4948 47.7115C50.4431 49.9602 51.3535 52.8391 53.8058 53.3918C56.1558 53.9216 58.2759 52.1113 57.6337 49.6448C57.1991 47.976 56.0217 46.4099 55.1593 44.9425C54.6705 44.1109 54.1816 43.2791 53.6928 42.4475C53.2713 41.7304 52.9493 40.9484 52.186 40.5634Z" fill="white"/>
<path fill-rule="evenodd" clip-rule="evenodd" d="M42.3745 53.861C41.0618 53.2292 39.5604 53.273 38.1839 53.6908C36.5547 54.1857 35.1119 55.2138 33.8281 56.3081C33.3271 56.7353 32.851 57.2176 32.3731 57.7025C31.766 58.3184 31.1567 58.9404 30.4804 59.4447C30.7035 57.5445 32.0368 55.6149 33.1818 54.2193C34.5867 52.5073 36.5428 51.1198 38.6576 50.4487C40.9097 49.7338 43.2336 50.1268 45.0574 51.2874C46.8645 52.4374 48.1809 54.3421 48.4461 56.6715C48.5019 57.1608 48.2732 57.6087 47.9338 57.9481C47.538 58.344 46.9821 58.6045 46.4638 58.6045C45.9349 58.6045 45.4658 58.3914 45.1179 58.0518C44.7529 57.6956 44.5199 57.2013 44.4866 56.6643C44.4642 56.092 44.3316 55.5907 43.8508 54.9869C43.5277 54.5816 42.9204 54.1237 42.3745 53.861ZM45.7115 33.8635C45.1667 34.0615 44.5341 34.5395 44.3502 35.0631C44.3097 35.1783 44.2869 35.2962 44.2851 35.4155C44.1077 35.0552 44.0403 34.6309 44.0634 34.211C44.1368 32.8772 45.4088 31.9091 46.4926 31.3434C46.8777 31.1424 47.2733 31.0088 47.6676 30.9385L49.0635 30.6897L47.7529 30.1486C46.5443 29.6496 45.4111 28.9632 44.3997 28.123C43.4336 27.3209 42.5406 26.2835 42.0164 25.139C41.7797 24.622 41.5939 24.1164 41.4636 23.5701L41.4287 23.4166C41.3647 23.1223 41.2947 22.9722 41.2161 22.8057C41.17 22.708 41.1198 22.6028 41.066 22.4317C41.0357 22.3356 41.0188 22.2552 41.047 22.1925C41.0743 22.1319 41.1406 22.1059 41.2052 22.0814C41.6331 21.9195 42.3221 22.0298 42.6148 22.1468C43.3223 22.4296 43.944 23.0461 44.5425 23.6235C44.8345 23.9053 45.1205 24.1806 45.4046 24.416C47.2171 25.9187 49.4793 26.7736 51.6901 26.9821L51.823 26.9939C52.4076 27.0419 52.9497 27.2722 53.3339 27.6563C53.6774 27.9998 53.8893 28.467 53.8893 29.0266C53.8893 29.5716 53.6442 30.0963 53.2632 30.4773C52.8993 30.8412 52.4072 31.0769 51.8729 31.058C51.4976 31.0446 51.1251 31.011 50.7552 30.9614L49.3791 30.7772L50.4297 31.6848C50.6382 31.8649 50.8343 32.0717 51.0106 32.3116C51.968 33.6152 52.3789 35.6024 52.3433 37.1976C52.3365 37.5021 52.2524 37.8161 52.0972 38.0867C51.9617 38.323 51.7711 38.527 51.5254 38.6542C51.2313 38.8069 50.9824 38.8883 50.6474 38.8948C50.2833 38.902 49.9748 38.7867 49.7213 38.5937C49.4043 38.3524 49.1714 37.9964 49.0114 37.608C48.7989 37.0917 48.7862 36.5463 48.7652 36.0011C48.7507 35.6244 48.735 35.247 48.6722 34.8751C48.5827 34.4001 48.3679 33.795 48.097 33.6039C47.6971 33.3216 46.633 33.539 45.9722 33.77L45.7115 33.8635ZM40.0263 38.6361C41.5889 39.5859 43.9697 41.8006 42.2888 44.1552C40.3101 46.2314 37.4613 43.8509 36.0575 42.7743C34.7558 41.94 33.2933 44.0859 34.501 45.0602C44.6451 52.5705 48.7618 38.8844 40.8166 37.5194C39.9418 37.3689 39.6169 38.3423 40.0263 38.6361ZM28.9433 35.621C28.5163 35.1392 28.1004 34.6902 27.458 34.4345C26.698 34.1315 25.7772 34.099 24.9866 34.326C24.0903 34.5833 23.3807 35.1775 22.8549 35.9364C22.393 36.6032 22.0749 37.3969 21.8935 38.1795C21.5549 37.8076 21.3966 37.3776 21.3201 36.9402C21.1943 36.22 21.2834 35.4779 21.5289 34.7722C22.0754 33.2009 23.3918 31.804 24.9269 31.2028C26.6796 30.5163 28.8483 30.7455 30.4583 31.7121C31.2797 32.2055 32.2265 33.0615 32.7034 33.8988C33.0291 34.4711 33.0479 35.0635 32.8409 35.5725C32.613 36.1327 32.1211 36.5877 31.4931 36.8161C31.1957 36.9243 30.8895 36.9156 30.599 36.8388C30.221 36.7389 29.8677 36.5254 29.5797 36.2767C29.3397 36.0698 29.1396 35.8424 28.9433 35.621ZM31.5621 25.7115C31.2024 26.1928 30.6726 26.4388 30.1206 26.4646C30.064 26.4672 30.0074 26.4675 29.951 26.4655C29.9154 26.5065 29.8757 26.5517 29.829 26.6049C29.7212 26.7276 29.6506 26.8082 29.5771 26.8864C29.3118 27.169 29.0328 27.4387 28.7421 27.6954C28.0948 28.2673 27.3976 28.769 26.6435 29.1899C25.3226 29.9278 23.8739 30.5034 22.3843 30.7781C20.9061 31.0506 19.447 31.1344 17.9585 30.9209L17.5974 30.869C16.7375 30.7431 15.6104 30.5787 14.9043 30.0461C15.1824 29.9575 15.4641 29.9532 15.7389 29.9411C15.9197 29.9331 16.0994 29.925 16.2746 29.9089C17.1077 29.8332 17.9173 29.695 18.7239 29.4717C20.2918 29.0378 21.7126 28.4386 23.0969 27.5798C24.4541 26.7381 25.7004 25.5925 26.6933 24.3376L26.8123 24.1854C26.863 24.1199 26.9129 24.0546 26.9625 23.9899C27.3686 23.4591 27.7417 22.9533 28.3727 22.6165C28.8727 22.3498 29.3786 22.2777 29.8651 22.3545C30.4295 22.4435 30.9654 22.7277 31.4403 23.1253C31.7915 23.4193 31.954 23.8427 31.9799 24.2769C32.0103 24.7877 31.8548 25.3198 31.5621 25.7115Z" fill="white"/>
</svg>
