<svg width="67" height="76" viewBox="0 0 67 76" fill="none" xmlns="http://www.w3.org/2000/svg">
<path d="M67 42.5C67 61.0015 51.2121 76 31.7368 76C12.2615 76 0 68.0542 0 49.5526C0 31.0511 12.2615 9 31.7368 9C51.2121 9 67 23.9985 67 42.5Z" fill="#18181B"/>
<path fill-rule="evenodd" clip-rule="evenodd" d="M41.624 53.861C40.3113 53.2292 38.81 53.273 37.4334 53.6908C35.8042 54.1857 34.3615 55.2138 33.0776 56.3081C32.5766 56.7353 32.1006 57.2176 31.6226 57.7025C31.0155 58.3184 30.4063 58.9404 29.7299 59.4447C29.953 57.5445 31.2863 55.6149 32.4313 54.2193C33.8362 52.5073 35.7923 51.1198 37.9072 50.4487C40.1592 49.7338 42.4831 50.1268 44.3069 51.2874C46.114 52.4374 47.4304 54.3421 47.6956 56.6715C47.7514 57.1608 47.5227 57.6087 47.1833 57.9481C46.7875 58.344 46.2316 58.6045 45.7133 58.6045C45.1844 58.6045 44.7153 58.3914 44.3674 58.0518C44.0024 57.6956 43.7694 57.2013 43.7361 56.6643C43.7138 56.092 43.5812 55.5907 43.1003 54.9869C42.7772 54.5816 42.1699 54.1237 41.624 53.861ZM44.961 33.8635C44.4163 34.0615 43.7836 34.5395 43.5997 35.0631C43.5592 35.1783 43.5364 35.2962 43.5346 35.4155C43.3572 35.0552 43.2898 34.6309 43.3129 34.211C43.3863 32.8772 44.6584 31.9091 45.7421 31.3434C46.1272 31.1424 46.5228 31.0088 46.9171 30.9385L48.313 30.6897L47.0024 30.1486C45.7938 29.6496 44.6606 28.9632 43.6493 28.123C42.6831 27.3209 41.7901 26.2835 41.2659 25.139C41.0292 24.622 40.8434 24.1164 40.7131 23.5701L40.6782 23.4166C40.6142 23.1223 40.5442 22.9722 40.4656 22.8057C40.4195 22.708 40.3694 22.6028 40.3155 22.4317C40.2852 22.3356 40.2683 22.2552 40.2965 22.1925C40.3238 22.1319 40.3901 22.1059 40.4547 22.0814C40.8826 21.9195 41.5716 22.0298 41.8644 22.1468C42.5718 22.4296 43.1935 23.0461 43.792 23.6235C44.084 23.9053 44.37 24.1806 44.6541 24.416C46.4666 25.9187 48.7288 26.7736 50.9396 26.9821L51.0725 26.9939C51.6571 27.0419 52.1992 27.2722 52.5834 27.6563C52.9269 27.9998 53.1389 28.467 53.1389 29.0266C53.1389 29.5716 52.8937 30.0963 52.5127 30.4773C52.1489 30.8412 51.6567 31.0769 51.1224 31.058C50.7471 31.0446 50.3746 31.011 50.0047 30.9614L48.6286 30.7772L49.6792 31.6848C49.8877 31.8649 50.0838 32.0717 50.2601 32.3116C51.2175 33.6152 51.6284 35.6024 51.5928 37.1976C51.586 37.5021 51.502 37.8161 51.3467 38.0867C51.2112 38.323 51.0206 38.527 50.7749 38.6542C50.4808 38.8069 50.2319 38.8883 49.8969 38.8948C49.5328 38.902 49.2243 38.7867 48.9708 38.5937C48.6538 38.3524 48.4209 37.9964 48.2609 37.608C48.0484 37.0917 48.0357 36.5463 48.0147 36.0011C48.0002 35.6244 47.9845 35.247 47.9217 34.8751C47.8322 34.4001 47.6175 33.795 47.3465 33.6039C46.9466 33.3216 45.8825 33.539 45.2217 33.77L44.961 33.8635ZM39.2758 38.6361C40.8384 39.5859 43.2192 41.8006 41.5383 44.1552C39.5596 46.2314 36.7108 43.8509 35.307 42.7743C34.0053 41.94 32.5428 44.0859 33.7505 45.0602C43.8946 52.5705 48.0114 38.8844 40.0661 37.5194C39.1913 37.3689 38.8664 38.3423 39.2758 38.6361ZM28.1928 35.621C27.7658 35.1392 27.3499 34.6902 26.7075 34.4345C25.9476 34.1315 25.0267 34.099 24.2361 34.326C23.3398 34.5833 22.6302 35.1775 22.1044 35.9364C21.6425 36.6032 21.3244 37.3969 21.143 38.1795C20.8044 37.8076 20.6461 37.3776 20.5696 36.9402C20.4438 36.22 20.533 35.4779 20.7784 34.7722C21.3249 33.2009 22.6414 31.804 24.1764 31.2028C25.9291 30.5163 28.0978 30.7455 29.7078 31.7121C30.5293 32.2055 31.476 33.0615 31.9529 33.8988C32.2787 34.4711 32.2975 35.0635 32.0904 35.5725C31.8625 36.1327 31.3706 36.5877 30.7427 36.8161C30.4452 36.9243 30.139 36.9156 29.8485 36.8388C29.4705 36.7389 29.1172 36.5254 28.8292 36.2767C28.5892 36.0698 28.3891 35.8424 28.1928 35.621ZM30.8116 25.7115C30.4519 26.1928 29.9221 26.4388 29.3701 26.4646C29.3135 26.4672 29.2569 26.4675 29.2006 26.4655C29.165 26.5065 29.1252 26.5517 29.0785 26.6049C28.9707 26.7276 28.9001 26.8082 28.8266 26.8864C28.5613 27.169 28.2823 27.4387 27.9916 27.6954C27.3443 28.2673 26.6471 28.769 25.893 29.1899C24.5721 29.9278 23.1234 30.5034 21.6338 30.7781C20.1556 31.0506 18.6965 31.1344 17.208 30.9209L16.8469 30.869C15.9871 30.7431 14.8599 30.5787 14.1538 30.0461C14.4319 29.9575 14.7136 29.9532 14.9884 29.9411C15.1692 29.9331 15.3489 29.925 15.5241 29.9089C16.3572 29.8332 17.1668 29.695 17.9734 29.4717C19.5413 29.0378 20.9621 28.4386 22.3464 27.5798C23.7037 26.7381 24.9499 25.5925 25.9428 24.3376L26.0618 24.1854C26.1125 24.1199 26.1624 24.0546 26.212 23.9899C26.6181 23.4591 26.9912 22.9533 27.6222 22.6165C28.1222 22.3498 28.6281 22.2777 29.1146 22.3545C29.679 22.4435 30.2149 22.7277 30.6898 23.1253C31.041 23.4193 31.2035 23.8427 31.2294 24.2769C31.2598 24.7877 31.1043 25.3198 30.8116 25.7115Z" fill="#FAFAFA"/>
</svg>
