<svg width="104" height="79" viewBox="0 0 104 79" fill="none" xmlns="http://www.w3.org/2000/svg">
<path d="M47.3326 7.43485C49.2823 5.09527 52.8529 5.02729 54.8902 7.29096L73.8284 28.3334C79.604 34.7508 84.5243 41.8891 88.4664 49.5703L99.3988 70.8719C101.087 74.1619 98.7437 78.0829 95.0465 78.154L51.0283 79L8.34201 78.1635C4.56574 78.0895 2.23186 74.0159 4.07781 70.7208L19.0168 44.0535C22.0181 38.6959 25.5065 33.6261 29.4379 28.9085L47.3326 7.43485Z" fill="#18181B"/>
<path fill-rule="evenodd" clip-rule="evenodd" d="M64.2281 64.634L64.4042 64.6248C65.6058 64.5564 66.7725 64.3803 67.8457 65.0551C69.2724 65.952 69.2788 67.9916 67.8457 68.8867C66.7182 69.5915 65.493 69.3601 64.2281 69.3271C63.1864 69.3 62.1444 69.2812 61.1025 69.27C59.0201 69.2482 56.939 69.2431 54.8564 69.2536C52.9776 69.2629 51.0971 69.2408 49.2188 69.1955L48.4139 69.1746C46.4873 69.1216 44.47 69.1883 42.5722 68.8123L42.4907 68.7982L42.493 68.7941C42.1642 68.6833 41.9903 68.1578 42.3833 67.9751C44.2664 67.1001 46.4192 66.7333 48.4414 66.3171C50.489 65.8961 52.5718 65.592 54.6484 65.3537C56.7222 65.1163 58.8112 64.9486 60.8944 64.8154C62.0049 64.7439 63.1164 64.6851 64.2281 64.634ZM57.9263 37.7437L58.0636 37.6515C59.5718 36.6532 61.7391 35.692 63.4769 36.4498C63.5751 36.4926 63.6581 36.5484 63.7302 36.6126C64.1567 36.621 64.5861 36.6565 65.0167 36.7215C68.4186 37.2355 71.5621 39.4734 73.0991 42.5544C74.846 46.0564 74.0162 49.7469 70.9249 52.1287C69.4061 53.2989 67.6212 54.1414 65.6997 54.3314C65.0715 54.3934 64.4058 54.4056 63.8027 54.2148C64.0882 54.824 64.3055 55.4607 64.4173 56.1323C64.7999 58.4316 63.89 60.3275 61.7534 61.3204C59.8759 62.1933 57.2774 62.5278 55.4206 61.4261C53.8509 60.4952 54.365 57.4135 56.4303 57.6896C57.8245 57.8759 59.0813 58.3424 60.4591 57.7465C61.5821 57.2612 60.9008 55.623 60.5624 54.7613C59.9962 53.3211 59.163 51.9653 58.4874 50.567L58.3626 50.3043C57.9378 49.3925 57.4101 48.4291 57.0062 47.4465C56.7838 48.6006 56.385 49.7332 55.9152 50.7817C54.8 53.2696 52.6415 54.7919 50.0696 55.5048C47.4254 56.2373 44.3223 56.4074 41.5961 56.3173C38.8235 56.226 35.9044 55.4977 33.8758 53.4833C30.1596 49.7931 31.2269 43.3366 35.1375 40.2521C37.6672 38.2568 41.2315 36.8894 44.5047 37.2436C46.1443 36.8738 47.9781 37.0838 49.6185 37.4564C51.8381 37.9605 53.9572 39.0396 55.4082 40.7582C55.5157 40.4878 55.6399 40.2288 55.782 39.9816C55.718 39.9521 55.6783 39.8571 55.7415 39.8002C55.8571 39.696 55.976 39.5961 56.0948 39.496C56.5675 38.8317 57.1779 38.2531 57.9263 37.7437ZM31.0366 55.0391C30.903 54.8492 31.1642 54.6028 31.3515 54.7236C32.8866 55.7159 34.4936 56.6178 36.2537 57.1436C37.9731 57.6571 39.7606 57.6041 41.4877 58.043C42.1368 58.2079 42.0338 59.0538 41.4877 59.2611C39.5869 59.9831 37.4423 59.3772 35.6364 58.6108C33.8043 57.8336 32.1916 56.6775 31.0366 55.0391ZM41.339 39.1887L41.3849 39.1333L41.2733 39.1705C39.122 39.8964 37.3505 41.0934 35.9106 42.8406C33.4568 45.8182 33.4275 50.5526 37.0968 52.5649C39.075 53.6495 41.4103 53.7006 43.6068 53.5858L44.051 53.5619C45.9793 53.4554 47.9471 53.2972 49.8078 52.7745C51.8373 52.2042 53.2473 50.9748 54.0238 48.9936L54.0882 48.8265C54.8628 46.7872 55.2661 44.5193 53.8281 42.6736C51.3922 39.5472 45.7634 38.9226 42.2845 40.4171C41.4512 40.7749 40.7825 39.9016 41.339 39.1887ZM63.6653 38.3498C63.6075 38.4063 63.5456 38.4578 63.4769 38.4995C62.7785 38.9194 61.9931 38.9237 61.2189 39.1162C60.5058 39.2935 59.8079 39.5099 59.1515 39.8447C58.1204 40.3698 57.0572 40.998 56.0825 41.6831C56.2914 42.0176 56.4783 42.3707 56.6385 42.7446C57.0811 43.7779 57.2302 44.8659 57.1837 45.9585C57.8629 46.5475 58.4307 47.2801 59.0318 47.9421L59.562 48.5267C60.1804 49.2105 60.7946 49.9019 61.37 50.6195C61.7121 51.046 62.0592 51.4828 62.3927 51.9324C62.4365 51.7983 62.4981 51.667 62.5846 51.5423C62.9095 51.0726 63.4112 50.8354 63.9845 50.9712C64.4864 51.0905 64.8218 51.3181 65.3461 51.3215C65.9882 51.3258 66.607 51.1872 67.2147 50.9885C68.4092 50.5979 69.5798 49.8962 70.4534 48.9871C72.425 46.9349 71.3848 44.0429 69.8467 42.0879C68.2888 40.1076 66.0516 38.8217 63.6653 38.3498ZM46.1059 43.2791C46.7388 43.096 47.6804 43.3848 47.9589 44.035L48.1586 44.5084C48.1524 44.4942 48.1475 44.4833 48.1417 44.4705C48.2124 44.6382 48.28 44.8001 48.3342 44.9721L48.5213 45.1175C48.6812 45.2953 48.829 45.4828 48.9647 45.6807C49.2857 46.2304 49.3787 46.9343 49.2144 47.5503C48.9432 48.5682 48.0107 49.2216 46.9762 49.2279C43.9482 49.2458 43.206 44.1184 46.1059 43.2791ZM64.3733 42.3578C65.7725 42.2952 66.7043 43.5338 66.8159 44.8062C66.8795 45.5304 66.7333 46.3223 66.5261 47.0148C66.2171 48.0481 65.2347 48.6956 64.1755 48.5531C63.3325 48.4395 62.5878 47.797 62.3776 46.9712C62.1006 46.2902 61.9442 45.5409 61.9308 44.8062C61.9052 43.4343 63.0702 42.4162 64.3733 42.3578ZM45.9099 30.9085C47.3289 30.6792 48.6845 31.3705 48.8909 32.8991C49.0987 34.4411 47.9659 35.46 46.545 35.6115C43.8662 35.8968 41.1311 35.9646 38.4395 36.0824C37.3169 36.1314 36.1929 36.1522 35.0692 36.1621L34.5074 36.1663C33.4622 36.1725 32.0994 36.3793 31.155 35.8636C31.0935 35.8303 31.0959 35.7543 31.1349 35.7064C31.7985 34.8873 33.1707 34.5383 34.1516 34.1775L34.2347 34.1465C35.4763 33.6771 36.7319 33.2375 38.004 32.857L38.6505 32.6648C41.0273 31.9631 43.473 31.303 45.9099 30.9085ZM54.9173 30.1585C55.7943 29.8281 56.6597 30.034 57.2561 30.5929C59.2506 31.1496 61.3033 31.5761 63.3107 32.0634L63.857 32.1979C66.3736 32.8274 69.139 33.3125 71.4794 34.4665C71.7277 34.589 71.5716 34.9068 71.3531 34.9336C68.746 35.251 65.9373 34.7464 63.3453 34.4427C60.6898 34.1315 58.0209 33.6182 55.3575 33.4171C53.4458 33.2727 53.168 30.8179 54.9173 30.1585Z" fill="#FAFAFA"/>
</svg>
