<svg width="104" height="79" viewBox="0 0 104 79" fill="none" xmlns="http://www.w3.org/2000/svg">
<path d="M47.3326 7.43485C49.2823 5.09527 52.8529 5.02729 54.8902 7.29096L73.8284 28.3334C79.604 34.7508 84.5243 41.8891 88.4664 49.5703L99.3988 70.8719C101.087 74.1619 98.7437 78.0829 95.0465 78.154L51.0283 79L8.34201 78.1635C4.56574 78.0895 2.23186 74.0159 4.07781 70.7208L19.0168 44.0535C22.0181 38.6959 25.5065 33.6261 29.4379 28.9085L47.3326 7.43485Z" fill="#18181B"/>
<path d="M37.5101 49.5062C37.4587 49.0951 37.0886 48.8215 36.6927 49.0329C36.4624 49.1557 36.2838 49.3295 36.1419 49.5336C36.1508 49.506 36.1617 49.4803 36.1684 49.4513C36.1756 49.4183 36.1586 49.3725 36.121 49.3669C35.1398 49.2182 33.8632 50.6975 33.2559 51.3542C32.3434 52.3406 31.5287 53.4763 30.9686 54.7046C30.2543 56.2715 29.4829 58.6398 30.4643 60.2637C31.8292 62.5222 34.6891 60.8183 35.7734 59.2582C36.6817 57.9509 37.1515 56.3573 37.2042 54.77C37.2344 53.8611 37.1366 52.9531 37.1599 52.0442C37.1817 51.1942 37.6133 50.3315 37.5101 49.5062Z" fill="#FAFAFA"/>
<path d="M67.436 48.5634C66.9905 48.3388 66.4771 48.6133 66.4581 49.1299C66.4461 49.4547 66.5137 49.7793 66.6288 50.1002C66.4554 50.7784 66.4088 51.5131 66.2737 52.1895C66.044 53.339 65.7719 54.5344 65.7448 55.7115C65.6931 57.9602 66.6035 60.8391 69.0558 61.3918C71.4058 61.9216 73.5259 60.1113 72.8837 57.6448C72.4491 55.976 71.2717 54.4099 70.4093 52.9425C69.9205 52.1109 69.4316 51.2791 68.9428 50.4475C68.5213 49.7304 68.1993 48.9484 67.436 48.5634Z" fill="#FAFAFA"/>
<path fill-rule="evenodd" clip-rule="evenodd" d="M57.6245 61.861C56.3118 61.2292 54.8104 61.273 53.4339 61.6908C51.8047 62.1857 50.3619 63.2138 49.0781 64.3081C48.5771 64.7353 48.101 65.2176 47.6231 65.7025C47.016 66.3184 46.4067 66.9404 45.7304 67.4447C45.9535 65.5445 47.2868 63.6149 48.4318 62.2193C49.8367 60.5073 51.7928 59.1198 53.9076 58.4487C56.1597 57.7338 58.4836 58.1268 60.3074 59.2874C62.1145 60.4374 63.4309 62.3421 63.6961 64.6715C63.7519 65.1608 63.5232 65.6087 63.1838 65.9481C62.788 66.344 62.2321 66.6045 61.7138 66.6045C61.1849 66.6045 60.7158 66.3914 60.3679 66.0518C60.0029 65.6956 59.7699 65.2013 59.7366 64.6643C59.7142 64.092 59.5816 63.5907 59.1008 62.9869C58.7777 62.5816 58.1704 62.1237 57.6245 61.861ZM60.9615 41.8635C60.4167 42.0615 59.7841 42.5395 59.6002 43.0631C59.5597 43.1783 59.5369 43.2962 59.5351 43.4155C59.3577 43.0552 59.2903 42.6309 59.3134 42.211C59.3868 40.8772 60.6588 39.9091 61.7426 39.3434C62.1277 39.1424 62.5233 39.0088 62.9176 38.9385L64.3135 38.6897L63.0029 38.1486C61.7943 37.6496 60.6611 36.9632 59.6497 36.123C58.6836 35.3209 57.7906 34.2835 57.2664 33.139C57.0297 32.622 56.8439 32.1164 56.7136 31.5701L56.6787 31.4166C56.6147 31.1223 56.5447 30.9722 56.4661 30.8057C56.42 30.708 56.3698 30.6028 56.316 30.4317C56.2857 30.3356 56.2688 30.2552 56.297 30.1925C56.3243 30.1319 56.3906 30.1059 56.4552 30.0814C56.8831 29.9195 57.5721 30.0298 57.8648 30.1468C58.5723 30.4296 59.194 31.0461 59.7925 31.6235C60.0845 31.9053 60.3705 32.1806 60.6546 32.416C62.4671 33.9187 64.7293 34.7736 66.9401 34.9821L67.073 34.9939C67.6576 35.0419 68.1997 35.2722 68.5839 35.6563C68.9274 35.9998 69.1393 36.467 69.1393 37.0266C69.1393 37.5716 68.8942 38.0963 68.5132 38.4773C68.1493 38.8412 67.6572 39.0769 67.1229 39.058C66.7476 39.0446 66.3751 39.011 66.0052 38.9614L64.6291 38.7772L65.6797 39.6848C65.8882 39.8649 66.0843 40.0717 66.2606 40.3116C67.218 41.6152 67.6289 43.6024 67.5933 45.1976C67.5865 45.5021 67.5024 45.8161 67.3472 46.0867C67.2117 46.323 67.0211 46.527 66.7754 46.6542C66.4813 46.8069 66.2324 46.8883 65.8974 46.8948C65.5333 46.902 65.2248 46.7867 64.9713 46.5937C64.6543 46.3524 64.4214 45.9964 64.2614 45.608C64.0489 45.0917 64.0362 44.5463 64.0152 44.0011C64.0007 43.6244 63.985 43.247 63.9222 42.8751C63.8327 42.4001 63.6179 41.795 63.347 41.6039C62.9471 41.3216 61.883 41.539 61.2222 41.77L60.9615 41.8635ZM55.2763 46.6361C56.8389 47.5859 59.2197 49.8006 57.5388 52.1552C55.5601 54.2314 52.7113 51.8509 51.3075 50.7743C50.0058 49.94 48.5433 52.0859 49.751 53.0602C59.8951 60.5705 64.0118 46.8844 56.0666 45.5194C55.1918 45.3689 54.8669 46.3423 55.2763 46.6361ZM44.1933 43.621C43.7663 43.1392 43.3504 42.6902 42.708 42.4345C41.948 42.1315 41.0272 42.099 40.2366 42.326C39.3403 42.5833 38.6307 43.1775 38.1049 43.9364C37.643 44.6032 37.3249 45.3969 37.1435 46.1795C36.8049 45.8076 36.6466 45.3776 36.5701 44.9402C36.4443 44.22 36.5334 43.4779 36.7789 42.7722C37.3254 41.2009 38.6418 39.804 40.1769 39.2028C41.9296 38.5163 44.0983 38.7455 45.7083 39.7121C46.5297 40.2055 47.4765 41.0615 47.9534 41.8988C48.2791 42.4711 48.2979 43.0635 48.0909 43.5725C47.863 44.1327 47.3711 44.5877 46.7431 44.8161C46.4457 44.9243 46.1395 44.9156 45.849 44.8388C45.471 44.7389 45.1177 44.5254 44.8297 44.2767C44.5897 44.0698 44.3896 43.8424 44.1933 43.621ZM46.8121 33.7115C46.4524 34.1928 45.9226 34.4388 45.3706 34.4646C45.314 34.4672 45.2574 34.4675 45.201 34.4655C45.1654 34.5065 45.1257 34.5517 45.079 34.6049C44.9712 34.7276 44.9006 34.8082 44.8271 34.8864C44.5618 35.169 44.2828 35.4387 43.9921 35.6954C43.3448 36.2673 42.6476 36.769 41.8935 37.1899C40.5726 37.9278 39.1239 38.5034 37.6343 38.7781C36.1561 39.0506 34.697 39.1344 33.2085 38.9209L32.8474 38.869C31.9875 38.7431 30.8604 38.5787 30.1543 38.0461C30.4324 37.9575 30.7141 37.9532 30.9889 37.9411C31.1697 37.9331 31.3494 37.925 31.5246 37.9089C32.3577 37.8332 33.1673 37.695 33.9739 37.4717C35.5418 37.0378 36.9626 36.4386 38.3469 35.5798C39.7041 34.7381 40.9504 33.5925 41.9433 32.3376L42.0623 32.1854C42.113 32.1199 42.1629 32.0546 42.2125 31.9899C42.6186 31.4591 42.9917 30.9533 43.6227 30.6165C44.1227 30.3498 44.6286 30.2777 45.1151 30.3545C45.6795 30.4435 46.2154 30.7277 46.6903 31.1253C47.0415 31.4193 47.204 31.8427 47.2299 32.2769C47.2603 32.7877 47.1048 33.3198 46.8121 33.7115Z" fill="#FAFAFA"/>
</svg>
