<svg width="67" height="76" viewBox="0 0 67 76" fill="none" xmlns="http://www.w3.org/2000/svg">
<path d="M67 42.5C67 61.0015 51.2121 76 31.7368 76C12.2615 76 0 68.0542 0 49.5526C0 31.0511 12.2615 9 31.7368 9C51.2121 9 67 23.9985 67 42.5Z" fill="#18181B"/>
<path fill-rule="evenodd" clip-rule="evenodd" d="M42.0569 56.4164C42.2177 56.3728 42.3593 56.5892 42.2261 56.7077C41.6807 57.1928 41.3343 58.0966 40.9363 58.7128C40.5577 59.2989 40.1929 59.879 39.8599 60.4926C39.4867 61.1802 39.1262 61.8653 38.8357 62.5929L38.7782 62.7397C38.8652 62.9472 38.9332 63.152 38.9834 63.2863L38.9979 63.3244C39.4941 64.5947 38.4525 66.0065 37.2776 66.3615C35.268 66.9688 33.5439 65.3146 33.4959 63.3474C33.4582 61.7998 34.5047 60.4208 35.5681 59.3978C36.4983 58.503 37.5399 57.7413 38.705 57.1833C39.2191 56.9373 39.7531 56.7316 40.3112 56.6122C40.8821 56.4903 41.4979 56.5679 42.0569 56.4164ZM38.2695 62.0248C38.4168 62.0945 38.5426 62.2647 38.6485 62.4635C38.5957 62.2949 38.4865 62.1273 38.2695 62.0248ZM39.5268 40.5217C41.2763 41.5877 43.942 44.0733 42.0599 46.7159C39.8446 49.046 36.655 46.3744 35.0832 45.1661C33.6257 44.2297 31.9882 46.6381 33.3404 47.7315C44.6982 56.1604 49.3074 40.8005 40.4117 39.2684C39.4322 39.0996 39.0684 40.192 39.5268 40.5217ZM25.1457 30.2861L25.4548 30.2601C26.7956 30.1417 28.1532 29.9612 29.4753 30.2652C31.2516 30.674 31.1214 33.2643 29.4753 33.7406C28.0246 34.1602 26.417 33.9786 24.9194 33.993C24.6838 33.9953 24.4486 34.0014 24.2132 34.0053C24.1669 34.5666 23.9832 35.0506 23.7019 35.5341C23.5003 35.8811 23.2432 36.2106 22.9902 36.5188C22.3887 37.2512 20.9702 37.2347 20.3632 36.5188C19.9142 35.9888 19.5567 35.3792 19.5509 34.6618C19.5495 34.4781 19.5718 34.2831 19.6155 34.0912L18.7982 34.1056C16.7976 34.1362 14.7817 34.1226 12.8174 33.804C12.1186 33.9489 11.5468 32.6851 12.5113 32.3068C15.1332 31.2789 18.0624 30.9763 20.8446 30.6677C22.2743 30.5088 23.7119 30.3995 25.1457 30.2861ZM47.4823 29.224L47.5536 29.2168C49.2887 29.0387 51.2012 28.7303 52.9397 28.9077C55.5354 29.1722 55.531 32.6896 52.9397 32.9528C51.9884 33.0494 50.9862 33.0025 49.9867 32.91C50.4976 33.9964 49.8915 35.2939 48.6606 35.4597C47.5167 35.6137 46.3312 34.4995 46.7064 33.3044L46.724 33.2516C46.7972 33.0443 46.863 32.8125 46.941 32.5837L46.5271 32.5487C45.2897 32.4391 43.5724 32.2152 43.1169 31.2359C42.9796 30.9407 43.0113 30.6667 43.2228 30.4145C44.0902 29.3796 46.2284 29.3455 47.4823 29.224ZM29.0323 21.1706C30.288 20.7133 31.5931 21.7835 31.756 22.9894C31.9435 24.3792 30.9435 25.2942 29.676 25.4601L29.6125 25.4678C26.8147 25.7767 24.038 26.3415 21.2366 26.6608C19.9642 26.8056 18.6823 26.9009 17.4014 26.9352L16.4861 26.9558C15.3644 26.9843 14.1613 27.0099 13.1257 26.6227L13.1296 26.6157C12.8546 26.5359 12.7281 26.1383 13.0342 25.9209C14.1367 25.1394 15.623 24.844 16.9065 24.4727C18.1969 24.099 19.4969 23.7546 20.8003 23.4311C23.5374 22.7526 26.3805 22.1362 29.0323 21.1706ZM40.6132 21.4955C40.9459 19.7372 43.4306 19.5487 44.3432 20.828C44.9331 21.031 45.7979 21.2428 46.3338 21.4021C47.2675 21.6796 48.2018 21.9555 49.1383 22.2228C51.0774 22.7765 52.9698 23.4783 54.8763 24.1325C55.0727 24.2 55.0187 24.4499 54.8299 24.4748C52.169 24.8219 49.5527 24.9835 46.8756 24.8721L46.3267 24.8474C43.9678 24.7552 39.9633 24.931 40.6132 21.4955Z" fill="#FAFAFA"/>
</svg>
