<svg width="55" height="71" viewBox="0 0 55 71" fill="none" xmlns="http://www.w3.org/2000/svg">
<path d="M0.424484 10.8591C0.195974 5.01338 5.01235 0.220761 10.8569 0.478173L18.6364 0.820809L43.8033 0.230601C49.2601 0.10263 53.8115 4.37395 54.0298 9.82785L55 34.0636L53.9907 60.492C53.7909 65.7232 49.5904 69.9149 44.3589 70.1039L19.5455 71L9.7451 70.3827C4.32586 70.0413 0.169304 65.4377 0.381401 60.0118L1.36364 34.8844L0.424484 10.8591Z" fill="#18181B"/>
<path fill-rule="evenodd" clip-rule="evenodd" d="M31.3449 46.2193C34.0148 46.2193 35.1454 46.6543 36.8823 47.6773C38.6193 48.7002 40.4761 50.0187 40.9154 51.9937C41.3252 53.834 40.5189 55.6272 38.7342 56.3291C37.7361 56.722 26.2344 57.6418 24.4301 57.7619C22.6259 57.882 20.9039 57.7336 19.7453 56.5293C16.7516 53.4175 20.909 49.383 23.5656 47.8932C25.9377 46.5624 28.675 46.2193 31.3449 46.2193ZM30.7274 48.3179C28.7191 48.3179 25.4292 49.7901 25.4292 50.5069C25.4292 51.2237 35.018 50.5121 35.2236 49.8989C35.4292 49.2857 32.7356 48.3179 30.7274 48.3179ZM32.2723 31.8905C33.9707 32.9252 36.5585 35.3378 34.7314 37.9029C32.5808 40.1646 29.4844 37.5714 27.9586 36.3986C26.5438 35.4897 24.9541 37.8274 26.2668 38.8887C37.2926 47.0702 41.7671 32.1611 33.1314 30.674C32.1805 30.5102 31.8274 31.5705 32.2723 31.8905ZM13.0939 22.5131C15.9866 20.3726 20.3138 22.0201 21.0268 25.3691C21.5223 25.6304 21.7919 26.0458 21.8506 26.654L21.8652 26.8062C21.9352 27.5286 21.2938 28.2125 20.6525 28.403C19.9308 28.6171 19.3596 28.5065 18.6896 28.1992C18.0473 27.9045 17.8238 27.0687 17.9405 26.4329L17.951 26.3803C18.1226 25.5912 17.4474 24.8266 16.768 24.5139C16.0012 24.1611 15.141 24.382 14.4743 24.8496C13.7342 25.3682 13.1186 26.2555 12.9103 27.1395L12.8897 27.2313C12.7254 27.9945 12.602 29.4264 13.3408 29.8648C13.4717 29.9421 13.3784 30.1198 13.2432 30.0963C11.6378 29.8211 10.6817 28.8532 10.6719 27.1217C10.6617 25.2882 11.6443 23.5857 13.0939 22.5131ZM39.7316 21.904C42.6205 20.877 46.2334 23.6358 45.1206 26.8223C44.3898 28.9144 41.5636 28.0757 41.8269 25.9787L41.8358 25.9148C42.0034 24.8238 41.1789 24.3091 40.1681 24.6671C38.67 25.198 37.8621 27.5571 38.5641 28.9335C38.6502 29.1026 38.4093 29.2457 38.309 29.0828L38.2128 28.9279C37.429 27.6767 36.7139 26.7532 36.9715 25.1551C37.2086 23.682 38.3333 22.4008 39.7316 21.904ZM33.8724 14.3196C33.8649 14.1787 34.0129 14.0838 34.1393 14.1156C35.1663 14.3746 36.0958 15.1229 37.031 15.6085C38.0516 16.1382 39.097 16.5663 40.2053 16.8801C41.2853 17.1857 42.3766 17.3381 43.4993 17.3286C44.714 17.3185 45.9029 16.8616 47.0942 16.8992C48.8854 16.9558 49.8212 19.5661 48.0573 20.4633C45.4888 21.7691 41.6796 20.8203 39.1813 19.7347C37.1704 18.8608 34.0033 16.7957 33.8724 14.3196ZM20.826 14.9164C21.763 13.7072 23.6587 13.6347 24.4907 15.0593C25.35 16.5312 24.3173 18.007 22.8569 18.3116C20.192 19.5056 17.4625 20.4194 14.5518 20.7984L14.1575 20.8481C11.6243 21.157 8.42717 21.3255 6.138 20.1543C5.91376 20.0394 5.98169 19.697 6.20614 19.6327C7.49666 19.2628 8.94192 19.2637 10.2691 19.021C11.5315 18.7904 12.7836 18.5352 14.0129 18.1612C16.4417 17.4221 18.7429 16.3658 20.826 14.9164Z" fill="#FAFAFA"/>
</svg>
