<svg width="53" height="113" viewBox="0 0 53 113" fill="none" xmlns="http://www.w3.org/2000/svg">
<path d="M2.44562 79.7218C1.94375 79.4031 1.45781 79.5386 0.43814 79.5704C0.0159319 79.5784 -5.6495e-07 79.8015 -6.0395e-07 80.0245C-8.24021e-07 81.2832 0.191188 81.4266 1.73663 81.331C2.03934 81.2911 2.32613 81.2911 2.58901 81.2115C3.2502 81.0123 3.19444 80.3671 3.8397 80.7415C4.01496 80.845 4.26988 80.9326 4.46903 80.9008C5.82328 80.6777 5.81532 80.6698 5.72769 79.4669C5.64803 78.4233 6.0304 77.9692 5.33735 77.794C4.44513 77.563 4.14242 77.3558 3.72021 77.6028C3.3458 77.8179 2.98732 77.7223 2.84393 77.3479C2.7324 77.0451 2.66071 77.0691 0.844416 76.599C0.525768 76.5194 0.278817 76.599 0.231019 76.9177C0.127459 77.5868 -0.071696 78.5269 0.525768 78.5906C1.20289 78.6623 1.90392 78.8216 2.54121 78.3436C2.84393 78.1206 3.3936 78.2958 3.64851 78.6304C4.10259 79.212 3.45733 80.3591 2.44562 79.7218Z" fill="#18181B"/>
<path d="M3.21025 73.1092C1.3382 72.7906 0.931921 72.7667 0.868192 73.3801C0.748699 74.5033 0.318524 75.0689 1.10718 75.0291C2.43753 74.9653 3.09076 74.9972 3.33771 74.3918C3.4572 74.0891 3.93517 74.097 4.1423 74.3918C4.39721 74.7582 4.64416 74.7263 6.10198 74.5909C6.40469 74.5591 6.54012 74.4077 6.59588 74.1289C7.00216 72.0975 7.55979 72.2489 5.54435 71.5638C5.14604 71.4283 4.85925 72.1055 4.44501 71.5C4.1423 71.0539 4.0706 71.0699 2.35787 70.4007C2.06312 70.2812 1.8799 70.3848 1.74447 70.6556C1.10718 71.8904 1.19481 72.0736 2.66058 72.3046C3.22618 72.3922 3.79178 72.5675 4.38925 72.3365C4.50077 72.2967 4.78756 72.4241 4.84332 72.5356C5.01858 72.8623 4.93891 73.2048 4.62027 73.4438C4.0945 73.8421 3.86348 73.2128 3.21025 73.1012L3.21025 73.1092Z" fill="#18181B"/>
<path d="M5.66387 68.5438C5.08233 68.8625 5.03454 68.1614 4.4769 67.9225C2.84383 67.2214 2.50129 67.1338 2.2862 67.7552C1.87993 68.9103 1.34619 69.4201 2.07111 69.5316C3.30587 69.7228 3.87944 69.8742 4.25385 69.2926C4.44504 69.0059 4.86725 69.0935 4.97877 69.444C5.07437 69.7626 5.29742 69.8503 5.56827 69.8901C6.84286 70.0733 7.04202 70.145 7.26507 69.6432C8.14932 67.6357 8.63525 67.8587 6.99422 66.7514C6.67557 66.5363 6.22947 67.1896 6.01438 66.4726C5.86302 65.9468 5.78336 65.9468 4.41317 64.9192C4.17419 64.7439 3.99097 64.8077 3.79181 65.0626C2.89163 66.2336 2.9235 66.4407 4.18215 66.9665C4.66809 67.1736 5.13013 67.4604 5.74353 67.333C5.85505 67.3091 6.07811 67.5002 6.10201 67.6277C6.1737 68.0021 6.01438 68.3447 5.6559 68.5438L5.66387 68.5438Z" fill="#18181B"/>
<path d="M3.8711 85.7205C3.50466 85.5452 3.00279 85.7444 1.21836 85.9356C0.883783 85.9754 0.788189 86.1028 0.867851 86.3737C1.34582 87.943 1.36972 87.8554 2.82753 87.4173C4.40484 86.9393 4.5562 86.9234 4.65976 86.549C4.72349 86.3179 4.99434 86.3418 5.23332 86.4454C5.52807 86.5808 6.6752 86.1586 6.77876 85.8718C6.88232 85.5691 6.55571 84.9398 6.28486 83.8723C6.21316 83.6015 6.08571 83.466 5.75909 83.5059C5.32095 83.5616 4.85095 83.4182 4.47653 83.7847C4.36501 83.8962 3.52856 83.5218 3.30551 83.4979C2.51685 83.4182 1.71227 83.3943 0.923614 83.3147C0.310218 83.2589 0.32615 83.5935 0.365981 84.0316C0.469541 85.2027 0.589034 85.2823 2.23804 85.0672C2.25397 85.0991 2.26193 85.123 2.27787 85.1549C2.7877 84.9637 3.3055 84.7884 3.79941 84.5813C4.58806 84.2467 5.24129 85.0593 4.75535 85.6089C4.5084 85.8878 4.21365 85.8798 3.87907 85.7205L3.8711 85.7205Z" fill="#18181B"/>
<path d="M19.6603 72.9583C19.6603 72.9583 19.6603 72.8866 19.6683 72.8467C21.1022 72.4325 21.1101 72.4803 20.8871 71.7155C20.5923 70.7198 20.5127 70.6959 19.3177 71.2296C17.9396 71.851 17.7723 72.0023 17.605 72.2811C17.4218 72.5838 17.2147 72.6794 16.8562 72.536C16.4738 72.3847 15.9481 72.6555 15.7409 72.7511C14.1397 73.5 14.9443 73.3566 15.0957 75.141C15.1275 75.4835 15.3426 75.619 15.7489 75.5951C17.4377 75.4835 17.382 75.5313 17.7643 75.1649C18.1467 74.7905 18.545 74.7905 18.8398 75.141C19.1186 75.4756 19.3018 75.4915 21.1978 75.372C21.604 75.3481 21.7634 75.1569 21.6996 74.8462C21.5562 74.1691 21.5483 73.2689 20.9429 73.3645C17.6369 73.8823 18.553 74.0018 18.0352 74.185C17.8201 74.2647 17.4059 74.3444 17.366 74.2806C16.4738 72.9105 18.0193 73.0538 19.6762 72.9423L19.6603 72.9583Z" fill="#18181B"/>
<path d="M17.0316 78.7303C17.4857 78.5391 17.9238 78.5152 18.2982 78.8338C18.593 79.0888 20.4013 79.3437 20.6562 79.0888C20.9669 78.7781 21.0784 78.324 21.174 77.9257C21.2298 77.7026 21.1342 77.4318 20.9828 77.2486C20.8952 77.145 20.0588 77.2804 19.5091 77.3521C19.5091 77.3521 19.5091 77.3442 19.5091 77.3362C18.4098 77.4796 18.1708 77.4398 17.9796 77.8142C17.8203 78.1249 17.3821 78.1487 17.1431 77.9416C16.8245 77.6628 16.5297 77.7584 16.0279 77.8381C14.3948 78.0771 15.1038 78.0213 14.1877 80.0367C14.0602 80.3235 14.116 80.5306 14.4585 80.6501C15.5499 81.0166 15.7889 81.1042 16.1235 80.921C16.944 80.4749 16.8165 81.2874 17.422 81.4229C17.9477 81.5423 18.4974 81.5981 19.0391 81.6857C19.4693 81.7574 19.756 81.6061 19.9871 81.3193C20.7837 80.3554 20.6642 80.1164 19.3179 79.965C18.6965 79.8933 18.2504 79.7818 17.8681 79.965C16.5297 80.6342 16.1474 79.0967 17.0236 78.7223L17.0316 78.7303Z" fill="#18181B"/>
<path d="M16.6169 67.9725C17.1347 67.837 17.9711 67.5662 18.5049 67.2794C19.2059 66.9023 19.3679 66.4244 18.9908 65.8455C18.4571 65.0329 18.3934 65.025 17.6047 65.7658C17.1984 66.1482 16.7045 66.5146 16.593 67.1838C16.5293 67.5502 16.2504 67.7733 15.7964 67.7972C15.5654 67.8052 15.3343 67.9087 15.1113 67.9804C15.0157 68.0123 14.944 68.0999 14.8643 68.1636C13.1994 69.3426 14.2589 69.5498 14.3306 70.6491C14.3545 71.0713 14.6014 71.1749 14.9042 71.0793C16.7284 70.681 16.9754 70.6889 17.0949 70.2826C17.1745 70.0118 17.525 69.964 17.7481 70.1472C18.0906 70.4181 18.1942 70.2508 20.0503 69.7011C20.4168 69.5896 20.5124 69.4064 20.4566 69.1116C20.2654 68.1318 20.2495 67.0802 17.2064 69.2869C16.7683 69.6055 16.0991 69.4462 15.9159 68.9682C15.7725 68.5779 16.1469 68.0999 16.6169 67.9804L16.6169 67.9725Z" fill="#18181B"/>
<path d="M10.7624 64.9839C10.2605 65.1751 10.4358 65.3982 10.5075 65.6371C10.5871 65.9 10.5871 66.2426 10.7783 66.4019C10.9297 66.5293 11.32 66.4178 11.6068 66.4178C12.5787 66.4178 12.499 66.4656 13.0965 65.1671C12.8177 65.0954 12.6105 65.0556 12.4194 64.9839C11.9095 64.7927 11.8617 64.267 12.268 63.9164C12.7061 63.5341 12.8017 63.4225 13.5028 60.969C13.7417 60.1325 13.3195 60.244 10.9217 60.3237C10.5553 60.3396 10.388 60.5228 10.4198 60.8415C10.6349 63.2393 10.5553 63.3349 11.0412 63.9005C11.4236 64.3466 11.3598 64.7609 10.7624 64.9839Z" fill="#18181B"/>
<path d="M8.61966 61.6231C8.52407 61.2566 8.26118 61.1451 7.9027 61.3841C6.2537 62.4834 5.87132 62.7145 6.16607 63.2323C7.44066 65.4708 7.44863 65.4469 7.71948 65.4708C8.4444 65.5424 7.85491 65.9886 8.08592 66.3869C8.33288 66.8011 8.61169 67.1994 8.89051 67.6137C10.2926 66.7214 10.5315 66.7772 10.3244 66.0045C10.2527 65.7336 10.1014 65.4708 9.92611 65.2318C9.88628 65.184 9.60747 65.3114 9.46408 65.2796C8.61169 65.0804 8.86661 64.8494 8.99407 64.4511C9.19323 63.8218 9.42425 64.6263 8.62763 61.6231L8.61966 61.6231Z" fill="#18181B"/>
<path d="M14.0447 65.271C13.3596 65.3904 13.3835 65.0559 12.794 66.4499C12.7223 66.6172 13.4472 67.0633 13.8057 67.4139C14.0128 67.613 14.1961 67.613 14.3634 67.4059C14.6979 66.9837 15.0166 66.5535 15.3113 66.1074C15.5105 65.8047 15.0484 65.1435 15.8132 64.9603C16.2035 64.8647 16.4186 64.6416 16.6019 64.3469C17.3985 63.1041 17.8844 62.7457 17.2949 62.2677C16.1398 61.3197 15.7176 60.9453 15.4786 61.5029C14.3713 64.0601 14.3474 64.0362 14.5864 64.4106C14.8891 64.8886 14.682 65.255 14.0447 65.263L14.0447 65.271Z" fill="#18181B"/>
<path d="M11.7015 108.9C11.1996 109.274 11.2793 109.521 11.0243 111.568C10.9048 112.508 11.6855 112.309 14.2666 112.038C14.7047 111.99 14.8003 111.736 14.6968 111.409C13.8842 108.939 13.94 109.011 13.5018 108.804C12.8406 108.477 12.7849 108.095 13.3266 107.609C13.6532 107.322 13.3903 106.996 13.0079 106.207C11.3589 106.677 11.7413 105.92 11.2713 107.657C11.4226 107.729 11.5581 107.784 11.6855 107.848C12.2193 108.151 12.2033 108.533 11.7015 108.908L11.7015 108.9Z" fill="#18181B"/>
<path d="M15.9807 83.8265C16.1639 83.707 16.6498 83.6831 16.7773 83.7946C17.3031 84.2567 18.036 84.2885 18.6812 84.5036C19.207 84.6789 19.2628 84.3204 19.7248 83.4839C20.0195 82.9422 19.4699 83.0538 17.8527 83.0378C17.5022 83.237 16.9844 83.6512 16.7693 83.3087C16.4905 82.8546 15.9807 82.9263 15.5186 82.8785C14.1724 82.7351 14.5069 83.4282 13.8378 83.938C13.4235 84.2567 13.4634 84.4877 13.9015 84.7267C14.1564 84.8701 14.3715 85.0612 14.6424 85.1887C14.7937 85.2604 15.0247 85.2365 15.2 85.2843C15.8771 85.4994 15.7815 85.7782 16.0365 85.9694C17.6297 87.1564 18.8087 85.6189 18.0838 85.3321C17.4704 85.0851 16.9048 84.7585 16.14 84.8223C15.9727 84.8382 15.6381 84.6151 15.6381 84.5116C15.6541 84.2806 15.7736 83.9699 15.9807 83.8345L15.9807 83.8265Z" fill="#18181B"/>
<path d="M8.73057 106.507C9.336 105.686 9.91753 104.802 9.08905 103.727C8.57921 104.149 7.83836 104.396 7.52768 105.073C7.47191 105.184 7.31259 105.336 7.1931 105.352C6.6036 105.407 5.19358 106.268 5.03426 106.738C4.9307 107.04 4.98646 107.136 6.59563 109.43C6.77886 109.693 7.10547 109.685 7.24886 109.43C7.65514 108.737 8.2526 108.068 7.87022 107.216C7.79853 107.048 7.85429 106.754 7.98175 106.626C8.09328 106.515 8.40396 106.555 8.72261 106.515L8.73057 106.507Z" fill="#18181B"/>
<path d="M16.3545 105.602C16.5218 105.713 16.4501 106.382 16.6174 106.574C18.8081 108.987 18.7125 109.059 19.6924 106.175C19.8437 105.737 19.7322 105.387 19.2224 105.171C16.713 104.112 18.2266 104.582 17.0555 104.462C16.9042 104.447 16.6652 104.423 16.6174 104.343C16.2589 103.65 15.3906 103.722 14.833 103.371C14.1479 104.486 14.8728 105.116 15.5738 105.681C15.8766 105.641 16.2032 105.514 16.3386 105.61L16.3545 105.602Z" fill="#18181B"/>
<path d="M15.5024 111.044C15.6537 111.363 15.8768 111.442 16.2034 111.172C17.4143 110.168 18.0675 109.865 17.5736 109.228C16.3787 107.706 16.0281 107.197 15.8609 107.212C15.1997 107.284 15.343 106.926 15.2395 106.551C15.0961 106.049 14.6261 105.627 14.2437 105.109C13.4391 105.914 13.224 106.033 13.3515 106.336C13.471 106.631 13.7578 107.284 14.0685 107.324C14.7536 107.42 14.9766 107.802 14.7456 108.344C14.4429 109.061 14.7456 109.443 15.4944 111.036L15.5024 111.044Z" fill="#18181B"/>
<path d="M17.717 101.535C18.3304 101.75 18.9995 101.838 19.6767 101.989C19.7245 101.806 19.7404 101.766 19.7404 101.735C19.6846 100.221 19.9714 100.556 14.9686 100.707C14.5624 100.723 14.4508 100.874 14.4747 101.241C14.5305 102.491 14.5385 102.436 15.7812 102.85C19.4138 104.053 19.9077 104.961 19.9077 103.798C19.9077 103.041 20.059 102.619 19.3102 102.523C18.7844 102.459 18.2905 102.22 17.7409 102.579C17.0399 103.041 16.299 102.197 16.7929 101.535C17.0319 101.225 17.3744 101.392 17.7249 101.519L17.717 101.535Z" fill="#18181B"/>
<path d="M3.72815 96.9281C3.35374 96.8644 3.17849 96.9281 3.25815 97.2786C3.33781 97.6212 3.38561 98.1708 3.60866 98.2505C4.21409 98.4496 4.87528 98.8002 5.57631 98.3302C5.6958 98.2505 6.07818 98.2824 6.11801 98.362C6.78717 99.6685 5.05851 99.1985 3.56086 98.9834C3.52103 99.1029 3.49713 99.1427 3.5051 99.1746C3.56086 100.696 3.44137 100.561 8.05379 99.6047C8.88228 99.4375 8.43617 98.9356 8.476 98.37C8.5477 97.3105 8.88228 97.8124 3.73612 96.9361L3.72815 96.9281Z" fill="#18181B"/>
<path d="M6.02273 103.438C5.48103 103.414 4.9234 103.558 4.4056 103.621C4.37373 103.749 4.34983 103.789 4.3578 103.812C4.73221 105.214 4.52509 105.119 8.54801 103.342C8.96226 103.159 9.11361 102.904 8.97022 102.474C8.42852 100.857 9.8943 100.929 3.83203 101.701C3.91169 102.012 3.95949 102.418 4.11085 102.777C4.25424 103.103 5.52086 103.064 5.80765 102.713C6.40511 101.972 6.82732 102.793 6.75562 103.143C6.68393 103.494 6.37325 103.454 6.01477 103.438L6.02273 103.438Z" fill="#18181B"/>
<path d="M18.872 97.3693C18.2506 95.8397 18.7445 96.0389 14.0763 97.0904C13.67 97.1781 13.6063 97.3931 13.7577 97.7277C13.9329 98.1181 13.9329 98.6677 14.2356 98.8828C14.5463 99.0979 15.1279 98.9545 15.5899 99.0103C18.2426 99.3369 18.3781 99.4325 19.4615 99.4883C19.2384 98.9466 19.1747 98.4367 18.872 98.1181C18.5533 97.7835 17.2309 97.9906 16.8087 98.2694C16.6733 98.3571 16.3148 98.381 16.2591 98.3093C16.1316 98.126 16.036 97.8552 16.0838 97.6481C16.1714 97.2498 17.1831 97.3454 18.8799 97.3613L18.872 97.3693Z" fill="#18181B"/>
<path d="M9.24872 108.282C8.75482 108.449 8.69905 108.704 8.19718 109.915C7.8387 110.776 7.9104 110.951 8.79465 111.429C10.3162 112.257 10.0135 112.002 10.5153 109.748C10.6109 109.334 10.603 108.975 10.1728 108.672C9.79839 108.402 10.0214 107.94 10.5392 107.788C10.9296 107.677 11.4793 106.713 11.2801 106.418C11.1686 106.267 10.9137 106.203 10.7304 106.083C10.5472 105.964 10.3879 105.836 10.0772 105.605C9.80635 106.41 9.15313 107.008 9.40804 107.836C9.44787 107.963 9.36025 108.242 9.24872 108.282Z" fill="#18181B"/>
<path d="M11.941 72.3204C11.8454 72.4638 11.5506 72.7028 11.5427 72.9418C11.5347 73.3241 11.4471 73.5472 11.0169 73.7065C9.93349 74.1048 10.754 75.4033 11.694 74.7342C12.0127 74.5111 12.2676 74.535 12.5783 74.7342C13.5422 75.3555 14.3786 74.0411 13.2554 73.6826C12.881 73.5631 12.8332 73.3799 12.8969 73.0533C12.9925 72.5753 12.634 72.2487 11.933 72.3284L11.941 72.3204Z" fill="#18181B"/>
<path d="M9.44781 69.9885C9.35221 70.1319 9.05746 70.3709 9.0495 70.6099C9.04153 70.9923 8.9539 71.2153 8.52373 71.3746C7.44033 71.773 8.26084 73.0714 9.20085 72.4023C9.5195 72.1792 9.77442 72.2031 10.0851 72.4023C11.049 73.0236 11.8855 71.7092 10.7622 71.3428C10.3878 71.2233 10.34 71.0401 10.4038 70.7135C10.4993 70.2355 10.1409 69.9089 9.43984 69.9885L9.44781 69.9885Z" fill="#18181B"/>
<path d="M10.8183 86.9448C10.8183 86.5305 11.0334 86.3792 11.4237 86.2278C11.6866 86.1243 11.8619 85.8295 11.9893 85.71C11.8937 85.1126 11.4317 84.8815 10.9776 85.1126C10.5554 85.3277 10.2527 85.3595 9.88625 85.0409C9.12946 84.3797 8.10979 85.6702 9.08166 86.0526C9.5198 86.2199 9.57557 86.435 9.44811 86.8253C9.16133 87.6936 10.8183 87.8768 10.8183 86.9528L10.8183 86.9448Z" fill="#18181B"/>
<path d="M9.08094 83.6185C9.17653 83.4831 9.47128 83.2521 9.49518 83.0051C9.53501 82.6227 9.6784 82.4554 10.0847 82.3439C11.2557 82.0173 10.475 80.663 9.53501 81.2525C9.20043 81.4676 8.94551 81.4198 8.65873 81.1968C7.74262 80.4719 6.80261 81.7305 7.84618 82.1846C8.19669 82.3359 8.25245 82.5032 8.14889 82.8298C7.98957 83.3317 8.34008 83.6982 9.08094 83.6185Z" fill="#18181B"/>
<path d="M11.081 67.4781C11.0571 67.98 10.7703 68.1233 10.3003 68.2428C9.90999 68.3464 9.72677 68.673 9.87813 68.9917C9.98965 69.2147 10.2844 69.3581 10.4597 69.5015C11.1049 69.2466 11.1687 69.0235 11.8617 69.4696C12.8177 70.091 13.5665 68.8961 12.746 68.5057C12.3397 68.3145 12.26 68.1074 12.4273 67.7171C12.7858 66.8647 11.1209 66.6337 11.081 67.4781Z" fill="#18181B"/>
<path d="M10.9531 100.31C11.208 100.079 11.4231 100.047 11.7258 100.191C12.2276 100.422 12.6339 100.294 12.7853 99.8959C12.9287 99.5135 12.7136 99.2586 12.2117 99.0913C12.0126 99.0196 11.8612 98.8285 11.8054 98.7886C11.7337 98.0956 11.4709 97.8406 11.0407 97.9203C10.1007 98.0956 10.7778 98.8922 10.1803 99.3702C9.75016 99.7207 9.61474 100.047 9.90152 100.366C10.1724 100.669 10.5707 100.669 10.9531 100.318L10.9531 100.31Z" fill="#18181B"/>
<path d="M9.32058 77.7739C9.32855 77.3278 9.52771 77.1287 10.0057 77.0012C11.0094 76.7304 10.3084 75.3841 9.44008 75.9019C8.55583 76.4276 8.516 75.4717 7.56006 75.7824C7.37683 75.8381 7.27327 76.1329 7.12988 76.34C7.29717 76.5392 7.37683 76.7543 7.52819 76.81C8.03006 76.9693 8.05396 77.2402 7.94243 77.6624C7.71938 78.4989 9.29669 78.6024 9.31262 77.7819L9.32058 77.7739Z" fill="#18181B"/>
<path d="M10.7387 77.9139C10.7307 78.3042 10.4837 78.4237 10.1173 78.5592C9.84645 78.6627 9.63933 78.9176 9.50391 79.0292C9.55967 79.6426 9.99781 79.9134 10.4519 79.7063C10.9139 79.4992 11.2246 79.4912 11.591 79.8338C12.2761 80.479 13.3595 79.2841 12.4434 78.8539C12.0372 78.6627 11.9495 78.4715 12.1009 78.0732C12.4434 77.1571 10.7705 76.958 10.7387 77.9139Z" fill="#18181B"/>
<path d="M12.9052 102.77C13.7815 102.26 12.8255 101.105 12.0449 101.91C11.7899 102.172 11.5669 102.204 11.2323 102.069C10.1967 101.647 9.7028 102.993 10.826 103.184C11.1845 103.248 11.296 103.407 11.304 103.726C11.3199 104.698 12.8813 104.395 12.6025 103.583C12.475 103.208 12.5467 102.985 12.9052 102.778L12.9052 102.77Z" fill="#18181B"/>
<path d="M49.6374 18.5947C50.2747 19.0647 50.9758 18.9133 51.6529 18.8416C52.2583 18.7779 52.0512 17.806 51.9476 17.1687C51.8998 16.8421 51.6529 16.7704 51.3342 16.8501C49.5259 17.3201 49.4542 17.3042 49.3347 17.5989C49.1913 17.9733 48.8408 18.0769 48.4584 17.8538C48.0362 17.6069 47.7256 17.814 46.8413 18.045C46.1482 18.2203 46.5227 18.6823 46.451 19.7179C46.3633 20.9208 46.3474 20.9288 47.7096 21.1518C47.9088 21.1837 48.1637 21.0961 48.339 20.9925C48.9842 20.6101 48.9284 21.2634 49.5896 21.4625C49.8525 21.5422 50.1393 21.5422 50.442 21.582C51.9954 21.6856 52.1866 21.5422 52.1787 20.2755C52.1787 20.0525 52.1627 19.8294 51.7405 19.8215C50.7208 19.7976 50.2349 19.6542 49.733 19.9728C48.7293 20.6101 48.084 19.463 48.5301 18.8815C48.7851 18.5469 49.3347 18.3796 49.6374 18.5947Z" fill="#18181B"/>
<path d="M47.7981 12.5869C48.4035 12.818 48.9611 12.6427 49.5267 12.5551C50.9845 12.3241 51.0722 12.1408 50.4428 10.9061C50.3074 10.6352 50.1242 10.5396 49.8294 10.6512C48.1167 11.3203 48.045 11.3044 47.7423 11.7505C47.3281 12.3639 47.0413 11.6788 46.643 11.8142C44.6275 12.5073 45.1852 12.3559 45.5914 14.3793C45.6472 14.6581 45.7826 14.8095 46.0853 14.8414C47.5432 14.9768 47.7901 15.0087 48.045 14.6422C48.2521 14.3475 48.7221 14.3395 48.8496 14.6422C49.0966 15.2397 49.7498 15.2078 51.0801 15.2795C51.8688 15.3193 51.4386 14.7617 51.3191 13.6305C51.2554 13.0091 50.8332 13.049 48.9771 13.3597C48.3238 13.4712 48.0928 14.0925 47.567 13.7022C47.2404 13.4552 47.1687 13.1127 47.344 12.7941C47.4077 12.6825 47.6945 12.5551 47.7981 12.5949L47.7981 12.5869Z" fill="#18181B"/>
<path d="M46.4365 7.57863C47.042 7.70609 47.504 7.41931 47.9979 7.21219C49.2566 6.68642 49.2884 6.4793 48.3883 5.30827C48.1891 5.05335 48.0059 4.98166 47.7669 5.16488C46.3967 6.19252 46.325 6.18455 46.1657 6.71828C45.9506 7.43524 45.5125 6.78201 45.1858 6.9971C43.5368 8.1044 44.0308 7.88931 44.915 9.88883C45.1381 10.3907 45.3372 10.319 46.6118 10.1358C46.8906 10.0959 47.1057 10.0163 47.2013 9.68967C47.3128 9.33916 47.735 9.24357 47.9262 9.53832C48.3086 10.1198 48.8822 9.96849 50.109 9.7773C50.8259 9.66578 50.2922 9.1639 49.8939 8.00084C49.6788 7.38744 49.3681 7.45117 47.7032 8.16813C47.1376 8.40712 47.0898 9.10814 46.5162 8.78949C46.1577 8.59034 45.9984 8.24779 46.0701 7.87338C46.094 7.74592 46.325 7.55473 46.4286 7.57863L46.4365 7.57863Z" fill="#18181B"/>
<path d="M48.3949 24.8235C48.8888 25.0386 49.4066 25.2059 49.9165 25.3971C49.9324 25.3652 49.9404 25.3413 49.9563 25.3094C51.6053 25.5165 51.7328 25.4449 51.8284 24.2738C51.8682 23.8357 51.8841 23.5011 51.2707 23.5569C50.4821 23.6365 49.6775 23.6604 48.8888 23.7321C48.6658 23.756 47.8293 24.1304 47.7178 24.0189C47.3434 23.6525 46.8654 23.7959 46.4353 23.7401C46.1086 23.7003 45.9732 23.8277 45.9095 24.1065C45.6386 25.182 45.3041 25.8113 45.4156 26.106C45.5112 26.3928 46.6583 26.815 46.961 26.6796C47.2 26.576 47.4709 26.5442 47.5346 26.7832C47.6382 27.1576 47.7815 27.1735 49.3668 27.6515C50.8246 28.0976 50.8485 28.1852 51.3265 26.6079C51.4062 26.3371 51.3185 26.2096 50.976 26.1698C49.1916 25.9786 48.6897 25.7794 48.3232 25.9547C47.5266 26.3371 46.961 25.5165 47.4868 24.9669C47.7337 24.712 48.0285 24.6482 48.4029 24.8155L48.3949 24.8235Z" fill="#18181B"/>
<path d="M34.1601 14.4502C33.6423 14.2669 34.5584 14.1474 31.2524 13.6296C30.647 13.534 30.639 14.4342 30.4956 15.1114C30.4239 15.43 30.5912 15.6132 30.9975 15.6371C32.8934 15.7566 33.0767 15.7327 33.3555 15.4061C33.6502 15.0556 34.0485 15.0556 34.4309 15.43C34.8053 15.7964 34.7575 15.7487 36.4464 15.8602C36.8606 15.8841 37.0757 15.7487 37.0996 15.4061C37.251 13.6217 38.0635 13.7651 36.4543 13.0162C36.2472 12.9207 35.7214 12.6498 35.3391 12.8012C34.9806 12.9446 34.7735 12.849 34.5902 12.5462C34.423 12.2595 34.2557 12.1081 32.8775 11.4947C31.6746 10.953 31.6029 10.9849 31.3082 11.9806C31.0772 12.7454 31.0931 12.6976 32.527 13.1118C32.527 13.1517 32.527 13.1835 32.535 13.2234C34.1999 13.3349 35.7453 13.1915 34.8452 14.5617C34.8053 14.6254 34.3911 14.5458 34.176 14.4661L34.1601 14.4502Z" fill="#18181B"/>
<path d="M34.3113 20.2229C33.9289 20.0317 33.4828 20.1512 32.8614 20.2229C31.5152 20.3742 31.3957 20.6132 32.1923 21.5771C32.4233 21.8639 32.7101 22.0073 33.1403 21.9435C33.682 21.8559 34.2316 21.8002 34.7574 21.6807C35.3708 21.5452 35.2354 20.7327 36.0559 21.1788C36.3905 21.362 36.6295 21.2744 37.7208 20.9079C38.0634 20.7885 38.1191 20.5813 37.9917 20.2945C37.0756 18.2791 37.7846 18.3269 36.1515 18.0959C35.6496 18.0242 35.3549 17.9206 35.0362 18.1994C34.7972 18.4066 34.3591 18.3906 34.1998 18.072C34.0165 17.7055 33.7696 17.7374 32.6703 17.594C32.6703 17.594 32.6703 17.602 32.6703 17.6099C32.1286 17.5382 31.2921 17.4028 31.1965 17.5064C31.0452 17.6816 30.9496 17.9605 31.0053 18.1835C31.1009 18.5818 31.2124 19.0359 31.5231 19.3466C31.7701 19.6015 33.5784 19.3466 33.8811 19.0917C34.2555 18.773 34.6857 18.7969 35.1477 18.9881C36.032 19.3625 35.6496 20.892 34.3033 20.2308L34.3113 20.2229Z" fill="#18181B"/>
<path d="M34.9798 9.53196C31.9367 7.32533 31.9208 8.3928 31.7296 9.35671C31.6738 9.65146 31.7694 9.83468 32.1359 9.94621C33.984 10.4959 34.0876 10.6632 34.4381 10.3923C34.6691 10.2171 35.0116 10.2649 35.0913 10.5277C35.2108 10.942 35.4578 10.926 37.282 11.3244C37.5768 11.42 37.8237 11.3084 37.8556 10.8942C37.9273 9.79485 38.9868 9.58773 37.3218 8.40873C37.2342 8.35297 37.1705 8.26534 37.0749 8.22551C36.8518 8.14585 36.6208 8.05025 36.3898 8.04229C35.9357 8.01839 35.6569 7.79534 35.5932 7.42889C35.4817 6.75973 34.9877 6.40125 34.5815 6.01091C33.7928 5.27005 33.7291 5.27005 33.1954 6.09057C32.813 6.66945 32.975 7.14742 33.6813 7.52449C34.215 7.81127 35.0515 8.08212 35.5693 8.21754C36.0393 8.33704 36.4057 8.82297 36.2703 9.20535C36.095 9.69129 35.4179 9.84265 34.9798 9.524L34.9798 9.53196Z" fill="#18181B"/>
<path d="M41.7592 1.08536C41.7911 0.76671 41.6238 0.575521 41.2573 0.567555C38.8834 0.487893 38.4373 0.3684 38.6763 1.21282C39.3773 3.6664 39.4729 3.7859 39.911 4.16031C40.3173 4.51082 40.2615 5.03659 39.7597 5.22778C39.5685 5.29947 39.3614 5.3393 39.0825 5.411C39.68 6.70949 39.5924 6.66966 40.5722 6.66169C40.859 6.66169 41.2494 6.76525 41.4007 6.64576C41.5919 6.48643 41.5919 6.14389 41.6716 5.881C41.7433 5.64998 41.9185 5.41896 41.4166 5.22778C40.8192 5.00472 40.7475 4.59048 41.1378 4.14437C41.6238 3.57877 41.5441 3.49115 41.7592 1.08536Z" fill="#18181B"/>
<path d="M42.7242 5.52928C42.5808 5.56115 42.294 5.42572 42.2621 5.48149C42.0869 5.71251 41.9355 5.97539 41.8638 6.25421C41.6567 7.02693 41.8957 6.97116 43.2977 7.86338C43.5766 7.44914 43.8633 7.05083 44.1023 6.63658C44.3334 6.23828 43.7439 5.79217 44.4688 5.72047C44.7476 5.69657 44.7476 5.72047 46.0222 3.48197C46.1656 3.22706 46.1337 2.96417 45.8708 2.76502C44.4369 1.69755 43.7757 1.07618 43.5686 1.8728C42.772 4.87606 43.003 4.07147 43.2022 4.7008C43.3296 5.09911 43.5766 5.33013 42.7321 5.52928L42.7242 5.52928Z" fill="#18181B"/>
<path d="M36.7012 1.75606C36.5737 1.46131 36.3348 1.42148 36.0798 1.59674C34.0644 3.03862 34.383 2.7359 35.578 4.59999C35.7612 4.88677 35.9763 5.11779 36.3666 5.21339C37.1314 5.39661 36.6693 6.0578 36.8685 6.36052C37.1632 6.80663 37.4819 7.2368 37.8165 7.65901C37.9838 7.87409 38.167 7.87409 38.3741 7.66697C38.7405 7.31646 39.4575 6.87036 39.3858 6.70306C38.7963 5.30898 38.8202 5.64356 38.1351 5.52407C37.4898 5.5161 37.2907 5.14966 37.5934 4.67169C37.8324 4.29728 37.8005 4.32117 36.7012 1.76403L36.7012 1.75606Z" fill="#18181B"/>
<path d="M38.6843 49.0503C38.2461 49.2653 38.3019 49.1857 37.4893 51.6552C37.3858 51.9818 37.4814 52.2367 37.9195 52.2845C40.4846 52.5633 41.2812 52.7625 41.1617 51.8145C40.8989 49.7672 40.9865 49.5123 40.4846 49.1459C39.9828 48.7714 39.9668 48.397 40.5006 48.0863C40.6201 48.0147 40.7555 47.9669 40.9148 47.8952C40.4528 46.1665 40.8431 46.9233 39.1782 46.4453C38.7958 47.234 38.5249 47.5606 38.8595 47.8474C39.4012 48.3253 39.3455 48.7157 38.6843 49.0423L38.6843 49.0503Z" fill="#18181B"/>
<path d="M36.0475 25.0605C35.2828 24.9968 34.7172 25.3314 34.1038 25.5704C33.3788 25.8572 34.5578 27.3946 36.1511 26.2077C36.406 26.0165 36.3104 25.7377 36.9875 25.5226C37.1628 25.4668 37.3858 25.4987 37.5452 25.427C37.808 25.2995 38.0231 25.1083 38.286 24.9649C38.7162 24.7339 38.764 24.4949 38.3497 24.1763C37.6806 23.6665 38.0152 22.9734 36.6689 23.1168C36.2068 23.1646 35.697 23.0929 35.4182 23.547C35.2111 23.8895 34.6933 23.4753 34.3348 23.2761C32.7177 23.292 32.168 23.1805 32.4627 23.7222C32.9248 24.5587 32.9805 24.9172 33.5063 24.7419C34.1516 24.5348 34.8924 24.5029 35.4102 24.0329C35.5377 23.9214 36.0236 23.9453 36.2068 24.0648C36.414 24.2002 36.5335 24.5109 36.5494 24.7419C36.5494 24.8534 36.2228 25.0685 36.0475 25.0526L36.0475 25.0605Z" fill="#18181B"/>
<path d="M44.9311 49.6804C45.0825 49.9353 45.4011 49.9432 45.5844 49.6804C47.2015 47.3781 47.2493 47.2905 47.1457 46.9878C46.9864 46.5178 45.5764 45.6574 44.9869 45.6017C44.8674 45.5937 44.7001 45.4423 44.6523 45.3228C44.3416 44.6457 43.5928 44.3988 43.0909 43.9766C42.2625 45.052 42.844 45.9362 43.4494 46.7568C43.7681 46.7966 44.0788 46.7568 44.1903 46.8683C44.3257 47.0037 44.3815 47.2985 44.3018 47.4578C43.9194 48.3102 44.5169 48.9793 44.9232 49.6724L44.9311 49.6804Z" fill="#18181B"/>
<path d="M35.5696 46.8198C35.7368 46.6286 35.6651 45.9594 35.8324 45.8479C35.9679 45.7602 36.2945 45.8877 36.5972 45.9196C37.3062 45.354 38.0231 44.7246 37.338 43.6094C36.7804 43.9599 35.9121 43.8882 35.5536 44.5813C35.5138 44.6609 35.2748 44.6848 35.1155 44.7007C33.9604 44.8282 35.4501 44.3582 32.9487 45.4097C32.4468 45.6248 32.3353 45.9753 32.4787 46.4135C33.4665 49.2972 33.3709 49.2255 35.5536 46.8118L35.5696 46.8198Z" fill="#18181B"/>
<path d="M38.1115 47.5779C38.4301 47.5381 38.7089 46.8848 38.8284 46.5901C38.9559 46.2874 38.7408 46.1679 37.9362 45.3633C37.5618 45.8811 37.0918 46.3033 36.9404 46.8052C36.8289 47.1796 36.9803 47.5381 36.3191 47.4664C36.1518 47.4504 35.8013 47.9603 34.6064 49.4818C34.1124 50.1191 34.7657 50.4218 35.9765 51.4256C36.3031 51.6964 36.5262 51.6247 36.6776 51.2981C37.4264 49.7049 37.7291 49.3225 37.4264 48.6055C37.1954 48.0559 37.4264 47.6735 38.1035 47.5858L38.1115 47.5779Z" fill="#18181B"/>
<path d="M34.4538 42.8367C33.9121 42.4783 33.4102 42.7172 32.8844 42.781C32.1356 42.8766 32.287 43.2988 32.287 44.0556C32.287 45.2186 32.7809 44.3105 36.4134 43.1076C37.6562 42.6933 37.6641 42.7411 37.7199 41.4984C37.7358 41.124 37.6323 40.9726 37.226 40.9647C32.2232 40.8133 32.51 40.4787 32.4542 41.9923C32.4542 42.0242 32.4702 42.064 32.518 42.2472C33.1951 42.0959 33.8643 42.0003 34.4777 41.7932C34.8282 41.6737 35.1787 41.4984 35.4097 41.8091C35.9116 42.4703 35.1628 43.3067 34.4617 42.8527L34.4538 42.8367Z" fill="#18181B"/>
<path d="M44.1416 39.85C48.754 40.8059 48.6345 40.9413 48.6903 39.4198C48.6903 39.3879 48.6664 39.3481 48.6266 39.2286C47.1448 39.4357 45.4002 39.9137 46.0694 38.6072C46.1092 38.5276 46.4916 38.4957 46.6111 38.5754C47.3121 39.0454 47.9733 38.7028 48.5788 38.4957C48.8018 38.424 48.8496 37.8744 48.9293 37.5238C49.0089 37.1813 48.8337 37.1096 48.4593 37.1733C43.3211 38.0496 43.6477 37.5477 43.7194 38.6072C43.7592 39.1728 43.3211 39.6667 44.1416 39.842L44.1416 39.85Z" fill="#18181B"/>
<path d="M46.3726 42.9656C46.6594 43.3161 47.926 43.3639 48.0694 43.0293C48.2287 42.6629 48.2765 42.2566 48.3482 41.9539C42.2859 41.1812 43.7597 41.1015 43.21 42.7266C43.0666 43.1568 43.218 43.4117 43.6322 43.5949C47.6551 45.3714 47.448 45.467 47.8224 44.0649C47.8224 44.0331 47.8065 44.0012 47.7746 43.8737C47.2568 43.81 46.6992 43.6666 46.1575 43.6905C45.807 43.7064 45.4963 43.7463 45.4166 43.3958C45.3449 43.0452 45.7672 42.2247 46.3646 42.9656L46.3726 42.9656Z" fill="#18181B"/>
<path d="M35.3871 38.5175C34.9649 38.2387 33.6425 38.0236 33.3239 38.3661C33.0212 38.6848 32.9495 39.1946 32.7344 39.7363C33.8098 39.6806 33.9532 39.585 36.6059 39.2584C37.06 39.2026 37.6495 39.338 37.9602 39.1309C38.2629 38.9238 38.2629 38.3661 38.4382 37.9758C38.5895 37.6412 38.5258 37.4261 38.1195 37.3385C33.4434 36.287 33.9532 36.0719 33.3239 37.6173C35.0207 37.6014 36.0324 37.4978 36.12 37.9041C36.1678 38.1112 36.0722 38.3821 35.9447 38.5653C35.889 38.637 35.5305 38.6211 35.3951 38.5255L35.3871 38.5175Z" fill="#18181B"/>
<path d="M42.1016 45.8555C41.7909 46.0785 41.6316 46.2139 41.4484 46.3334C41.2651 46.4529 41.0102 46.5167 40.8987 46.668C40.6916 46.9548 41.2412 47.9267 41.6396 48.0382C42.1653 48.1896 42.3804 48.6516 42.006 48.9225C41.5838 49.2331 41.5758 49.5836 41.6635 49.9979C42.1574 52.2523 41.8626 52.5072 43.3842 51.6788C44.2684 51.1928 44.3401 51.0255 43.9816 50.1652C43.4797 48.9543 43.424 48.6994 42.9301 48.5321C42.8265 48.4923 42.7309 48.2214 42.7708 48.086C43.0257 47.2655 42.3724 46.668 42.1016 45.8555Z" fill="#18181B"/>
<path d="M38.915 13.9289C37.7918 14.2953 38.6283 15.6018 39.5922 14.9804C39.9029 14.7813 40.1657 14.7574 40.4764 14.9804C41.4164 15.6496 42.237 14.3511 41.1535 13.9528C40.7234 13.7934 40.6437 13.5784 40.6278 13.188C40.6278 12.949 40.3251 12.71 40.2295 12.5667C39.5284 12.487 39.17 12.8136 39.2656 13.2916C39.3293 13.6102 39.2815 13.7934 38.9071 13.9209L38.915 13.9289Z" fill="#18181B"/>
<path d="M41.417 11.5929C40.2938 11.9594 41.1302 13.2658 42.0941 12.6445C42.4048 12.4453 42.6677 12.4214 42.9784 12.6445C43.9184 13.3136 44.7389 12.0151 43.6555 11.6168C43.2253 11.4575 43.1457 11.2424 43.1297 10.8521C43.1297 10.6131 42.827 10.3741 42.7314 10.2307C42.0304 10.1511 41.6719 10.4777 41.7675 10.9556C41.8312 11.2743 41.7834 11.4575 41.409 11.585L41.417 11.5929Z" fill="#18181B"/>
<path d="M43.0971 26.2979C44.069 25.9235 43.0493 24.625 42.2925 25.2862C41.9261 25.6049 41.6313 25.573 41.2012 25.3579C40.7471 25.1269 40.293 25.3579 40.1895 25.9554C40.3169 26.0749 40.4842 26.3696 40.7551 26.4732C41.1454 26.6325 41.3605 26.7839 41.3605 27.1901C41.3605 28.1142 43.0174 27.931 42.7307 27.0627C42.6032 26.6723 42.659 26.4652 43.0971 26.29L43.0971 26.2979Z" fill="#18181B"/>
<path d="M44.3407 22.4353C45.3843 21.9813 44.4443 20.7306 43.5282 21.4475C43.2414 21.6785 42.9865 21.7184 42.6519 21.5033C41.7119 20.9138 40.9312 22.268 42.1022 22.5946C42.5085 22.7062 42.6519 22.8814 42.6917 23.2558C42.7156 23.5028 43.0104 23.7338 43.1059 23.8692C43.8468 23.9489 44.1973 23.5825 44.038 23.0806C43.9344 22.754 43.9902 22.5867 44.3407 22.4353Z" fill="#18181B"/>
<path d="M39.4415 8.75767C38.613 9.14802 39.3619 10.3429 40.3258 9.72158C41.0188 9.27547 41.0826 9.49853 41.7278 9.75345C41.9031 9.60209 42.2058 9.4587 42.3093 9.24361C42.4687 8.92496 42.2855 8.60631 41.8871 8.49479C41.4251 8.36733 41.1303 8.2319 41.1065 7.73003C41.0666 6.89358 39.3937 7.1246 39.7602 7.96902C39.9275 8.35936 39.8478 8.56648 39.4415 8.75767Z" fill="#18181B"/>
<path d="M40.4535 40.4408C40.7642 40.2974 40.9793 40.3293 41.2262 40.5603C41.6166 40.9108 42.0069 40.9108 42.2778 40.6081C42.5566 40.2974 42.4291 39.9629 41.999 39.6123C41.4015 39.1344 42.0786 38.3377 41.1386 38.1625C40.7084 38.0828 40.4456 38.3377 40.3739 39.0308C40.3181 39.0706 40.1667 39.2698 39.9676 39.3335C39.4577 39.5008 39.2506 39.7557 39.394 40.1381C39.5454 40.5285 39.9517 40.6639 40.4535 40.4329L40.4535 40.4408Z" fill="#18181B"/>
<path d="M44.6519 17.0575C44.8032 17.0097 44.8909 16.7946 45.0502 16.5875C44.8988 16.3804 44.8032 16.0936 44.62 16.0299C43.6641 15.7271 43.6242 16.6751 42.74 16.1493C41.8717 15.6315 41.1786 16.9778 42.1744 17.2487C42.6524 17.3761 42.8515 17.5753 42.8595 18.0214C42.8754 18.8419 44.4527 18.7384 44.2297 17.9019C44.1181 17.4797 44.142 17.2089 44.6439 17.0495L44.6519 17.0575Z" fill="#18181B"/>
<path d="M39.7436 19.0973C38.8275 19.5275 39.9109 20.7224 40.596 20.0772C40.9625 19.7346 41.2731 19.7426 41.7352 19.9497C42.1892 20.1568 42.6274 19.894 42.6831 19.2726C42.5477 19.1611 42.3486 18.9061 42.0698 18.8026C41.7033 18.6672 41.4564 18.5477 41.4484 18.1573C41.4165 17.2014 39.7516 17.4085 40.0862 18.3166C40.2375 18.715 40.1419 18.9061 39.7436 19.0973Z" fill="#18181B"/>
<path d="M40.8914 43.9681C40.8914 43.6494 41.0109 43.4901 41.3694 43.4264C42.4926 43.2352 41.9987 41.8889 40.9631 42.3111C40.6285 42.4465 40.4055 42.4147 40.1506 42.1518C39.3699 41.3472 38.406 42.5023 39.2902 43.0121C39.6487 43.2193 39.7284 43.4423 39.5929 43.8167C39.3141 44.6293 40.8835 44.932 40.8914 43.9601L40.8914 43.9681Z" fill="#18181B"/>
</svg>
