<svg width="53" height="113" viewBox="0 0 53 113" fill="none" xmlns="http://www.w3.org/2000/svg">
<g opacity="0.3">
<path d="M2.44562 79.9679C1.94375 79.6492 1.45781 79.7847 0.43814 79.8165C0.0159319 79.8245 -5.6495e-07 80.0475 -6.0395e-07 80.2706C-8.24021e-07 81.5293 0.191188 81.6726 1.73663 81.5771C2.03934 81.5372 2.32613 81.5372 2.58901 81.4576C3.2502 81.2584 3.19444 80.6131 3.8397 80.9876C4.01496 81.0911 4.26988 81.1787 4.46903 81.1469C5.82328 80.9238 5.81532 80.9159 5.72769 79.713C5.64803 78.6694 6.0304 78.2153 5.33735 78.0401C4.44513 77.809 4.14242 77.6019 3.72021 77.8489C3.3458 78.064 2.98732 77.9684 2.84393 77.594C2.7324 77.2912 2.66071 77.3151 0.844416 76.8451C0.525768 76.7655 0.278817 76.8451 0.231019 77.1638C0.127459 77.8329 -0.071696 78.773 0.525768 78.8367C1.20289 78.9084 1.90392 79.0677 2.54121 78.5897C2.84393 78.3667 3.3936 78.5419 3.64851 78.8765C4.10259 79.458 3.45733 80.6052 2.44562 79.9679Z" fill="#18181B"/>
<path d="M3.21025 73.3592C1.3382 73.0406 0.931921 73.0167 0.868192 73.6301C0.748699 74.7533 0.318524 75.3189 1.10718 75.2791C2.43753 75.2153 3.09076 75.2472 3.33771 74.6418C3.4572 74.3391 3.93517 74.347 4.1423 74.6418C4.39721 75.0082 4.64416 74.9763 6.10198 74.8409C6.40469 74.8091 6.54012 74.6577 6.59588 74.3789C7.00216 72.3475 7.55979 72.4989 5.54435 71.8138C5.14604 71.6783 4.85925 72.3555 4.44501 71.75C4.1423 71.3039 4.0706 71.3199 2.35787 70.6507C2.06312 70.5312 1.8799 70.6348 1.74447 70.9056C1.10718 72.1404 1.19481 72.3236 2.66058 72.5546C3.22618 72.6422 3.79178 72.8175 4.38925 72.5865C4.50077 72.5467 4.78756 72.6741 4.84332 72.7856C5.01858 73.1123 4.93891 73.4548 4.62027 73.6938C4.0945 74.0921 3.86348 73.4628 3.21025 73.3512L3.21025 73.3592Z" fill="#18181B"/>
<path d="M5.66387 68.7938C5.08233 69.1125 5.03454 68.4114 4.4769 68.1725C2.84383 67.4714 2.50129 67.3838 2.2862 68.0052C1.87993 69.1603 1.34619 69.6701 2.07111 69.7816C3.30587 69.9728 3.87944 70.1242 4.25385 69.5426C4.44504 69.2559 4.86725 69.3435 4.97877 69.694C5.07437 70.0126 5.29742 70.1003 5.56827 70.1401C6.84286 70.3233 7.04202 70.395 7.26507 69.8932C8.14932 67.8857 8.63525 68.1087 6.99422 67.0014C6.67557 66.7863 6.22947 67.4396 6.01438 66.7226C5.86302 66.1968 5.78336 66.1968 4.41317 65.1692C4.17419 64.9939 3.99097 65.0577 3.79181 65.3126C2.89163 66.4836 2.9235 66.6907 4.18215 67.2165C4.66809 67.4236 5.13013 67.7104 5.74353 67.583C5.85505 67.5591 6.07811 67.7502 6.10201 67.8777C6.1737 68.2521 6.01438 68.5947 5.6559 68.7938L5.66387 68.7938Z" fill="#18181B"/>
<path d="M3.8711 85.9705C3.50466 85.7952 3.00279 85.9944 1.21836 86.1856C0.883783 86.2254 0.788189 86.3528 0.867851 86.6237C1.34582 88.193 1.36972 88.1054 2.82753 87.6673C4.40484 87.1893 4.5562 87.1734 4.65976 86.799C4.72349 86.5679 4.99434 86.5918 5.23332 86.6954C5.52807 86.8308 6.6752 86.4086 6.77876 86.1218C6.88232 85.8191 6.55571 85.1898 6.28486 84.1223C6.21316 83.8515 6.08571 83.716 5.75909 83.7559C5.32095 83.8116 4.85095 83.6682 4.47653 84.0347C4.36501 84.1462 3.52856 83.7718 3.30551 83.7479C2.51685 83.6682 1.71227 83.6443 0.923614 83.5647C0.310218 83.5089 0.32615 83.8435 0.365981 84.2816C0.469541 85.4527 0.589034 85.5323 2.23804 85.3172C2.25397 85.3491 2.26193 85.373 2.27787 85.4049C2.7877 85.2137 3.3055 85.0384 3.79941 84.8313C4.58806 84.4967 5.24129 85.3093 4.75535 85.8589C4.5084 86.1378 4.21365 86.1298 3.87907 85.9705L3.8711 85.9705Z" fill="#18181B"/>
<path d="M19.6603 73.2083C19.6603 73.2083 19.6603 73.1366 19.6683 73.0967C21.1022 72.6825 21.1101 72.7303 20.8871 71.9655C20.5923 70.9698 20.5127 70.9459 19.3177 71.4796C17.9396 72.101 17.7723 72.2523 17.605 72.5311C17.4218 72.8338 17.2147 72.9294 16.8562 72.786C16.4738 72.6347 15.9481 72.9055 15.7409 73.0011C14.1397 73.75 14.9443 73.6066 15.0957 75.391C15.1275 75.7335 15.3426 75.869 15.7489 75.8451C17.4377 75.7335 17.382 75.7813 17.7643 75.4149C18.1467 75.0405 18.545 75.0405 18.8398 75.391C19.1186 75.7256 19.3018 75.7415 21.1978 75.622C21.604 75.5981 21.7634 75.4069 21.6996 75.0962C21.5562 74.4191 21.5483 73.5189 20.9429 73.6145C17.6369 74.1323 18.553 74.2518 18.0352 74.435C17.8201 74.5147 17.4059 74.5944 17.366 74.5306C16.4738 73.1605 18.0193 73.3038 19.6762 73.1923L19.6603 73.2083Z" fill="#18181B"/>
<path d="M17.0316 78.9803C17.4857 78.7891 17.9238 78.7652 18.2982 79.0838C18.593 79.3388 20.4013 79.5937 20.6562 79.3388C20.9669 79.0281 21.0784 78.574 21.174 78.1757C21.2298 77.9526 21.1342 77.6818 20.9828 77.4986C20.8952 77.395 20.0588 77.5304 19.5091 77.6021C19.5091 77.6021 19.5091 77.5942 19.5091 77.5862C18.4098 77.7296 18.1708 77.6898 17.9796 78.0642C17.8203 78.3749 17.3821 78.3987 17.1431 78.1916C16.8245 77.9128 16.5297 78.0084 16.0279 78.0881C14.3948 78.3271 15.1038 78.2713 14.1877 80.2867C14.0602 80.5735 14.116 80.7806 14.4585 80.9001C15.5499 81.2666 15.7889 81.3542 16.1235 81.171C16.944 80.7249 16.8165 81.5374 17.422 81.6729C17.9477 81.7923 18.4974 81.8481 19.0391 81.9357C19.4693 82.0074 19.756 81.8561 19.9871 81.5693C20.7837 80.6054 20.6642 80.3664 19.3179 80.215C18.6965 80.1433 18.2504 80.0318 17.8681 80.215C16.5297 80.8842 16.1474 79.3467 17.0236 78.9723L17.0316 78.9803Z" fill="#18181B"/>
<path d="M16.6169 68.2225C17.1347 68.087 17.9711 67.8162 18.5049 67.5294C19.2059 67.1523 19.3679 66.6744 18.9908 66.0955C18.4571 65.2829 18.3934 65.275 17.6047 66.0158C17.1984 66.3982 16.7045 66.7646 16.593 67.4338C16.5293 67.8002 16.2504 68.0233 15.7964 68.0472C15.5654 68.0552 15.3343 68.1587 15.1113 68.2304C15.0157 68.2623 14.944 68.3499 14.8643 68.4136C13.1994 69.5926 14.2589 69.7998 14.3306 70.8991C14.3545 71.3213 14.6014 71.4249 14.9042 71.3293C16.7284 70.931 16.9754 70.9389 17.0949 70.5326C17.1745 70.2618 17.525 70.214 17.7481 70.3972C18.0906 70.6681 18.1942 70.5008 20.0503 69.9511C20.4168 69.8396 20.5124 69.6564 20.4566 69.3616C20.2654 68.3818 20.2495 67.3302 17.2064 69.5369C16.7683 69.8555 16.0991 69.6962 15.9159 69.2182C15.7725 68.8279 16.1469 68.3499 16.6169 68.2304L16.6169 68.2225Z" fill="#18181B"/>
<path d="M10.7624 65.2339C10.2605 65.4251 10.4358 65.6482 10.5075 65.8871C10.5871 66.15 10.5871 66.4926 10.7783 66.6519C10.9297 66.7793 11.32 66.6678 11.6068 66.6678C12.5787 66.6678 12.499 66.7156 13.0965 65.4171C12.8177 65.3454 12.6105 65.3056 12.4194 65.2339C11.9095 65.0427 11.8617 64.517 12.268 64.1664C12.7061 63.7841 12.8017 63.6725 13.5028 61.219C13.7417 60.3825 13.3195 60.494 10.9217 60.5737C10.5553 60.5896 10.388 60.7728 10.4198 61.0915C10.6349 63.4893 10.5553 63.5849 11.0412 64.1505C11.4236 64.5966 11.3598 65.0109 10.7624 65.2339Z" fill="#18181B"/>
<path d="M8.61966 61.8731C8.52407 61.5066 8.26118 61.3951 7.9027 61.6341C6.2537 62.7334 5.87132 62.9645 6.16607 63.4823C7.44066 65.7208 7.44863 65.6969 7.71948 65.7208C8.4444 65.7924 7.85491 66.2386 8.08592 66.6369C8.33288 67.0511 8.61169 67.4494 8.89051 67.8637C10.2926 66.9714 10.5315 67.0272 10.3244 66.2545C10.2527 65.9836 10.1014 65.7208 9.92611 65.4818C9.88628 65.434 9.60747 65.5614 9.46408 65.5296C8.61169 65.3304 8.86661 65.0994 8.99407 64.7011C9.19323 64.0718 9.42425 64.8763 8.62763 61.8731L8.61966 61.8731Z" fill="#18181B"/>
<path d="M14.0447 65.521C13.3596 65.6404 13.3835 65.3059 12.794 66.6999C12.7223 66.8672 13.4472 67.3133 13.8057 67.6639C14.0128 67.863 14.1961 67.863 14.3634 67.6559C14.6979 67.2337 15.0166 66.8035 15.3113 66.3574C15.5105 66.0547 15.0484 65.3935 15.8132 65.2103C16.2035 65.1147 16.4186 64.8916 16.6019 64.5969C17.3985 63.3541 17.8844 62.9957 17.2949 62.5177C16.1398 61.5697 15.7176 61.1953 15.4786 61.7529C14.3713 64.3101 14.3474 64.2862 14.5864 64.6606C14.8891 65.1386 14.682 65.505 14.0447 65.513L14.0447 65.521Z" fill="#18181B"/>
<path d="M11.7024 109.15C11.2006 109.524 11.2802 109.771 11.0253 111.818C10.9058 112.758 11.6865 112.559 14.2676 112.288C14.7057 112.24 14.8013 111.986 14.6977 111.659C13.8852 109.189 13.9409 109.261 13.5028 109.054C12.8416 108.727 12.7858 108.345 13.3275 107.859C13.6542 107.572 13.3913 107.246 13.0089 106.457C11.3599 106.927 11.7423 106.17 11.2723 107.907C11.4236 107.979 11.5591 108.034 11.6865 108.098C12.2202 108.401 12.2043 108.783 11.7024 109.158L11.7024 109.15Z" fill="#18181B"/>
<path d="M15.9807 84.0726C16.1639 83.9531 16.6498 83.9292 16.7773 84.0407C17.3031 84.5028 18.036 84.5346 18.6812 84.7497C19.207 84.925 19.2628 84.5665 19.7248 83.73C20.0195 83.1883 19.4699 83.2999 17.8527 83.2839C17.5022 83.4831 16.9844 83.8973 16.7693 83.5548C16.4905 83.1007 15.9807 83.1724 15.5186 83.1246C14.1724 82.9812 14.5069 83.6743 13.8378 84.1841C13.4235 84.5028 13.4634 84.7338 13.9015 84.9728C14.1564 85.1162 14.3715 85.3073 14.6424 85.4348C14.7937 85.5065 15.0247 85.4826 15.2 85.5304C15.8771 85.7455 15.7815 86.0243 16.0365 86.2155C17.6297 87.4024 18.8087 85.865 18.0838 85.5782C17.4704 85.3312 16.9048 85.0046 16.14 85.0684C15.9727 85.0843 15.6381 84.8612 15.6381 84.7577C15.6541 84.5266 15.7736 84.216 15.9807 84.0805L15.9807 84.0726Z" fill="#18181B"/>
<path d="M8.73057 106.757C9.336 105.936 9.91753 105.052 9.08905 103.977C8.57921 104.399 7.83836 104.646 7.52768 105.323C7.47191 105.434 7.31259 105.586 7.1931 105.602C6.6036 105.657 5.19358 106.518 5.03426 106.988C4.9307 107.29 4.98646 107.386 6.59563 109.68C6.77886 109.943 7.10547 109.935 7.24886 109.68C7.65514 108.987 8.2526 108.318 7.87022 107.466C7.79853 107.298 7.85429 107.004 7.98175 106.876C8.09328 106.765 8.40396 106.805 8.72261 106.765L8.73057 106.757Z" fill="#18181B"/>
<path d="M16.3545 105.852C16.5218 105.963 16.4501 106.632 16.6174 106.824C18.8081 109.237 18.7125 109.309 19.6924 106.425C19.8437 105.987 19.7322 105.637 19.2224 105.421C16.713 104.362 18.2266 104.832 17.0555 104.712C16.9042 104.697 16.6652 104.673 16.6174 104.593C16.2589 103.9 15.3906 103.972 14.833 103.621C14.1479 104.736 14.8728 105.366 15.5738 105.931C15.8766 105.891 16.2032 105.764 16.3386 105.86L16.3545 105.852Z" fill="#18181B"/>
<path d="M15.5024 111.294C15.6537 111.613 15.8768 111.692 16.2034 111.422C17.4143 110.418 18.0675 110.115 17.5736 109.478C16.3787 107.956 16.0281 107.447 15.8609 107.462C15.1997 107.534 15.343 107.176 15.2395 106.801C15.0961 106.299 14.6261 105.877 14.2437 105.359C13.4391 106.164 13.224 106.283 13.3515 106.586C13.471 106.881 13.7578 107.534 14.0685 107.574C14.7536 107.67 14.9766 108.052 14.7456 108.594C14.4429 109.311 14.7456 109.693 15.4944 111.286L15.5024 111.294Z" fill="#18181B"/>
<path d="M17.717 101.785C18.3304 102 18.9995 102.088 19.6767 102.239C19.7245 102.056 19.7404 102.016 19.7404 101.985C19.6846 100.471 19.9714 100.806 14.9686 100.957C14.5624 100.973 14.4508 101.124 14.4747 101.491C14.5305 102.741 14.5385 102.686 15.7812 103.1C19.4138 104.303 19.9077 105.211 19.9077 104.048C19.9077 103.291 20.059 102.869 19.3102 102.773C18.7844 102.709 18.2905 102.47 17.7409 102.829C17.0399 103.291 16.299 102.447 16.7929 101.785C17.0319 101.475 17.3744 101.642 17.7249 101.769L17.717 101.785Z" fill="#18181B"/>
<path d="M3.72815 97.1781C3.35374 97.1144 3.17849 97.1781 3.25815 97.5286C3.33781 97.8712 3.38561 98.4208 3.60866 98.5005C4.21409 98.6996 4.87528 99.0502 5.57631 98.5802C5.6958 98.5005 6.07818 98.5324 6.11801 98.612C6.78717 99.9185 5.05851 99.4485 3.56086 99.2334C3.52103 99.3529 3.49713 99.3927 3.5051 99.4246C3.56086 100.946 3.44137 100.811 8.05379 99.8547C8.88228 99.6875 8.43617 99.1856 8.476 98.62C8.5477 97.5605 8.88228 98.0624 3.73612 97.1861L3.72815 97.1781Z" fill="#18181B"/>
<path d="M6.02273 103.688C5.48103 103.664 4.9234 103.808 4.4056 103.871C4.37373 103.999 4.34983 104.039 4.3578 104.062C4.73221 105.464 4.52509 105.369 8.54801 103.592C8.96226 103.409 9.11361 103.154 8.97022 102.724C8.42852 101.107 9.8943 101.179 3.83203 101.951C3.91169 102.262 3.95949 102.668 4.11085 103.027C4.25424 103.353 5.52086 103.314 5.80765 102.963C6.40511 102.222 6.82732 103.043 6.75562 103.393C6.68393 103.744 6.37325 103.704 6.01477 103.688L6.02273 103.688Z" fill="#18181B"/>
<path d="M18.872 97.6193C18.2506 96.0897 18.7445 96.2889 14.0763 97.3404C13.67 97.4281 13.6063 97.6431 13.7577 97.9777C13.9329 98.3681 13.9329 98.9177 14.2356 99.1328C14.5463 99.3479 15.1279 99.2045 15.5899 99.2603C18.2426 99.5869 18.3781 99.6825 19.4615 99.7383C19.2384 99.1966 19.1747 98.6867 18.872 98.3681C18.5533 98.0335 17.2309 98.2406 16.8087 98.5194C16.6733 98.6071 16.3148 98.631 16.2591 98.5593C16.1316 98.376 16.036 98.1052 16.0838 97.8981C16.1714 97.4998 17.1831 97.5954 18.8799 97.6113L18.872 97.6193Z" fill="#18181B"/>
<path d="M9.24872 108.532C8.75482 108.699 8.69905 108.954 8.19718 110.165C7.8387 111.026 7.9104 111.201 8.79465 111.679C10.3162 112.507 10.0135 112.252 10.5153 109.998C10.6109 109.584 10.603 109.225 10.1728 108.922C9.79839 108.652 10.0214 108.19 10.5392 108.038C10.9296 107.927 11.4793 106.963 11.2801 106.668C11.1686 106.517 10.9137 106.453 10.7304 106.333C10.5472 106.214 10.3879 106.086 10.0772 105.855C9.80635 106.66 9.15313 107.258 9.40804 108.086C9.44787 108.213 9.36025 108.492 9.24872 108.532Z" fill="#18181B"/>
<path d="M11.941 72.5704C11.8454 72.7138 11.5506 72.9528 11.5427 73.1918C11.5347 73.5741 11.4471 73.7972 11.0169 73.9565C9.93349 74.3548 10.754 75.6533 11.694 74.9842C12.0127 74.7611 12.2676 74.785 12.5783 74.9842C13.5422 75.6055 14.3786 74.2911 13.2554 73.9326C12.881 73.8131 12.8332 73.6299 12.8969 73.3033C12.9925 72.8253 12.634 72.4987 11.933 72.5784L11.941 72.5704Z" fill="#18181B"/>
<path d="M9.44781 70.2385C9.35221 70.3819 9.05746 70.6209 9.0495 70.8599C9.04153 71.2423 8.9539 71.4653 8.52373 71.6246C7.44033 72.023 8.26084 73.3214 9.20085 72.6523C9.5195 72.4292 9.77442 72.4531 10.0851 72.6523C11.049 73.2736 11.8855 71.9592 10.7622 71.5928C10.3878 71.4733 10.34 71.2901 10.4038 70.9635C10.4993 70.4855 10.1409 70.1589 9.43984 70.2385L9.44781 70.2385Z" fill="#18181B"/>
<path d="M10.8183 87.1948C10.8183 86.7805 11.0334 86.6292 11.4237 86.4778C11.6866 86.3743 11.8619 86.0795 11.9893 85.96C11.8937 85.3626 11.4317 85.1315 10.9776 85.3626C10.5554 85.5777 10.2527 85.6095 9.88625 85.2909C9.12946 84.6297 8.10979 85.9202 9.08166 86.3026C9.5198 86.4699 9.57557 86.685 9.44811 87.0753C9.16133 87.9436 10.8183 88.1268 10.8183 87.2028L10.8183 87.1948Z" fill="#18181B"/>
<path d="M9.08094 83.8685C9.17653 83.7331 9.47128 83.5021 9.49518 83.2551C9.53501 82.8727 9.6784 82.7054 10.0847 82.5939C11.2557 82.2673 10.475 80.913 9.53501 81.5025C9.20043 81.7176 8.94551 81.6698 8.65873 81.4468C7.74262 80.7219 6.80261 81.9805 7.84618 82.4346C8.19669 82.5859 8.25245 82.7532 8.14889 83.0798C7.98957 83.5817 8.34008 83.9482 9.08094 83.8685Z" fill="#18181B"/>
<path d="M11.081 67.7281C11.0571 68.23 10.7703 68.3733 10.3003 68.4928C9.90999 68.5964 9.72677 68.923 9.87813 69.2417C9.98965 69.4647 10.2844 69.6081 10.4597 69.7515C11.1049 69.4966 11.1687 69.2735 11.8617 69.7196C12.8177 70.341 13.5665 69.1461 12.746 68.7557C12.3397 68.5645 12.26 68.3574 12.4273 67.9671C12.7858 67.1147 11.1209 66.8837 11.081 67.7281Z" fill="#18181B"/>
<path d="M10.9531 100.556C11.208 100.325 11.4231 100.293 11.7258 100.437C12.2276 100.668 12.6339 100.54 12.7853 100.142C12.9287 99.7596 12.7136 99.5047 12.2117 99.3374C12.0126 99.2657 11.8612 99.0745 11.8054 99.0347C11.7337 98.3417 11.4709 98.0867 11.0407 98.1664C10.1007 98.3417 10.7778 99.1383 10.1803 99.6162C9.75016 99.9668 9.61474 100.293 9.90152 100.612C10.1724 100.915 10.5707 100.915 10.9531 100.564L10.9531 100.556Z" fill="#18181B"/>
<path d="M9.32058 78.0239C9.32855 77.5778 9.52771 77.3787 10.0057 77.2512C11.0094 76.9804 10.3084 75.6341 9.44008 76.1519C8.55583 76.6776 8.516 75.7217 7.56006 76.0324C7.37683 76.0881 7.27327 76.3829 7.12988 76.59C7.29717 76.7892 7.37683 77.0043 7.52819 77.06C8.03006 77.2193 8.05396 77.4902 7.94243 77.9124C7.71938 78.7489 9.29669 78.8524 9.31262 78.0319L9.32058 78.0239Z" fill="#18181B"/>
<path d="M10.7387 78.1639C10.7307 78.5542 10.4837 78.6737 10.1173 78.8092C9.84645 78.9127 9.63933 79.1676 9.50391 79.2792C9.55967 79.8926 9.99781 80.1634 10.4519 79.9563C10.9139 79.7492 11.2246 79.7412 11.591 80.0838C12.2761 80.729 13.3595 79.5341 12.4434 79.1039C12.0372 78.9127 11.9495 78.7215 12.1009 78.3232C12.4434 77.4071 10.7705 77.208 10.7387 78.1639Z" fill="#18181B"/>
<path d="M12.9052 103.02C13.7815 102.51 12.8255 101.355 12.0449 102.16C11.7899 102.422 11.5669 102.454 11.2323 102.319C10.1967 101.897 9.7028 103.243 10.826 103.434C11.1845 103.498 11.296 103.657 11.304 103.976C11.3199 104.948 12.8813 104.645 12.6025 103.833C12.475 103.458 12.5467 103.235 12.9052 103.028L12.9052 103.02Z" fill="#18181B"/>
<path d="M49.6374 18.8486C50.2747 19.3186 50.9758 19.1672 51.6529 19.0955C52.2583 19.0318 52.0512 18.0599 51.9476 17.4226C51.8998 17.096 51.6529 17.0243 51.3342 17.104C49.5259 17.574 49.4542 17.5581 49.3347 17.8528C49.1913 18.2272 48.8408 18.3308 48.4584 18.1077C48.0362 17.8608 47.7256 18.0679 46.8413 18.2989C46.1482 18.4742 46.5227 18.9362 46.451 19.9718C46.3633 21.1747 46.3474 21.1827 47.7096 21.4057C47.9088 21.4376 48.1637 21.35 48.339 21.2464C48.9842 20.864 48.9284 21.5173 49.5896 21.7164C49.8525 21.7961 50.1393 21.7961 50.442 21.8359C51.9954 21.9395 52.1866 21.7961 52.1787 20.5295C52.1787 20.3064 52.1627 20.0833 51.7405 20.0754C50.7208 20.0515 50.2349 19.9081 49.733 20.2267C48.7293 20.864 48.084 19.7169 48.5301 19.1354C48.7851 18.8008 49.3347 18.6335 49.6374 18.8486Z" fill="#18181B"/>
<path d="M47.7981 12.8408C48.4035 13.0719 48.9611 12.8966 49.5267 12.809C50.9845 12.578 51.0722 12.3947 50.4428 11.16C50.3074 10.8891 50.1242 10.7935 49.8294 10.9051C48.1167 11.5742 48.045 11.5583 47.7423 12.0044C47.3281 12.6178 47.0413 11.9327 46.643 12.0681C44.6275 12.7612 45.1852 12.6098 45.5914 14.6332C45.6472 14.9121 45.7826 15.0634 46.0853 15.0953C47.5432 15.2307 47.7901 15.2626 48.045 14.8961C48.2521 14.6014 48.7221 14.5934 48.8496 14.8961C49.0966 15.4936 49.7498 15.4617 51.0801 15.5334C51.8688 15.5732 51.4386 15.0156 51.3191 13.8844C51.2554 13.263 50.8332 13.3029 48.9771 13.6136C48.3238 13.7251 48.0928 14.3465 47.567 13.9561C47.2404 13.7092 47.1687 13.3666 47.344 13.048C47.4077 12.9364 47.6945 12.809 47.7981 12.8488L47.7981 12.8408Z" fill="#18181B"/>
<path d="M46.4365 7.83254C47.042 7.96 47.504 7.67322 47.9979 7.46609C49.2566 6.94033 49.2884 6.73321 48.3883 5.56218C48.1891 5.30726 48.0059 5.23556 47.7669 5.41878C46.3967 6.44642 46.325 6.43846 46.1657 6.97219C45.9506 7.68915 45.5125 7.03592 45.1858 7.25101C43.5368 8.35831 44.0308 8.14322 44.915 10.1427C45.1381 10.6446 45.3372 10.5729 46.6118 10.3897C46.8906 10.3499 47.1057 10.2702 47.2013 9.94358C47.3128 9.59307 47.735 9.49747 47.9262 9.79222C48.3086 10.3738 48.8822 10.2224 50.109 10.0312C50.8259 9.91968 50.2922 9.41781 49.8939 8.25475C49.6788 7.64135 49.3681 7.70508 47.7032 8.42204C47.1376 8.66102 47.0898 9.36205 46.5162 9.0434C46.1577 8.84425 45.9984 8.5017 46.0701 8.12729C46.094 7.99983 46.325 7.80864 46.4286 7.83254L46.4365 7.83254Z" fill="#18181B"/>
<path d="M48.3959 25.0774C48.8898 25.2925 49.4076 25.4598 49.9175 25.651C49.9334 25.6191 49.9414 25.5952 49.9573 25.5633C51.6063 25.7705 51.7337 25.6988 51.8293 24.5277C51.8692 24.0896 51.8851 23.755 51.2717 23.8108C50.4831 23.8904 49.6785 23.9143 48.8898 23.986C48.6668 24.0099 47.8303 24.3843 47.7188 24.2728C47.3444 23.9064 46.8664 24.0498 46.4362 23.994C46.1096 23.9542 45.9742 24.0816 45.9105 24.3604C45.6396 25.4359 45.305 26.0652 45.4166 26.36C45.5122 26.6467 46.6593 27.0689 46.962 26.9335C47.201 26.83 47.4718 26.7981 47.5356 27.0371C47.6391 27.4115 47.7825 27.4274 49.3678 27.9054C50.8256 28.3515 50.8495 28.4391 51.3275 26.8618C51.4071 26.591 51.3195 26.4635 50.977 26.4237C49.1925 26.2325 48.6907 26.0333 48.3242 26.2086C47.5276 26.591 46.962 25.7705 47.4878 25.2208C47.7347 24.9659 48.0295 24.9021 48.4039 25.0694L48.3959 25.0774Z" fill="#18181B"/>
<path d="M34.1601 14.7041C33.6423 14.5208 34.5584 14.4014 31.2524 13.8836C30.647 13.788 30.639 14.6881 30.4956 15.3653C30.4239 15.6839 30.5912 15.8671 30.9975 15.891C32.8934 16.0105 33.0767 15.9866 33.3555 15.66C33.6502 15.3095 34.0485 15.3095 34.4309 15.6839C34.8053 16.0504 34.7575 16.0026 36.4464 16.1141C36.8606 16.138 37.0757 16.0026 37.0996 15.66C37.251 13.8756 38.0635 14.019 36.4543 13.2702C36.2472 13.1746 35.7214 12.9037 35.3391 13.0551C34.9806 13.1985 34.7735 13.1029 34.5902 12.8001C34.423 12.5134 34.2557 12.362 32.8775 11.7486C31.6746 11.2069 31.6029 11.2388 31.3082 12.2345C31.0772 12.9993 31.0931 12.9515 32.527 13.3657C32.527 13.4056 32.527 13.4374 32.535 13.4773C34.1999 13.5888 35.7453 13.4454 34.8452 14.8156C34.8053 14.8793 34.3911 14.7997 34.176 14.72L34.1601 14.7041Z" fill="#18181B"/>
<path d="M34.3113 20.4768C33.9289 20.2856 33.4828 20.4051 32.8614 20.4768C31.5152 20.6281 31.3957 20.8671 32.1923 21.831C32.4233 22.1178 32.7101 22.2612 33.1403 22.1975C33.682 22.1098 34.2316 22.0541 34.7574 21.9346C35.3708 21.7991 35.2354 20.9866 36.0559 21.4327C36.3905 21.6159 36.6295 21.5283 37.7208 21.1619C38.0634 21.0424 38.1191 20.8352 37.9917 20.5485C37.0756 18.533 37.7846 18.5808 36.1515 18.3498C35.6496 18.2781 35.3549 18.1745 35.0362 18.4533C34.7972 18.6605 34.3591 18.6445 34.1998 18.3259C34.0165 17.9594 33.7696 17.9913 32.6703 17.8479C32.6703 17.8479 32.6703 17.8559 32.6703 17.8638C32.1286 17.7922 31.2921 17.6567 31.1965 17.7603C31.0452 17.9355 30.9496 18.2144 31.0053 18.4374C31.1009 18.8357 31.2124 19.2898 31.5231 19.6005C31.7701 19.8554 33.5784 19.6005 33.8811 19.3456C34.2555 19.0269 34.6857 19.0508 35.1477 19.242C36.032 19.6164 35.6496 21.1459 34.3033 20.4847L34.3113 20.4768Z" fill="#18181B"/>
<path d="M34.9798 9.78587C31.9367 7.57924 31.9208 8.64671 31.7296 9.61062C31.6738 9.90536 31.7694 10.0886 32.1359 10.2001C33.984 10.7498 34.0876 10.9171 34.4381 10.6462C34.6691 10.471 35.0116 10.5188 35.0913 10.7816C35.2108 11.1959 35.4578 11.18 37.282 11.5783C37.5768 11.6739 37.8237 11.5623 37.8556 11.1481C37.9273 10.0488 38.9868 9.84164 37.3218 8.66264C37.2342 8.60688 37.1705 8.51925 37.0749 8.47942C36.8518 8.39975 36.6208 8.30416 36.3898 8.29619C35.9357 8.2723 35.6569 8.04924 35.5932 7.6828C35.4817 7.01364 34.9877 6.65516 34.5815 6.26482C33.7928 5.52396 33.7291 5.52396 33.1954 6.34448C32.813 6.92335 32.975 7.40133 33.6813 7.77839C34.215 8.06517 35.0515 8.33602 35.5693 8.47145C36.0393 8.59094 36.4057 9.07688 36.2703 9.45926C36.095 9.9452 35.4179 10.0966 34.9798 9.77791L34.9798 9.78587Z" fill="#18181B"/>
<path d="M41.7592 1.33926C41.7911 1.02062 41.6238 0.829428 41.2573 0.821461C38.8834 0.741799 38.4373 0.622306 38.6763 1.46672C39.3773 3.92031 39.4729 4.0398 39.911 4.41421C40.3173 4.76472 40.2615 5.29049 39.7597 5.48168C39.5685 5.55338 39.3614 5.59321 39.0825 5.6649C39.68 6.96339 39.5924 6.92356 40.5722 6.9156C40.859 6.9156 41.2494 7.01916 41.4007 6.89966C41.5919 6.74034 41.5919 6.39779 41.6716 6.13491C41.7433 5.90389 41.9185 5.67287 41.4166 5.48168C40.8192 5.25863 40.7475 4.84439 41.1378 4.39828C41.6238 3.83268 41.5441 3.74505 41.7592 1.33926Z" fill="#18181B"/>
<path d="M42.7242 5.78319C42.5808 5.81506 42.294 5.67963 42.2621 5.73539C42.0869 5.96641 41.9355 6.2293 41.8638 6.50811C41.6567 7.28083 41.8957 7.22507 43.2977 8.11728C43.5766 7.70304 43.8633 7.30473 44.1023 6.89049C44.3334 6.49218 43.7439 6.04607 44.4688 5.97438C44.7476 5.95048 44.7476 5.97438 46.0222 3.73588C46.1656 3.48096 46.1337 3.21808 45.8708 3.01892C44.4369 1.95145 43.7757 1.33009 43.5686 2.12671C42.772 5.12996 43.003 4.32538 43.2022 4.95471C43.3296 5.35302 43.5766 5.58404 42.7321 5.78319L42.7242 5.78319Z" fill="#18181B"/>
<path d="M36.7012 2.00997C36.5737 1.71522 36.3348 1.67539 36.0798 1.85064C34.0644 3.29252 34.383 2.98981 35.578 4.8539C35.7612 5.14068 35.9763 5.3717 36.3666 5.46729C37.1314 5.65052 36.6693 6.31171 36.8685 6.61442C37.1632 7.06053 37.4819 7.49071 37.8165 7.91291C37.9838 8.128 38.167 8.128 38.3741 7.92088C38.7405 7.57037 39.4575 7.12426 39.3858 6.95697C38.7963 5.56289 38.8202 5.89747 38.1351 5.77797C37.4898 5.77001 37.2907 5.40356 37.5934 4.92559C37.8324 4.55118 37.8005 4.57508 36.7012 2.01793L36.7012 2.00997Z" fill="#18181B"/>
<path d="M38.6843 49.3042C38.2461 49.5193 38.3019 49.4396 37.4893 51.9091C37.3858 52.2357 37.4814 52.4906 37.9195 52.5384C40.4846 52.8173 41.2812 53.0164 41.1617 52.0684C40.8989 50.0211 40.9865 49.7662 40.4846 49.3998C39.9828 49.0253 39.9668 48.6509 40.5006 48.3403C40.6201 48.2686 40.7555 48.2208 40.9148 48.1491C40.4528 46.4204 40.8431 47.1772 39.1782 46.6992C38.7958 47.4879 38.5249 47.8145 38.8595 48.1013C39.4012 48.5792 39.3455 48.9696 38.6843 49.2962L38.6843 49.3042Z" fill="#18181B"/>
<path d="M36.0485 25.3144C35.2837 25.2507 34.7181 25.5853 34.1047 25.8243C33.3798 26.1111 34.5588 27.6485 36.1521 26.4616C36.407 26.2704 36.3114 25.9916 36.9885 25.7765C37.1638 25.7207 37.3868 25.7526 37.5461 25.6809C37.809 25.5534 38.0241 25.3622 38.287 25.2189C38.7172 24.9878 38.765 24.7488 38.3507 24.4302C37.6816 23.9204 38.0161 23.2273 36.6699 23.3707C36.2078 23.4185 35.698 23.3468 35.4192 23.8009C35.212 24.1434 34.6942 23.7292 34.3358 23.53C32.7186 23.546 32.169 23.4344 32.4637 23.9761C32.9258 24.8126 32.9815 25.1711 33.5073 24.9958C34.1525 24.7887 34.8934 24.7568 35.4112 24.2868C35.5387 24.1753 36.0246 24.1992 36.2078 24.3187C36.4149 24.4541 36.5344 24.7648 36.5504 24.9958C36.5504 25.1073 36.2238 25.3224 36.0485 25.3065L36.0485 25.3144Z" fill="#18181B"/>
<path d="M44.9311 49.9343C45.0825 50.1892 45.4011 50.1971 45.5844 49.9343C47.2015 47.632 47.2493 47.5444 47.1457 47.2417C46.9864 46.7717 45.5764 45.9113 44.9869 45.8556C44.8674 45.8476 44.7001 45.6962 44.6523 45.5768C44.3416 44.8996 43.5928 44.6527 43.0909 44.2305C42.2625 45.3059 42.844 46.1901 43.4494 47.0107C43.7681 47.0505 44.0788 47.0107 44.1903 47.1222C44.3257 47.2576 44.3815 47.5524 44.3018 47.7117C43.9194 48.5641 44.5169 49.2332 44.9232 49.9263L44.9311 49.9343Z" fill="#18181B"/>
<path d="M35.5696 47.0737C35.7368 46.8825 35.6651 46.2133 35.8324 46.1018C35.9679 46.0142 36.2945 46.1416 36.5972 46.1735C37.3062 45.6079 38.0231 44.9785 37.338 43.8633C36.7804 44.2138 35.9121 44.1421 35.5536 44.8352C35.5138 44.9148 35.2748 44.9387 35.1155 44.9547C33.9604 45.0821 35.4501 44.6121 32.9487 45.6636C32.4468 45.8787 32.3353 46.2292 32.4787 46.6674C33.4665 49.5511 33.3709 49.4794 35.5536 47.0657L35.5696 47.0737Z" fill="#18181B"/>
<path d="M38.1115 47.8318C38.4301 47.792 38.7089 47.1387 38.8284 46.844C38.9559 46.5413 38.7408 46.4218 37.9362 45.6172C37.5618 46.135 37.0918 46.5572 36.9404 47.0591C36.8289 47.4335 36.9803 47.792 36.3191 47.7203C36.1518 47.7043 35.8013 48.2142 34.6064 49.7357C34.1124 50.373 34.7657 50.6757 35.9765 51.6795C36.3031 51.9503 36.5262 51.8786 36.6776 51.552C37.4264 49.9588 37.7291 49.5764 37.4264 48.8594C37.1954 48.3098 37.4264 47.9274 38.1035 47.8398L38.1115 47.8318Z" fill="#18181B"/>
<path d="M34.4538 43.0906C33.9121 42.7322 33.4102 42.9712 32.8844 43.0349C32.1356 43.1305 32.287 43.5527 32.287 44.3095C32.287 45.4725 32.7809 44.5644 36.4134 43.3615C37.6562 42.9473 37.6641 42.9951 37.7199 41.7523C37.7358 41.3779 37.6323 41.2266 37.226 41.2186C32.2232 41.0672 32.51 40.7327 32.4542 42.2462C32.4542 42.2781 32.4702 42.3179 32.518 42.5011C33.1951 42.3498 33.8643 42.2542 34.4777 42.0471C34.8282 41.9276 35.1787 41.7523 35.4097 42.063C35.9116 42.7242 35.1628 43.5607 34.4617 43.1066L34.4538 43.0906Z" fill="#18181B"/>
<path d="M44.1416 40.1039C48.754 41.0598 48.6345 41.1952 48.6903 39.6737C48.6903 39.6418 48.6664 39.602 48.6266 39.4825C47.1448 39.6896 45.4002 40.1676 46.0694 38.8611C46.1092 38.7815 46.4916 38.7496 46.6111 38.8293C47.3121 39.2993 47.9733 38.9567 48.5788 38.7496C48.8018 38.6779 48.8496 38.1283 48.9293 37.7777C49.0089 37.4352 48.8337 37.3635 48.4593 37.4272C43.3211 38.3035 43.6477 37.8016 43.7194 38.8611C43.7592 39.4267 43.3211 39.9206 44.1416 40.0959L44.1416 40.1039Z" fill="#18181B"/>
<path d="M46.3726 43.2195C46.6594 43.57 47.926 43.6178 48.0694 43.2832C48.2287 42.9168 48.2765 42.5105 48.3482 42.2078C42.2859 41.4351 43.7597 41.3554 43.21 42.9805C43.0666 43.4107 43.218 43.6656 43.6322 43.8488C47.6551 45.6253 47.448 45.7209 47.8224 44.3188C47.8224 44.287 47.8065 44.2551 47.7746 44.1276C47.2568 44.0639 46.6992 43.9205 46.1575 43.9444C45.807 43.9603 45.4963 44.0002 45.4166 43.6497C45.3449 43.2992 45.7672 42.4786 46.3646 43.2195L46.3726 43.2195Z" fill="#18181B"/>
<path d="M35.3871 38.7714C34.9649 38.4926 33.6425 38.2775 33.3239 38.6201C33.0212 38.9387 32.9495 39.4485 32.7344 39.9902C33.8098 39.9345 33.9532 39.8389 36.6059 39.5123C37.06 39.4565 37.6495 39.5919 37.9602 39.3848C38.2629 39.1777 38.2629 38.6201 38.4382 38.2297C38.5895 37.8951 38.5258 37.68 38.1195 37.5924C33.4434 36.5409 33.9532 36.3258 33.3239 37.8712C35.0207 37.8553 36.0324 37.7517 36.12 38.158C36.1678 38.3651 36.0722 38.636 35.9447 38.8192C35.889 38.8909 35.5305 38.875 35.3951 38.7794L35.3871 38.7714Z" fill="#18181B"/>
<path d="M42.1016 46.1094C41.7909 46.3324 41.6316 46.4679 41.4484 46.5873C41.2651 46.7068 41.0102 46.7706 40.8987 46.9219C40.6916 47.2087 41.2412 48.1806 41.6396 48.2921C42.1653 48.4435 42.3804 48.9055 42.006 49.1764C41.5838 49.487 41.5758 49.8376 41.6635 50.2518C42.1574 52.5062 41.8626 52.7611 43.3842 51.9327C44.2684 51.4467 44.3401 51.2794 43.9816 50.4191C43.4797 49.2082 43.424 48.9533 42.9301 48.786C42.8265 48.7462 42.7309 48.4753 42.7708 48.3399C43.0257 47.5194 42.3724 46.9219 42.1016 46.1094Z" fill="#18181B"/>
<path d="M38.915 14.1828C37.7918 14.5492 38.6283 15.8557 39.5922 15.2343C39.9029 15.0352 40.1657 15.0113 40.4764 15.2343C41.4164 15.9035 42.237 14.605 41.1535 14.2067C40.7234 14.0474 40.6437 13.8323 40.6278 13.4419C40.6278 13.2029 40.3251 12.964 40.2295 12.8206C39.5284 12.7409 39.17 13.0675 39.2656 13.5455C39.3293 13.8641 39.2815 14.0474 38.9071 14.1748L38.915 14.1828Z" fill="#18181B"/>
<path d="M41.417 11.8468C40.2938 12.2133 41.1302 13.5197 42.0941 12.8984C42.4048 12.6992 42.6677 12.6753 42.9784 12.8984C43.9184 13.5675 44.7389 12.2691 43.6555 11.8707C43.2253 11.7114 43.1457 11.4963 43.1297 11.106C43.1297 10.867 42.827 10.628 42.7314 10.4846C42.0304 10.405 41.6719 10.7316 41.7675 11.2095C41.8312 11.5282 41.7834 11.7114 41.409 11.8389L41.417 11.8468Z" fill="#18181B"/>
<path d="M43.0971 26.5518C44.069 26.1774 43.0493 24.8789 42.2925 25.5401C41.9261 25.8588 41.6313 25.8269 41.2012 25.6118C40.7471 25.3808 40.293 25.6118 40.1895 26.2093C40.3169 26.3288 40.4842 26.6235 40.7551 26.7271C41.1454 26.8864 41.3605 27.0378 41.3605 27.444C41.3605 28.3681 43.0174 28.1849 42.7307 27.3166C42.6032 26.9262 42.659 26.7191 43.0971 26.5439L43.0971 26.5518Z" fill="#18181B"/>
<path d="M44.3407 22.6892C45.3843 22.2352 44.4443 20.9845 43.5282 21.7014C43.2414 21.9324 42.9865 21.9723 42.6519 21.7572C41.7119 21.1677 40.9312 22.5219 42.1022 22.8486C42.5085 22.9601 42.6519 23.1353 42.6917 23.5097C42.7156 23.7567 43.0104 23.9877 43.1059 24.1231C43.8468 24.2028 44.1973 23.8364 44.038 23.3345C43.9344 23.0079 43.9902 22.8406 44.3407 22.6892Z" fill="#18181B"/>
<path d="M39.4415 9.01158C38.613 9.40192 39.3619 10.5968 40.3258 9.97549C41.0188 9.52938 41.0826 9.75243 41.7278 10.0074C41.9031 9.85599 42.2058 9.7126 42.3093 9.49752C42.4687 9.17887 42.2855 8.86022 41.8871 8.74869C41.4251 8.62124 41.1303 8.48581 41.1065 7.98394C41.0666 7.14749 39.3937 7.37851 39.7602 8.22292C39.9275 8.61327 39.8478 8.82039 39.4415 9.01158Z" fill="#18181B"/>
<path d="M40.4535 40.6947C40.7642 40.5513 40.9793 40.5832 41.2262 40.8142C41.6166 41.1647 42.0069 41.1647 42.2778 40.862C42.5566 40.5513 42.4291 40.2168 41.999 39.8662C41.4015 39.3883 42.0786 38.5917 41.1386 38.4164C40.7084 38.3367 40.4456 38.5917 40.3739 39.2847C40.3181 39.3245 40.1667 39.5237 39.9676 39.5874C39.4577 39.7547 39.2506 40.0096 39.394 40.392C39.5454 40.7824 39.9517 40.9178 40.4535 40.6868L40.4535 40.6947Z" fill="#18181B"/>
<path d="M44.6519 17.3114C44.8032 17.2636 44.8909 17.0485 45.0502 16.8414C44.8988 16.6343 44.8032 16.3475 44.62 16.2838C43.6641 15.981 43.6242 16.929 42.74 16.4033C41.8717 15.8855 41.1786 17.2317 42.1744 17.5026C42.6524 17.63 42.8515 17.8292 42.8595 18.2753C42.8754 19.0958 44.4527 18.9923 44.2297 18.1558C44.1181 17.7336 44.142 17.4628 44.6439 17.3034L44.6519 17.3114Z" fill="#18181B"/>
<path d="M39.7436 19.3512C38.8275 19.7814 39.9109 20.9763 40.596 20.3311C40.9625 19.9885 41.2731 19.9965 41.7352 20.2036C42.1892 20.4107 42.6274 20.1479 42.6831 19.5265C42.5477 19.415 42.3486 19.16 42.0698 19.0565C41.7033 18.9211 41.4564 18.8016 41.4484 18.4112C41.4165 17.4553 39.7516 17.6624 40.0862 18.5706C40.2375 18.9689 40.1419 19.16 39.7436 19.3512Z" fill="#18181B"/>
<path d="M40.8914 44.222C40.8914 43.9033 41.0109 43.744 41.3694 43.6803C42.4926 43.4891 41.9987 42.1428 40.9631 42.565C40.6285 42.7004 40.4055 42.6686 40.1506 42.4057C39.3699 41.6011 38.406 42.7562 39.2902 43.266C39.6487 43.4732 39.7284 43.6962 39.5929 44.0706C39.3141 44.8832 40.8835 45.1859 40.8914 44.214L40.8914 44.222Z" fill="#18181B"/>
</g>
</svg>
