<svg width="238" height="48" viewBox="0 0 238 48" fill="none" xmlns="http://www.w3.org/2000/svg">
<path opacity="0.3" d="M6.39718 10.0888C6.34784 4.53144 10.8392 0 16.3968 0H228C233.523 0 238 4.47715 238 10V38C238 43.5228 233.523 48 228 48H0L1.84934 45.8203C4.95513 42.1597 6.6406 37.5041 6.59798 32.7036L6.39718 10.0888Z" fill="#E4E4E7"/>
<path d="M25.328 32H21.992V14.912H25.328V32ZM32.3285 16.568V17.816C32.3285 18.376 32.1685 18.912 31.8485 19.424C31.5445 19.92 31.2165 20.232 30.8645 20.36V18.824C30.8645 18.552 30.8165 18.36 30.7205 18.248C30.6245 18.12 30.3845 18.056 30.0005 18.056C29.6165 18.056 29.3365 17.976 29.1605 17.816C29.0005 17.64 28.9205 17.216 28.9205 16.544C28.9205 15.856 29.0245 15.408 29.2325 15.2C29.4565 14.976 29.9205 14.864 30.6245 14.864C31.3285 14.864 31.7845 14.976 31.9925 15.2C32.2165 15.408 32.3285 15.864 32.3285 16.568ZM53.291 32H50.171V23.48C50.171 22.632 50.067 22.04 49.859 21.704C49.667 21.368 49.323 21.2 48.827 21.2L46.019 22.376V32H42.899V23.48C42.899 21.96 42.371 21.2 41.315 21.2L38.747 22.376V32H35.627V18.296H37.955L38.675 19.928L42.275 18.152C43.523 18.152 44.467 18.76 45.107 19.976L49.571 18.152C50.819 18.152 51.747 18.576 52.355 19.424C52.979 20.256 53.291 21.384 53.291 22.808V32ZM68.9486 18.392L72.0686 18.2V31.376C72.0686 32.896 71.6366 34.056 70.7726 34.856C69.9246 35.672 68.6606 36.08 66.9806 36.08C65.6846 36.08 64.5486 35.824 63.5726 35.312C63.0606 35.056 62.6526 34.672 62.3486 34.16C62.0446 33.648 61.8926 33.04 61.8926 32.336L64.7966 32.192C64.7966 32.64 64.9566 32.96 65.2766 33.152C65.5966 33.344 66.1406 33.44 66.9086 33.44C67.6926 33.44 68.2206 33.248 68.4926 32.864C68.7806 32.48 68.9246 31.928 68.9246 31.208L69.0446 29.144L65.6846 30.944C63.8446 30.944 62.6046 30.32 61.9646 29.072C61.3886 27.968 61.1006 26.616 61.1006 25.016C61.1006 23.112 61.2446 21.768 61.5326 20.984C61.8366 20.12 62.2686 19.496 62.8286 19.112C63.5486 18.632 64.4926 18.392 65.6606 18.392H68.9486ZM68.9486 26.432V21.2H66.5726C65.6766 21.2 65.0606 21.504 64.7246 22.112C64.3886 22.72 64.2206 23.568 64.2206 24.656C64.2206 25.744 64.3886 26.52 64.7246 26.984C65.0766 27.432 65.6926 27.656 66.5726 27.656L68.9486 26.432ZM85.8131 25.88H77.8211C77.8211 27.128 78.0131 28.04 78.3971 28.616C78.7971 29.192 79.5891 29.48 80.7731 29.48C81.5411 29.48 82.1091 29.24 82.4771 28.76C82.8451 28.264 83.0291 27.792 83.0291 27.344H85.8371C85.8371 29.056 85.3731 30.312 84.4451 31.112C83.5331 31.912 82.3171 32.312 80.7971 32.312C79.2931 32.312 78.1251 32.096 77.2931 31.664C75.5811 30.784 74.7251 28.448 74.7251 24.656C74.7251 22.4 75.2131 20.752 76.1891 19.712C77.1651 18.656 78.6531 18.128 80.6531 18.128C84.1251 18.128 85.8611 20.056 85.8611 23.912C85.8611 24.328 85.8451 24.984 85.8131 25.88ZM77.8931 23.744H83.0291C83.0291 22.688 82.8291 21.92 82.4291 21.44C82.0291 20.96 81.4131 20.72 80.5811 20.72C79.7651 20.72 79.1091 20.968 78.6131 21.464C78.1331 21.944 77.8931 22.704 77.8931 23.744ZM94.5455 32H92.6015C91.4175 32 90.5135 31.648 89.8895 30.944C89.2815 30.24 88.9775 29.4 88.9775 28.424V21.224H87.6575V18.848H88.9775V16.16H92.0975V18.848H94.3055V21.224H92.0975V28.232C92.0975 28.984 92.4575 29.36 93.1775 29.36H94.5455V32ZM102.983 32H101.039C99.855 32 98.951 31.648 98.327 30.944C97.719 30.24 97.415 29.4 97.415 28.424V21.224H96.095V18.848H97.415V16.16H100.535V18.848H102.743V21.224H100.535V28.232C100.535 28.984 100.895 29.36 101.615 29.36H102.983V32ZM107.149 13.064C107.901 13.064 108.389 13.184 108.613 13.424C108.837 13.648 108.949 14.136 108.949 14.888C108.949 15.624 108.829 16.112 108.589 16.352C108.365 16.576 107.877 16.688 107.125 16.688C106.389 16.688 105.901 16.568 105.661 16.328C105.437 16.088 105.325 15.6 105.325 14.864C105.325 14.128 105.437 13.648 105.661 13.424C105.901 13.184 106.397 13.064 107.149 13.064ZM108.685 32H105.565V18.8H108.685V32ZM122.806 32H119.686V23.24C119.686 22.456 119.526 21.92 119.206 21.632C118.886 21.344 118.438 21.2 117.862 21.2L115.054 22.376V32H111.934V18.296H114.262L114.982 19.928L118.822 18.152C119.894 18.152 120.822 18.552 121.606 19.352C122.406 20.136 122.806 21.288 122.806 22.808V32ZM132.652 18.392L135.772 18.2V31.376C135.772 32.896 135.34 34.056 134.476 34.856C133.628 35.672 132.364 36.08 130.684 36.08C129.388 36.08 128.252 35.824 127.276 35.312C126.764 35.056 126.356 34.672 126.052 34.16C125.748 33.648 125.596 33.04 125.596 32.336L128.5 32.192C128.5 32.64 128.66 32.96 128.98 33.152C129.3 33.344 129.844 33.44 130.612 33.44C131.396 33.44 131.924 33.248 132.196 32.864C132.484 32.48 132.628 31.928 132.628 31.208L132.748 29.144L129.388 30.944C127.548 30.944 126.308 30.32 125.668 29.072C125.092 27.968 124.804 26.616 124.804 25.016C124.804 23.112 124.948 21.768 125.236 20.984C125.54 20.12 125.972 19.496 126.532 19.112C127.252 18.632 128.196 18.392 129.364 18.392H132.652ZM132.652 26.432V21.2H130.276C129.38 21.2 128.764 21.504 128.428 22.112C128.092 22.72 127.924 23.568 127.924 24.656C127.924 25.744 128.092 26.52 128.428 26.984C128.78 27.432 129.396 27.656 130.276 27.656L132.652 26.432ZM155.406 32H152.286V23.408C152.286 21.936 151.71 21.2 150.558 21.2L147.582 22.376V32H144.462V13.952H147.582V19.928L151.542 18.152C152.95 18.152 153.942 18.552 154.518 19.352C155.11 20.152 155.406 21.272 155.406 22.712V32ZM168.734 32H166.406L165.686 30.368L161.846 32.144C160.774 32.144 159.838 31.752 159.038 30.968C158.254 30.168 157.862 29.008 157.862 27.488V18.296H160.982V26.816C160.982 28.336 161.59 29.096 162.806 29.096L165.614 27.584V18.296H168.734V32ZM182.876 32H179.756V23.24C179.756 22.456 179.596 21.92 179.276 21.632C178.956 21.344 178.508 21.2 177.932 21.2L175.124 22.376V32H172.004V18.296H174.332L175.052 19.928L178.892 18.152C179.964 18.152 180.892 18.552 181.676 19.352C182.476 20.136 182.876 21.288 182.876 22.808V32ZM192.722 18.392L195.842 18.2V31.376C195.842 32.896 195.41 34.056 194.546 34.856C193.698 35.672 192.434 36.08 190.754 36.08C189.458 36.08 188.322 35.824 187.346 35.312C186.834 35.056 186.426 34.672 186.122 34.16C185.818 33.648 185.666 33.04 185.666 32.336L188.57 32.192C188.57 32.64 188.73 32.96 189.05 33.152C189.37 33.344 189.914 33.44 190.682 33.44C191.466 33.44 191.994 33.248 192.266 32.864C192.554 32.48 192.698 31.928 192.698 31.208L192.818 29.144L189.458 30.944C187.618 30.944 186.378 30.32 185.738 29.072C185.162 27.968 184.874 26.616 184.874 25.016C184.874 23.112 185.018 21.768 185.306 20.984C185.61 20.12 186.042 19.496 186.602 19.112C187.322 18.632 188.266 18.392 189.434 18.392H192.722ZM192.722 26.432V21.2H190.346C189.45 21.2 188.834 21.504 188.498 22.112C188.162 22.72 187.994 23.568 187.994 24.656C187.994 25.744 188.162 26.52 188.498 26.984C188.85 27.432 189.466 27.656 190.346 27.656L192.722 26.432ZM206.587 18.344L205.723 21.416C205.483 21.32 205.211 21.272 204.907 21.272C204.107 21.272 203.123 21.616 201.955 22.304V32H198.835V18.296H201.163L201.883 19.496L205.195 18.128C205.355 18.112 205.571 18.104 205.843 18.104C206.115 18.104 206.363 18.184 206.587 18.344ZM218.674 18.296L213.466 33.536C213.226 34.224 212.914 34.76 212.53 35.144C211.89 35.784 210.994 36.104 209.842 36.104H208.378V33.296H209.338C209.786 33.296 210.114 33.216 210.322 33.056C210.546 32.912 210.738 32.616 210.898 32.168L211.138 31.496L207.01 18.296H210.298L212.746 27.824L215.386 18.296H218.674ZM223.813 28.784C224.069 29.024 224.197 29.544 224.197 30.344C224.197 31.144 224.069 31.672 223.813 31.928C223.573 32.184 223.053 32.312 222.253 32.312C221.453 32.312 220.925 32.184 220.669 31.928C220.413 31.672 220.285 31.144 220.285 30.344C220.285 29.544 220.413 29.024 220.669 28.784C220.925 28.528 221.453 28.4 222.253 28.4C223.053 28.4 223.573 28.528 223.813 28.784Z" fill="#18181B"/>
</svg>
