<svg width="151" height="48" viewBox="0 0 151 48" fill="none" xmlns="http://www.w3.org/2000/svg">
<path opacity="0.3" d="M4.05853 10.0563C4.0273 4.51155 8.51352 0 14.0584 0H141C146.523 0 151 4.47715 151 10V38C151 43.5229 146.523 48 141 48H0L1.81029 44.637C3.39673 41.6898 4.21815 38.3916 4.1993 35.0446L4.05853 10.0563Z" fill="#E4E4E7"/>
<path d="M25.328 32H21.992V14.912H25.328V32ZM32.3285 16.568V17.816C32.3285 18.376 32.1685 18.912 31.8485 19.424C31.5445 19.92 31.2165 20.232 30.8645 20.36V18.824C30.8645 18.552 30.8165 18.36 30.7205 18.248C30.6245 18.12 30.3845 18.056 30.0005 18.056C29.6165 18.056 29.3365 17.976 29.1605 17.816C29.0005 17.64 28.9205 17.216 28.9205 16.544C28.9205 15.856 29.0245 15.408 29.2325 15.2C29.4565 14.976 29.9205 14.864 30.6245 14.864C31.3285 14.864 31.7845 14.976 31.9925 15.2C32.2165 15.408 32.3285 15.864 32.3285 16.568ZM53.291 32H50.171V23.48C50.171 22.632 50.067 22.04 49.859 21.704C49.667 21.368 49.323 21.2 48.827 21.2L46.019 22.376V32H42.899V23.48C42.899 21.96 42.371 21.2 41.315 21.2L38.747 22.376V32H35.627V18.296H37.955L38.675 19.928L42.275 18.152C43.523 18.152 44.467 18.76 45.107 19.976L49.571 18.152C50.819 18.152 51.747 18.576 52.355 19.424C52.979 20.256 53.291 21.384 53.291 22.808V32ZM71.6366 28.208V28.568C71.5406 29.768 71.0286 30.672 70.1006 31.28C69.1886 31.888 68.0446 32.192 66.6686 32.192C64.6366 32.192 63.2126 31.824 62.3966 31.088C61.6446 30.416 61.2686 29.424 61.2686 28.112V27.824H64.1006C64.1006 28.56 64.2926 29.064 64.6766 29.336C65.0606 29.608 65.7246 29.744 66.6686 29.744C67.9486 29.744 68.5886 29.28 68.5886 28.352C68.5886 27.584 68.3646 27.072 67.9166 26.816C67.7086 26.688 67.4446 26.592 67.1246 26.528L64.7006 26.12C62.5886 25.784 61.5326 24.464 61.5326 22.16C61.5326 20.88 61.9966 19.888 62.9246 19.184C63.8686 18.464 65.0606 18.104 66.5006 18.104C69.7806 18.104 71.4206 19.52 71.4206 22.352V22.664H68.7086C68.6766 21.912 68.4766 21.4 68.1086 21.128C67.7406 20.856 67.2206 20.72 66.5486 20.72C65.8926 20.72 65.3966 20.856 65.0606 21.128C64.7246 21.384 64.5566 21.672 64.5566 21.992C64.5566 22.904 64.9246 23.424 65.6606 23.552L68.5646 24.08C70.6126 24.464 71.6366 25.84 71.6366 28.208ZM81.26 26.984L84.092 26.96C84.076 27.088 84.06 27.32 84.044 27.656C84.028 27.992 84.012 28.224 83.996 28.352C83.996 28.464 83.98 28.648 83.948 28.904C83.916 29.16 83.876 29.352 83.828 29.48C83.796 29.592 83.748 29.744 83.684 29.936C83.396 30.768 82.612 31.424 81.332 31.904C80.516 32.192 79.66 32.336 78.764 32.336C77.884 32.336 77.084 32.192 76.364 31.904C75.644 31.616 75.076 31.248 74.66 30.8C73.716 29.808 73.244 27.952 73.244 25.232C73.244 22.496 73.716 20.632 74.66 19.64C75.076 19.192 75.644 18.824 76.364 18.536C77.084 18.248 77.884 18.104 78.764 18.104C80.492 18.104 81.804 18.536 82.7 19.4C83.596 20.264 84.044 21.464 84.044 23H81.212C81.212 22.296 81.036 21.776 80.684 21.44C80.332 21.088 79.676 20.912 78.716 20.912C77.772 20.912 77.14 21.208 76.82 21.8C76.516 22.392 76.364 23.28 76.364 24.464V25.712C76.364 27.616 76.732 28.784 77.468 29.216C77.804 29.424 78.244 29.528 78.788 29.528C79.332 29.528 79.772 29.48 80.108 29.384C80.46 29.272 80.708 29.088 80.852 28.832C81.012 28.576 81.116 28.328 81.164 28.088C81.212 27.832 81.244 27.464 81.26 26.984ZM96.1293 32H94.0413L93.0813 30.344L89.7453 32.144C87.8893 32.144 86.6413 31.472 86.0013 30.128C85.6813 29.472 85.4573 28.768 85.3293 28.016C85.2173 27.248 85.1613 26.456 85.1613 25.64C85.1613 24.808 85.1693 24.2 85.1853 23.816C85.2013 23.416 85.2413 22.96 85.3053 22.448C85.3693 21.92 85.4573 21.48 85.5693 21.128C85.6973 20.776 85.8733 20.416 86.0973 20.048C86.3213 19.664 86.5933 19.36 86.9133 19.136C87.6333 18.64 88.5693 18.392 89.7213 18.392H93.0093L96.1293 18.2V32ZM93.0093 27.632V21.2H90.6333C89.7533 21.2 89.1373 21.536 88.7853 22.208C88.4493 22.88 88.2813 23.888 88.2813 25.232C88.2813 26.56 88.4413 27.496 88.7613 28.04C89.0973 28.584 89.7213 28.856 90.6333 28.856L93.0093 27.632ZM106.79 18.344L105.926 21.416C105.686 21.32 105.414 21.272 105.11 21.272C104.31 21.272 103.326 21.616 102.158 22.304V32H99.0376V18.296H101.366L102.086 19.496L105.398 18.128C105.558 18.112 105.774 18.104 106.046 18.104C106.318 18.104 106.566 18.184 106.79 18.344ZM119.141 25.88H111.149C111.149 27.128 111.341 28.04 111.725 28.616C112.125 29.192 112.917 29.48 114.101 29.48C114.869 29.48 115.437 29.24 115.805 28.76C116.173 28.264 116.357 27.792 116.357 27.344H119.165C119.165 29.056 118.701 30.312 117.773 31.112C116.861 31.912 115.645 32.312 114.125 32.312C112.621 32.312 111.453 32.096 110.621 31.664C108.909 30.784 108.053 28.448 108.053 24.656C108.053 22.4 108.541 20.752 109.517 19.712C110.493 18.656 111.981 18.128 113.981 18.128C117.453 18.128 119.189 20.056 119.189 23.912C119.189 24.328 119.173 24.984 119.141 25.88ZM111.221 23.744H116.357C116.357 22.688 116.157 21.92 115.757 21.44C115.357 20.96 114.741 20.72 113.909 20.72C113.093 20.72 112.437 20.968 111.941 21.464C111.461 21.944 111.221 22.704 111.221 23.744ZM131.978 32H129.89L128.93 30.344L125.594 32.144C123.738 32.144 122.49 31.472 121.85 30.128C121.53 29.472 121.306 28.768 121.178 28.016C121.066 27.248 121.01 26.456 121.01 25.64C121.01 24.808 121.018 24.2 121.034 23.816C121.05 23.416 121.09 22.96 121.154 22.448C121.218 21.92 121.306 21.48 121.418 21.128C121.546 20.776 121.722 20.416 121.946 20.048C122.17 19.664 122.442 19.36 122.762 19.136C123.482 18.64 124.418 18.392 125.57 18.392H128.858V13.952H131.978V32ZM128.858 27.632V21.2H126.482C125.602 21.2 124.986 21.536 124.634 22.208C124.298 22.88 124.13 23.888 124.13 25.232C124.13 26.56 124.29 27.496 124.61 28.04C124.946 28.584 125.57 28.856 126.482 28.856L128.858 27.632Z" fill="#18181B"/>
</svg>
