<svg width="255" height="48" viewBox="0 0 255 48" fill="none" xmlns="http://www.w3.org/2000/svg">
<path opacity="0.3" d="M6.85418 10.0951C6.80129 4.53536 11.2937 0 16.8537 0H245C250.523 0 255 4.47715 255 10V38C255 43.5229 250.523 48 245 48H0L1.86558 45.9477C5.25626 42.2178 7.11342 37.345 7.06546 32.3045L6.85418 10.0951Z" fill="#E4E4E7"/>
<path d="M25.328 32H21.992V14.912H25.328V32ZM32.3285 16.568V17.816C32.3285 18.376 32.1685 18.912 31.8485 19.424C31.5445 19.92 31.2165 20.232 30.8645 20.36V18.824C30.8645 18.552 30.8165 18.36 30.7205 18.248C30.6245 18.12 30.3845 18.056 30.0005 18.056C29.6165 18.056 29.3365 17.976 29.1605 17.816C29.0005 17.64 28.9205 17.216 28.9205 16.544C28.9205 15.856 29.0245 15.408 29.2325 15.2C29.4565 14.976 29.9205 14.864 30.6245 14.864C31.3285 14.864 31.7845 14.976 31.9925 15.2C32.2165 15.408 32.3285 15.864 32.3285 16.568ZM53.291 32H50.171V23.48C50.171 22.632 50.067 22.04 49.859 21.704C49.667 21.368 49.323 21.2 48.827 21.2L46.019 22.376V32H42.899V23.48C42.899 21.96 42.371 21.2 41.315 21.2L38.747 22.376V32H35.627V18.296H37.955L38.675 19.928L42.275 18.152C43.523 18.152 44.467 18.76 45.107 19.976L49.571 18.152C50.819 18.152 51.747 18.576 52.355 19.424C52.979 20.256 53.291 21.384 53.291 22.808V32ZM69.6446 25.808V24.56C69.6446 23.376 69.4686 22.472 69.1166 21.848C68.7806 21.224 68.0686 20.912 66.9806 20.912C65.2206 20.912 64.3406 22.096 64.3406 24.464V25.712C64.3406 28.256 65.2206 29.528 66.9806 29.528C68.1166 29.528 68.8606 29.104 69.2126 28.256C69.5006 27.584 69.6446 26.768 69.6446 25.808ZM72.7646 25.088C72.7646 28.048 72.2046 30.032 71.0846 31.04C70.1406 31.904 68.7726 32.336 66.9806 32.336C64.6926 32.336 63.1486 31.664 62.3486 30.32C61.5966 29.088 61.2206 27.344 61.2206 25.088C61.2206 22.976 61.5966 21.32 62.3486 20.12C63.1806 18.776 64.6926 18.104 66.8846 18.104C69.0926 18.104 70.6206 18.696 71.4686 19.88C72.3326 21.048 72.7646 22.784 72.7646 25.088ZM85.8918 32H82.7718V23.24C82.7718 22.456 82.6118 21.92 82.2918 21.632C81.9718 21.344 81.5238 21.2 80.9478 21.2L78.1398 22.376V32H75.0198V18.296H77.3478L78.0678 19.928L81.9078 18.152C82.9798 18.152 83.9078 18.552 84.6918 19.352C85.4918 20.136 85.8918 21.288 85.8918 22.808V32ZM92.0176 32L88.8976 32.024V13.952H92.0176V32ZM105.377 18.296L100.169 33.536C99.9292 34.224 99.6172 34.76 99.2332 35.144C98.5932 35.784 97.6972 36.104 96.5452 36.104H95.0812V33.296H96.0412C96.4892 33.296 96.8172 33.216 97.0252 33.056C97.2492 32.912 97.4412 32.616 97.6012 32.168L97.8412 31.496L93.7132 18.296H97.0012L99.4492 27.824L102.089 18.296H105.377ZM118.855 32H115.591V17.984L113.503 17.216V14.888H116.335C117.391 14.888 118.071 15.08 118.375 15.464C118.695 15.848 118.855 16.608 118.855 17.744V32ZM133.77 17.648L127.458 32H124.098L130.41 17.888H122.898V14.888H133.77V17.648ZM152.182 18.296L146.974 33.536C146.734 34.224 146.422 34.76 146.038 35.144C145.398 35.784 144.502 36.104 143.35 36.104H141.886V33.296H142.846C143.294 33.296 143.622 33.216 143.83 33.056C144.054 32.912 144.246 32.616 144.406 32.168L144.646 31.496L140.518 18.296H143.806L146.254 27.824L148.894 18.296H152.182ZM164.305 25.88H156.313C156.313 27.128 156.505 28.04 156.889 28.616C157.289 29.192 158.081 29.48 159.265 29.48C160.033 29.48 160.601 29.24 160.969 28.76C161.337 28.264 161.521 27.792 161.521 27.344H164.329C164.329 29.056 163.865 30.312 162.937 31.112C162.025 31.912 160.809 32.312 159.289 32.312C157.785 32.312 156.617 32.096 155.785 31.664C154.073 30.784 153.217 28.448 153.217 24.656C153.217 22.4 153.705 20.752 154.681 19.712C155.657 18.656 157.145 18.128 159.145 18.128C162.617 18.128 164.353 20.056 164.353 23.912C164.353 24.328 164.337 24.984 164.305 25.88ZM156.385 23.744H161.521C161.521 22.688 161.321 21.92 160.921 21.44C160.521 20.96 159.905 20.72 159.073 20.72C158.257 20.72 157.601 20.968 157.105 21.464C156.625 21.944 156.385 22.704 156.385 23.744ZM176.614 32H174.526L173.566 30.344L170.23 32.144C168.374 32.144 167.126 31.472 166.486 30.128C166.166 29.472 165.942 28.768 165.814 28.016C165.702 27.248 165.646 26.456 165.646 25.64C165.646 24.808 165.654 24.2 165.67 23.816C165.686 23.416 165.726 22.96 165.79 22.448C165.854 21.92 165.942 21.48 166.054 21.128C166.182 20.776 166.358 20.416 166.582 20.048C166.806 19.664 167.078 19.36 167.398 19.136C168.118 18.64 169.054 18.392 170.206 18.392H173.494L176.614 18.2V32ZM173.494 27.632V21.2H171.118C170.238 21.2 169.622 21.536 169.27 22.208C168.934 22.88 168.766 23.888 168.766 25.232C168.766 26.56 168.926 27.496 169.246 28.04C169.582 28.584 170.206 28.856 171.118 28.856L173.494 27.632ZM187.274 18.344L186.41 21.416C186.17 21.32 185.898 21.272 185.594 21.272C184.794 21.272 183.81 21.616 182.642 22.304V32H179.522V18.296H181.85L182.57 19.496L185.882 18.128C186.042 18.112 186.258 18.104 186.53 18.104C186.802 18.104 187.05 18.184 187.274 18.344ZM198.762 28.208V28.568C198.666 29.768 198.154 30.672 197.226 31.28C196.314 31.888 195.17 32.192 193.794 32.192C191.762 32.192 190.338 31.824 189.522 31.088C188.77 30.416 188.394 29.424 188.394 28.112V27.824H191.226C191.226 28.56 191.418 29.064 191.802 29.336C192.186 29.608 192.85 29.744 193.794 29.744C195.074 29.744 195.714 29.28 195.714 28.352C195.714 27.584 195.49 27.072 195.042 26.816C194.834 26.688 194.57 26.592 194.25 26.528L191.826 26.12C189.714 25.784 188.658 24.464 188.658 22.16C188.658 20.88 189.122 19.888 190.05 19.184C190.994 18.464 192.186 18.104 193.626 18.104C196.906 18.104 198.546 19.52 198.546 22.352V22.664H195.834C195.802 21.912 195.602 21.4 195.234 21.128C194.866 20.856 194.346 20.72 193.674 20.72C193.018 20.72 192.522 20.856 192.186 21.128C191.85 21.384 191.682 21.672 191.682 21.992C191.682 22.904 192.05 23.424 192.786 23.552L195.69 24.08C197.738 24.464 198.762 25.84 198.762 28.208ZM214.371 25.808V24.56C214.371 23.376 214.195 22.472 213.843 21.848C213.507 21.224 212.795 20.912 211.707 20.912C209.947 20.912 209.067 22.096 209.067 24.464V25.712C209.067 28.256 209.947 29.528 211.707 29.528C212.843 29.528 213.587 29.104 213.939 28.256C214.227 27.584 214.371 26.768 214.371 25.808ZM217.491 25.088C217.491 28.048 216.931 30.032 215.811 31.04C214.867 31.904 213.499 32.336 211.707 32.336C209.419 32.336 207.875 31.664 207.075 30.32C206.323 29.088 205.947 27.344 205.947 25.088C205.947 22.976 206.323 21.32 207.075 20.12C207.907 18.776 209.419 18.104 211.611 18.104C213.819 18.104 215.347 18.696 216.195 19.88C217.059 21.048 217.491 22.784 217.491 25.088ZM222.986 32L219.866 32.024V13.952H222.986V32ZM236.298 32H234.21L233.25 30.344L229.914 32.144C228.058 32.144 226.81 31.472 226.17 30.128C225.85 29.472 225.626 28.768 225.498 28.016C225.386 27.248 225.33 26.456 225.33 25.64C225.33 24.808 225.338 24.2 225.354 23.816C225.37 23.416 225.41 22.96 225.474 22.448C225.538 21.92 225.626 21.48 225.738 21.128C225.866 20.776 226.042 20.416 226.266 20.048C226.49 19.664 226.762 19.36 227.082 19.136C227.802 18.64 228.738 18.392 229.89 18.392H233.178V13.952H236.298V32ZM233.178 27.632V21.2H230.802C229.922 21.2 229.306 21.536 228.954 22.208C228.618 22.88 228.45 23.888 228.45 25.232C228.45 26.56 228.61 27.496 228.93 28.04C229.266 28.584 229.89 28.856 230.802 28.856L233.178 27.632Z" fill="#18181B"/>
</svg>
