<svg width="172" height="48" viewBox="0 0 172 48" fill="none" xmlns="http://www.w3.org/2000/svg">
<path opacity="0.3" d="M4.62302 10.0642C4.58742 4.51637 9.07489 0 14.6228 0H162C167.523 0 172 4.47715 172 10V38C172 43.5229 167.523 48 162 48H0L1.82992 45.0156C3.78164 41.8325 4.80334 38.1666 4.77938 34.4329L4.62302 10.0642Z" fill="#E4E4E7"/>
<path d="M25.328 32H21.992V14.912H25.328V32ZM34.9205 32H32.9765C31.7925 32 30.8885 31.648 30.2645 30.944C29.6565 30.24 29.3525 29.4 29.3525 28.424V21.224H28.0325V18.848H29.3525V16.16H32.4725V18.848H34.6805V21.224H32.4725V28.232C32.4725 28.984 32.8325 29.36 33.5525 29.36H34.9205V32ZM40.766 16.568V17.816C40.766 18.376 40.606 18.912 40.286 19.424C39.982 19.92 39.654 20.232 39.302 20.36V18.824C39.302 18.552 39.254 18.36 39.158 18.248C39.062 18.12 38.822 18.056 38.438 18.056C38.054 18.056 37.774 17.976 37.598 17.816C37.438 17.64 37.358 17.216 37.358 16.544C37.358 15.856 37.462 15.408 37.67 15.2C37.894 14.976 38.358 14.864 39.062 14.864C39.766 14.864 40.222 14.976 40.43 15.2C40.654 15.408 40.766 15.864 40.766 16.568ZM53.4725 28.208V28.568C53.3765 29.768 52.8645 30.672 51.9365 31.28C51.0245 31.888 49.8805 32.192 48.5045 32.192C46.4725 32.192 45.0485 31.824 44.2325 31.088C43.4805 30.416 43.1045 29.424 43.1045 28.112V27.824H45.9365C45.9365 28.56 46.1285 29.064 46.5125 29.336C46.8965 29.608 47.5605 29.744 48.5045 29.744C49.7845 29.744 50.4245 29.28 50.4245 28.352C50.4245 27.584 50.2005 27.072 49.7525 26.816C49.5445 26.688 49.2805 26.592 48.9605 26.528L46.5365 26.12C44.4245 25.784 43.3685 24.464 43.3685 22.16C43.3685 20.88 43.8325 19.888 44.7605 19.184C45.7045 18.464 46.8965 18.104 48.3365 18.104C51.6165 18.104 53.2565 19.52 53.2565 22.352V22.664H50.5445C50.5125 21.912 50.3125 21.4 49.9445 21.128C49.5765 20.856 49.0565 20.72 48.3845 20.72C47.7285 20.72 47.2325 20.856 46.8965 21.128C46.5605 21.384 46.3925 21.672 46.3925 21.992C46.3925 22.904 46.7605 23.424 47.4965 23.552L50.4005 24.08C52.4485 24.464 53.4725 25.84 53.4725 28.208ZM71.0741 28.208V28.568C70.9781 29.768 70.4661 30.672 69.5381 31.28C68.6261 31.888 67.4821 32.192 66.1061 32.192C64.0741 32.192 62.6501 31.824 61.8341 31.088C61.0821 30.416 60.7061 29.424 60.7061 28.112V27.824H63.5381C63.5381 28.56 63.7301 29.064 64.1141 29.336C64.4981 29.608 65.1621 29.744 66.1061 29.744C67.3861 29.744 68.0261 29.28 68.0261 28.352C68.0261 27.584 67.8021 27.072 67.3541 26.816C67.1461 26.688 66.8821 26.592 66.5621 26.528L64.1381 26.12C62.0261 25.784 60.9701 24.464 60.9701 22.16C60.9701 20.88 61.4341 19.888 62.3621 19.184C63.3061 18.464 64.4981 18.104 65.9381 18.104C69.2181 18.104 70.8581 19.52 70.8581 22.352V22.664H68.1461C68.1141 21.912 67.9141 21.4 67.5461 21.128C67.1781 20.856 66.6581 20.72 65.9861 20.72C65.3301 20.72 64.8341 20.856 64.4981 21.128C64.1621 21.384 63.9941 21.672 63.9941 21.992C63.9941 22.904 64.3621 23.424 65.0981 23.552L68.0021 24.08C70.0501 24.464 71.0741 25.84 71.0741 28.208ZM81.1055 25.808V24.56C81.1055 23.376 80.9295 22.472 80.5775 21.848C80.2415 21.224 79.5295 20.912 78.4415 20.912C76.6815 20.912 75.8015 22.096 75.8015 24.464V25.712C75.8015 28.256 76.6815 29.528 78.4415 29.528C79.5775 29.528 80.3215 29.104 80.6735 28.256C80.9615 27.584 81.1055 26.768 81.1055 25.808ZM84.2255 25.088C84.2255 28.048 83.6655 30.032 82.5455 31.04C81.6015 31.904 80.2335 32.336 78.4415 32.336C76.1535 32.336 74.6095 31.664 73.8095 30.32C73.0575 29.088 72.6815 27.344 72.6815 25.088C72.6815 22.976 73.0575 21.32 73.8095 20.12C74.6415 18.776 76.1535 18.104 78.3455 18.104C80.5535 18.104 82.0815 18.696 82.9295 19.88C83.7935 21.048 84.2255 22.784 84.2255 25.088ZM99.3069 26.984L102.139 26.96C102.123 27.088 102.107 27.32 102.091 27.656C102.075 27.992 102.059 28.224 102.043 28.352C102.043 28.464 102.027 28.648 101.995 28.904C101.963 29.16 101.923 29.352 101.875 29.48C101.843 29.592 101.795 29.744 101.731 29.936C101.443 30.768 100.659 31.424 99.3789 31.904C98.5629 32.192 97.7069 32.336 96.8109 32.336C95.9309 32.336 95.1309 32.192 94.4109 31.904C93.6909 31.616 93.1229 31.248 92.7069 30.8C91.7629 29.808 91.2909 27.952 91.2909 25.232C91.2909 22.496 91.7629 20.632 92.7069 19.64C93.1229 19.192 93.6909 18.824 94.4109 18.536C95.1309 18.248 95.9309 18.104 96.8109 18.104C98.5389 18.104 99.8509 18.536 100.747 19.4C101.643 20.264 102.091 21.464 102.091 23H99.2589C99.2589 22.296 99.0829 21.776 98.7309 21.44C98.3789 21.088 97.7229 20.912 96.7629 20.912C95.8189 20.912 95.1869 21.208 94.8669 21.8C94.5629 22.392 94.4109 23.28 94.4109 24.464V25.712C94.4109 27.616 94.7789 28.784 95.5149 29.216C95.8509 29.424 96.2909 29.528 96.8349 29.528C97.3789 29.528 97.8189 29.48 98.1549 29.384C98.5069 29.272 98.7549 29.088 98.8989 28.832C99.0589 28.576 99.1629 28.328 99.2109 28.088C99.2589 27.832 99.2909 27.464 99.3069 26.984ZM112.16 25.808V24.56C112.16 23.376 111.984 22.472 111.632 21.848C111.296 21.224 110.584 20.912 109.496 20.912C107.736 20.912 106.856 22.096 106.856 24.464V25.712C106.856 28.256 107.736 29.528 109.496 29.528C110.632 29.528 111.376 29.104 111.728 28.256C112.016 27.584 112.16 26.768 112.16 25.808ZM115.28 25.088C115.28 28.048 114.72 30.032 113.6 31.04C112.656 31.904 111.288 32.336 109.496 32.336C107.208 32.336 105.664 31.664 104.864 30.32C104.112 29.088 103.736 27.344 103.736 25.088C103.736 22.976 104.112 21.32 104.864 20.12C105.696 18.776 107.208 18.104 109.4 18.104C111.608 18.104 113.136 18.696 113.984 19.88C114.848 21.048 115.28 22.784 115.28 25.088ZM120.775 32L117.655 32.024V13.952H120.775V32ZM134.087 32H131.999L131.039 30.344L127.703 32.144C125.847 32.144 124.599 31.472 123.959 30.128C123.639 29.472 123.415 28.768 123.287 28.016C123.175 27.248 123.119 26.456 123.119 25.64C123.119 24.808 123.127 24.2 123.143 23.816C123.159 23.416 123.199 22.96 123.263 22.448C123.327 21.92 123.415 21.48 123.527 21.128C123.655 20.776 123.831 20.416 124.055 20.048C124.279 19.664 124.551 19.36 124.871 19.136C125.591 18.64 126.527 18.392 127.679 18.392H130.967V13.952H134.087V32ZM130.967 27.632V21.2H128.591C127.711 21.2 127.095 21.536 126.743 22.208C126.407 22.88 126.239 23.888 126.239 25.232C126.239 26.56 126.399 27.496 126.719 28.04C127.055 28.584 127.679 28.856 128.591 28.856L130.967 27.632ZM140.868 28.784C141.124 29.024 141.252 29.544 141.252 30.344C141.252 31.144 141.124 31.672 140.868 31.928C140.628 32.184 140.108 32.312 139.308 32.312C138.508 32.312 137.98 32.184 137.724 31.928C137.468 31.672 137.34 31.144 137.34 30.344C137.34 29.544 137.468 29.024 137.724 28.784C137.98 28.528 138.508 28.4 139.308 28.4C140.108 28.4 140.628 28.528 140.868 28.784ZM147.946 28.784C148.202 29.024 148.33 29.544 148.33 30.344C148.33 31.144 148.202 31.672 147.946 31.928C147.706 32.184 147.186 32.312 146.386 32.312C145.586 32.312 145.058 32.184 144.802 31.928C144.546 31.672 144.418 31.144 144.418 30.344C144.418 29.544 144.546 29.024 144.802 28.784C145.058 28.528 145.586 28.4 146.386 28.4C147.186 28.4 147.706 28.528 147.946 28.784ZM155.024 28.784C155.28 29.024 155.408 29.544 155.408 30.344C155.408 31.144 155.28 31.672 155.024 31.928C154.784 32.184 154.264 32.312 153.464 32.312C152.664 32.312 152.136 32.184 151.88 31.928C151.624 31.672 151.496 31.144 151.496 30.344C151.496 29.544 151.624 29.024 151.88 28.784C152.136 28.528 152.664 28.4 153.464 28.4C154.264 28.4 154.784 28.528 155.024 28.784Z" fill="#18181B"/>
</svg>
