<svg width="53" height="113" viewBox="0 0 53 113" fill="none" xmlns="http://www.w3.org/2000/svg">
<g opacity="0.2">
<path d="M2.58429 79.9679C2.08242 79.6492 1.59648 79.7847 0.576812 79.8165C0.154604 79.8245 0.138671 80.0475 0.138671 80.2706C0.138671 81.5293 0.32986 81.6726 1.8753 81.5771C2.17802 81.5372 2.4648 81.5372 2.72768 81.4576C3.38888 81.2584 3.33311 80.6131 3.97837 80.9876C4.15363 81.0911 4.40855 81.1787 4.6077 81.1469C5.96196 80.9238 5.95399 80.9159 5.86636 79.713C5.7867 78.6694 6.16908 78.2153 5.47602 78.0401C4.5838 77.809 4.28109 77.6019 3.85888 77.8489C3.48447 78.064 3.12599 77.9684 2.9826 77.594C2.87107 77.2912 2.79938 77.3151 0.983088 76.8451C0.66444 76.7655 0.417488 76.8451 0.369691 77.1638C0.266131 77.8329 0.0669759 78.773 0.66444 78.8367C1.34157 78.9084 2.04259 79.0677 2.67989 78.5897C2.9826 78.3667 3.53227 78.5419 3.78719 78.8765C4.24126 79.458 3.596 80.6052 2.58429 79.9679Z" fill="#71717A"/>
<path d="M3.3499 73.3592C1.47785 73.0406 1.07157 73.0167 1.00784 73.6301C0.888347 74.7533 0.458173 75.3189 1.24683 75.2791C2.57718 75.2153 3.23041 75.2472 3.47736 74.6418C3.59685 74.3391 4.07482 74.347 4.28194 74.6418C4.53686 75.0082 4.78381 74.9763 6.24163 74.8409C6.54434 74.8091 6.67977 74.6577 6.73553 74.3789C7.14181 72.3475 7.69944 72.4989 5.68399 71.8138C5.28568 71.6783 4.9989 72.3555 4.58466 71.75C4.28194 71.3039 4.21025 71.3199 2.49752 70.6507C2.20277 70.5312 2.01955 70.6348 1.88412 70.9056C1.24683 72.1404 1.33445 72.3236 2.80023 72.5546C3.36583 72.6422 3.93143 72.8175 4.5289 72.5865C4.64042 72.5467 4.92721 72.6741 4.98297 72.7856C5.15822 73.1123 5.07856 73.4548 4.75992 73.6938C4.23415 74.0921 4.00313 73.4628 3.3499 73.3512L3.3499 73.3592Z" fill="#71717A"/>
<path d="M5.80254 68.7938C5.22101 69.1125 5.17321 68.4114 4.61558 68.1725C2.98251 67.4714 2.63996 67.3838 2.42487 68.0052C2.0186 69.1603 1.48486 69.6701 2.20979 69.7816C3.44455 69.9728 4.01811 70.1242 4.39252 69.5426C4.58371 69.2559 5.00592 69.3435 5.11744 69.694C5.21304 70.0126 5.43609 70.1003 5.70694 70.1401C6.98153 70.3233 7.18069 70.395 7.40374 69.8932C8.28799 67.8857 8.77393 68.1087 7.13289 67.0014C6.81424 66.7863 6.36814 67.4396 6.15305 66.7226C6.00169 66.1968 5.92203 66.1968 4.55185 65.1692C4.31286 64.9939 4.12964 65.0577 3.93048 65.3126C3.0303 66.4836 3.06217 66.6907 4.32083 67.2165C4.80676 67.4236 5.2688 67.7104 5.8822 67.583C5.99373 67.5591 6.21678 67.7502 6.24068 67.8777C6.31237 68.2521 6.15305 68.5947 5.79457 68.7938L5.80254 68.7938Z" fill="#71717A"/>
<path d="M4.00978 85.9705C3.64333 85.7952 3.14146 85.9944 1.35703 86.1856C1.02245 86.2254 0.926861 86.3528 1.00652 86.6237C1.48449 88.193 1.50839 88.1054 2.9662 87.6673C4.54351 87.1893 4.69487 87.1734 4.79843 86.799C4.86216 86.5679 5.13301 86.5918 5.37199 86.6954C5.66674 86.8308 6.81387 86.4086 6.91744 86.1218C7.021 85.8191 6.69438 85.1898 6.42353 84.1223C6.35184 83.8515 6.22438 83.716 5.89776 83.7559C5.45962 83.8116 4.98962 83.6682 4.61521 84.0347C4.50368 84.1462 3.66723 83.7718 3.44418 83.7479C2.65552 83.6682 1.85094 83.6443 1.06229 83.5647C0.44889 83.5089 0.464822 83.8435 0.504653 84.2816C0.608213 85.4527 0.727706 85.5323 2.37671 85.3172C2.39264 85.3491 2.40061 85.373 2.41654 85.4049C2.92637 85.2137 3.44418 85.0384 3.93808 84.8313C4.72673 84.4967 5.37996 85.3093 4.89402 85.8589C4.64707 86.1378 4.35232 86.1298 4.01774 85.9705L4.00978 85.9705Z" fill="#71717A"/>
<path d="M19.799 73.2083C19.799 73.2083 19.799 73.1366 19.8069 73.0967C21.2408 72.6825 21.2488 72.7303 21.0258 71.9655C20.731 70.9698 20.6514 70.9459 19.4564 71.4796C18.0783 72.101 17.911 72.2523 17.7437 72.5311C17.5605 72.8338 17.3533 72.9294 16.9949 72.786C16.6125 72.6347 16.0867 72.9055 15.8796 73.0011C14.2784 73.75 15.083 73.6066 15.2343 75.391C15.2662 75.7335 15.4813 75.869 15.8876 75.8451C17.5764 75.7335 17.5206 75.7813 17.903 75.4149C18.2854 75.0405 18.6837 75.0405 18.9784 75.391C19.2573 75.7256 19.4405 75.7415 21.3364 75.622C21.7427 75.5981 21.902 75.4069 21.8383 75.0962C21.6949 74.4191 21.687 73.5189 21.0815 73.6145C17.7756 74.1323 18.6917 74.2518 18.1739 74.435C17.9588 74.5147 17.5445 74.5944 17.5047 74.5306C16.6125 73.1605 18.1579 73.3038 19.8149 73.1923L19.799 73.2083Z" fill="#71717A"/>
<path d="M17.1703 78.9803C17.6244 78.7891 18.0625 78.7652 18.4369 79.0838C18.7317 79.3388 20.54 79.5937 20.7949 79.3388C21.1056 79.0281 21.2171 78.574 21.3127 78.1757C21.3685 77.9526 21.2729 77.6818 21.1215 77.4986C21.0339 77.395 20.1974 77.5304 19.6478 77.6021C19.6478 77.6021 19.6478 77.5942 19.6478 77.5862C18.5484 77.7296 18.3094 77.6898 18.1183 78.0642C17.9589 78.3749 17.5208 78.3987 17.2818 78.1916C16.9632 77.9128 16.6684 78.0084 16.1665 78.0881C14.5335 78.3271 15.2425 78.2713 14.3264 80.2867C14.1989 80.5735 14.2547 80.7806 14.5972 80.9001C15.6886 81.2666 15.9276 81.3542 16.2621 81.171C17.0827 80.7249 16.9552 81.5374 17.5606 81.6729C18.0864 81.7923 18.6361 81.8481 19.1778 81.9357C19.6079 82.0074 19.8947 81.8561 20.1257 81.5693C20.9224 80.6054 20.8029 80.3664 19.4566 80.215C18.8352 80.1433 18.3891 80.0318 18.0067 80.215C16.6684 80.8842 16.286 79.3467 17.1623 78.9723L17.1703 78.9803Z" fill="#71717A"/>
<path d="M16.7565 68.2225C17.2743 68.087 18.1108 67.8162 18.6445 67.5294C19.3456 67.1523 19.5075 66.6744 19.1305 66.0955C18.5967 65.2829 18.533 65.275 17.7443 66.0158C17.3381 66.3982 16.8442 66.7646 16.7326 67.4338C16.6689 67.8002 16.3901 68.0233 15.936 68.0472C15.705 68.0552 15.474 68.1587 15.2509 68.2304C15.1553 68.2623 15.0836 68.3499 15.004 68.4136C13.339 69.5926 14.3985 69.7998 14.4702 70.8991C14.4941 71.3213 14.7411 71.4249 15.0438 71.3293C16.8681 70.931 17.115 70.9389 17.2345 70.5326C17.3142 70.2618 17.6647 70.214 17.8877 70.3972C18.2303 70.6681 18.3338 70.5008 20.19 69.9511C20.5564 69.8396 20.652 69.6564 20.5962 69.3616C20.4051 68.3818 20.3891 67.3302 17.346 69.5369C16.9079 69.8555 16.2387 69.6962 16.0555 69.2182C15.9121 68.8279 16.2865 68.3499 16.7565 68.2304L16.7565 68.2225Z" fill="#71717A"/>
<path d="M10.9011 65.2339C10.3992 65.4251 10.5744 65.6482 10.6461 65.8871C10.7258 66.15 10.7258 66.4926 10.917 66.6519C11.0683 66.7793 11.4587 66.6678 11.7455 66.6678C12.7173 66.6678 12.6377 66.7156 13.2352 65.4171C12.9563 65.3454 12.7492 65.3056 12.558 65.2339C12.0482 65.0427 12.0004 64.517 12.4067 64.1664C12.8448 63.7841 12.9404 63.6725 13.6414 61.219C13.8804 60.3825 13.4582 60.494 11.0604 60.5737C10.6939 60.5896 10.5266 60.7728 10.5585 61.0915C10.7736 63.4893 10.6939 63.5849 11.1799 64.1505C11.5623 64.5966 11.4985 65.0109 10.9011 65.2339Z" fill="#71717A"/>
<path d="M8.75931 61.8731C8.66371 61.5066 8.40083 61.3951 8.04235 61.6341C6.39335 62.7334 6.01097 62.9645 6.30572 63.4823C7.58031 65.7208 7.58828 65.6969 7.85913 65.7208C8.58405 65.7924 7.99455 66.2386 8.22557 66.6369C8.47252 67.0511 8.75134 67.4494 9.03016 67.8637C10.4322 66.9714 10.6712 67.0272 10.4641 66.2545C10.3924 65.9836 10.241 65.7208 10.0658 65.4818C10.0259 65.434 9.74712 65.5614 9.60372 65.5296C8.75134 65.3304 9.00626 65.0994 9.13372 64.7011C9.33287 64.0718 9.56389 64.8763 8.76728 61.8731L8.75931 61.8731Z" fill="#71717A"/>
<path d="M14.1834 65.521C13.4983 65.6404 13.5222 65.3059 12.9327 66.6999C12.861 66.8672 13.5859 67.3133 13.9444 67.6639C14.1515 67.863 14.3347 67.863 14.502 67.6559C14.8366 67.2337 15.1553 66.8035 15.45 66.3574C15.6492 66.0547 15.1871 65.3935 15.9519 65.2103C16.3422 65.1147 16.5573 64.8916 16.7405 64.5969C17.5371 63.3541 18.0231 62.9957 17.4336 62.5177C16.2785 61.5697 15.8563 61.1953 15.6173 61.7529C14.51 64.3101 14.4861 64.2862 14.7251 64.6606C15.0278 65.1386 14.8207 65.505 14.1834 65.513L14.1834 65.521Z" fill="#71717A"/>
<path d="M11.8411 109.15C11.3392 109.524 11.4189 109.771 11.164 111.818C11.0445 112.758 11.8252 112.559 14.4062 112.288C14.8444 112.24 14.94 111.986 14.8364 111.659C14.0239 109.189 14.0796 109.261 13.6415 109.054C12.9803 108.727 12.9245 108.345 13.4662 107.859C13.7928 107.572 13.5299 107.246 13.1476 106.457C11.4986 106.927 11.8809 106.17 11.4109 107.907C11.5623 107.979 11.6977 108.034 11.8252 108.098C12.3589 108.401 12.343 108.783 11.8411 109.158L11.8411 109.15Z" fill="#71717A"/>
<path d="M16.1194 84.0726C16.3026 83.9531 16.7885 83.9292 16.916 84.0407C17.4417 84.5028 18.1746 84.5346 18.8199 84.7497C19.3457 84.925 19.4014 84.5665 19.8635 83.73C20.1582 83.1883 19.6086 83.2999 17.9914 83.2839C17.6409 83.4831 17.1231 83.8973 16.908 83.5548C16.6292 83.1007 16.1194 83.1724 15.6573 83.1246C14.311 82.9812 14.6456 83.6743 13.9765 84.1841C13.5622 84.5028 13.602 84.7338 14.0402 84.9728C14.2951 85.1162 14.5102 85.3073 14.781 85.4348C14.9324 85.5065 15.1634 85.4826 15.3387 85.5304C16.0158 85.7455 15.9202 86.0243 16.1751 86.2155C17.7684 87.4024 18.9474 85.865 18.2224 85.5782C17.609 85.3312 17.0434 85.0046 16.2787 85.0684C16.1114 85.0843 15.7768 84.8612 15.7768 84.7577C15.7927 84.5266 15.9122 84.216 16.1194 84.0805L16.1194 84.0726Z" fill="#71717A"/>
<path d="M8.86924 106.757C9.47467 105.936 10.0562 105.052 9.22772 103.977C8.71789 104.399 7.97703 104.646 7.66635 105.323C7.61059 105.434 7.45126 105.586 7.33177 105.602C6.74227 105.657 5.33226 106.518 5.17293 106.988C5.06937 107.29 5.12513 107.386 6.7343 109.68C6.91753 109.943 7.24414 109.935 7.38753 109.68C7.79381 108.987 8.39127 108.318 8.0089 107.466C7.9372 107.298 7.99296 107.004 8.12042 106.876C8.23195 106.765 8.54263 106.805 8.86128 106.765L8.86924 106.757Z" fill="#71717A"/>
<path d="M16.4942 105.852C16.6615 105.963 16.5898 106.632 16.7571 106.824C18.9478 109.237 18.8522 109.309 19.832 106.425C19.9834 105.987 19.8718 105.637 19.362 105.421C16.8527 104.362 18.3662 104.832 17.1952 104.712C17.0438 104.697 16.8049 104.673 16.7571 104.593C16.3986 103.9 15.5303 103.972 14.9726 103.621C14.2875 104.736 15.0125 105.366 15.7135 105.931C16.0162 105.891 16.3428 105.764 16.4782 105.86L16.4942 105.852Z" fill="#71717A"/>
<path d="M15.642 111.294C15.7934 111.613 16.0164 111.692 16.343 111.422C17.5539 110.418 18.2071 110.115 17.7132 109.478C16.5183 107.956 16.1678 107.447 16.0005 107.462C15.3393 107.534 15.4827 107.176 15.3791 106.801C15.2357 106.299 14.7657 105.877 14.3834 105.359C13.5788 106.164 13.3637 106.283 13.4912 106.586C13.6106 106.881 13.8974 107.534 14.2081 107.574C14.8932 107.67 15.1163 108.052 14.8852 108.594C14.5825 109.311 14.8852 109.693 15.6341 111.286L15.642 111.294Z" fill="#71717A"/>
<path d="M17.8547 101.785C18.4681 102 19.1372 102.088 19.8144 102.239C19.8622 102.056 19.8781 102.016 19.8781 101.985C19.8223 100.471 20.1091 100.806 15.1063 100.957C14.7001 100.973 14.5885 101.124 14.6124 101.491C14.6682 102.741 14.6762 102.686 15.9189 103.1C19.5515 104.303 20.0454 105.211 20.0454 104.048C20.0454 103.291 20.1967 102.869 19.4479 102.773C18.9221 102.709 18.4282 102.47 17.8786 102.829C17.1775 103.291 16.4367 102.447 16.9306 101.785C17.1696 101.475 17.5121 101.642 17.8626 101.769L17.8547 101.785Z" fill="#71717A"/>
<path d="M3.8678 97.1781C3.49339 97.1144 3.31813 97.1781 3.3978 97.5286C3.47746 97.8712 3.52525 98.4208 3.74831 98.5005C4.35374 98.6996 5.01493 99.0502 5.71596 98.5802C5.83545 98.5005 6.21783 98.5324 6.25766 98.612C6.92682 99.9185 5.19815 99.4485 3.70051 99.2334C3.66068 99.3529 3.63678 99.3927 3.64475 99.4246C3.70051 100.946 3.58102 100.811 8.19344 99.8547C9.02192 99.6875 8.57582 99.1856 8.61565 98.62C8.68735 97.5605 9.02192 98.0624 3.87577 97.1861L3.8678 97.1781Z" fill="#71717A"/>
<path d="M6.1614 103.688C5.6197 103.664 5.06207 103.808 4.54427 103.871C4.5124 103.999 4.4885 104.039 4.49647 104.062C4.87088 105.464 4.66376 105.369 8.68669 103.592C9.10093 103.409 9.25229 103.154 9.1089 102.724C8.56719 101.107 10.033 101.179 3.9707 101.951C4.05036 102.262 4.09816 102.668 4.24952 103.027C4.39291 103.353 5.65953 103.314 5.94632 102.963C6.54378 102.222 6.96599 103.043 6.89429 103.393C6.8226 103.744 6.51192 103.704 6.15344 103.688L6.1614 103.688Z" fill="#71717A"/>
<path d="M19.0097 97.6193C18.3883 96.0897 18.8822 96.2889 14.214 97.3404C13.8077 97.4281 13.744 97.6431 13.8954 97.9777C14.0706 98.3681 14.0706 98.9177 14.3733 99.1328C14.684 99.3479 15.2655 99.2045 15.7276 99.2603C18.3803 99.5869 18.5158 99.6825 19.5992 99.7383C19.3761 99.1966 19.3124 98.6867 19.0097 98.3681C18.691 98.0335 17.3686 98.2406 16.9464 98.5194C16.811 98.6071 16.4525 98.631 16.3967 98.5593C16.2693 98.376 16.1737 98.1052 16.2215 97.8981C16.3091 97.4998 17.3208 97.5954 19.0176 97.6113L19.0097 97.6193Z" fill="#71717A"/>
<path d="M9.38837 108.532C8.89446 108.699 8.8387 108.954 8.33683 110.165C7.97835 111.026 8.05005 111.201 8.93429 111.679C10.4558 112.507 10.1531 112.252 10.655 109.998C10.7506 109.584 10.7426 109.225 10.3124 108.922C9.93804 108.652 10.1611 108.19 10.6789 108.038C11.0692 107.927 11.6189 106.963 11.4197 106.668C11.3082 106.517 11.0533 106.453 10.8701 106.333C10.6869 106.214 10.5275 106.086 10.2169 105.855C9.946 106.66 9.29277 107.258 9.54769 108.086C9.58752 108.213 9.49989 108.492 9.38837 108.532Z" fill="#71717A"/>
<path d="M12.0796 72.5704C11.984 72.7138 11.6893 72.9528 11.6813 73.1918C11.6734 73.5741 11.5857 73.7972 11.1556 73.9565C10.0722 74.3548 10.8927 75.6533 11.8327 74.9842C12.1513 74.7611 12.4063 74.785 12.7169 74.9842C13.6808 75.6055 14.5173 74.2911 13.3941 73.9326C13.0197 73.8131 12.9719 73.6299 13.0356 73.3033C13.1312 72.8253 12.7727 72.4987 12.0717 72.5784L12.0796 72.5704Z" fill="#71717A"/>
<path d="M9.58746 70.2385C9.49186 70.3819 9.19711 70.6209 9.18915 70.8599C9.18118 71.2423 9.09355 71.4653 8.66338 71.6246C7.57998 72.023 8.40049 73.3214 9.3405 72.6523C9.65915 72.4292 9.91407 72.4531 10.2248 72.6523C11.1887 73.2736 12.0251 71.9592 10.9019 71.5928C10.5275 71.4733 10.4797 71.2901 10.5434 70.9635C10.639 70.4855 10.2805 70.1589 9.57949 70.2385L9.58746 70.2385Z" fill="#71717A"/>
<path d="M10.957 87.1948C10.957 86.7805 11.1721 86.6292 11.5624 86.4778C11.8253 86.3743 12.0005 86.0795 12.128 85.96C12.0324 85.3626 11.5704 85.1315 11.1163 85.3626C10.6941 85.5777 10.3914 85.6095 10.0249 85.2909C9.26813 84.6297 8.24846 85.9202 9.22034 86.3026C9.65848 86.4699 9.71424 86.685 9.58678 87.0753C9.3 87.9436 10.957 88.1268 10.957 87.2028L10.957 87.1948Z" fill="#71717A"/>
<path d="M9.22059 83.8685C9.31618 83.7331 9.61093 83.5021 9.63483 83.2551C9.67466 82.8727 9.81805 82.7054 10.2243 82.5939C11.3954 82.2673 10.6147 80.913 9.67466 81.5025C9.34008 81.7176 9.08516 81.6698 8.79838 81.4468C7.88227 80.7219 6.94226 81.9805 7.98583 82.4346C8.33634 82.5859 8.3921 82.7532 8.28854 83.0798C8.12922 83.5817 8.47973 83.9482 9.22059 83.8685Z" fill="#71717A"/>
<path d="M11.2187 67.7281C11.1948 68.23 10.908 68.3733 10.438 68.4928C10.0477 68.5964 9.86447 68.923 10.0158 69.2417C10.1273 69.4647 10.4221 69.6081 10.5974 69.7515C11.2426 69.4966 11.3063 69.2735 11.9994 69.7196C12.9553 70.341 13.7042 69.1461 12.8837 68.7557C12.4774 68.5645 12.3977 68.3574 12.565 67.9671C12.9235 67.1147 11.2585 66.8837 11.2187 67.7281Z" fill="#71717A"/>
<path d="M11.0917 100.556C11.3466 100.325 11.5617 100.293 11.8644 100.437C12.3663 100.668 12.7726 100.54 12.9239 100.142C13.0673 99.7596 12.8523 99.5047 12.3504 99.3374C12.1512 99.2657 11.9999 99.0745 11.9441 99.0347C11.8724 98.3417 11.6095 98.0867 11.1794 98.1664C10.2393 98.3417 10.9165 99.1383 10.319 99.6162C9.88883 99.9668 9.75341 100.293 10.0402 100.612C10.311 100.915 10.7093 100.915 11.0917 100.564L11.0917 100.556Z" fill="#71717A"/>
<path d="M9.45828 78.0239C9.46625 77.5778 9.6654 77.3787 10.1434 77.2512C11.1471 76.9804 10.4461 75.6341 9.57777 76.1519C8.69353 76.6776 8.6537 75.7217 7.69775 76.0324C7.51453 76.0881 7.41097 76.3829 7.26758 76.59C7.43487 76.7892 7.51453 77.0043 7.66589 77.06C8.16776 77.2193 8.19166 77.4902 8.08013 77.9124C7.85708 78.7489 9.43438 78.8524 9.45031 78.0319L9.45828 78.0239Z" fill="#71717A"/>
<path d="M10.8773 78.1639C10.8694 78.5542 10.6224 78.6737 10.256 78.8092C9.98512 78.9127 9.778 79.1676 9.64258 79.2792C9.69834 79.8926 10.1365 80.1634 10.5906 79.9563C11.0526 79.7492 11.3633 79.7412 11.7297 80.0838C12.4148 80.729 13.4982 79.5341 12.5821 79.1039C12.1758 78.9127 12.0882 78.7215 12.2396 78.3232C12.5821 77.4071 10.9092 77.208 10.8773 78.1639Z" fill="#71717A"/>
<path d="M13.0439 103.02C13.9202 102.51 12.9642 101.355 12.1835 102.16C11.9286 102.422 11.7056 102.454 11.371 102.319C10.3354 101.897 9.84147 103.243 10.9647 103.434C11.3232 103.498 11.4347 103.657 11.4427 103.976C11.4586 104.948 13.02 104.645 12.7412 103.833C12.6137 103.458 12.6854 103.235 13.0439 103.028L13.0439 103.02Z" fill="#71717A"/>
<path d="M49.7751 18.8486C50.4124 19.3186 51.1135 19.1672 51.7906 19.0955C52.396 19.0318 52.1889 18.0599 52.0853 17.4226C52.0375 17.096 51.7906 17.0243 51.4719 17.104C49.6636 17.574 49.5919 17.5581 49.4724 17.8528C49.329 18.2272 48.9785 18.3308 48.5961 18.1077C48.1739 17.8608 47.8632 18.0679 46.979 18.2989C46.2859 18.4742 46.6604 18.9362 46.5887 19.9718C46.501 21.1747 46.4851 21.1827 47.8473 21.4057C48.0465 21.4376 48.3014 21.35 48.4766 21.2464C49.1219 20.864 49.0661 21.5173 49.7273 21.7164C49.9902 21.7961 50.277 21.7961 50.5797 21.8359C52.1331 21.9395 52.3243 21.7961 52.3163 20.5295C52.3163 20.3064 52.3004 20.0833 51.8782 20.0754C50.8585 20.0515 50.3726 19.9081 49.8707 20.2267C48.867 20.864 48.2217 19.7169 48.6678 19.1354C48.9228 18.8008 49.4724 18.6335 49.7751 18.8486Z" fill="#71717A"/>
<path d="M47.9367 12.8408C48.5422 13.0719 49.0998 12.8966 49.6654 12.809C51.1232 12.578 51.2108 12.3947 50.5815 11.16C50.4461 10.8891 50.2629 10.7935 49.9681 10.9051C48.2554 11.5742 48.1837 11.5583 47.881 12.0044C47.4667 12.6178 47.18 11.9327 46.7816 12.0681C44.7662 12.7612 45.3238 12.6098 45.7301 14.6332C45.7859 14.9121 45.9213 15.0634 46.224 15.0953C47.6818 15.2307 47.9288 15.2626 48.1837 14.8961C48.3908 14.6014 48.8608 14.5934 48.9883 14.8961C49.2352 15.4936 49.8885 15.4617 51.2188 15.5334C52.0075 15.5732 51.5773 15.0156 51.4578 13.8844C51.3941 13.263 50.9719 13.3029 49.1157 13.6136C48.4625 13.7251 48.2315 14.3465 47.7057 13.9561C47.3791 13.7092 47.3074 13.3666 47.4827 13.048C47.5464 12.9364 47.8332 12.809 47.9367 12.8488L47.9367 12.8408Z" fill="#71717A"/>
<path d="M46.5742 7.83254C47.1797 7.96 47.6417 7.67322 48.1356 7.46609C49.3943 6.94033 49.4261 6.73321 48.526 5.56218C48.3268 5.30726 48.1436 5.23556 47.9046 5.41878C46.5344 6.44642 46.4627 6.43846 46.3034 6.97219C46.0883 7.68915 45.6502 7.03592 45.3235 7.25101C43.6745 8.35831 44.1684 8.14322 45.0527 10.1427C45.2757 10.6446 45.4749 10.5729 46.7495 10.3897C47.0283 10.3499 47.2434 10.2702 47.339 9.94358C47.4505 9.59307 47.8727 9.49747 48.0639 9.79222C48.4463 10.3738 49.0199 10.2224 50.2466 10.0312C50.9636 9.91968 50.4299 9.41781 50.0316 8.25475C49.8165 7.64135 49.5058 7.70508 47.8409 8.42204C47.2753 8.66102 47.2275 9.36205 46.6539 9.0434C46.2954 8.84425 46.1361 8.5017 46.2078 8.12729C46.2317 7.99983 46.4627 7.80864 46.5663 7.83254L46.5742 7.83254Z" fill="#71717A"/>
<path d="M48.5326 25.0774C49.0265 25.2925 49.5443 25.4598 50.0542 25.651C50.0701 25.6191 50.0781 25.5952 50.094 25.5633C51.743 25.7705 51.8705 25.6988 51.9661 24.5277C52.0059 24.0896 52.0218 23.755 51.4084 23.8108C50.6198 23.8904 49.8152 23.9143 49.0265 23.986C48.8035 24.0099 47.967 24.3843 47.8555 24.2728C47.4811 23.9064 47.0031 24.0498 46.573 23.994C46.2463 23.9542 46.1109 24.0816 46.0472 24.3604C45.7763 25.4359 45.4418 26.0652 45.5533 26.36C45.6489 26.6467 46.796 27.0689 47.0987 26.9335C47.3377 26.83 47.6086 26.7981 47.6723 27.0371C47.7758 27.4115 47.9192 27.4274 49.5045 27.9054C50.9623 28.3515 50.9862 28.4391 51.4642 26.8618C51.5439 26.591 51.4562 26.4635 51.1137 26.4237C49.3293 26.2325 48.8274 26.0333 48.4609 26.2086C47.6643 26.591 47.0987 25.7705 47.6245 25.2208C47.8714 24.9659 48.1662 24.9021 48.5406 25.0694L48.5326 25.0774Z" fill="#71717A"/>
<path d="M34.2978 14.7041C33.78 14.5208 34.6961 14.4014 31.3901 13.8836C30.7847 13.788 30.7767 14.6881 30.6333 15.3653C30.5616 15.6839 30.7289 15.8671 31.1352 15.891C33.0311 16.0105 33.2144 15.9866 33.4932 15.66C33.7879 15.3095 34.1862 15.3095 34.5686 15.6839C34.943 16.0504 34.8952 16.0026 36.5841 16.1141C36.9983 16.138 37.2134 16.0026 37.2373 15.66C37.3886 13.8756 38.2012 14.019 36.592 13.2702C36.3849 13.1746 35.8591 12.9037 35.4768 13.0551C35.1183 13.1985 34.9112 13.1029 34.7279 12.8001C34.5606 12.5134 34.3934 12.362 33.0152 11.7486C31.8123 11.2069 31.7406 11.2388 31.4459 12.2345C31.2149 12.9993 31.2308 12.9515 32.6647 13.3657C32.6647 13.4056 32.6647 13.4374 32.6727 13.4773C34.3376 13.5888 35.883 13.4454 34.9829 14.8156C34.943 14.8793 34.5288 14.7997 34.3137 14.72L34.2978 14.7041Z" fill="#71717A"/>
<path d="M34.449 20.4768C34.0666 20.2856 33.6205 20.4051 32.9991 20.4768C31.6529 20.6281 31.5334 20.8671 32.33 21.831C32.561 22.1178 32.8478 22.2612 33.278 22.1975C33.8197 22.1098 34.3693 22.0541 34.8951 21.9346C35.5085 21.7991 35.3731 20.9866 36.1936 21.4327C36.5282 21.6159 36.7671 21.5283 37.8585 21.1619C38.2011 21.0424 38.2568 20.8352 38.1294 20.5485C37.2133 18.533 37.9222 18.5808 36.2892 18.3498C35.7873 18.2781 35.4926 18.1745 35.1739 18.4533C34.9349 18.6605 34.4968 18.6445 34.3375 18.3259C34.1542 17.9594 33.9073 17.9913 32.808 17.8479C32.808 17.8479 32.808 17.8559 32.808 17.8638C32.2663 17.7922 31.4298 17.6567 31.3342 17.7603C31.1829 17.9355 31.0873 18.2144 31.143 18.4374C31.2386 18.8357 31.3501 19.2898 31.6608 19.6005C31.9078 19.8554 33.7161 19.6005 34.0188 19.3456C34.3932 19.0269 34.8234 19.0508 35.2854 19.242C36.1697 19.6164 35.7873 21.1459 34.441 20.4847L34.449 20.4768Z" fill="#71717A"/>
<path d="M35.1165 9.78587C32.0734 7.57924 32.0575 8.64671 31.8663 9.61062C31.8105 9.90536 31.9061 10.0886 32.2726 10.2001C34.1207 10.7498 34.2243 10.9171 34.5748 10.6462C34.8058 10.471 35.1484 10.5188 35.228 10.7816C35.3475 11.1959 35.5945 11.18 37.4187 11.5783C37.7135 11.6739 37.9604 11.5623 37.9923 11.1481C38.064 10.0488 39.1235 9.84164 37.4586 8.66264C37.3709 8.60688 37.3072 8.51925 37.2116 8.47942C36.9886 8.39975 36.7575 8.30416 36.5265 8.29619C36.0724 8.2723 35.7936 8.04924 35.7299 7.6828C35.6184 7.01364 35.1245 6.65516 34.7182 6.26482C33.9295 5.52396 33.8658 5.52396 33.3321 6.34448C32.9497 6.92335 33.1117 7.40133 33.818 7.77839C34.3517 8.06517 35.1882 8.33602 35.706 8.47145C36.176 8.59094 36.5424 9.07688 36.407 9.45926C36.2318 9.9452 35.5546 10.0966 35.1165 9.77791L35.1165 9.78587Z" fill="#71717A"/>
<path d="M41.8979 1.33926C41.9297 1.02062 41.7624 0.829428 41.396 0.821461C39.0221 0.741799 38.576 0.622306 38.8149 1.46672C39.516 3.92031 39.6116 4.0398 40.0497 4.41421C40.456 4.76472 40.4002 5.29049 39.8983 5.48168C39.7072 5.55338 39.5 5.59321 39.2212 5.6649C39.8187 6.96339 39.7311 6.92356 40.7109 6.9156C40.9977 6.9156 41.388 7.01916 41.5394 6.89966C41.7306 6.74034 41.7306 6.39779 41.8102 6.13491C41.8819 5.90389 42.0572 5.67287 41.5553 5.48168C40.9578 5.25863 40.8862 4.84439 41.2765 4.39828C41.7624 3.83268 41.6828 3.74505 41.8979 1.33926Z" fill="#71717A"/>
<path d="M42.8609 5.78319C42.7175 5.81506 42.4307 5.67963 42.3989 5.73539C42.2236 5.96641 42.0722 6.2293 42.0006 6.50811C41.7934 7.28083 42.0324 7.22507 43.4345 8.11728C43.7133 7.70304 44.0001 7.30473 44.2391 6.89049C44.4701 6.49218 43.8806 6.04607 44.6055 5.97438C44.8843 5.95048 44.8843 5.97438 46.1589 3.73588C46.3023 3.48096 46.2704 3.21808 46.0075 3.01892C44.5736 1.95145 43.9124 1.33009 43.7053 2.12671C42.9087 5.12996 43.1397 4.32538 43.3389 4.95471C43.4663 5.35302 43.7133 5.58404 42.8689 5.78319L42.8609 5.78319Z" fill="#71717A"/>
<path d="M36.8389 2.00997C36.7114 1.71522 36.4724 1.67539 36.2175 1.85064C34.2021 3.29252 34.5207 2.98981 35.7157 4.8539C35.8989 5.14068 36.114 5.3717 36.5043 5.46729C37.2691 5.65052 36.807 6.31171 37.0062 6.61442C37.3009 7.06053 37.6196 7.49071 37.9542 7.91291C38.1214 8.128 38.3047 8.128 38.5118 7.92088C38.8782 7.57037 39.5952 7.12426 39.5235 6.95697C38.934 5.56289 38.9579 5.89747 38.2728 5.77797C37.6275 5.77001 37.4284 5.40356 37.7311 4.92559C37.9701 4.55118 37.9382 4.57508 36.8389 2.01793L36.8389 2.00997Z" fill="#71717A"/>
<path d="M38.821 49.3042C38.3828 49.5193 38.4386 49.4396 37.6261 51.9091C37.5225 52.2357 37.6181 52.4906 38.0562 52.5384C40.6213 52.8173 41.418 53.0164 41.2985 52.0684C41.0356 50.0211 41.1232 49.7662 40.6213 49.3998C40.1195 49.0253 40.1035 48.6509 40.6373 48.3403C40.7568 48.2686 40.8922 48.2208 41.0515 48.1491C40.5895 46.4204 40.9798 47.1772 39.3149 46.6992C38.9325 47.4879 38.6617 47.8145 38.9962 48.1013C39.5379 48.5792 39.4822 48.9696 38.821 49.2962L38.821 49.3042Z" fill="#71717A"/>
<path d="M36.1862 25.3144C35.4214 25.2507 34.8558 25.5853 34.2424 25.8243C33.5175 26.1111 34.6965 27.6485 36.2898 26.4616C36.5447 26.2704 36.4491 25.9916 37.1262 25.7765C37.3015 25.7207 37.5245 25.7526 37.6838 25.6809C37.9467 25.5534 38.1618 25.3622 38.4247 25.2189C38.8549 24.9878 38.9027 24.7488 38.4884 24.4302C37.8193 23.9204 38.1538 23.2273 36.8076 23.3707C36.3455 23.4185 35.8357 23.3468 35.5569 23.8009C35.3497 24.1434 34.8319 23.7292 34.4735 23.53C32.8563 23.546 32.3067 23.4344 32.6014 23.9761C33.0634 24.8126 33.1192 25.1711 33.645 24.9958C34.2902 24.7887 35.0311 24.7568 35.5489 24.2868C35.6764 24.1753 36.1623 24.1992 36.3455 24.3187C36.5526 24.4541 36.6721 24.7648 36.6881 24.9958C36.6881 25.1073 36.3614 25.3224 36.1862 25.3065L36.1862 25.3144Z" fill="#71717A"/>
<path d="M45.0679 49.9343C45.2192 50.1892 45.5379 50.1971 45.7211 49.9343C47.3382 47.632 47.386 47.5444 47.2825 47.2417C47.1231 46.7717 45.7131 45.9113 45.1236 45.8556C45.0041 45.8476 44.8368 45.6962 44.789 45.5768C44.4784 44.8996 43.7295 44.6527 43.2277 44.2305C42.3992 45.3059 42.9807 46.1901 43.5861 47.0107C43.9048 47.0505 44.2155 47.0107 44.327 47.1222C44.4624 47.2576 44.5182 47.5524 44.4385 47.7117C44.0561 48.5641 44.6536 49.2332 45.0599 49.9263L45.0679 49.9343Z" fill="#71717A"/>
<path d="M35.7073 47.0737C35.8745 46.8825 35.8028 46.2133 35.9701 46.1018C36.1056 46.0142 36.4322 46.1416 36.7349 46.1735C37.4439 45.6079 38.1608 44.9785 37.4757 43.8633C36.9181 44.2138 36.0498 44.1421 35.6913 44.8352C35.6515 44.9148 35.4125 44.9387 35.2532 44.9547C34.0981 45.0821 35.5878 44.6121 33.0864 45.6636C32.5845 45.8787 32.473 46.2292 32.6164 46.6674C33.6042 49.5511 33.5086 49.4794 35.6913 47.0657L35.7073 47.0737Z" fill="#71717A"/>
<path d="M38.2492 47.8318C38.5678 47.792 38.8466 47.1387 38.9661 46.844C39.0936 46.5413 38.8785 46.4218 38.0739 45.6172C37.6995 46.135 37.2295 46.5572 37.0781 47.0591C36.9666 47.4335 37.118 47.792 36.4568 47.7203C36.2895 47.7043 35.939 48.2142 34.744 49.7357C34.2501 50.373 34.9034 50.6757 36.1142 51.6795C36.4408 51.9503 36.6639 51.8786 36.8153 51.552C37.5641 49.9588 37.8668 49.5764 37.5641 48.8594C37.3331 48.3098 37.5641 47.9274 38.2412 47.8398L38.2492 47.8318Z" fill="#71717A"/>
<path d="M34.5915 43.0906C34.0498 42.7322 33.5479 42.9712 33.0221 43.0349C32.2733 43.1305 32.4247 43.5527 32.4247 44.3095C32.4247 45.4725 32.9186 44.5644 36.5511 43.3615C37.7939 42.9473 37.8018 42.9951 37.8576 41.7523C37.8735 41.3779 37.77 41.2266 37.3637 41.2186C32.3609 41.0672 32.6477 40.7327 32.5919 42.2462C32.5919 42.2781 32.6079 42.3179 32.6557 42.5011C33.3328 42.3498 34.002 42.2542 34.6154 42.0471C34.9659 41.9276 35.3164 41.7523 35.5474 42.063C36.0493 42.7242 35.3004 43.5607 34.5994 43.1066L34.5915 43.0906Z" fill="#71717A"/>
<path d="M44.2793 40.1039C48.8917 41.0598 48.7722 41.1952 48.828 39.6737C48.828 39.6418 48.8041 39.602 48.7642 39.4825C47.2825 39.6896 45.5379 40.1676 46.2071 38.8611C46.2469 38.7815 46.6293 38.7496 46.7488 38.8293C47.4498 39.2993 48.111 38.9567 48.7164 38.7496C48.9395 38.6779 48.9873 38.1283 49.067 37.7777C49.1466 37.4352 48.9714 37.3635 48.597 37.4272C43.4588 38.3035 43.7854 37.8016 43.8571 38.8611C43.8969 39.4267 43.4588 39.9206 44.2793 40.0959L44.2793 40.1039Z" fill="#71717A"/>
<path d="M46.5103 43.2195C46.7971 43.57 48.0637 43.6178 48.2071 43.2832C48.3664 42.9168 48.4142 42.5105 48.4859 42.2078C42.4236 41.4351 43.8974 41.3554 43.3477 42.9805C43.2043 43.4107 43.3557 43.6656 43.7699 43.8488C47.7928 45.6253 47.5857 45.7209 47.9601 44.3188C47.9601 44.287 47.9442 44.2551 47.9123 44.1276C47.3945 44.0639 46.8369 43.9205 46.2952 43.9444C45.9447 43.9603 45.634 44.0002 45.5543 43.6497C45.4826 43.2992 45.9049 42.4786 46.5023 43.2195L46.5103 43.2195Z" fill="#71717A"/>
<path d="M35.5238 38.7714C35.1016 38.4926 33.7792 38.2775 33.4606 38.6201C33.1579 38.9387 33.0862 39.4485 32.8711 39.9902C33.9465 39.9345 34.0899 39.8389 36.7427 39.5123C37.1967 39.4565 37.7862 39.5919 38.0969 39.3848C38.3996 39.1777 38.3996 38.6201 38.5749 38.2297C38.7262 37.8951 38.6625 37.68 38.2562 37.5924C33.5801 36.5409 34.0899 36.3258 33.4606 37.8712C35.1574 37.8553 36.1691 37.7517 36.2567 38.158C36.3045 38.3651 36.2089 38.636 36.0815 38.8192C36.0257 38.8909 35.6672 38.875 35.5318 38.7794L35.5238 38.7714Z" fill="#71717A"/>
<path d="M42.2403 46.1094C41.9296 46.3324 41.7703 46.4679 41.587 46.5873C41.4038 46.7068 41.1489 46.7706 41.0374 46.9219C40.8303 47.2087 41.3799 48.1806 41.7782 48.2921C42.304 48.4435 42.5191 48.9055 42.1447 49.1764C41.7225 49.487 41.7145 49.8376 41.8021 50.2518C42.296 52.5062 42.0013 52.7611 43.5228 51.9327C44.4071 51.4467 44.4788 51.2794 44.1203 50.4191C43.6184 49.2082 43.5627 48.9533 43.0688 48.786C42.9652 48.7462 42.8696 48.4753 42.9094 48.3399C43.1643 47.5194 42.5111 46.9219 42.2403 46.1094Z" fill="#71717A"/>
<path d="M39.0537 14.1828C37.9305 14.5492 38.7669 15.8557 39.7308 15.2343C40.0415 15.0352 40.3044 15.0113 40.6151 15.2343C41.5551 15.9035 42.3756 14.605 41.2922 14.2067C40.862 14.0474 40.7824 13.8323 40.7665 13.4419C40.7665 13.2029 40.4637 12.964 40.3681 12.8206C39.6671 12.7409 39.3086 13.0675 39.4042 13.5455C39.468 13.8641 39.4202 14.0474 39.0458 14.1748L39.0537 14.1828Z" fill="#71717A"/>
<path d="M41.5537 11.8468C40.4305 12.2133 41.2669 13.5197 42.2308 12.8984C42.5415 12.6992 42.8044 12.6753 43.1151 12.8984C44.0551 13.5675 44.8756 12.2691 43.7922 11.8707C43.362 11.7114 43.2824 11.4963 43.2665 11.106C43.2665 10.867 42.9637 10.628 42.8681 10.4846C42.1671 10.405 41.8086 10.7316 41.9042 11.2095C41.968 11.5282 41.9202 11.7114 41.5458 11.8389L41.5537 11.8468Z" fill="#71717A"/>
<path d="M43.2358 26.5518C44.2077 26.1774 43.188 24.8789 42.4312 25.5401C42.0648 25.8588 41.77 25.8269 41.3398 25.6118C40.8858 25.3808 40.4317 25.6118 40.3281 26.2093C40.4556 26.3288 40.6229 26.6235 40.8937 26.7271C41.2841 26.8864 41.4992 27.0378 41.4992 27.444C41.4992 28.3681 43.1561 28.1849 42.8693 27.3166C42.7419 26.9262 42.7976 26.7191 43.2358 26.5439L43.2358 26.5518Z" fill="#71717A"/>
<path d="M44.4784 22.6892C45.522 22.2352 44.582 20.9845 43.6659 21.7014C43.3791 21.9324 43.1242 21.9723 42.7896 21.7572C41.8496 21.1677 41.0689 22.5219 42.2399 22.8486C42.6462 22.9601 42.7896 23.1353 42.8294 23.5097C42.8533 23.7567 43.148 23.9877 43.2436 24.1231C43.9845 24.2028 44.335 23.8364 44.1757 23.3345C44.0721 23.0079 44.1279 22.8406 44.4784 22.6892Z" fill="#71717A"/>
<path d="M39.5792 9.01158C38.7507 9.40192 39.4996 10.5968 40.4635 9.97549C41.1565 9.52938 41.2203 9.75243 41.8655 10.0074C42.0408 9.85599 42.3435 9.7126 42.447 9.49752C42.6064 9.17887 42.4231 8.86022 42.0248 8.74869C41.5628 8.62124 41.268 8.48581 41.2441 7.98394C41.2043 7.14749 39.5314 7.37851 39.8979 8.22292C40.0652 8.61327 39.9855 8.82039 39.5792 9.01158Z" fill="#71717A"/>
<path d="M40.5902 40.6947C40.9009 40.5513 41.116 40.5832 41.363 40.8142C41.7533 41.1647 42.1436 41.1647 42.4145 40.862C42.6933 40.5513 42.5659 40.2168 42.1357 39.8662C41.5382 39.3883 42.2153 38.5917 41.2753 38.4164C40.8452 38.3367 40.5823 38.5917 40.5106 39.2847C40.4548 39.3245 40.3035 39.5237 40.1043 39.5874C39.5945 39.7547 39.3873 40.0096 39.5307 40.392C39.6821 40.7824 40.0884 40.9178 40.5902 40.6868L40.5902 40.6947Z" fill="#71717A"/>
<path d="M44.7896 17.3114C44.9409 17.2636 45.0285 17.0485 45.1879 16.8414C45.0365 16.6343 44.9409 16.3475 44.7577 16.2838C43.8018 15.981 43.7619 16.929 42.8777 16.4033C42.0094 15.8855 41.3163 17.2317 42.3121 17.5026C42.79 17.63 42.9892 17.8292 42.9972 18.2753C43.0131 19.0958 44.5904 18.9923 44.3674 18.1558C44.2558 17.7336 44.2797 17.4628 44.7816 17.3034L44.7896 17.3114Z" fill="#71717A"/>
<path d="M39.8813 19.3512C38.9652 19.7814 40.0486 20.9763 40.7337 20.3311C41.1001 19.9885 41.4108 19.9965 41.8729 20.2036C42.3269 20.4107 42.7651 20.1479 42.8208 19.5265C42.6854 19.415 42.4863 19.16 42.2074 19.0565C41.841 18.9211 41.594 18.8016 41.5861 18.4112C41.5542 17.4553 39.8893 17.6624 40.2239 18.5706C40.3752 18.9689 40.2796 19.16 39.8813 19.3512Z" fill="#71717A"/>
<path d="M41.0281 44.222C41.0281 43.9033 41.1476 43.744 41.5061 43.6803C42.6293 43.4891 42.1354 42.1428 41.0998 42.565C40.7653 42.7004 40.5422 42.6686 40.2873 42.4057C39.5066 41.6011 38.5427 42.7562 39.4269 43.266C39.7854 43.4732 39.8651 43.6962 39.7297 44.0706C39.4508 44.8832 41.0202 45.1859 41.0281 44.214L41.0281 44.222Z" fill="#71717A"/>
</g>
</svg>
