<svg width="53" height="113" viewBox="0 0 53 113" fill="none" xmlns="http://www.w3.org/2000/svg">
<path d="M2.58429 79.7218C2.08242 79.4031 1.59648 79.5386 0.576812 79.5704C0.154604 79.5784 0.138671 79.8015 0.138671 80.0245C0.138671 81.2832 0.32986 81.4266 1.8753 81.331C2.17802 81.2911 2.4648 81.2911 2.72768 81.2115C3.38888 81.0123 3.33311 80.3671 3.97837 80.7415C4.15363 80.845 4.40855 80.9326 4.6077 80.9008C5.96196 80.6777 5.95399 80.6698 5.86636 79.4669C5.7867 78.4233 6.16908 77.9692 5.47602 77.794C4.5838 77.563 4.28109 77.3558 3.85888 77.6028C3.48447 77.8179 3.12599 77.7223 2.9826 77.3479C2.87107 77.0451 2.79938 77.0691 0.983088 76.599C0.66444 76.5194 0.417488 76.599 0.369691 76.9177C0.266131 77.5868 0.0669759 78.5269 0.66444 78.5906C1.34157 78.6623 2.04259 78.8216 2.67989 78.3436C2.9826 78.1206 3.53227 78.2958 3.78719 78.6304C4.24126 79.212 3.596 80.3591 2.58429 79.7218Z" fill="#18181B"/>
<path d="M3.3499 73.1092C1.47785 72.7906 1.07157 72.7667 1.00784 73.3801C0.888347 74.5033 0.458173 75.0689 1.24683 75.0291C2.57718 74.9653 3.23041 74.9972 3.47736 74.3918C3.59685 74.0891 4.07482 74.097 4.28194 74.3918C4.53686 74.7582 4.78381 74.7263 6.24163 74.5909C6.54434 74.5591 6.67977 74.4077 6.73553 74.1289C7.14181 72.0975 7.69944 72.2489 5.68399 71.5638C5.28568 71.4283 4.9989 72.1055 4.58466 71.5C4.28194 71.0539 4.21025 71.0699 2.49752 70.4007C2.20277 70.2812 2.01955 70.3848 1.88412 70.6556C1.24683 71.8904 1.33445 72.0736 2.80023 72.3046C3.36583 72.3922 3.93143 72.5675 4.5289 72.3365C4.64042 72.2967 4.92721 72.4241 4.98297 72.5356C5.15822 72.8623 5.07856 73.2048 4.75992 73.4438C4.23415 73.8421 4.00313 73.2128 3.3499 73.1012L3.3499 73.1092Z" fill="#18181B"/>
<path d="M5.80254 68.5438C5.22101 68.8625 5.17321 68.1614 4.61558 67.9225C2.98251 67.2214 2.63996 67.1338 2.42487 67.7552C2.0186 68.9103 1.48486 69.4201 2.20979 69.5316C3.44455 69.7228 4.01811 69.8742 4.39252 69.2926C4.58371 69.0059 5.00592 69.0935 5.11744 69.444C5.21304 69.7626 5.43609 69.8503 5.70694 69.8901C6.98153 70.0733 7.18069 70.145 7.40374 69.6432C8.28799 67.6357 8.77393 67.8587 7.13289 66.7514C6.81424 66.5363 6.36814 67.1896 6.15305 66.4726C6.00169 65.9468 5.92203 65.9468 4.55185 64.9192C4.31286 64.7439 4.12964 64.8077 3.93048 65.0626C3.0303 66.2336 3.06217 66.4407 4.32083 66.9665C4.80676 67.1736 5.2688 67.4604 5.8822 67.333C5.99373 67.3091 6.21678 67.5002 6.24068 67.6277C6.31237 68.0021 6.15305 68.3447 5.79457 68.5438L5.80254 68.5438Z" fill="#18181B"/>
<path d="M4.00978 85.7205C3.64333 85.5452 3.14146 85.7444 1.35703 85.9356C1.02245 85.9754 0.926861 86.1028 1.00652 86.3737C1.48449 87.943 1.50839 87.8554 2.9662 87.4173C4.54351 86.9393 4.69487 86.9234 4.79843 86.549C4.86216 86.3179 5.13301 86.3418 5.37199 86.4454C5.66674 86.5808 6.81387 86.1586 6.91744 85.8718C7.021 85.5691 6.69438 84.9398 6.42353 83.8723C6.35184 83.6015 6.22438 83.466 5.89776 83.5059C5.45962 83.5616 4.98962 83.4182 4.61521 83.7847C4.50368 83.8962 3.66723 83.5218 3.44418 83.4979C2.65552 83.4182 1.85094 83.3943 1.06229 83.3147C0.44889 83.2589 0.464822 83.5935 0.504653 84.0316C0.608213 85.2027 0.727706 85.2823 2.37671 85.0672C2.39264 85.0991 2.40061 85.123 2.41654 85.1549C2.92637 84.9637 3.44418 84.7884 3.93808 84.5813C4.72673 84.2467 5.37996 85.0593 4.89402 85.6089C4.64707 85.8878 4.35232 85.8798 4.01774 85.7205L4.00978 85.7205Z" fill="#18181B"/>
<path d="M19.799 72.9583C19.799 72.9583 19.799 72.8866 19.8069 72.8467C21.2408 72.4325 21.2488 72.4803 21.0258 71.7155C20.731 70.7198 20.6514 70.6959 19.4564 71.2296C18.0783 71.851 17.911 72.0023 17.7437 72.2811C17.5605 72.5838 17.3533 72.6794 16.9949 72.536C16.6125 72.3847 16.0867 72.6555 15.8796 72.7511C14.2784 73.5 15.083 73.3566 15.2343 75.141C15.2662 75.4835 15.4813 75.619 15.8876 75.5951C17.5764 75.4835 17.5206 75.5313 17.903 75.1649C18.2854 74.7905 18.6837 74.7905 18.9784 75.141C19.2573 75.4756 19.4405 75.4915 21.3364 75.372C21.7427 75.3481 21.902 75.1569 21.8383 74.8462C21.6949 74.1691 21.687 73.2689 21.0815 73.3645C17.7756 73.8823 18.6917 74.0018 18.1739 74.185C17.9588 74.2647 17.5445 74.3444 17.5047 74.2806C16.6125 72.9105 18.1579 73.0538 19.8149 72.9423L19.799 72.9583Z" fill="#18181B"/>
<path d="M17.1703 78.7303C17.6244 78.5391 18.0625 78.5152 18.4369 78.8338C18.7317 79.0888 20.54 79.3437 20.7949 79.0888C21.1056 78.7781 21.2171 78.324 21.3127 77.9257C21.3685 77.7026 21.2729 77.4318 21.1215 77.2486C21.0339 77.145 20.1974 77.2804 19.6478 77.3521C19.6478 77.3521 19.6478 77.3442 19.6478 77.3362C18.5484 77.4796 18.3094 77.4398 18.1183 77.8142C17.9589 78.1249 17.5208 78.1487 17.2818 77.9416C16.9632 77.6628 16.6684 77.7584 16.1665 77.8381C14.5335 78.0771 15.2425 78.0213 14.3264 80.0367C14.1989 80.3235 14.2547 80.5306 14.5972 80.6501C15.6886 81.0166 15.9276 81.1042 16.2621 80.921C17.0827 80.4749 16.9552 81.2874 17.5606 81.4229C18.0864 81.5423 18.6361 81.5981 19.1778 81.6857C19.6079 81.7574 19.8947 81.6061 20.1257 81.3193C20.9224 80.3554 20.8029 80.1164 19.4566 79.965C18.8352 79.8933 18.3891 79.7818 18.0067 79.965C16.6684 80.6342 16.286 79.0967 17.1623 78.7223L17.1703 78.7303Z" fill="#18181B"/>
<path d="M16.7565 67.9725C17.2743 67.837 18.1108 67.5662 18.6445 67.2794C19.3456 66.9023 19.5075 66.4244 19.1305 65.8455C18.5967 65.0329 18.533 65.025 17.7443 65.7658C17.3381 66.1482 16.8442 66.5146 16.7326 67.1838C16.6689 67.5502 16.3901 67.7733 15.936 67.7972C15.705 67.8052 15.474 67.9087 15.2509 67.9804C15.1553 68.0123 15.0836 68.0999 15.004 68.1636C13.339 69.3426 14.3985 69.5498 14.4702 70.6491C14.4941 71.0713 14.7411 71.1749 15.0438 71.0793C16.8681 70.681 17.115 70.6889 17.2345 70.2826C17.3142 70.0118 17.6647 69.964 17.8877 70.1472C18.2303 70.4181 18.3338 70.2508 20.19 69.7011C20.5564 69.5896 20.652 69.4064 20.5962 69.1116C20.4051 68.1318 20.3891 67.0802 17.346 69.2869C16.9079 69.6055 16.2387 69.4462 16.0555 68.9682C15.9121 68.5779 16.2865 68.0999 16.7565 67.9804L16.7565 67.9725Z" fill="#18181B"/>
<path d="M10.9011 64.9839C10.3992 65.1751 10.5744 65.3982 10.6461 65.6371C10.7258 65.9 10.7258 66.2426 10.917 66.4019C11.0683 66.5293 11.4587 66.4178 11.7455 66.4178C12.7173 66.4178 12.6377 66.4656 13.2352 65.1671C12.9563 65.0954 12.7492 65.0556 12.558 64.9839C12.0482 64.7927 12.0004 64.267 12.4067 63.9164C12.8448 63.5341 12.9404 63.4225 13.6414 60.969C13.8804 60.1325 13.4582 60.244 11.0604 60.3237C10.6939 60.3396 10.5266 60.5228 10.5585 60.8415C10.7736 63.2393 10.6939 63.3349 11.1799 63.9005C11.5623 64.3466 11.4985 64.7609 10.9011 64.9839Z" fill="#18181B"/>
<path d="M8.75931 61.6231C8.66371 61.2566 8.40083 61.1451 8.04235 61.3841C6.39335 62.4834 6.01097 62.7145 6.30572 63.2323C7.58031 65.4708 7.58828 65.4469 7.85913 65.4708C8.58405 65.5424 7.99455 65.9886 8.22557 66.3869C8.47252 66.8011 8.75134 67.1994 9.03016 67.6137C10.4322 66.7214 10.6712 66.7772 10.4641 66.0045C10.3924 65.7336 10.241 65.4708 10.0658 65.2318C10.0259 65.184 9.74712 65.3114 9.60372 65.2796C8.75134 65.0804 9.00626 64.8494 9.13372 64.4511C9.33287 63.8218 9.56389 64.6263 8.76728 61.6231L8.75931 61.6231Z" fill="#18181B"/>
<path d="M14.1834 65.271C13.4983 65.3904 13.5222 65.0559 12.9327 66.4499C12.861 66.6172 13.5859 67.0633 13.9444 67.4139C14.1515 67.613 14.3347 67.613 14.502 67.4059C14.8366 66.9837 15.1553 66.5535 15.45 66.1074C15.6492 65.8047 15.1871 65.1435 15.9519 64.9603C16.3422 64.8647 16.5573 64.6416 16.7405 64.3469C17.5371 63.1041 18.0231 62.7457 17.4336 62.2677C16.2785 61.3197 15.8563 60.9453 15.6173 61.5029C14.51 64.0601 14.4861 64.0362 14.7251 64.4106C15.0278 64.8886 14.8207 65.255 14.1834 65.263L14.1834 65.271Z" fill="#18181B"/>
<path d="M11.8411 108.9C11.3392 109.274 11.4189 109.521 11.164 111.568C11.0445 112.508 11.8252 112.309 14.4062 112.038C14.8444 111.99 14.94 111.736 14.8364 111.409C14.0239 108.939 14.0796 109.011 13.6415 108.804C12.9803 108.477 12.9245 108.095 13.4662 107.609C13.7928 107.322 13.5299 106.996 13.1476 106.207C11.4986 106.677 11.8809 105.92 11.4109 107.657C11.5623 107.729 11.6977 107.784 11.8252 107.848C12.3589 108.151 12.343 108.533 11.8411 108.908L11.8411 108.9Z" fill="#18181B"/>
<path d="M16.1194 83.8265C16.3026 83.707 16.7885 83.6831 16.916 83.7946C17.4417 84.2567 18.1746 84.2885 18.8199 84.5036C19.3457 84.6789 19.4014 84.3204 19.8635 83.4839C20.1582 82.9422 19.6086 83.0538 17.9914 83.0378C17.6409 83.237 17.1231 83.6512 16.908 83.3087C16.6292 82.8546 16.1194 82.9263 15.6573 82.8785C14.311 82.7351 14.6456 83.4282 13.9765 83.938C13.5622 84.2567 13.602 84.4877 14.0402 84.7267C14.2951 84.8701 14.5102 85.0612 14.781 85.1887C14.9324 85.2604 15.1634 85.2365 15.3387 85.2843C16.0158 85.4994 15.9202 85.7782 16.1751 85.9694C17.7684 87.1564 18.9474 85.6189 18.2224 85.3321C17.609 85.0851 17.0434 84.7585 16.2787 84.8223C16.1114 84.8382 15.7768 84.6151 15.7768 84.5116C15.7927 84.2806 15.9122 83.9699 16.1194 83.8345L16.1194 83.8265Z" fill="#18181B"/>
<path d="M8.86924 106.507C9.47467 105.686 10.0562 104.802 9.22772 103.727C8.71789 104.149 7.97703 104.396 7.66635 105.073C7.61059 105.184 7.45126 105.336 7.33177 105.352C6.74227 105.407 5.33226 106.268 5.17293 106.738C5.06937 107.04 5.12513 107.136 6.7343 109.43C6.91753 109.693 7.24414 109.685 7.38753 109.43C7.79381 108.737 8.39127 108.068 8.0089 107.216C7.9372 107.048 7.99296 106.754 8.12042 106.626C8.23195 106.515 8.54263 106.555 8.86128 106.515L8.86924 106.507Z" fill="#18181B"/>
<path d="M16.4942 105.602C16.6615 105.713 16.5898 106.382 16.7571 106.574C18.9478 108.987 18.8522 109.059 19.832 106.175C19.9834 105.737 19.8718 105.387 19.362 105.171C16.8527 104.112 18.3662 104.582 17.1952 104.462C17.0438 104.447 16.8049 104.423 16.7571 104.343C16.3986 103.65 15.5303 103.722 14.9726 103.371C14.2875 104.486 15.0125 105.116 15.7135 105.681C16.0162 105.641 16.3428 105.514 16.4782 105.61L16.4942 105.602Z" fill="#18181B"/>
<path d="M15.642 111.044C15.7934 111.363 16.0164 111.442 16.343 111.172C17.5539 110.168 18.2071 109.865 17.7132 109.228C16.5183 107.706 16.1678 107.197 16.0005 107.212C15.3393 107.284 15.4827 106.926 15.3791 106.551C15.2357 106.049 14.7657 105.627 14.3834 105.109C13.5788 105.914 13.3637 106.033 13.4912 106.336C13.6106 106.631 13.8974 107.284 14.2081 107.324C14.8932 107.42 15.1163 107.802 14.8852 108.344C14.5825 109.061 14.8852 109.443 15.6341 111.036L15.642 111.044Z" fill="#18181B"/>
<path d="M17.8547 101.535C18.4681 101.75 19.1372 101.838 19.8144 101.989C19.8622 101.806 19.8781 101.766 19.8781 101.735C19.8223 100.221 20.1091 100.556 15.1063 100.707C14.7001 100.723 14.5885 100.874 14.6124 101.241C14.6682 102.491 14.6762 102.436 15.9189 102.85C19.5515 104.053 20.0454 104.961 20.0454 103.798C20.0454 103.041 20.1967 102.619 19.4479 102.523C18.9221 102.459 18.4282 102.22 17.8786 102.579C17.1775 103.041 16.4367 102.197 16.9306 101.535C17.1696 101.225 17.5121 101.392 17.8626 101.519L17.8547 101.535Z" fill="#18181B"/>
<path d="M3.86585 96.9281C3.49144 96.8644 3.31618 96.9281 3.39584 97.2786C3.4755 97.6212 3.5233 98.1708 3.74635 98.2505C4.35178 98.4496 5.01298 98.8002 5.714 98.3302C5.8335 98.2505 6.21587 98.2824 6.2557 98.362C6.92486 99.6685 5.1962 99.1985 3.69856 98.9834C3.65873 99.1029 3.63483 99.1427 3.64279 99.1746C3.69856 100.696 3.57906 100.561 8.19149 99.6047C9.01997 99.4375 8.57387 98.9356 8.6137 98.37C8.68539 97.3105 9.01997 97.8124 3.87381 96.9361L3.86585 96.9281Z" fill="#18181B"/>
<path d="M6.1614 103.438C5.6197 103.414 5.06207 103.558 4.54427 103.621C4.5124 103.749 4.4885 103.789 4.49647 103.812C4.87088 105.214 4.66376 105.119 8.68669 103.342C9.10093 103.159 9.25229 102.904 9.1089 102.474C8.56719 100.857 10.033 100.929 3.9707 101.701C4.05036 102.012 4.09816 102.418 4.24952 102.777C4.39291 103.103 5.65953 103.064 5.94632 102.713C6.54378 101.972 6.96599 102.793 6.89429 103.143C6.8226 103.494 6.51192 103.454 6.15344 103.438L6.1614 103.438Z" fill="#18181B"/>
<path d="M19.0097 97.3693C18.3883 95.8397 18.8822 96.0389 14.214 97.0904C13.8077 97.1781 13.744 97.3931 13.8954 97.7277C14.0706 98.1181 14.0706 98.6677 14.3733 98.8828C14.684 99.0979 15.2655 98.9545 15.7276 99.0103C18.3803 99.3369 18.5158 99.4325 19.5992 99.4883C19.3761 98.9466 19.3124 98.4367 19.0097 98.1181C18.691 97.7835 17.3686 97.9906 16.9464 98.2694C16.811 98.3571 16.4525 98.381 16.3967 98.3093C16.2693 98.126 16.1737 97.8552 16.2215 97.6481C16.3091 97.2498 17.3208 97.3454 19.0176 97.3613L19.0097 97.3693Z" fill="#18181B"/>
<path d="M9.38641 108.282C8.89251 108.449 8.83675 108.704 8.33488 109.915C7.9764 110.776 8.04809 110.951 8.93234 111.429C10.4539 112.257 10.1512 112.002 10.653 109.748C10.7486 109.334 10.7407 108.975 10.3105 108.672C9.93608 108.402 10.1591 107.94 10.6769 107.788C11.0673 107.677 11.6169 106.713 11.4178 106.418C11.3063 106.267 11.0513 106.203 10.8681 106.083C10.6849 105.964 10.5256 105.836 10.2149 105.605C9.94405 106.41 9.29082 107.008 9.54574 107.836C9.58557 107.963 9.49794 108.242 9.38641 108.282Z" fill="#18181B"/>
<path d="M12.0796 72.3204C11.984 72.4638 11.6893 72.7028 11.6813 72.9418C11.6734 73.3241 11.5857 73.5472 11.1556 73.7065C10.0722 74.1048 10.8927 75.4033 11.8327 74.7342C12.1513 74.5111 12.4063 74.535 12.7169 74.7342C13.6808 75.3555 14.5173 74.0411 13.3941 73.6826C13.0197 73.5631 12.9719 73.3799 13.0356 73.0533C13.1312 72.5753 12.7727 72.2487 12.0717 72.3284L12.0796 72.3204Z" fill="#18181B"/>
<path d="M9.58746 69.9885C9.49186 70.1319 9.19711 70.3709 9.18915 70.6099C9.18118 70.9923 9.09355 71.2153 8.66338 71.3746C7.57998 71.773 8.40049 73.0714 9.3405 72.4023C9.65915 72.1792 9.91407 72.2031 10.2248 72.4023C11.1887 73.0236 12.0251 71.7092 10.9019 71.3428C10.5275 71.2233 10.4797 71.0401 10.5434 70.7135C10.639 70.2355 10.2805 69.9089 9.57949 69.9885L9.58746 69.9885Z" fill="#18181B"/>
<path d="M10.957 86.9448C10.957 86.5305 11.1721 86.3792 11.5624 86.2278C11.8253 86.1243 12.0005 85.8295 12.128 85.71C12.0324 85.1126 11.5704 84.8815 11.1163 85.1126C10.6941 85.3277 10.3914 85.3595 10.0249 85.0409C9.26813 84.3797 8.24846 85.6702 9.22034 86.0526C9.65848 86.2199 9.71424 86.435 9.58678 86.8253C9.3 87.6936 10.957 87.8768 10.957 86.9528L10.957 86.9448Z" fill="#18181B"/>
<path d="M9.22059 83.6185C9.31618 83.4831 9.61093 83.2521 9.63483 83.0051C9.67466 82.6227 9.81805 82.4554 10.2243 82.3439C11.3954 82.0173 10.6147 80.663 9.67466 81.2525C9.34008 81.4676 9.08516 81.4198 8.79838 81.1968C7.88227 80.4719 6.94226 81.7305 7.98583 82.1846C8.33634 82.3359 8.3921 82.5032 8.28854 82.8298C8.12922 83.3317 8.47973 83.6982 9.22059 83.6185Z" fill="#18181B"/>
<path d="M11.2187 67.4781C11.1948 67.98 10.908 68.1233 10.438 68.2428C10.0477 68.3464 9.86447 68.673 10.0158 68.9917C10.1273 69.2147 10.4221 69.3581 10.5974 69.5015C11.2426 69.2466 11.3063 69.0235 11.9994 69.4696C12.9553 70.091 13.7042 68.8961 12.8837 68.5057C12.4774 68.3145 12.3977 68.1074 12.565 67.7171C12.9235 66.8647 11.2585 66.6337 11.2187 67.4781Z" fill="#18181B"/>
<path d="M11.0917 100.31C11.3466 100.079 11.5617 100.047 11.8644 100.191C12.3663 100.422 12.7726 100.294 12.9239 99.8959C13.0673 99.5135 12.8523 99.2586 12.3504 99.0913C12.1512 99.0196 11.9999 98.8285 11.9441 98.7886C11.8724 98.0956 11.6095 97.8406 11.1794 97.9203C10.2393 98.0956 10.9165 98.8922 10.319 99.3702C9.88883 99.7207 9.75341 100.047 10.0402 100.366C10.311 100.669 10.7093 100.669 11.0917 100.318L11.0917 100.31Z" fill="#18181B"/>
<path d="M9.45828 77.7739C9.46625 77.3278 9.6654 77.1287 10.1434 77.0012C11.1471 76.7304 10.4461 75.3841 9.57777 75.9019C8.69353 76.4276 8.6537 75.4717 7.69775 75.7824C7.51453 75.8381 7.41097 76.1329 7.26758 76.34C7.43487 76.5392 7.51453 76.7543 7.66589 76.81C8.16776 76.9693 8.19166 77.2402 8.08013 77.6624C7.85708 78.4989 9.43438 78.6024 9.45031 77.7819L9.45828 77.7739Z" fill="#18181B"/>
<path d="M10.8773 77.9139C10.8694 78.3042 10.6224 78.4237 10.256 78.5592C9.98512 78.6627 9.778 78.9176 9.64258 79.0292C9.69834 79.6426 10.1365 79.9134 10.5906 79.7063C11.0526 79.4992 11.3633 79.4912 11.7297 79.8338C12.4148 80.479 13.4982 79.2841 12.5821 78.8539C12.1758 78.6627 12.0882 78.4715 12.2396 78.0732C12.5821 77.1571 10.9092 76.958 10.8773 77.9139Z" fill="#18181B"/>
<path d="M13.0439 102.77C13.9202 102.26 12.9642 101.105 12.1835 101.91C11.9286 102.172 11.7056 102.204 11.371 102.069C10.3354 101.647 9.84147 102.993 10.9647 103.184C11.3232 103.248 11.4347 103.407 11.4427 103.726C11.4586 104.698 13.02 104.395 12.7412 103.583C12.6137 103.208 12.6854 102.985 13.0439 102.778L13.0439 102.77Z" fill="#18181B"/>
<path d="M49.7751 18.5947C50.4124 19.0647 51.1135 18.9133 51.7906 18.8416C52.396 18.7779 52.1889 17.806 52.0853 17.1687C52.0375 16.8421 51.7906 16.7704 51.4719 16.8501C49.6636 17.3201 49.5919 17.3042 49.4724 17.5989C49.329 17.9733 48.9785 18.0769 48.5961 17.8538C48.1739 17.6069 47.8632 17.814 46.979 18.045C46.2859 18.2203 46.6604 18.6823 46.5887 19.7179C46.501 20.9208 46.4851 20.9288 47.8473 21.1518C48.0465 21.1837 48.3014 21.0961 48.4766 20.9925C49.1219 20.6101 49.0661 21.2634 49.7273 21.4625C49.9902 21.5422 50.277 21.5422 50.5797 21.582C52.1331 21.6856 52.3243 21.5422 52.3163 20.2755C52.3163 20.0525 52.3004 19.8294 51.8782 19.8215C50.8585 19.7976 50.3726 19.6542 49.8707 19.9728C48.867 20.6101 48.2217 19.463 48.6678 18.8815C48.9228 18.5469 49.4724 18.3796 49.7751 18.5947Z" fill="#18181B"/>
<path d="M47.9367 12.5869C48.5422 12.818 49.0998 12.6427 49.6654 12.5551C51.1232 12.3241 51.2108 12.1408 50.5815 10.9061C50.4461 10.6352 50.2629 10.5396 49.9681 10.6512C48.2554 11.3203 48.1837 11.3044 47.881 11.7505C47.4667 12.3639 47.18 11.6788 46.7816 11.8142C44.7662 12.5073 45.3238 12.3559 45.7301 14.3793C45.7859 14.6581 45.9213 14.8095 46.224 14.8414C47.6818 14.9768 47.9288 15.0087 48.1837 14.6422C48.3908 14.3475 48.8608 14.3395 48.9883 14.6422C49.2352 15.2397 49.8885 15.2078 51.2188 15.2795C52.0075 15.3193 51.5773 14.7617 51.4578 13.6305C51.3941 13.0091 50.9719 13.049 49.1157 13.3597C48.4625 13.4712 48.2315 14.0925 47.7057 13.7022C47.3791 13.4552 47.3074 13.1127 47.4827 12.7941C47.5464 12.6825 47.8332 12.5551 47.9367 12.5949L47.9367 12.5869Z" fill="#18181B"/>
<path d="M46.5742 7.57863C47.1797 7.70609 47.6417 7.41931 48.1356 7.21219C49.3943 6.68642 49.4261 6.4793 48.526 5.30827C48.3268 5.05335 48.1436 4.98166 47.9046 5.16488C46.5344 6.19252 46.4627 6.18455 46.3034 6.71828C46.0883 7.43524 45.6502 6.78201 45.3235 6.9971C43.6745 8.1044 44.1684 7.88931 45.0527 9.88883C45.2757 10.3907 45.4749 10.319 46.7495 10.1358C47.0283 10.0959 47.2434 10.0163 47.339 9.68967C47.4505 9.33916 47.8727 9.24357 48.0639 9.53832C48.4463 10.1198 49.0199 9.96849 50.2466 9.7773C50.9636 9.66578 50.4299 9.1639 50.0316 8.00084C49.8165 7.38744 49.5058 7.45117 47.8409 8.16813C47.2753 8.40712 47.2275 9.10814 46.6539 8.78949C46.2954 8.59034 46.1361 8.24779 46.2078 7.87338C46.2317 7.74592 46.4627 7.55473 46.5663 7.57863L46.5742 7.57863Z" fill="#18181B"/>
<path d="M48.5326 24.8235C49.0265 25.0386 49.5443 25.2059 50.0542 25.3971C50.0701 25.3652 50.0781 25.3413 50.094 25.3094C51.743 25.5165 51.8705 25.4449 51.9661 24.2738C52.0059 23.8357 52.0218 23.5011 51.4084 23.5569C50.6198 23.6365 49.8152 23.6604 49.0265 23.7321C48.8035 23.756 47.967 24.1304 47.8555 24.0189C47.4811 23.6525 47.0031 23.7959 46.573 23.7401C46.2463 23.7003 46.1109 23.8277 46.0472 24.1065C45.7763 25.182 45.4418 25.8113 45.5533 26.106C45.6489 26.3928 46.796 26.815 47.0987 26.6796C47.3377 26.576 47.6086 26.5442 47.6723 26.7832C47.7758 27.1576 47.9192 27.1735 49.5045 27.6515C50.9623 28.0976 50.9862 28.1852 51.4642 26.6079C51.5439 26.3371 51.4562 26.2096 51.1137 26.1698C49.3293 25.9786 48.8274 25.7794 48.4609 25.9547C47.6643 26.3371 47.0987 25.5165 47.6245 24.9669C47.8714 24.712 48.1662 24.6482 48.5406 24.8155L48.5326 24.8235Z" fill="#18181B"/>
<path d="M34.2978 14.4502C33.78 14.2669 34.6961 14.1474 31.3901 13.6296C30.7847 13.534 30.7767 14.4342 30.6333 15.1114C30.5616 15.43 30.7289 15.6132 31.1352 15.6371C33.0311 15.7566 33.2144 15.7327 33.4932 15.4061C33.7879 15.0556 34.1862 15.0556 34.5686 15.43C34.943 15.7964 34.8952 15.7487 36.5841 15.8602C36.9983 15.8841 37.2134 15.7487 37.2373 15.4061C37.3886 13.6217 38.2012 13.7651 36.592 13.0162C36.3849 12.9207 35.8591 12.6498 35.4768 12.8012C35.1183 12.9446 34.9112 12.849 34.7279 12.5462C34.5606 12.2595 34.3934 12.1081 33.0152 11.4947C31.8123 10.953 31.7406 10.9849 31.4459 11.9806C31.2149 12.7454 31.2308 12.6976 32.6647 13.1118C32.6647 13.1517 32.6647 13.1835 32.6727 13.2234C34.3376 13.3349 35.883 13.1915 34.9829 14.5617C34.943 14.6254 34.5288 14.5458 34.3137 14.4661L34.2978 14.4502Z" fill="#18181B"/>
<path d="M34.449 20.2229C34.0666 20.0317 33.6205 20.1512 32.9991 20.2229C31.6529 20.3742 31.5334 20.6132 32.33 21.5771C32.561 21.8639 32.8478 22.0073 33.278 21.9435C33.8197 21.8559 34.3693 21.8002 34.8951 21.6807C35.5085 21.5452 35.3731 20.7327 36.1936 21.1788C36.5282 21.362 36.7671 21.2744 37.8585 20.9079C38.2011 20.7885 38.2568 20.5813 38.1294 20.2945C37.2133 18.2791 37.9222 18.3269 36.2892 18.0959C35.7873 18.0242 35.4926 17.9206 35.1739 18.1994C34.9349 18.4066 34.4968 18.3906 34.3375 18.072C34.1542 17.7055 33.9073 17.7374 32.808 17.594C32.808 17.594 32.808 17.602 32.808 17.6099C32.2663 17.5382 31.4298 17.4028 31.3342 17.5064C31.1829 17.6816 31.0873 17.9605 31.143 18.1835C31.2386 18.5818 31.3501 19.0359 31.6608 19.3466C31.9078 19.6015 33.7161 19.3466 34.0188 19.0917C34.3932 18.773 34.8234 18.7969 35.2854 18.9881C36.1697 19.3625 35.7873 20.892 34.441 20.2308L34.449 20.2229Z" fill="#18181B"/>
<path d="M35.1165 9.53196C32.0734 7.32533 32.0575 8.3928 31.8663 9.35671C31.8105 9.65146 31.9061 9.83468 32.2726 9.94621C34.1207 10.4959 34.2243 10.6632 34.5748 10.3923C34.8058 10.2171 35.1484 10.2649 35.228 10.5277C35.3475 10.942 35.5945 10.926 37.4187 11.3244C37.7135 11.42 37.9604 11.3084 37.9923 10.8942C38.064 9.79485 39.1235 9.58773 37.4586 8.40873C37.3709 8.35297 37.3072 8.26534 37.2116 8.22551C36.9886 8.14585 36.7575 8.05025 36.5265 8.04229C36.0724 8.01839 35.7936 7.79534 35.7299 7.42889C35.6184 6.75973 35.1245 6.40125 34.7182 6.01091C33.9295 5.27005 33.8658 5.27005 33.3321 6.09057C32.9497 6.66945 33.1117 7.14742 33.818 7.52449C34.3517 7.81127 35.1882 8.08212 35.706 8.21754C36.176 8.33704 36.5424 8.82297 36.407 9.20535C36.2318 9.69129 35.5546 9.84265 35.1165 9.524L35.1165 9.53196Z" fill="#18181B"/>
<path d="M41.8979 1.08536C41.9297 0.76671 41.7624 0.575521 41.396 0.567555C39.0221 0.487893 38.576 0.3684 38.8149 1.21282C39.516 3.6664 39.6116 3.7859 40.0497 4.16031C40.456 4.51082 40.4002 5.03659 39.8983 5.22778C39.7072 5.29947 39.5 5.3393 39.2212 5.411C39.8187 6.70949 39.7311 6.66966 40.7109 6.66169C40.9977 6.66169 41.388 6.76525 41.5394 6.64576C41.7306 6.48643 41.7306 6.14389 41.8102 5.881C41.8819 5.64998 42.0572 5.41896 41.5553 5.22778C40.9578 5.00472 40.8862 4.59048 41.2765 4.14437C41.7624 3.57877 41.6828 3.49115 41.8979 1.08536Z" fill="#18181B"/>
<path d="M42.8609 5.52928C42.7175 5.56115 42.4307 5.42572 42.3989 5.48149C42.2236 5.71251 42.0722 5.97539 42.0006 6.25421C41.7934 7.02693 42.0324 6.97116 43.4345 7.86338C43.7133 7.44914 44.0001 7.05083 44.2391 6.63658C44.4701 6.23828 43.8806 5.79217 44.6055 5.72047C44.8843 5.69657 44.8843 5.72047 46.1589 3.48197C46.3023 3.22706 46.2704 2.96417 46.0075 2.76502C44.5736 1.69755 43.9124 1.07618 43.7053 1.8728C42.9087 4.87606 43.1397 4.07147 43.3389 4.7008C43.4663 5.09911 43.7133 5.33013 42.8689 5.52928L42.8609 5.52928Z" fill="#18181B"/>
<path d="M36.8389 1.75606C36.7114 1.46131 36.4724 1.42148 36.2175 1.59674C34.2021 3.03862 34.5207 2.7359 35.7157 4.59999C35.8989 4.88677 36.114 5.11779 36.5043 5.21339C37.2691 5.39661 36.807 6.0578 37.0062 6.36052C37.3009 6.80663 37.6196 7.2368 37.9542 7.65901C38.1214 7.87409 38.3047 7.87409 38.5118 7.66697C38.8782 7.31646 39.5952 6.87036 39.5235 6.70306C38.934 5.30898 38.9579 5.64356 38.2728 5.52407C37.6275 5.5161 37.4284 5.14966 37.7311 4.67169C37.9701 4.29728 37.9382 4.32117 36.8389 1.76403L36.8389 1.75606Z" fill="#18181B"/>
<path d="M38.821 49.0503C38.3828 49.2653 38.4386 49.1857 37.6261 51.6552C37.5225 51.9818 37.6181 52.2367 38.0562 52.2845C40.6213 52.5633 41.418 52.7625 41.2985 51.8145C41.0356 49.7672 41.1232 49.5123 40.6213 49.1459C40.1195 48.7714 40.1035 48.397 40.6373 48.0863C40.7568 48.0147 40.8922 47.9669 41.0515 47.8952C40.5895 46.1665 40.9798 46.9233 39.3149 46.4453C38.9325 47.234 38.6617 47.5606 38.9962 47.8474C39.5379 48.3253 39.4822 48.7157 38.821 49.0423L38.821 49.0503Z" fill="#18181B"/>
<path d="M36.1862 25.0605C35.4214 24.9968 34.8558 25.3314 34.2424 25.5704C33.5175 25.8572 34.6965 27.3946 36.2898 26.2077C36.5447 26.0165 36.4491 25.7377 37.1262 25.5226C37.3015 25.4668 37.5245 25.4987 37.6838 25.427C37.9467 25.2995 38.1618 25.1083 38.4247 24.9649C38.8549 24.7339 38.9027 24.4949 38.4884 24.1763C37.8193 23.6665 38.1538 22.9734 36.8076 23.1168C36.3455 23.1646 35.8357 23.0929 35.5569 23.547C35.3497 23.8895 34.8319 23.4753 34.4735 23.2761C32.8563 23.292 32.3067 23.1805 32.6014 23.7222C33.0634 24.5587 33.1192 24.9172 33.645 24.7419C34.2902 24.5348 35.0311 24.5029 35.5489 24.0329C35.6764 23.9214 36.1623 23.9453 36.3455 24.0648C36.5526 24.2002 36.6721 24.5109 36.6881 24.7419C36.6881 24.8534 36.3614 25.0685 36.1862 25.0526L36.1862 25.0605Z" fill="#18181B"/>
<path d="M45.0679 49.6804C45.2192 49.9353 45.5379 49.9432 45.7211 49.6804C47.3382 47.3781 47.386 47.2905 47.2825 46.9878C47.1231 46.5178 45.7131 45.6574 45.1236 45.6017C45.0041 45.5937 44.8368 45.4423 44.789 45.3228C44.4784 44.6457 43.7295 44.3988 43.2277 43.9766C42.3992 45.052 42.9807 45.9362 43.5861 46.7568C43.9048 46.7966 44.2155 46.7568 44.327 46.8683C44.4624 47.0037 44.5182 47.2985 44.4385 47.4578C44.0561 48.3102 44.6536 48.9793 45.0599 49.6724L45.0679 49.6804Z" fill="#18181B"/>
<path d="M35.7073 46.8198C35.8745 46.6286 35.8028 45.9594 35.9701 45.8479C36.1056 45.7602 36.4322 45.8877 36.7349 45.9196C37.4439 45.354 38.1608 44.7246 37.4757 43.6094C36.9181 43.9599 36.0498 43.8882 35.6913 44.5813C35.6515 44.6609 35.4125 44.6848 35.2532 44.7007C34.0981 44.8282 35.5878 44.3582 33.0864 45.4097C32.5845 45.6248 32.473 45.9753 32.6164 46.4135C33.6042 49.2972 33.5086 49.2255 35.6913 46.8118L35.7073 46.8198Z" fill="#18181B"/>
<path d="M38.2492 47.5779C38.5678 47.5381 38.8466 46.8848 38.9661 46.5901C39.0936 46.2874 38.8785 46.1679 38.0739 45.3633C37.6995 45.8811 37.2295 46.3033 37.0781 46.8052C36.9666 47.1796 37.118 47.5381 36.4568 47.4664C36.2895 47.4504 35.939 47.9603 34.744 49.4818C34.2501 50.1191 34.9034 50.4218 36.1142 51.4256C36.4408 51.6964 36.6639 51.6247 36.8153 51.2981C37.5641 49.7049 37.8668 49.3225 37.5641 48.6055C37.3331 48.0559 37.5641 47.6735 38.2412 47.5858L38.2492 47.5779Z" fill="#18181B"/>
<path d="M34.5915 42.8367C34.0498 42.4783 33.5479 42.7172 33.0221 42.781C32.2733 42.8766 32.4247 43.2988 32.4247 44.0556C32.4247 45.2186 32.9186 44.3105 36.5511 43.1076C37.7939 42.6933 37.8018 42.7411 37.8576 41.4984C37.8735 41.124 37.77 40.9726 37.3637 40.9647C32.3609 40.8133 32.6477 40.4787 32.5919 41.9923C32.5919 42.0242 32.6079 42.064 32.6557 42.2472C33.3328 42.0959 34.002 42.0003 34.6154 41.7932C34.9659 41.6737 35.3164 41.4984 35.5474 41.8091C36.0493 42.4703 35.3004 43.3067 34.5994 42.8527L34.5915 42.8367Z" fill="#18181B"/>
<path d="M44.2793 39.85C48.8917 40.8059 48.7722 40.9413 48.828 39.4198C48.828 39.3879 48.8041 39.3481 48.7642 39.2286C47.2825 39.4357 45.5379 39.9137 46.2071 38.6072C46.2469 38.5276 46.6293 38.4957 46.7488 38.5754C47.4498 39.0454 48.111 38.7028 48.7164 38.4957C48.9395 38.424 48.9873 37.8744 49.067 37.5238C49.1466 37.1813 48.9714 37.1096 48.597 37.1733C43.4588 38.0496 43.7854 37.5477 43.8571 38.6072C43.8969 39.1728 43.4588 39.6667 44.2793 39.842L44.2793 39.85Z" fill="#18181B"/>
<path d="M46.5103 42.9656C46.7971 43.3161 48.0637 43.3639 48.2071 43.0293C48.3664 42.6629 48.4142 42.2566 48.4859 41.9539C42.4236 41.1812 43.8974 41.1015 43.3477 42.7266C43.2043 43.1568 43.3557 43.4117 43.7699 43.5949C47.7928 45.3714 47.5857 45.467 47.9601 44.0649C47.9601 44.0331 47.9442 44.0012 47.9123 43.8737C47.3945 43.81 46.8369 43.6666 46.2952 43.6905C45.9447 43.7064 45.634 43.7463 45.5543 43.3958C45.4826 43.0452 45.9049 42.2247 46.5023 42.9656L46.5103 42.9656Z" fill="#18181B"/>
<path d="M35.5238 38.5175C35.1016 38.2387 33.7792 38.0236 33.4606 38.3661C33.1579 38.6848 33.0862 39.1946 32.8711 39.7363C33.9465 39.6806 34.0899 39.585 36.7427 39.2584C37.1967 39.2026 37.7862 39.338 38.0969 39.1309C38.3996 38.9238 38.3996 38.3661 38.5749 37.9758C38.7262 37.6412 38.6625 37.4261 38.2562 37.3385C33.5801 36.287 34.0899 36.0719 33.4606 37.6173C35.1574 37.6014 36.1691 37.4978 36.2567 37.9041C36.3045 38.1112 36.2089 38.3821 36.0815 38.5653C36.0257 38.637 35.6672 38.6211 35.5318 38.5255L35.5238 38.5175Z" fill="#18181B"/>
<path d="M42.2403 45.8555C41.9296 46.0785 41.7703 46.2139 41.587 46.3334C41.4038 46.4529 41.1489 46.5167 41.0374 46.668C40.8303 46.9548 41.3799 47.9267 41.7782 48.0382C42.304 48.1896 42.5191 48.6516 42.1447 48.9225C41.7225 49.2331 41.7145 49.5836 41.8021 49.9979C42.296 52.2523 42.0013 52.5072 43.5228 51.6788C44.4071 51.1928 44.4788 51.0255 44.1203 50.1652C43.6184 48.9543 43.5627 48.6994 43.0688 48.5321C42.9652 48.4923 42.8696 48.2214 42.9094 48.086C43.1643 47.2655 42.5111 46.668 42.2403 45.8555Z" fill="#18181B"/>
<path d="M39.0537 13.9289C37.9305 14.2953 38.7669 15.6018 39.7308 14.9804C40.0415 14.7813 40.3044 14.7574 40.6151 14.9804C41.5551 15.6496 42.3756 14.3511 41.2922 13.9528C40.862 13.7934 40.7824 13.5784 40.7665 13.188C40.7665 12.949 40.4637 12.71 40.3681 12.5667C39.6671 12.487 39.3086 12.8136 39.4042 13.2916C39.468 13.6102 39.4202 13.7934 39.0458 13.9209L39.0537 13.9289Z" fill="#18181B"/>
<path d="M41.5537 11.5929C40.4305 11.9594 41.2669 13.2658 42.2308 12.6445C42.5415 12.4453 42.8044 12.4214 43.1151 12.6445C44.0551 13.3136 44.8756 12.0151 43.7922 11.6168C43.362 11.4575 43.2824 11.2424 43.2665 10.8521C43.2665 10.6131 42.9637 10.3741 42.8681 10.2307C42.1671 10.1511 41.8086 10.4777 41.9042 10.9556C41.968 11.2743 41.9202 11.4575 41.5458 11.585L41.5537 11.5929Z" fill="#18181B"/>
<path d="M43.2358 26.2979C44.2077 25.9235 43.188 24.625 42.4312 25.2862C42.0648 25.6049 41.77 25.573 41.3398 25.3579C40.8858 25.1269 40.4317 25.3579 40.3281 25.9554C40.4556 26.0749 40.6229 26.3696 40.8937 26.4732C41.2841 26.6325 41.4992 26.7839 41.4992 27.1901C41.4992 28.1142 43.1561 27.931 42.8693 27.0627C42.7419 26.6723 42.7976 26.4652 43.2358 26.29L43.2358 26.2979Z" fill="#18181B"/>
<path d="M44.4784 22.4353C45.522 21.9813 44.582 20.7306 43.6659 21.4475C43.3791 21.6785 43.1242 21.7184 42.7896 21.5033C41.8496 20.9138 41.0689 22.268 42.2399 22.5946C42.6462 22.7062 42.7896 22.8814 42.8294 23.2558C42.8533 23.5028 43.148 23.7338 43.2436 23.8692C43.9845 23.9489 44.335 23.5825 44.1757 23.0806C44.0721 22.754 44.1279 22.5867 44.4784 22.4353Z" fill="#18181B"/>
<path d="M39.5792 8.75767C38.7507 9.14802 39.4996 10.3429 40.4635 9.72158C41.1565 9.27547 41.2203 9.49853 41.8655 9.75345C42.0408 9.60209 42.3435 9.4587 42.447 9.24361C42.6064 8.92496 42.4231 8.60631 42.0248 8.49479C41.5628 8.36733 41.268 8.2319 41.2441 7.73003C41.2043 6.89358 39.5314 7.1246 39.8979 7.96902C40.0652 8.35936 39.9855 8.56648 39.5792 8.75767Z" fill="#18181B"/>
<path d="M40.5902 40.4408C40.9009 40.2974 41.116 40.3293 41.363 40.5603C41.7533 40.9108 42.1436 40.9108 42.4145 40.6081C42.6933 40.2974 42.5659 39.9629 42.1357 39.6123C41.5382 39.1344 42.2153 38.3377 41.2753 38.1625C40.8452 38.0828 40.5823 38.3377 40.5106 39.0308C40.4548 39.0706 40.3035 39.2698 40.1043 39.3335C39.5945 39.5008 39.3873 39.7557 39.5307 40.1381C39.6821 40.5285 40.0884 40.6639 40.5902 40.4329L40.5902 40.4408Z" fill="#18181B"/>
<path d="M44.7896 17.0575C44.9409 17.0097 45.0285 16.7946 45.1879 16.5875C45.0365 16.3804 44.9409 16.0936 44.7577 16.0299C43.8018 15.7271 43.7619 16.6751 42.8777 16.1493C42.0094 15.6315 41.3163 16.9778 42.3121 17.2487C42.79 17.3761 42.9892 17.5753 42.9972 18.0214C43.0131 18.8419 44.5904 18.7384 44.3674 17.9019C44.2558 17.4797 44.2797 17.2089 44.7816 17.0495L44.7896 17.0575Z" fill="#18181B"/>
<path d="M39.8813 19.0973C38.9652 19.5275 40.0486 20.7224 40.7337 20.0772C41.1001 19.7346 41.4108 19.7426 41.8729 19.9497C42.3269 20.1568 42.7651 19.894 42.8208 19.2726C42.6854 19.1611 42.4863 18.9061 42.2074 18.8026C41.841 18.6672 41.594 18.5477 41.5861 18.1573C41.5542 17.2014 39.8893 17.4085 40.2239 18.3166C40.3752 18.715 40.2796 18.9061 39.8813 19.0973Z" fill="#18181B"/>
<path d="M41.0281 43.9681C41.0281 43.6494 41.1476 43.4901 41.5061 43.4264C42.6293 43.2352 42.1354 41.8889 41.0998 42.3111C40.7653 42.4465 40.5422 42.4147 40.2873 42.1518C39.5066 41.3472 38.5427 42.5023 39.4269 43.0121C39.7854 43.2193 39.8651 43.4423 39.7297 43.8167C39.4508 44.6293 41.0202 44.932 41.0281 43.9601L41.0281 43.9681Z" fill="#18181B"/>
</svg>
