<svg width="150" height="186" viewBox="0 0 150 186" fill="none" xmlns="http://www.w3.org/2000/svg">
<path d="M81.8157 149.196C81.7583 149.342 81.6997 149.487 81.6395 149.632C81.6244 149.668 81.6093 149.704 81.594 149.74C81.6485 149.612 81.6616 149.582 81.6332 149.648C81.6062 149.71 81.5796 149.772 81.5524 149.833C81.4358 150.098 81.3142 150.36 81.1878 150.62C80.938 151.134 80.6672 151.631 80.3674 152.118C79.758 153.107 79.0851 154.056 78.372 154.973C78.4502 154.873 78.5284 154.772 78.6066 154.672C77.7599 155.758 76.8544 156.797 75.9163 157.806C75.442 158.316 74.9991 158.854 74.5394 159.377C74.0796 159.9 73.6143 160.419 73.1463 160.935C72.219 161.959 71.2893 162.98 70.3701 164.011C69.3799 165.121 68.3765 166.221 67.3136 167.263C66.7103 167.855 66.0883 168.428 65.4393 168.97C65.1281 169.23 64.8047 169.474 64.4894 169.729C64.1593 169.996 63.853 170.291 63.516 170.55L64.0415 170.146C63.8602 170.282 63.676 170.4 63.467 170.488C63.6755 170.401 63.8839 170.314 64.0923 170.226C63.6262 170.414 63.1257 170.51 62.6396 170.633C61.9498 170.807 61.2734 171.089 60.6265 171.375C60.1241 171.597 59.6093 171.806 59.1443 172.101C58.7728 172.337 58.4133 172.607 58.0988 172.914C57.7757 173.23 57.4972 173.606 57.2359 173.969L57.608 173.491C57.2905 173.894 56.988 174.298 56.7024 174.723C56.5227 174.99 56.3428 175.258 56.1448 175.512C56.2635 175.36 56.3823 175.207 56.501 175.054C56.0755 175.592 55.5182 175.997 55.0672 176.51C54.8484 176.759 54.6278 177.014 54.4738 177.309C54.3218 177.599 54.1933 177.908 54.0887 178.218C53.9759 178.554 53.8593 178.886 53.7226 179.213L53.9255 178.736C53.7512 179.142 53.5167 179.519 53.3341 179.922C53.1088 180.419 52.8903 180.926 52.7462 181.453C52.6061 181.966 52.496 182.532 52.4991 183.059C52.5011 183.403 52.5363 183.741 52.6673 184.061C52.7942 184.37 52.9248 184.679 53.069 184.981C53.2825 185.428 53.8456 185.695 54.3226 185.695C54.8026 185.695 55.3588 185.428 55.5762 184.981C55.6817 184.764 55.7936 184.551 55.9142 184.342C56.0974 184.025 56.2022 183.665 56.276 183.307C56.3682 182.86 56.4948 182.428 56.6717 182.007C56.606 182.161 56.5402 182.316 56.4745 182.471C56.6794 181.993 56.9378 181.545 57.2098 181.102C57.4915 180.643 57.641 180.125 57.967 179.692L57.6392 180.114C58.0321 179.612 58.5536 179.23 59.0506 178.838C58.9002 178.954 58.7497 179.069 58.5993 179.185C58.9713 178.902 59.3559 178.625 59.6858 178.292C59.8809 178.095 60.0617 177.885 60.2402 177.673C60.6091 177.236 60.9676 176.796 61.4226 176.443C61.2587 176.568 61.0948 176.694 60.9309 176.82C61.1603 176.647 61.4043 176.505 61.6686 176.391C61.4695 176.475 61.2703 176.558 61.0712 176.642C61.4479 176.485 61.8417 176.376 62.2362 176.274C62.432 176.223 62.6334 176.183 62.8252 176.119C63.2144 175.989 63.5989 175.811 63.9732 175.653L63.3413 175.918C63.6998 175.77 64.08 175.682 64.4551 175.586C65.0293 175.439 65.5744 175.243 66.1095 174.979C66.4365 174.818 66.7167 174.573 67.0003 174.35C67.193 174.198 67.3723 174.033 67.5472 173.862C67.8725 173.543 68.2043 173.235 68.5399 172.927C69.9275 171.655 71.1598 170.223 72.3341 168.757C73.0747 167.832 73.792 166.889 74.5191 165.954L74.1714 166.401C75.0157 165.316 75.8663 164.235 76.6993 163.141C77.0671 162.658 77.4324 162.174 77.7929 161.685C78.1533 161.197 78.5247 160.712 78.8457 160.198C80.1763 158.065 81.369 155.853 82.2992 153.518C82.7978 152.266 83.2483 150.985 83.5765 149.678C83.6919 149.219 83.4276 148.673 82.9388 148.562C82.4145 148.444 82.0022 148.722 81.8157 149.196Z" fill="#18181B"/>
<path d="M28.8707 107.991C27.5854 106.72 27.1574 105.021 25.7536 103.777C24.331 102.517 22.7603 101.158 21.4837 99.7537C19.3125 97.3661 17.6635 94.7774 16.353 91.8385C14.647 88.0128 13.4859 84.0452 11.9718 80.1543C11.1203 77.966 10.1165 75.7675 9.43594 73.52C8.85517 71.6022 8.7852 69.5986 8.2187 67.6747C6.52928 61.9371 4.3501 55.6356 3.80296 49.6759C3.64944 48.0037 3.51266 46.8516 3.0557 45.2278C2.44887 43.0714 2.08573 41.0747 3.495 39.2334C4.31132 38.1669 4.68053 37.608 5.80538 36.965C7.19173 36.1726 8.806 35.582 10.328 35.1121C14.4277 33.8462 18.4694 32.4904 22.4548 30.8984C25.9276 29.5111 29.3006 27.8893 32.7831 26.5442C36.7704 25.0043 40.1311 22.5391 43.8847 20.5649C47.3413 18.7469 51.0152 17.3239 54.3928 15.3556C57.2009 13.7191 60.8166 12.7983 63.3391 10.8509C65.2712 9.35915 67.3368 8.63318 69.3839 7.28767C70.7294 6.40332 71.9736 5.45621 73.4478 4.78645C74.6758 4.22853 76.4439 2.69537 77.7624 2.59375C78.6625 3.73102 78.3203 5.5236 78.3157 6.88388C78.3093 8.75362 78.0897 10.7118 78.4404 12.5578C79.4209 17.7185 80.6519 22.8337 81.6167 28.0068C82.3093 31.7204 83.0003 36.1651 84.5589 39.6168C86.0155 42.8427 86.7284 46.3882 88.2997 49.5498C89.057 51.0736 90.2759 52.3547 91.1474 53.8254C92.0957 55.4257 93.0844 56.8429 94.435 58.132C95.6929 59.3327 96.9683 60.2705 98.0311 61.6671C99.2594 63.2812 100.677 64.8849 102.097 66.3504C104.393 68.7197 107.02 70.4256 109.485 72.5853C112.065 74.8453 115.057 76.2799 117.64 78.6342C118.675 79.578 119.389 80.6665 120.25 81.7406C121.21 82.9374 122.406 83.8831 123.347 85.0937C125.884 88.3559 128.917 91.1687 131.521 94.3945C133.758 97.1645 136.208 99.7993 137.775 103.019C138.483 104.474 139.419 105.773 140.137 107.213C140.983 108.908 141.523 110.747 142.452 112.412C143.874 114.96 145.065 117.561 145.919 120.351C146.561 122.451 147.985 126.291 147.113 128.493C146.453 130.162 142.89 131.167 141.639 132.22C140.263 133.378 139.208 134.811 137.753 135.941C135.106 137.995 132.295 140.219 129.414 141.943C126.686 143.575 124.296 145.776 121.467 147.205C118.03 148.942 114.554 150.57 111.181 152.437C107.607 154.415 103.89 156.85 100.07 158.35C95.7708 160.037 92.2942 163.524 88.3767 165.948C86.2247 167.28 83.8917 168.399 81.5699 169.402C80.0402 170.063 78.642 171.019 77.0662 171.59C76.4665 171.808 75.9044 171.819 75.3278 172.013C74.3187 172.352 74.1084 172.67 73.3087 173.288C72.3251 174.049 70.238 175.159 69.0076 175.104C68.2777 171.93 69.0826 168.423 68.4386 165.176C68.1301 163.621 68.1247 162.337 67.6578 160.836C67.2616 159.563 67.162 158.048 66.753 156.724C66.1449 154.756 65.4984 152.824 64.5306 151.011C63.7523 149.552 63.4781 147.943 62.6664 146.507C61.0926 143.722 59.191 141.085 57.627 138.282C55.9626 135.299 54.2029 132.483 51.7156 130.056C49.9522 128.334 46.1958 125.702 46.3186 122.912C46.3725 121.687 47.9151 119.291 48.5689 118.249C49.5726 116.649 50.2639 115.199 50.9317 113.434C51.8836 110.917 53.9204 107.73 53.8439 105.006C51.0007 103.657 48.3281 100.872 46.4134 98.4947C45.3427 97.1654 43.9583 96.3206 42.9543 94.9348C42.423 94.2015 41.783 93.731 41.2169 93.0874C40.5856 92.3698 40.2823 91.6953 39.7469 90.9085C38.4463 88.9971 37.5884 91.0025 36.9727 92.4557C36.618 93.2929 36.4585 94.2064 35.9626 94.9631C35.4091 95.8077 34.4333 96.0897 33.8131 96.8165C32.8867 97.9023 32.8106 99.2796 32.2041 100.516C31.6484 101.648 30.5055 103.86 29.4966 104.261" fill="#8FD4EA"/>
<path d="M29.8027 107.066C29.0968 106.269 28.6889 105.27 28.1394 104.37C27.493 103.311 26.6241 102.496 25.7391 101.639C23.9586 99.9162 22.2276 98.1212 20.9163 96.0086C18.1324 91.5233 16.6353 86.505 14.891 81.5626C13.9912 79.0131 12.8822 76.5388 12.0235 73.9756C11.1844 71.4709 11.0375 68.8296 10.3063 66.2973C8.85101 61.2575 7.1339 55.9759 6.4711 50.9134C6.29597 49.5756 6.20997 48.2307 6.00962 46.8952C5.83355 45.7214 5.47876 44.6009 5.22082 43.4458C5.16097 43.1777 5.0974 42.9044 5.06519 42.6315C5.10575 42.9751 5.06544 42.3391 5.06463 42.2428C5.06048 41.7663 5.05697 41.6024 5.24981 41.184C5.23917 41.2071 5.51159 40.7702 5.60966 40.6317C5.69193 40.5156 5.77995 40.4041 5.86566 40.2905C5.87284 40.281 6.13694 39.9458 5.97045 40.1526C5.85457 40.2965 6.19896 39.8849 6.26843 39.8098C6.43485 39.63 6.60986 39.4531 6.80374 39.302C6.45925 39.5704 6.97615 39.2242 7.095 39.1554C7.40066 38.9784 7.71705 38.8182 8.0354 38.6653C8.6001 38.3942 8.95447 38.2586 9.5647 38.0413C10.8182 37.5948 12.1015 37.231 13.3692 36.827C15.9816 35.9944 18.578 35.1108 21.1429 34.143C23.8216 33.1322 26.4482 31.9986 29.0732 30.8591C31.5366 29.7897 34.074 28.9042 36.5038 27.709C38.8473 26.5561 41.046 25.1457 43.3062 23.845C45.5837 22.5343 47.9593 21.4281 50.3389 20.3159C52.6614 19.2304 54.8624 17.9253 57.1691 16.8201C59.2826 15.8075 61.5352 15.0609 63.5431 13.8379C64.6278 13.1772 65.5988 12.3696 66.7102 11.7439C67.8081 11.1258 68.9478 10.5834 70.0286 9.93505C71.107 9.28813 72.1099 8.52608 73.1813 7.86804C74.1087 7.29845 75.1062 6.86985 76.0266 6.2877C76.4541 6.01729 76.8778 5.74021 77.3181 5.49039C77.4161 5.43472 77.9736 5.14741 77.7578 5.24162C77.4886 5.35914 77.8335 5.19771 77.864 5.20644C77.8833 5.21193 78.5767 5.07222 77.763 5.17437C77.0152 4.7483 76.2674 4.32223 75.5196 3.89614C75.5889 3.99375 75.8327 4.59046 75.6912 4.12292C75.7379 4.27726 75.7759 4.43624 75.8024 4.595C75.7273 4.1452 75.7852 4.56695 75.7811 4.65498C75.7695 4.90829 75.7852 5.16549 75.7773 5.41959C75.7489 6.32678 75.7203 7.2338 75.6918 8.14107C75.6208 10.3984 75.7843 12.5048 76.2255 14.7244C77.0869 19.0583 78.0904 23.3631 78.9275 27.7019C79.6576 31.4865 80.177 35.3649 81.526 38.9973C82.2532 40.9554 83.02 42.6669 83.6911 44.6969C84.3645 46.7341 85.0447 48.7781 85.9945 50.7089C86.8568 52.4616 88.1893 53.9619 89.2123 55.6234C90.2816 57.3601 91.5385 58.9844 93.0486 60.365C93.6997 60.9602 94.3773 61.5275 95.006 62.1467C95.825 62.9533 96.3712 63.7327 97.1025 64.6297C98.43 66.2579 99.8467 67.8498 101.399 69.271C102.925 70.6687 104.596 71.8963 106.204 73.1973C107.865 74.5409 109.468 75.9162 111.239 77.1215C112.855 78.2213 114.425 79.1892 115.801 80.4611C116.42 81.0332 117.02 81.7711 117.378 82.2395C118.093 83.1754 118.815 84.079 119.643 84.918C121.071 86.3646 122.297 87.9593 123.643 89.4782C125.012 91.0218 126.443 92.5101 127.816 94.0492C129.178 95.5742 130.457 97.1715 131.753 98.7509C132.337 99.4617 132.698 99.905 133.179 100.557C133.795 101.391 134.375 102.25 134.89 103.149C135.855 104.831 136.844 106.538 137.74 108.257C138.678 110.054 139.313 112.114 140.343 113.998C142.083 117.18 143.278 120.297 144.257 123.837C144.371 124.246 144.476 124.658 144.566 125.073C144.602 125.239 144.637 125.405 144.668 125.572C144.661 125.535 144.784 126.348 144.738 125.969C144.693 125.598 144.766 126.38 144.764 126.351C144.773 126.507 144.779 126.663 144.779 126.819C144.778 127.005 144.747 127.196 144.753 127.38C144.734 127.579 144.74 127.526 144.769 127.221C144.742 127.355 144.707 127.487 144.665 127.617C144.676 127.562 144.927 127.097 144.72 127.465C144.49 127.874 145.014 127.305 144.762 127.401C144.665 127.438 144.5 127.638 144.424 127.71C144.805 127.348 144.609 127.576 144.477 127.655C143.827 128.04 143.181 128.408 142.504 128.746C141.064 129.466 139.854 130.255 138.71 131.407C137.251 132.876 135.798 134.21 134.154 135.479C131.07 137.86 127.611 139.93 124.412 142.249C122.765 143.443 121.097 144.515 119.275 145.427C117.409 146.361 115.531 147.273 113.669 148.218C109.854 150.154 106.246 152.443 102.459 154.425C100.65 155.372 98.9949 155.933 97.1936 156.85C95.4598 157.732 93.8666 158.859 92.3083 160.013C89.1001 162.389 85.9392 164.588 82.3026 166.287C81.3482 166.733 80.3672 167.126 79.4248 167.596C78.4922 168.061 77.5981 168.616 76.6398 169.029C76.0422 169.287 75.0063 169.407 74.2776 169.691C73.2701 170.085 72.5358 170.659 71.6983 171.323C72.0796 171.021 71.486 171.459 71.3449 171.548C71.0057 171.762 70.6544 171.958 70.2954 172.138C70.3412 172.115 69.5975 172.448 69.9191 172.318C70.2331 172.192 69.5058 172.455 69.5446 172.443C69.4007 172.487 69.2526 172.517 69.1087 172.561C68.4683 172.754 69.5991 172.555 69.0082 172.555C69.8329 173.179 70.6577 173.802 71.4825 174.426C70.9714 172.047 71.4473 169.041 71.1819 166.405C71.1019 165.61 70.9615 164.827 70.827 164.041C70.6995 163.296 70.6746 162.929 70.5378 162.028C70.3374 160.708 69.9186 159.437 69.6803 158.122C69.1728 155.323 68.1729 152.539 66.8832 150.001C66.318 148.889 65.9491 147.61 65.4107 146.352C64.8265 144.988 64.007 143.731 63.2156 142.478C61.6934 140.068 60.2461 137.63 58.7867 135.183C57.3566 132.785 55.7185 130.462 53.7376 128.479C53.0301 127.77 52.2584 127.129 51.5171 126.457C51.1248 126.101 50.7379 125.738 50.3679 125.36C50.1968 125.184 50.0287 125.006 49.866 124.823C49.7589 124.703 49.6537 124.581 49.5512 124.457C49.7166 124.657 49.6159 124.552 49.5175 124.407C49.3891 124.217 49.2599 124.029 49.1455 123.831C49.0715 123.703 49.0043 123.573 48.9377 123.441C48.9552 123.475 49.0701 123.821 48.9887 123.551C48.9303 123.357 48.8684 122.753 48.8765 123.319C48.8751 123.222 48.848 123.11 48.8663 123.014C48.9369 122.64 48.6895 123.495 48.8362 123.183C48.9262 122.992 48.9687 122.736 49.0392 122.535C48.8924 122.954 49.0693 122.475 49.146 122.318C49.39 121.82 49.6634 121.337 49.946 120.859C50.5701 119.805 51.25 118.788 51.8141 117.699C52.1786 116.995 52.498 116.272 52.8065 115.543C52.9877 115.114 53.1627 114.685 53.3305 114.251C53.3791 114.126 53.4272 114 53.4756 113.875C53.5163 113.769 53.6224 113.524 53.5177 113.766C54.7345 110.947 56.3963 108.168 56.375 105.006C56.3694 104.169 55.909 103.219 55.1217 102.836C52.6175 101.615 50.7281 99.7247 48.8773 97.5566C47.9365 96.4545 46.9484 95.4855 45.9021 94.4842C45.3226 93.9295 45.0394 93.5342 44.5439 92.9413C44.0643 92.3672 43.4577 91.9091 42.9845 91.332C42.0257 90.1628 41.4329 88.3552 39.7137 87.8242C37.9459 87.2783 36.4292 88.2646 35.5279 89.7358C35.1736 90.3142 34.9253 90.9652 34.6652 91.588C34.5302 91.9114 34.4082 92.2351 34.2965 92.5672C34.2532 92.6961 34.2125 92.8259 34.1691 92.9547C34.1418 93.0354 33.9613 93.5208 34.0813 93.2475C34.0137 93.4015 33.9196 93.5879 33.8207 93.7189C33.852 93.6775 33.9941 93.4759 33.8142 93.6827C33.5617 93.9732 34.0678 93.514 33.7595 93.74C33.6641 93.8099 33.5642 93.8735 33.4671 93.941C32.6948 94.4785 32.0408 95.0201 31.5018 95.7961C30.6463 97.0279 30.363 98.7129 29.8378 99.8075C29.5674 100.371 29.2812 100.929 28.9545 101.463C28.8717 101.598 28.7801 101.728 28.6977 101.864C28.4829 102.217 28.7009 101.814 28.5986 102.006C28.5532 102.091 28.4525 102.152 28.393 102.227C28.5964 101.97 28.5741 102.137 28.3188 102.258C27.1807 102.797 26.8827 104.415 27.4812 105.431C28.1621 106.587 29.5334 106.804 30.6758 106.263C31.7805 105.74 32.5713 104.65 33.2227 103.661C33.915 102.609 34.5304 101.474 34.9415 100.285C35.044 99.9883 35.1327 99.6873 35.2316 99.3895C35.2737 99.2627 35.3153 99.1357 35.3616 99.0102C35.5104 98.6062 35.228 99.2447 35.425 98.8597C35.5446 98.6258 35.5808 98.5436 35.6459 98.4692C35.6846 98.4248 36.048 98.104 35.8379 98.2754C35.664 98.4172 36.0315 98.1502 36.0667 98.126C37.5083 97.1376 38.3387 96.0392 38.9163 94.3953C39.0215 94.0958 39.1206 93.7937 39.2227 93.4932C39.319 93.2095 39.2334 93.4323 39.2101 93.4913C39.2533 93.382 39.3039 93.2747 39.352 93.1675C39.4645 92.917 39.5804 92.6668 39.7141 92.4266C39.7407 92.3787 39.9264 92.0434 39.9432 92.0495C39.975 92.0611 39.5924 92.3779 39.5607 92.3937C39.4391 92.4544 37.4918 92.6984 37.6249 92.216C37.6193 92.2366 37.4922 91.8119 37.679 92.288C37.7961 92.5863 38.0481 92.8825 38.2176 93.156C38.6331 93.8264 39.1008 94.4741 39.6414 95.0515C39.9749 95.4078 40.5883 95.9589 40.7932 96.1897C41.3654 96.8345 41.8326 97.5083 42.4622 98.1047C43.4454 99.0359 44.3614 99.9479 45.2332 100.984C47.2752 103.411 49.6872 105.76 52.5673 107.176C52.1496 106.453 51.7318 105.729 51.314 105.006C51.3146 105.171 51.2787 105.786 51.293 105.681C51.3102 105.556 51.1958 106.119 51.1623 106.252C51.0042 106.882 50.7859 107.495 50.5453 108.098C50.4573 108.319 50.1401 109.016 49.9329 109.461C49.6608 110.044 49.3826 110.625 49.1235 111.215C48.5336 112.557 48.1744 113.647 47.5498 114.887C47.0376 115.905 46.4292 116.86 45.8347 117.83C44.5924 119.857 43.3616 122.052 43.9553 124.497C44.5271 126.851 46.4274 128.712 48.1766 130.279C49.9168 131.838 51.5161 133.425 52.7765 135.24C54.3545 137.512 55.6039 139.983 57.0733 142.322C58.5613 144.691 60.3103 147.052 61.1954 149.569C61.696 150.993 62.3976 152.294 62.9916 153.674C63.415 154.658 63.8818 156.079 64.239 157.252C64.6931 158.744 64.8693 160.304 65.2756 161.81C65.3654 162.143 65.4409 162.479 65.5033 162.818C65.5292 162.958 65.5516 163.1 65.5754 163.241C65.7274 164.141 65.5491 163.029 65.6219 163.551C65.7439 164.423 65.8869 165.288 66.0239 166.158C66.0262 166.173 66.0897 166.783 66.1047 167.026C66.1273 167.39 66.1382 167.756 66.1434 168.121C66.1554 168.96 66.1311 169.8 66.1192 170.639C66.0949 172.369 66.1702 174.084 66.5338 175.781C66.7663 176.867 67.9305 177.652 69.0081 177.653C70.8108 177.654 72.646 176.808 74.1216 175.833C74.5406 175.556 74.9376 175.244 75.3292 174.93C75.4713 174.817 75.6153 174.703 75.753 174.584C76.0127 174.359 75.2455 174.798 75.7736 174.592C76.1862 174.432 75.8386 174.527 75.7545 174.565C76.0177 174.448 76.3054 174.388 76.5847 174.325C77.0825 174.213 77.5632 174.119 78.043 173.939C80.1519 173.15 82.1223 171.958 84.1738 171.029C86.1035 170.156 88.0022 169.202 89.7978 168.078C93.0973 166.014 95.9662 163.314 99.4119 161.473C101.197 160.519 103.101 159.877 105.064 158.852C106.943 157.872 108.762 156.785 110.597 155.727C114.369 153.549 118.293 151.674 122.186 149.724C123.996 148.818 125.638 147.709 127.272 146.525C128.922 145.33 130.641 144.275 132.338 143.153C134.232 141.9 136.037 140.519 137.833 139.133C139.478 137.864 140.932 136.534 142.394 135.066C142.71 134.748 143.086 134.25 143.482 134.05C143.437 134.072 142.929 134.368 143.324 134.184C143.479 134.113 143.627 133.998 143.776 133.914C144.378 133.576 145.007 133.288 145.622 132.974C147.044 132.249 148.494 131.361 149.303 129.942C150.28 128.228 150.046 126.04 149.704 124.193C149.417 122.649 148.907 121.157 148.439 119.66C147.788 117.575 146.963 115.544 146.008 113.578C145.113 111.735 144.18 110.068 143.432 108.253C142.596 106.224 141.508 104.425 140.453 102.511C139.486 100.756 138.556 99.0664 137.336 97.4629C134.749 94.0618 131.939 90.8309 129.038 87.6927C127.601 86.1388 126.266 84.5208 124.899 82.9086C124.277 82.1736 123.565 81.5218 122.9 80.8251C122.109 79.9955 121.715 79.4033 120.939 78.4233C118.354 75.1547 114.326 73.3286 111.322 70.7611C109.744 69.4122 108.079 68.1717 106.479 66.8496C104.83 65.4872 103.342 63.9727 101.933 62.3681C100.543 60.7845 99.3948 59.1357 97.8135 57.7126C96.3544 56.3996 95.1104 55.2169 94.1478 53.7527C93.6333 52.9703 93.1779 52.1545 92.6348 51.3903C92.0215 50.5274 91.3519 49.6978 90.823 48.7788C89.8669 47.1176 89.3187 45.2301 88.6903 43.3278C88.0383 41.3539 87.1389 39.2746 86.5268 37.6277C85.837 35.7717 85.3773 33.8366 84.9803 31.9007C84.1287 27.7475 83.3909 23.5751 82.5028 19.4279C82.0345 17.2411 81.5652 15.0543 81.1356 12.8595C80.7608 10.9453 80.8711 8.97953 80.9138 6.88362C80.9526 4.97875 81.1819 2.94657 80.0064 1.29091C79.5192 0.604737 78.6938 -0.103934 77.7629 0.0126734C75.3789 0.311367 73.3964 1.83886 71.3295 2.9608C70.1919 3.57828 69.1546 4.35329 68.0725 5.05782C66.9621 5.78072 65.7755 6.3665 64.6107 6.99522C63.4656 7.61338 62.4525 8.36953 61.3748 9.08657C60.3733 9.75289 59.2813 10.2744 58.1826 10.7608C57.0565 11.2593 55.9118 11.7162 54.796 12.2377C53.6363 12.7797 52.5478 13.4477 51.4157 14.042C48.9814 15.32 46.4487 16.3985 43.9834 17.6141C41.5726 18.8028 39.2957 20.2114 36.9753 21.5605C34.6207 22.9296 32.3856 23.9085 29.9557 24.9223C27.3181 26.0228 24.6985 27.24 22.0756 28.3038C19.4318 29.3762 16.7451 30.3434 14.0387 31.2476C11.3071 32.1602 8.50086 32.8965 5.8725 34.086C3.45607 35.1797 1.44789 37.0479 0.456491 39.5352C-0.591891 42.1653 0.42137 44.7115 0.953786 47.3121C1.00758 47.5749 1.05248 47.839 1.09745 48.1033C1.09659 48.0982 1.15954 48.5294 1.12805 48.2981C1.09135 48.0286 1.1611 48.5955 1.16641 48.6434C1.23878 49.2961 1.29084 49.9509 1.36901 50.603C1.54669 52.0854 1.7827 53.5559 2.09654 55.0158C2.68739 57.7642 3.4819 60.4649 4.31245 63.1499C5.1237 65.7725 6.04682 68.3591 6.5206 71.0678C7.0071 73.8493 7.95792 76.366 9.04755 78.964C11.234 84.1773 12.645 89.8353 15.4732 94.758C16.7787 97.0303 18.3788 99.1375 20.2263 101.003C21.1726 101.958 22.1984 102.832 23.2362 103.687C24.1697 104.457 25.1466 105.152 25.8381 106.157C26.4968 107.114 27.0925 108.106 27.9399 108.916C29.1723 110.094 30.9166 108.322 29.8027 107.066Z" fill="#8FD4EA"/>
<path d="M21.527 156.479C21.9165 154.305 22.2888 152.126 22.6517 149.948C22.7414 149.41 22.8264 148.87 22.9061 148.33C22.9444 148.071 22.981 147.811 23.019 147.551C23.0371 147.427 23.1117 146.934 23.0703 147.188C23.0431 147.354 23.077 147.155 23.0806 147.133C23.1063 146.974 23.1297 146.815 23.1535 146.656C23.3293 145.479 23.4908 144.297 23.604 143.113C23.7225 141.871 23.6977 140.621 23.8579 139.383L23.7877 139.902C23.8659 139.343 24.0149 138.804 24.1252 138.253C24.2365 137.697 24.3525 137.142 24.461 136.585C24.7122 135.297 24.9338 134.004 25.0906 132.7C25.3619 130.446 25.346 128.172 25.4149 125.907C25.4484 124.806 25.4016 123.675 25.5418 122.581L25.4448 123.298C25.503 122.895 25.602 122.508 25.7593 122.131C25.6665 122.35 25.5737 122.568 25.4809 122.787C25.7208 122.25 26.063 121.762 26.4209 121.297C26.2756 121.484 26.1304 121.671 25.9852 121.857C26.7089 120.933 27.4968 120.077 28.0473 119.032C28.4992 118.174 28.8973 117.295 29.392 116.459C30.3991 114.758 31.5777 113.15 32.4071 111.349C33.2714 109.472 34.2069 107.647 35.2489 105.86C35.7592 104.985 36.2586 104.099 36.8255 103.259C37.3819 102.435 37.9882 101.644 38.5366 100.814C39.1892 99.8266 39.7171 98.7635 40.2863 97.7276C40.5776 97.1974 40.8811 96.6732 41.1687 96.141C41.3438 95.8172 41.4567 95.4492 41.6816 95.1544C41.5357 95.3421 41.3896 95.5298 41.2436 95.7175C41.2805 95.6752 41.3162 95.6396 41.3595 95.6039C41.1706 95.7489 40.9816 95.8939 40.7927 96.0389C40.8202 96.0182 40.8496 96.0006 40.8809 95.9863L40.2119 96.2667C40.2438 96.2523 40.2769 96.2417 40.3112 96.2351L39.5668 96.3345C39.6278 96.3264 39.6791 96.3261 39.7405 96.3313C39.4924 96.2982 39.2443 96.2651 38.9962 96.232C39.0697 96.2453 39.1346 96.2637 39.2052 96.2883C38.9823 96.1949 38.7594 96.1015 38.5365 96.008C38.7036 96.0787 38.8588 96.1672 39.0042 96.2754L38.4379 95.8408C38.6365 96.0028 38.8037 96.1921 38.9623 96.3921C38.8166 96.2047 38.6708 96.0173 38.5251 95.8299C39.1271 96.6122 39.6504 97.4362 40.3403 98.1509C40.9973 98.8317 41.6197 99.5441 42.2328 100.264C42.8324 100.968 43.428 101.623 44.1556 102.2C44.8572 102.757 45.6242 103.264 46.1907 103.965L45.7574 103.408C46.2437 104.036 46.5689 104.763 47.0135 105.418C47.3477 105.91 47.7139 106.353 48.1583 106.745C48.4439 106.996 48.7355 107.238 48.9777 107.533C48.8338 107.348 48.69 107.163 48.5461 106.978C48.6497 107.115 48.7341 107.254 48.807 107.409C48.7143 107.19 48.6215 106.972 48.5288 106.754C48.5803 106.886 48.6164 107.014 48.6394 107.154L48.5409 106.425C48.5535 106.558 48.5533 106.684 48.5414 106.816C48.5742 106.573 48.607 106.331 48.6399 106.088C48.5908 106.429 48.4697 106.745 48.3365 107.062L48.6142 106.408C48.263 107.23 47.9387 108.061 47.5895 108.884L47.8668 108.231C47.1245 109.964 46.27 111.647 45.4265 113.333C44.9361 114.313 44.4587 115.291 44.0558 116.311C43.7377 117.117 43.4683 117.941 43.1325 118.74L43.4078 118.092C43.141 118.714 42.8371 119.325 42.4251 119.867L42.8515 119.318C42.5608 119.687 42.2409 120.038 41.9785 120.428C41.6251 120.953 41.4525 121.617 41.428 122.242C41.3929 123.14 41.7071 124.147 42.2462 124.872C42.5167 125.236 42.7902 125.596 43.1254 125.903C43.4678 126.217 43.8486 126.493 44.2189 126.772C44.6612 127.105 45.1251 127.408 45.5644 127.745C45.3812 127.605 45.1979 127.464 45.0147 127.323C45.3254 127.566 45.5962 127.825 45.8419 128.134C45.7004 127.952 45.559 127.77 45.4175 127.588C45.9051 128.218 46.2801 128.917 46.5954 129.645L46.3222 129.002C46.4787 129.372 46.6347 129.741 46.7933 130.11C46.7026 129.896 46.6118 129.682 46.521 129.469C47.0332 130.679 47.4242 131.938 47.8453 133.181C48.3171 134.574 48.7523 135.982 48.9501 137.443L48.864 136.806C48.975 137.683 48.9781 138.565 49.0076 139.446C49.0386 140.371 49.0744 141.296 49.1093 142.222C49.1429 143.113 49.1724 144.005 49.215 144.897C49.2565 145.766 49.3589 146.675 49.258 147.542C49.2822 147.362 49.3064 147.183 49.3307 147.004C49.2267 147.716 48.9984 148.399 48.9538 149.122L49.0228 148.613L49.0037 148.721C48.9124 149.241 48.9211 149.728 49.1984 150.199C49.4328 150.597 49.892 150.976 50.3523 151.08C51.291 151.293 52.5419 150.798 52.7274 149.741C52.7984 149.337 52.9944 148.958 53.1224 148.57C53.316 147.984 53.3766 147.363 53.4102 146.749C53.4635 145.774 53.4659 144.798 53.4982 143.823C53.5653 141.795 53.6804 139.763 53.7062 137.735C53.7323 135.677 53.2676 133.636 52.7444 131.657C52.2685 129.858 51.8421 128.066 51.0262 126.379C50.5863 125.469 49.9951 124.542 49.2571 123.847C48.5593 123.19 47.727 122.684 46.964 122.107C47.1474 122.248 47.3309 122.388 47.5143 122.529C47.152 122.251 46.8045 121.955 46.5213 121.595C46.6631 121.778 46.805 121.96 46.9469 122.143C46.829 121.985 46.7287 121.821 46.6487 121.641C46.7402 121.856 46.8318 122.072 46.9233 122.287C46.8578 122.123 46.8109 121.956 46.7832 121.782C46.8157 122.022 46.8481 122.262 46.8806 122.501C46.8708 122.401 46.8696 122.307 46.8812 122.208C46.8487 122.448 46.8163 122.687 46.7838 122.927C46.7966 122.862 46.8126 122.804 46.8351 122.741C46.7436 122.956 46.652 123.172 46.5604 123.388C46.6149 123.264 46.6863 123.156 46.7681 123.049C46.626 123.231 46.4839 123.414 46.3419 123.597C46.7373 123.1 47.1607 122.623 47.4913 122.08C47.8575 121.478 48.1263 120.829 48.3989 120.182C48.7913 119.25 49.102 118.287 49.4969 117.356C49.405 117.572 49.313 117.788 49.2211 118.005C49.8428 116.569 50.6178 115.193 51.3109 113.79C52.0996 112.193 52.7966 110.566 53.4756 108.921C53.383 109.139 53.2905 109.357 53.198 109.575C53.4543 108.974 53.7849 108.379 53.9246 107.738C54.1665 106.626 54.0594 105.61 53.5487 104.591C53.2747 104.043 52.8463 103.559 52.3914 103.15C52.0718 102.862 51.7382 102.592 51.4718 102.252L51.9043 102.808C51.6298 102.427 51.4061 102.015 51.1748 101.608C50.8632 101.06 50.5069 100.565 50.1102 100.072C49.489 99.2996 48.634 98.7548 47.8748 98.1281C47.0831 97.4744 46.46 96.6882 45.7968 95.9123C45.4594 95.5176 45.1176 95.1265 44.767 94.7434C44.4382 94.3841 44.0768 94.0487 43.7753 93.6662C43.9209 93.8533 44.0664 94.0405 44.212 94.2276C43.4033 93.1678 42.7592 91.9252 41.5241 91.2809C40.4142 90.702 39.1323 90.5521 38.0085 91.2058C37.3384 91.5955 36.8588 92.2137 36.5382 92.9018C36.0545 93.9398 35.4275 94.9233 34.8763 95.9277C34.3122 96.9555 33.7253 97.9437 33.0403 98.8976C32.3741 99.8254 31.7165 100.748 31.13 101.728C30.5216 102.745 29.9282 103.772 29.3642 104.814C28.2666 106.842 27.4284 108.993 26.2217 110.962C25.5645 112.035 24.8647 113.082 24.2545 114.183C23.6385 115.294 23.1989 116.504 22.4163 117.518C22.5617 117.331 22.7071 117.144 22.8525 116.957C21.8454 118.212 20.745 119.389 20.3379 120.991C20.0009 122.317 20.133 123.62 20.1995 124.962C20.3338 127.674 20.6174 130.399 20.4737 133.117C20.3905 134.69 20.1981 136.258 20.0113 137.822L20.0857 137.272C19.8854 138.608 19.9206 139.908 20.0605 141.246C20.1849 142.435 20.2632 143.618 20.2885 144.813C20.3395 147.228 20.2018 149.634 19.9933 152.039C19.8864 153.272 19.6585 154.565 19.4487 155.91C19.3628 156.461 19.5892 157.088 20.2014 157.227C20.727 157.346 21.4213 157.068 21.527 156.479Z" fill="#18181B"/>
<path d="M53.9063 77.3202C51.7555 76.027 49.7072 74.1224 47.2421 73.4778C45.5349 73.0313 44.0706 72.5022 42.4681 71.7248C40.308 70.6769 38.3289 69.4187 36.1573 68.4042C35.0888 67.9051 34.5051 67.507 33.7836 66.5535C32.9719 65.4807 31.7458 64.3884 30.6364 63.6212C29.7464 63.0057 29.5974 62.8236 29.3824 61.6595C29.1851 60.5912 29.2881 59.457 29.2881 58.3665C29.2881 55.4322 29.3152 52.4964 29.2785 49.5622C29.2656 48.536 29.3875 46.9667 29.7261 46.0092C30.1429 44.8308 31.0613 44.9811 32.096 44.9926C34.7023 45.0217 37.2041 44.8141 39.7396 45.5097C41.9584 46.1183 44.0676 47.2858 46.3422 47.5082C46.6727 48.3344 46.0616 49.2355 45.9568 50.0585C45.8407 50.9717 46.0277 51.9495 45.994 52.871C45.9382 54.3984 45.3117 55.8262 45.6041 57.3709C46.3036 57.6701 46.981 57.1637 47.6597 57.0449C48.3255 56.9283 48.9572 57.0851 49.6283 56.9202C51.0857 56.5622 51.4384 56.4336 51.3998 58.1422C51.366 59.6395 51.3067 60.8558 51.0783 62.3188C50.9244 63.3046 50.4722 65.1084 51.801 65.0914C52.9724 65.0765 53.8555 64.027 55.1863 64.4323C55.8513 64.6349 56.0345 64.7963 55.951 65.585C55.678 66.0144 55.4401 66.4623 55.2375 66.9288C55.1875 67.3628 55.1426 67.7974 55.1027 68.2324C54.871 69.9565 54.7418 71.5449 54.7408 73.2795C54.74 74.6257 54.4115 76.4509 54.8039 77.723C55.1346 77.7693 55.3918 77.6351 55.5753 77.3202" fill="#18181B"/>
<path d="M54.532 76.2539C54.0406 75.9235 53.5666 75.569 53.0971 75.2089L53.3662 75.4155C53.1751 75.2687 52.9851 75.1207 52.7939 74.9741C52.8849 75.044 52.976 75.1139 53.0671 75.1837C52.2575 74.5134 51.4473 73.8408 50.5874 73.2341C49.7214 72.623 48.7974 72.1317 47.7981 71.7684C47.2468 71.568 46.6972 71.3668 46.1558 71.1407L46.6218 71.336C46.0888 71.112 45.5719 70.8487 45.0339 70.6381C45.1973 70.7066 45.3606 70.775 45.5239 70.8435C42.9618 69.6964 40.6903 68.047 38.2652 66.656C37.6679 66.3134 37.0397 66.0153 36.4788 65.6138L37.0106 66.0219C36.745 65.7827 36.4499 65.6015 36.1692 65.3878C36.347 65.5242 36.5248 65.6607 36.7027 65.7972C36.3403 65.5159 36.0303 65.183 35.7487 64.8229C35.8865 65 36.0242 65.1772 36.162 65.3543C35.7808 64.8604 35.4094 64.36 34.9873 63.8996C34.6884 63.5737 34.3725 63.2634 34.0446 62.9663C33.2855 62.2786 32.4459 61.6969 31.6305 61.0798L32.1706 61.4943C32.0066 61.3684 31.8492 61.2349 31.72 61.073L32.1378 61.6102C32.0537 61.5006 31.9871 61.3827 31.9331 61.2559L32.2027 61.8905C32.0437 61.4993 31.9741 61.0628 31.9145 60.6477L32.0101 61.3546C31.8866 60.4348 31.943 59.5069 31.948 58.5823C31.9531 57.6189 31.9413 56.6552 31.9388 55.6918C31.9339 53.7787 31.9287 51.8655 31.8982 49.9526C31.8845 49.0969 31.9051 48.2474 32.0173 47.3976C31.9863 47.6267 31.9553 47.8558 31.9243 48.0849C31.9947 47.5687 32.0831 47.0382 32.2813 46.553C32.1941 46.7582 32.1069 46.9634 32.0197 47.1687C32.0781 47.0344 32.1473 46.9083 32.2356 46.791L31.8303 47.3121C31.8931 47.2336 31.9616 47.1632 32.0397 47.0996L31.5154 47.502C31.5996 47.4376 31.689 47.385 31.7858 47.3418C31.5796 47.4282 31.3735 47.5146 31.1674 47.601C31.311 47.5414 31.46 47.5058 31.6137 47.4836L30.9262 47.5754C31.3547 47.5204 31.791 47.5541 32.2217 47.5554C32.8824 47.5575 33.5431 47.5453 34.2037 47.5379C35.4952 47.5235 36.7896 47.5308 38.072 47.701C37.8461 47.6708 37.6203 47.6407 37.3944 47.6105C38.4796 47.7591 39.5405 47.9953 40.5867 48.317C41.5871 48.6245 42.5746 48.976 43.5894 49.236C44.0541 49.3551 44.5099 49.4327 44.9881 49.4933C45.2699 49.529 45.5934 49.5945 45.8765 49.5602C45.6882 49.535 45.4998 49.5099 45.3115 49.4847C45.563 49.5224 45.8238 49.5865 46.0791 49.5619C46.1665 49.5535 46.2537 49.5435 46.3409 49.5327L44.5803 48.5296C44.6275 48.6004 44.6682 48.6727 44.7037 48.7499C44.6371 48.5933 44.5706 48.4367 44.5041 48.2801C44.6126 48.542 44.6751 48.7953 44.8077 49.0585L44.5502 48.113C44.5462 48.1818 44.541 48.25 44.5332 48.3185L44.6005 47.8212C44.5424 48.2481 44.3879 48.651 44.2751 49.0649C44.1153 49.6511 44.0627 50.2693 44.0848 50.8753C44.1028 51.3693 44.1614 51.8607 44.1864 52.3542C44.2112 52.843 44.1831 53.3264 44.1194 53.8113L44.1829 53.3418C44.1379 53.6727 44.0864 54.0026 44.0426 54.3337L44.1057 53.8674C43.9739 54.591 43.88 55.3615 43.8705 56.0987C43.8686 56.2462 43.877 56.3912 43.8867 56.5377C43.907 56.8474 43.9725 57.0771 44.0834 57.3516C44.1783 57.5865 44.2745 57.8433 44.403 58.0666C44.8089 58.7722 45.7008 58.9106 46.3798 58.5516L45.3533 58.685C45.904 58.8456 46.5021 58.7938 47.0425 58.6196C47.4064 58.5023 47.7528 58.3468 48.1343 58.2919L47.7827 58.3388C48.0884 58.3015 48.3944 58.3087 48.7016 58.3097C49.0974 58.311 49.494 58.2802 49.8822 58.199C50.2336 58.1255 50.5761 58.0131 50.9329 57.9644C50.8169 57.9799 50.7009 57.9954 50.5849 58.0109C50.6921 57.9975 50.7995 57.9903 50.9071 58.0037L50.5595 57.9573C50.609 57.9648 50.6562 57.9768 50.7026 57.9958L50.3904 57.865C50.4223 57.8796 50.4515 57.8968 50.4797 57.9177L50.2153 57.7148C50.2432 57.7375 50.2675 57.7622 50.2901 57.7901L50.0859 57.5276C50.1182 57.5708 50.1433 57.6169 50.1646 57.6663L50.0331 57.3566C50.0754 57.4627 50.0982 57.5736 50.1145 57.6863L50.0679 57.342C50.1536 57.9961 50.0796 58.6828 50.0469 59.3386C50.0084 60.1097 49.9444 60.879 49.842 61.6444L49.8895 61.293C49.8221 61.7878 49.7262 62.2771 49.6511 62.7705C49.6034 63.0842 49.5553 63.4003 49.537 63.7175C49.5192 64.0272 49.5519 64.3235 49.6009 64.6308C49.7014 65.2621 50.1094 65.8887 50.6931 66.1783C51.4077 66.5329 52.2353 66.4916 52.9772 66.2364C53.5342 66.0448 54.0536 65.7493 54.6441 65.6646L54.2815 65.713C54.4673 65.69 54.6511 65.6886 54.837 65.7109L54.4743 65.6625C54.7054 65.6957 54.9317 65.7629 55.1468 65.8528C55.0382 65.8072 54.9295 65.7617 54.8208 65.7161C54.9029 65.7523 54.9809 65.7935 55.0522 65.8481L54.776 65.636C54.8095 65.6639 54.8395 65.6933 54.8674 65.7267L54.6539 65.4522C54.6856 65.494 54.7105 65.5374 54.7313 65.5854L54.5936 65.2614C54.6183 65.3264 54.6328 65.3916 54.6422 65.4603L54.5935 65.0997C54.6107 65.2613 54.6001 65.4228 54.5838 65.5841C54.646 65.3558 54.7081 65.1275 54.7703 64.8993C54.5421 65.2599 54.3358 65.6333 54.1558 66.02C54.0729 66.1981 53.9784 66.3809 53.9178 66.5668C53.8599 66.7446 53.8594 67.0079 53.8374 67.2069C53.8133 67.4241 53.7904 67.6413 53.7689 67.8587C53.6823 68.7316 53.5575 69.5998 53.4853 70.4746C53.4136 71.3434 53.3738 72.2147 53.3678 73.0864C53.3626 73.8387 53.2976 74.5859 53.2584 75.3367C53.2109 76.2479 53.2114 77.2036 53.4755 78.0855C53.5618 78.3736 53.7303 78.6127 53.9687 78.7956C54.2291 78.9955 54.4743 79.051 54.8026 79.0891C55.1798 79.1329 55.6114 79.0228 55.9382 78.8366C56.2843 78.6393 56.5573 78.3465 56.763 78.0097C57.137 77.3973 56.9191 76.4794 56.269 76.1382C55.5999 75.7871 54.7843 75.9752 54.385 76.6289C54.3588 76.6719 54.3317 76.7124 54.3019 76.7529L54.5172 76.4761C54.4692 76.535 54.4184 76.5865 54.3587 76.6335L54.6373 76.4197C54.5909 76.452 54.5442 76.4785 54.4924 76.5014L54.8213 76.3636C54.7682 76.3832 54.7162 76.3968 54.6603 76.4061C54.7823 76.3898 54.9043 76.3735 55.0262 76.3572C54.9504 76.3651 54.8781 76.3637 54.8025 76.355C55.2449 76.6896 55.6872 77.0241 56.1296 77.3587C56.0644 77.1422 56.0206 76.9218 55.9902 76.698C56.0066 76.8191 56.023 76.9402 56.0394 77.0613C55.8887 75.8666 56.086 74.6654 56.11 73.4694C56.1378 72.0844 56.1832 70.7113 56.335 69.3328C56.4233 68.531 56.5122 67.7293 56.6034 66.9279L56.4167 67.6133C56.5224 67.3714 56.6364 67.1333 56.7608 66.9004C56.9027 66.6345 57.0804 66.3836 57.198 66.1069C57.4449 65.5257 57.3732 64.6904 57.0546 64.1461C56.7507 63.627 56.2381 63.354 55.6855 63.1682C55.0881 62.9673 54.4899 62.9597 53.8746 63.0583C53.3509 63.1423 52.8611 63.3839 52.3773 63.5869L52.7029 63.4505C52.3655 63.5915 52.0244 63.722 51.6599 63.7723L52.0216 63.724C51.8872 63.7398 51.7532 63.7464 51.6185 63.7317L51.9794 63.7799C51.8958 63.7681 51.8162 63.7483 51.7379 63.7164L52.0618 63.8522C52.0103 63.8288 51.9628 63.8016 51.9168 63.7685L52.191 63.979C52.1408 63.9397 52.0974 63.8966 52.0574 63.8471C52.128 63.9378 52.1985 64.0285 52.2691 64.1192C52.2246 64.0597 52.1888 63.9969 52.1585 63.9292L52.2948 64.25C52.2441 64.1281 52.2147 64.0012 52.1965 63.8708L52.2447 64.2271C52.2 63.8664 52.2351 63.501 52.2833 63.1425C52.2673 63.2606 52.2513 63.3787 52.2354 63.4967C52.3318 62.7992 52.4534 62.1066 52.5309 61.4061C52.6189 60.6101 52.6632 59.8104 52.6859 59.0102C52.7062 58.2906 52.7608 57.5373 52.5991 56.8283C52.5244 56.5004 52.3494 56.1493 52.1017 55.9146C51.7563 55.5875 51.3568 55.441 50.8872 55.4032C50.5841 55.3788 50.273 55.441 49.9768 55.4995C49.6591 55.5624 49.3478 55.6601 49.0274 55.7077L49.3769 55.661C49.0915 55.6969 48.8058 55.6928 48.5187 55.6879C48.1288 55.6814 47.7559 55.7055 47.369 55.7669C46.8714 55.8458 46.4229 56.0974 45.925 56.1737L46.2785 56.1265C46.1565 56.1415 46.0385 56.1445 45.9161 56.1317L46.2701 56.1789C46.1989 56.1683 46.1307 56.1532 46.0616 56.133C46.327 56.3357 46.5924 56.5384 46.8577 56.7412C46.8052 56.624 46.6857 56.475 46.5852 56.3941L46.9922 57.37C46.9968 57.3299 47.0019 57.2899 47.0076 57.2499L46.9567 57.6264C47.0174 57.2213 47.1678 56.8337 47.1726 56.4203L47.1138 56.855C47.1579 56.5936 47.1807 56.3318 47.214 56.0695L47.1543 56.511C47.2194 56.0297 47.3324 55.5576 47.4475 55.0862C47.5987 54.4667 47.6958 53.8292 47.762 53.196C47.8692 52.1709 47.6685 51.1408 47.7962 50.1173C47.7742 50.28 47.7522 50.4426 47.7302 50.6053C47.7791 50.2534 47.9001 49.9216 48.016 49.5872C48.1825 49.1063 48.2922 48.6251 48.322 48.113L48.0645 49.0585C48.3026 48.6511 48.3385 48.3193 48.3849 47.8584C48.3968 47.7405 48.3956 47.6249 48.3798 47.5074L48.307 46.9689C48.2439 46.7054 48.1223 46.4758 47.942 46.2802C47.8514 46.128 47.7295 46.0069 47.5763 45.9169C47.3794 45.7379 47.1482 45.617 46.8829 45.5543C46.7379 45.5052 46.5933 45.4359 46.4415 45.4132L46.9492 45.626C46.3329 45.342 45.6665 45.165 45.0246 44.9455C44.5282 44.7757 44.0414 44.5805 43.5577 44.3781L44.1174 44.6128C42.8585 44.0841 41.6162 43.4956 40.3119 43.0828C39.5168 42.8312 38.7132 42.7192 37.887 42.6118C37.2726 42.5319 36.6549 42.4851 36.0358 42.4609C34.8073 42.4129 33.5776 42.4456 32.3486 42.4321C31.9194 42.4273 31.4848 42.3907 31.0562 42.424C30.7467 42.448 30.4352 42.4911 30.1301 42.545C30.0427 42.5604 29.9561 42.5814 29.8723 42.6105C29.2493 42.8267 28.8274 43.0599 28.3341 43.4945C28.1877 43.6234 28.0829 43.7754 27.9617 43.9312C27.8329 44.0968 27.6967 44.2541 27.5996 44.4402C27.4005 44.8215 27.2339 45.2362 27.1181 45.653C26.9301 46.3293 26.8496 47.0395 26.7674 47.7331C26.6388 48.8186 26.6673 49.9053 26.6683 50.9959C26.6695 52.2895 26.6612 53.583 26.6512 54.8765C26.6413 56.1528 26.6473 57.4304 26.6208 58.7064C26.6081 59.3214 26.5762 59.9365 26.5953 60.5517C26.6117 61.0798 26.6841 61.5996 26.7595 62.1227C26.7956 62.3724 26.8427 62.6208 26.9041 62.8657C26.9995 63.2464 27.1608 63.6121 27.3271 63.9658C27.4785 64.288 27.7257 64.5705 27.9501 64.838C28.0523 64.9599 28.1689 65.0653 28.2932 65.1645C28.6179 65.4236 28.9473 65.6724 29.2892 65.9074C29.5195 66.0658 29.7452 66.2302 29.9669 66.4002L29.4281 65.9867C30.3298 66.6837 31.179 67.4678 31.8801 68.3668L31.4666 67.8352C31.783 68.2461 32.0916 68.6725 32.4568 69.0439C32.7989 69.3916 33.1993 69.6885 33.5939 69.9714C33.8211 70.1343 34.0737 70.2586 34.3278 70.3752C34.8361 70.6087 35.3591 70.809 35.875 71.0249L35.2681 70.7704C37.0069 71.502 38.676 72.3824 40.3936 73.1602C41.3765 73.6053 42.3734 74.028 43.3932 74.3831C44.2371 74.6769 45.1068 74.8893 45.9829 75.0663C46.4503 75.1607 46.9236 75.229 47.3852 75.3496C47.8311 75.466 48.2655 75.6202 48.6904 75.7969L48.2978 75.6323C49.1794 76.0036 50.0156 76.4686 50.842 76.9466C51.6584 77.4187 52.4468 77.9375 53.278 78.3848C53.8492 78.6923 54.6574 78.5443 54.9777 77.9421C55.3096 77.318 55.1077 76.6411 54.532 76.2539Z" fill="#18181B"/>
<path d="M63.0852 76.0738V70.4931C63.0852 69.0492 62.9756 67.5544 63.0636 66.1153C63.1521 64.6684 63.9704 63.0515 63.8782 61.6298C62.3983 60.7253 60.0006 60.232 59.5359 58.466C58.9398 56.2008 60.1415 53.1192 61.3116 51.1594C60.7605 50.2208 59.7834 51.1407 59.1554 51.3737C58.463 51.6307 57.9594 51.4786 57.2436 51.5872C56.3394 51.7245 54.9381 53.2344 54.7006 51.6264C54.5624 50.6902 55.2649 49.6963 55.1789 48.6461C55.074 47.3656 54.6575 45.9914 54.2682 44.7761C54.0048 43.9539 53.8687 44.0719 54.2834 43.238C54.5875 42.6263 55.1485 42.1919 55.5746 41.6827C56.6184 40.435 57.5438 38.9774 58.2867 37.539C58.9836 36.1898 59.7729 34.6641 60.6864 33.4536C61.3447 32.5812 62.6807 32.3976 63.1683 31.4453C65.1863 32.9205 67.1983 34.4897 69.1153 36.0931C69.8973 36.7471 70.5829 37.5243 71.3159 38.2347C72.403 39.2883 72.8926 40.4142 73.7286 41.6056C74.3341 42.4686 75.0576 42.8629 75.2046 43.9567C75.2829 44.5398 75.2441 45.3279 75.1143 45.8893C74.8828 46.8907 74.4001 47.869 74.154 48.8939C73.83 50.243 73.5048 51.59 73.0986 52.9181C71.7444 57.3454 69.3535 61.2311 67.9889 65.6307C67.4303 67.4319 66.5759 68.9823 65.8804 70.707C65.5676 71.4826 65.3835 72.2979 65.0667 73.0802C64.8032 73.731 64.2903 74.3838 64.3272 75.1032L64.3369 74.8303" fill="#18181B"/>
<path d="M63.806 76.2689C63.9272 75.3801 64.0906 74.4843 64.1515 73.591C64.2109 72.72 64.2751 71.8501 64.3094 70.9779C64.375 69.3145 64.2905 67.6245 64.4962 65.97L64.4454 66.3456C64.6529 64.8559 65.3697 63.4968 65.4691 61.9806C65.4948 61.5894 65.4523 61.1729 65.2504 60.8301C65.0686 60.5215 64.7799 60.3163 64.4764 60.1409C64.2608 60.0163 64.0387 59.9031 63.815 59.7937C63.2195 59.5025 62.6115 59.2518 61.9993 58.9982L62.3745 59.1555C62.1361 59.0554 61.9003 58.9491 61.6723 58.8272C61.455 58.7111 61.261 58.5641 61.0503 58.4393L61.3441 58.6649C61.1881 58.5229 61.0378 58.3812 60.9057 58.2163L61.1292 58.5037C61.001 58.3366 60.8952 58.1589 60.8121 57.9656L60.9537 58.2987C60.8383 58.0115 60.7908 57.7144 60.7231 57.4147L60.7718 57.7743C60.7217 57.2836 60.7541 56.7859 60.8197 56.2982L60.7701 56.6653C60.9056 55.7174 61.1899 54.7988 61.5512 53.9131L61.4051 54.2568C61.5131 54.0114 61.612 53.7625 61.7166 53.5157L61.5701 53.8606C61.8613 53.1828 62.1963 52.5247 62.5772 51.8923C62.8417 51.453 62.8472 50.8605 62.5772 50.4216C62.0228 49.5204 61.0572 49.1141 60.0225 49.3665C59.4682 49.5017 59.0038 49.8389 58.4911 50.0671L58.8448 49.9189C58.6487 50.0005 58.4438 50.0505 58.2339 50.081C58.3655 50.0635 58.497 50.0459 58.6285 50.0283C57.9396 50.11 57.2138 49.9903 56.5485 50.2358C56.0246 50.4292 55.5557 50.7159 55.0461 50.9362L55.4049 50.7858C55.2759 50.8394 55.1454 50.885 55.0072 50.9083C55.1406 50.8905 55.2739 50.8727 55.4072 50.8549C55.336 50.864 55.2675 50.8661 55.1961 50.8569L55.5964 50.9104C55.5632 50.904 55.5329 50.896 55.5009 50.8851L55.8608 51.036C55.8189 51.0183 55.7823 50.9975 55.7455 50.9708L56.0505 51.2049C56.0224 51.1811 55.9984 51.1573 55.9741 51.1298C56.0527 51.2308 56.1312 51.3319 56.2098 51.4329C56.1661 51.3761 56.133 51.3171 56.1036 51.252L56.2558 51.6101C56.2064 51.4848 56.178 51.3576 56.1573 51.2248L56.2113 51.6239C56.1899 51.4464 56.1935 51.2728 56.2141 51.0954L56.16 51.4953C56.2404 50.929 56.4689 50.399 56.5869 49.8412C56.6693 49.4514 56.7328 49.0431 56.7077 48.6436C56.6799 48.2021 56.6119 47.76 56.5373 47.3244C56.426 46.6744 56.2626 46.0341 56.0799 45.4005C55.9906 45.0911 55.8964 44.7831 55.8004 44.4757C55.7283 44.2449 55.6089 44.0062 55.5719 43.7675L55.628 44.1821C55.619 44.1125 55.6156 44.0455 55.6233 43.9755L55.566 44.3992C55.5764 44.3389 55.5943 44.2839 55.618 44.2276C55.5631 44.3568 55.5082 44.4861 55.4533 44.6153C55.5169 44.4812 55.6009 44.359 55.6855 44.2371C55.5965 44.3516 55.5075 44.466 55.4185 44.5804C55.694 44.3278 55.8352 43.9738 56.0617 43.6822C55.9706 43.7993 55.8795 43.9164 55.7885 44.0335C56.2165 43.5053 56.7379 43.0602 57.1723 42.5349C57.739 41.8497 58.2758 41.137 58.7692 40.3978C59.5862 39.1736 60.2394 37.8586 60.9866 36.5935C61.4097 35.877 61.8598 35.1751 62.3707 34.5167L62.0573 34.9197C62.184 34.7585 62.3231 34.6175 62.4837 34.4894L62.0752 34.8029C62.3616 34.5841 62.6796 34.416 62.9957 34.2442C63.4475 33.9987 63.8495 33.7151 64.2475 33.386L63.829 33.7071C64.3424 33.3186 64.6432 33.0516 65.0118 32.5136C63.8936 32.6567 62.7755 32.7999 61.6573 32.943C62.197 33.4357 62.7977 33.8603 63.3793 34.3062L62.9347 33.965C64.312 35.0226 65.6669 36.109 66.9952 37.2269C67.64 37.7696 68.2485 38.3352 68.8323 38.9424C69.3913 39.5239 69.9761 40.0804 70.473 40.717L70.1153 40.2571C70.6037 40.8936 71.0042 41.5878 71.4446 42.2564C71.7513 42.7219 72.0827 43.1731 72.4471 43.5959C72.6699 43.8544 72.91 44.0979 73.12 44.3673C73.0027 44.2165 72.8854 44.0657 72.7681 43.9148C72.9299 44.1294 73.0546 44.3562 73.1613 44.602L72.9358 44.0713C73.0308 44.3085 73.0841 44.5516 73.1191 44.8039C73.093 44.6111 73.0669 44.4183 73.0409 44.2255C73.093 44.6456 73.0911 45.0617 73.0759 45.4838L73.1513 44.9265C73.0514 45.6635 72.7975 46.3621 72.5598 47.0638C72.3033 47.8212 72.1309 48.5889 71.9556 49.3678C71.6043 50.9282 71.2173 52.4795 70.6957 53.9934C70.4095 54.8241 70.0798 55.6365 69.763 56.4557L69.9531 56.0082C69.8571 56.2314 69.7628 56.4554 69.6678 56.6791L69.8578 56.2318C68.6447 59.0823 67.2635 61.8763 66.3327 64.8363C66.0764 65.6511 65.7961 66.4488 65.4627 67.2361L65.6442 66.8089C65.2108 67.826 64.747 68.8298 64.3276 69.8528C63.9483 70.7782 63.7322 71.7569 63.3567 72.6822L63.5325 72.2683C63.1344 73.1977 62.5644 74.0445 62.6026 75.1008C62.6188 75.5496 62.7837 75.99 63.1075 76.3116C63.4065 76.6086 63.897 76.8323 64.3265 76.8132C65.2802 76.7707 66.0258 76.0609 66.0504 75.1008C66.0527 75.0098 66.0542 74.9188 66.0574 74.8279C66.089 73.9331 65.243 73.0777 64.3361 73.1181C63.3765 73.1608 62.6488 73.8692 62.6149 74.8279C62.6117 74.9189 62.6067 75.0098 62.6026 75.1008H66.0504C66.0488 75.0048 66.054 74.9117 66.0658 74.8164L66.0042 75.2723C66.036 75.0817 66.0928 74.9018 66.1653 74.7227L65.9907 75.1338C66.1171 74.8395 66.2761 74.5621 66.4209 74.2768C66.6314 73.8622 66.8042 73.4265 66.9576 72.988C67.1972 72.3036 67.3991 71.6105 67.6827 70.9418C67.6231 71.0819 67.5636 71.2221 67.5041 71.3622C68.1326 69.8925 68.8677 68.4704 69.4363 66.9749C69.6998 66.282 69.9082 65.5701 70.1627 64.8738C70.4134 64.1882 70.6866 63.511 70.972 62.8389L70.7862 63.2762C72.0141 60.396 73.4622 57.6069 74.5608 54.6725C75.12 53.1791 75.5464 51.643 75.9502 50.1023C76.1444 49.361 76.3647 48.6443 76.6391 47.9281C76.8984 47.2514 77.1359 46.5795 77.2563 45.8635C77.4487 44.7185 77.5393 43.5387 77.0742 42.4439C76.8395 41.8914 76.5426 41.4883 76.1542 41.017C75.9379 40.7546 75.7041 40.5073 75.494 40.2398L75.8475 40.6943C75.3058 39.9871 74.8974 39.1876 74.4055 38.4471C74.0704 37.9426 73.7028 37.4502 73.294 37.0026C72.9626 36.6396 72.5953 36.308 72.2482 35.9598C71.5423 35.2517 70.8156 34.5913 70.037 33.9627C69.112 33.2159 68.1731 32.4868 67.2287 31.7644C66.7686 31.4125 66.3059 31.0639 65.8406 30.7187C65.6086 30.5466 65.3759 30.3754 65.1427 30.2049C65.0263 30.1199 64.9098 30.0351 64.7931 29.9505C64.5249 29.7561 64.2758 29.6553 63.9515 29.5231C64.1238 29.5953 64.2961 29.6675 64.4684 29.7398C64.3942 29.6967 64.3199 29.6538 64.2455 29.6109C63.6513 29.2681 62.9683 29.2426 62.3446 29.504C62.0799 29.5896 61.8507 29.7358 61.6573 29.9427C61.3926 30.2074 61.2095 30.5194 61.108 30.8788L61.0867 30.9317L61.3014 30.4264C61.2394 30.565 61.1629 30.6914 61.0706 30.8121L61.3959 30.3939C61.311 30.4987 61.2138 30.5847 61.1079 30.6681C61.2468 30.5615 61.3858 30.4549 61.5247 30.3483C61.28 30.534 61.0154 30.6893 60.7528 30.8481C60.3579 31.087 59.9797 31.3536 59.6293 31.6541C59.2593 31.9715 58.9832 32.3891 58.7136 32.7907C58.4865 33.1291 58.2741 33.477 58.0712 33.8301C57.2453 35.2667 56.604 36.798 55.7704 38.23C55.292 39.0517 54.7651 39.8453 54.1829 40.5982C54.2761 40.4783 54.3693 40.3585 54.4625 40.2387C54.1893 40.5887 53.8815 40.904 53.5903 41.2384C53.3739 41.4868 53.1655 41.7457 52.9819 42.0189C52.9211 42.1094 52.866 42.2029 52.8158 42.2995C52.757 42.4127 52.7086 42.5289 52.6586 42.6465C52.5568 42.8861 52.5234 43.1215 52.5038 43.3812L52.5648 42.9303C52.4744 43.2449 52.4017 43.58 52.4059 43.9074C52.4114 44.3237 52.5464 44.6787 52.7407 45.0413L52.5837 44.6719C53.0518 45.9602 53.4724 47.2929 53.6593 48.6535L53.6046 48.249C53.6469 48.5775 53.6711 48.8943 53.6285 49.2239L53.683 48.8209C53.632 49.1576 53.5376 49.4831 53.4432 49.8098C53.3261 50.2152 53.2451 50.6082 53.1935 51.0285C53.0961 51.8212 53.3077 52.7453 53.9056 53.3112C54.513 53.886 55.4012 53.9826 56.1619 53.6812C56.6732 53.4787 57.1342 53.1884 57.6381 52.9741C57.5191 53.024 57.4001 53.0739 57.281 53.1238C57.4252 53.0652 57.5669 53.0252 57.7211 53.0027L57.3244 53.0557C58.0152 52.9709 58.7145 53.0481 59.392 52.8434C59.9379 52.6784 60.3886 52.3559 60.9034 52.1296C60.786 52.1788 60.6685 52.228 60.5511 52.2773C60.6826 52.223 60.8144 52.18 60.9556 52.1594L60.5643 52.2116C60.6301 52.2054 60.693 52.2045 60.7589 52.2101L60.3678 52.158C60.433 52.1681 60.4921 52.184 60.5534 52.2082C60.4363 52.1592 60.3193 52.1101 60.2023 52.0611C60.2496 52.0842 60.2905 52.1086 60.3336 52.1388L60.0363 51.9106C60.0976 51.9607 60.1491 52.0143 60.1988 52.0757L59.9693 51.7806C59.9964 51.8165 60.0214 51.8537 60.0442 51.8923V50.4217C58.6008 52.8844 57.6194 55.8439 58.1645 58.7085C58.306 59.4521 58.7286 60.1931 59.2908 60.7044L59.0638 60.4125C59.6245 61.1339 60.4 61.6374 61.1917 62.084C61.7981 62.426 62.4714 62.6374 63.0747 62.9912C62.8122 62.5366 62.5496 62.082 62.2871 61.6274C62.3117 61.9882 62.2955 62.3474 62.2503 62.7061L62.3058 62.2957C62.1962 63.0979 61.9689 63.8769 61.8208 64.6719C61.6459 65.6108 61.6247 66.5298 61.6659 67.4805C61.7051 68.3853 61.7827 69.2881 61.8268 70.1927C61.872 71.1199 61.9117 72.0447 61.9749 72.971C61.993 73.2366 62.0147 73.5023 62.0292 73.7682C62.047 74.0918 62.1092 74.4105 62.153 74.7319C62.2229 75.2442 62.2928 75.7566 62.3627 76.269C62.4044 76.5752 62.7894 76.8278 63.0843 76.8147C63.3828 76.8015 63.7613 76.5966 63.806 76.2689Z" fill="#18181B"/>
<path d="M56.2637 96.8984C57.8678 97.3197 59.0437 95.6213 59.7952 94.4879C59.9468 94.2594 60.081 94.0322 60.1957 93.7829C60.3364 93.4771 60.4691 93.1661 60.6417 92.8762C60.6845 92.8043 60.7315 92.7361 60.7782 92.6668C60.8483 92.5626 60.6542 92.8117 60.7359 92.7206C60.7646 92.6885 60.7921 92.6557 60.8225 92.6251C60.8442 92.6033 60.8687 92.584 60.8902 92.5621C60.9632 92.4878 60.711 92.6729 60.8329 92.6089C60.8446 92.6028 60.9164 92.5706 60.9191 92.5624C60.916 92.5717 60.7413 92.6218 60.7893 92.6193C60.8037 92.6185 60.8279 92.6103 60.8416 92.6053C60.9285 92.5735 60.599 92.626 60.7173 92.6219C60.7415 92.6211 60.7657 92.6185 60.7898 92.6174C60.8329 92.6157 60.8761 92.6151 60.9191 92.6168C60.9116 92.6165 60.9949 92.6209 60.9948 92.6222C60.9937 92.6382 60.8016 92.5784 60.86 92.606C60.8711 92.6113 60.8926 92.6148 60.9049 92.6168C61.0207 92.635 60.7406 92.5422 60.7975 92.5686C60.8338 92.5854 60.9161 92.6497 60.7846 92.5504C60.6693 92.4633 60.715 92.4967 60.7427 92.5252C60.774 92.5575 60.6478 92.402 60.6476 92.4031C60.6467 92.406 60.6629 92.4287 60.665 92.432C60.6839 92.4625 60.7105 92.5325 60.6479 92.3856C60.5814 92.2297 60.6261 92.3376 60.6376 92.3783C60.6734 92.5049 60.6881 92.6367 60.7157 92.7651C60.7604 92.9724 60.8392 93.1735 60.9363 93.3619C61.1556 93.7875 61.5291 94.22 61.9737 94.422C62.4439 94.6356 62.9473 94.681 63.4465 94.5311C63.8449 94.4114 64.2143 94.2051 64.5481 93.9615C65.2392 93.4571 65.8732 92.8704 66.5287 92.3219C66.9357 91.9813 67.3472 91.6462 67.7636 91.3172C67.8615 91.2399 67.9596 91.1629 68.058 91.0863C68.1034 91.0509 68.1489 91.0157 68.1944 90.9805C68.2225 90.9588 68.3261 90.8792 68.2136 90.9654C68.1004 91.0522 68.2098 90.9684 68.2331 90.9506C68.4374 90.7946 68.6429 90.6403 68.8499 90.4878C69.2664 90.1811 69.6836 89.8613 70.1323 89.6021C70.5641 89.3528 71.019 89.1473 71.4202 88.8482C72.2459 88.2324 72.8565 87.4043 73.6304 86.7327C73.7035 86.6693 73.5288 86.8067 73.5344 86.8057C73.5489 86.8031 73.5751 86.7767 73.5876 86.7682C73.629 86.74 73.6714 86.7131 73.7148 86.6879C73.8011 86.6378 73.8909 86.5947 73.9827 86.5556L73.7644 86.6471C74.0499 86.5313 74.3496 86.4664 74.6542 86.4243L74.4122 86.4566C75.2798 86.3437 76.1649 86.3831 77.0206 86.1771C77.9534 85.9526 78.7596 85.379 79.4511 84.7378C80.0742 84.1601 80.6137 83.5018 81.2202 82.908C81.3695 82.7619 81.5253 82.6226 81.686 82.489C81.767 82.4216 81.85 82.3569 81.9322 82.291C82.0057 82.232 81.8436 82.359 81.8516 82.3523C81.8704 82.3368 81.8906 82.3227 81.9101 82.308C81.9557 82.2735 82.0016 82.2394 82.0477 82.2054C82.3922 81.9518 82.7471 81.7125 83.1 81.4707C83.541 81.1685 83.9657 80.8307 84.3682 80.4791C84.7596 80.1373 85.1193 79.7739 85.3878 79.327C85.5683 79.0268 85.4789 78.6345 85.2067 78.4255C84.9168 78.2031 84.5527 78.2508 84.283 78.4802C84.2469 78.5109 84.2106 78.5414 84.1738 78.5713C84.1596 78.5829 84.0449 78.6877 84.1382 78.6011C84.2606 78.4875 84.0358 78.6765 83.9866 78.7191C83.9507 78.7502 83.9165 78.7835 83.8811 78.8153C83.7507 78.9323 83.6026 79.033 83.4752 79.1523C83.6493 78.9894 83.4587 79.1627 83.4058 79.2009C83.3406 79.2481 83.2749 79.2944 83.2086 79.3402C83.0616 79.4416 82.9123 79.5397 82.7618 79.6359C82.1671 80.016 81.5734 80.4 81.0073 80.8217C80.3953 81.2775 79.8532 81.7792 79.3303 82.3322C78.8534 82.8365 78.3822 83.351 77.8413 83.7894C77.81 83.8147 77.7763 83.8382 77.7463 83.865C77.9473 83.6848 77.8083 83.8173 77.753 83.8574C77.6747 83.9142 77.595 83.9689 77.5137 84.0214C77.3509 84.1266 77.182 84.2224 77.007 84.3062C76.9714 84.3233 76.9327 84.3371 76.8984 84.3563C77.1326 84.2249 76.9953 84.3158 76.9193 84.3428C76.8322 84.3737 76.7438 84.4007 76.6543 84.4243C76.4664 84.4739 76.2752 84.5077 76.0827 84.5339L76.3226 84.5019C75.8169 84.5666 75.3068 84.5722 74.799 84.6103C74.1774 84.6569 73.5923 84.7534 73.0208 85.0045C72.4981 85.2342 72.0679 85.6549 71.6784 86.0612C71.2897 86.4665 70.9237 86.896 70.4907 87.2567C70.4639 87.2789 70.4365 87.3003 70.4098 87.3226C70.3215 87.3959 70.5646 87.2114 70.4638 87.2807C70.4002 87.3245 70.3381 87.3699 70.2732 87.412C70.1411 87.4978 70.0045 87.5762 69.8661 87.6513C69.611 87.7898 69.3497 87.917 69.1002 88.0652C68.5894 88.3686 68.1101 88.7369 67.6333 89.0897C66.6115 89.8458 65.5876 90.6236 64.6429 91.4743C64.286 91.7957 63.9504 92.14 63.5808 92.4475C63.5324 92.4878 63.4775 92.5493 63.4207 92.5767C63.4187 92.5776 63.6163 92.4317 63.506 92.5105C63.4841 92.5262 63.4627 92.5424 63.4408 92.5581C63.3401 92.63 63.2364 92.698 63.1286 92.759C63.0799 92.7866 63.0304 92.8128 62.9799 92.8371C62.967 92.8434 62.9193 92.8594 62.9138 92.8676C62.9251 92.8507 63.1484 92.779 63.0096 92.8257C62.9063 92.8604 62.8044 92.8894 62.6961 92.905L62.9296 92.8738C62.8312 92.8853 62.7341 92.8859 62.6357 92.8736L62.8677 92.9046C62.7953 92.8932 62.7285 92.8721 62.6587 92.8516C62.5651 92.8241 62.8554 92.9482 62.7707 92.8976C62.7556 92.8886 62.7388 92.8817 62.7234 92.8732C62.7032 92.8621 62.5979 92.8116 62.5986 92.794C62.5992 92.7782 62.753 92.9285 62.6959 92.8674C62.6824 92.853 62.6647 92.8407 62.65 92.8273C62.613 92.7936 62.5779 92.758 62.5441 92.7211C62.4931 92.6654 62.4294 92.5349 62.5441 92.7305C62.5141 92.6794 62.4743 92.6326 62.4423 92.5824C62.4179 92.544 62.3946 92.505 62.3738 92.4645C62.3659 92.449 62.3595 92.4321 62.3508 92.417C62.3165 92.3571 62.4016 92.5412 62.4023 92.5383C62.413 92.4943 62.3423 92.354 62.3305 92.3069C62.2998 92.1847 62.2802 92.0591 62.2412 91.9391C62.1684 91.7157 62.062 91.5032 61.8873 91.3404C61.6459 91.1154 61.3522 91.0258 61.0297 90.9969C60.541 90.9529 60.0636 91.1151 59.7181 91.4623C59.4495 91.7323 59.2608 92.0728 59.1065 92.4165C59.0132 92.6243 58.9265 92.8351 58.8404 93.0459C58.8123 93.1147 58.7835 93.1832 58.7555 93.2519C58.7355 93.3011 58.8393 93.0622 58.7831 93.1859C58.7669 93.2218 58.7511 93.2577 58.7342 93.2932C58.4663 93.8547 58.1642 94.4202 57.8121 94.934C57.7829 94.9767 57.7531 95.019 57.7228 95.0609C57.7033 95.0879 57.605 95.2169 57.6697 95.1343C57.7369 95.0484 57.6272 95.1858 57.6118 95.2042C57.5832 95.2383 57.5541 95.2721 57.5244 95.3054C57.4582 95.3794 57.3892 95.4511 57.3167 95.519C57.2815 95.552 57.2455 95.5841 57.2086 95.6152C57.1952 95.6265 57.18 95.6369 57.1674 95.6491C57.1147 95.6999 57.268 95.5813 57.206 95.6198C57.1274 95.6686 57.055 95.7239 56.9731 95.7679C56.9421 95.7845 56.8944 95.7972 56.8681 95.8197C56.9378 95.7601 56.9702 95.7813 56.9141 95.7995C56.8932 95.8063 56.8726 95.8144 56.8516 95.8211C56.8099 95.8344 56.7675 95.8458 56.7247 95.855C56.7089 95.8584 56.6921 95.8601 56.6765 95.8643C56.6153 95.8809 56.8234 95.8557 56.7107 95.8592C56.6717 95.8604 56.633 95.8637 56.5938 95.8632C56.5539 95.8627 56.3833 95.8413 56.5502 95.8661C56.2726 95.8249 55.9573 95.9349 55.8873 96.2399C55.823 96.5204 55.9721 96.8219 56.2637 96.8984Z" fill="#18181B"/>
<path d="M68.1197 100.965C68.7627 100.439 69.4108 99.9197 70.0682 99.4119C70.1114 99.3785 70.1546 99.3452 70.1979 99.3119C70.0758 99.4059 70.2201 99.295 70.2371 99.2821C70.309 99.2272 70.381 99.1724 70.4531 99.1178C70.6257 98.9872 70.799 98.8575 70.973 98.7287C71.298 98.4882 71.6256 98.2511 71.9561 98.0181C73.2932 97.0752 74.6788 96.2034 76.1223 95.43C76.4807 95.238 76.8416 95.0512 77.2106 94.8802C77.3877 94.7981 77.5661 94.7188 77.7452 94.6413C77.8271 94.6059 77.9092 94.5711 77.9913 94.5361C78.1639 94.4625 77.8286 94.6034 78.0017 94.5317C78.0594 94.5078 78.117 94.4838 78.1748 94.46C78.9757 94.1296 79.784 93.8147 80.571 93.4523C81.3453 93.0957 82.0873 92.689 82.7559 92.1592C83.0609 91.9176 83.3452 91.6515 83.6467 91.4056C83.6849 91.3744 83.7392 91.3432 83.7712 91.306C83.6453 91.4522 83.6748 91.3792 83.741 91.3308C83.8198 91.2731 83.9002 91.2179 83.9823 91.1652C84.1713 91.0438 84.3667 90.9327 84.5622 90.8221C85.0224 90.5619 85.463 90.294 85.8806 89.9692C85.626 90.1671 85.8998 89.9603 85.9604 89.919C86.045 89.8614 86.1312 89.8059 86.2182 89.7518C86.3873 89.6469 86.5598 89.5477 86.7329 89.4496C87.0807 89.2525 87.4226 89.0481 87.7459 88.8127C87.9609 88.6561 88.1786 88.4941 88.3727 88.3114C88.5599 88.1352 88.7133 87.9009 88.8445 87.6801C89.0578 87.3212 88.9543 86.8559 88.6287 86.606C88.289 86.3453 87.8424 86.3908 87.5281 86.6711C87.4925 86.7029 87.4567 86.7343 87.4199 86.7648C87.3601 86.8143 87.2398 86.8626 87.4492 86.7443C87.3307 86.8112 87.2167 86.9115 87.1151 86.9957C87.0786 87.0258 87.0431 87.0571 87.0064 87.087C86.9498 87.1329 86.8148 87.2024 87.043 87.0603C86.9632 87.11 86.8892 87.1714 86.8109 87.2238C86.5192 87.4189 86.2101 87.5857 85.91 87.7673C85.5975 87.9564 85.2841 88.1457 84.9902 88.3629C84.8769 88.4466 84.7648 88.5325 84.6545 88.6201C84.6153 88.6513 84.5763 88.6829 84.5378 88.7149C84.3822 88.8442 84.7091 88.5942 84.5442 88.7103C84.377 88.828 84.2087 88.9426 84.035 89.0507C83.6737 89.2756 83.2985 89.4823 82.9557 89.7352C82.5944 90.0016 82.2639 90.2964 81.9343 90.5996C81.7917 90.7307 81.6484 90.8611 81.4992 90.9849C81.4692 91.0098 81.3946 91.0508 81.3763 91.0843C81.4227 90.9994 81.5028 90.9914 81.4233 91.0473C81.3229 91.118 81.2227 91.1886 81.12 91.2561C80.7963 91.4688 80.4604 91.6626 80.1179 91.8436C78.7014 92.5922 77.1801 93.1257 75.7803 93.9074C74.345 94.7088 72.9632 95.606 71.6337 96.5701C70.1128 97.6729 68.6568 98.8609 67.2307 100.081C66.9807 100.295 66.9932 100.748 67.2307 100.965C67.5017 101.212 67.8477 101.187 68.1197 100.965Z" fill="#18181B"/>
<path d="M75.3505 104.546C75.9386 104.127 76.522 103.686 77.1394 103.311C77.7512 102.938 78.3705 102.578 79.0011 102.238C79.6349 101.897 80.28 101.576 80.9382 101.283C81.5632 101.005 82.1713 100.722 82.7524 100.359C83.3062 100.013 83.8332 99.6297 84.3586 99.2434C84.6278 99.0456 84.8976 98.8484 85.1716 98.6572C85.3009 98.567 85.4291 98.4744 85.5678 98.3988C85.5911 98.3862 85.7762 98.2748 85.7981 98.2876C85.797 98.2869 85.6155 98.3591 85.7537 98.3071C85.8012 98.2892 85.8485 98.2705 85.896 98.2527C86.2458 98.1218 86.605 97.9992 86.9257 97.8056C87.2436 97.6137 87.5359 97.3745 87.802 97.1171C88.2176 96.7151 88.6213 96.2909 89.0143 95.867C89.4089 95.4413 89.782 94.9956 90.2059 94.5976C90.3191 94.4912 90.4368 94.3905 90.5566 94.2915C90.6036 94.2527 90.688 94.2045 90.4733 94.3544C90.5066 94.3311 90.5386 94.3057 90.5718 94.2822C90.6261 94.2437 90.6814 94.2066 90.7379 94.1714C90.7983 94.1336 90.86 94.098 90.9232 94.0649C91.0108 94.0192 91.2285 93.9591 90.9291 94.0535C91.0569 94.0132 91.1778 93.971 91.3112 93.9504L91.0691 93.9827C91.276 93.9558 91.4793 93.9277 91.6842 93.8901C92.0116 93.83 92.2542 93.4898 92.2953 93.1855C92.3366 92.8807 92.1944 92.4776 91.888 92.3411C91.6571 92.2383 91.4361 92.1353 91.1743 92.1599C90.9882 92.1774 90.7983 92.2003 90.6191 92.256C90.317 92.3498 90.0234 92.4923 89.7642 92.6728C89.2576 93.0256 88.8271 93.4556 88.4224 93.9174C88.0766 94.3119 87.7372 94.7087 87.3802 95.0933C87.1564 95.3344 86.9425 95.5844 86.7162 95.8233C86.6056 95.94 86.4915 96.0529 86.3737 96.1624C86.3186 96.2136 86.2637 96.265 86.2067 96.3143C86.1826 96.3351 86.1036 96.3815 86.092 96.4098L86.1801 96.3429C86.1536 96.3629 86.1267 96.3825 86.0996 96.4016C85.8277 96.5931 85.5215 96.7183 85.2214 96.858C84.8663 97.0233 84.5679 97.2434 84.2642 97.4889C83.7271 97.9231 83.2084 98.3794 82.6795 98.8232C82.5533 98.929 82.4262 99.0337 82.2976 99.1366C82.2298 99.1908 82.1616 99.2444 82.093 99.2977C82.1115 99.2834 82.1912 99.2236 82.096 99.2951C82.0537 99.3269 82.0115 99.3587 81.9689 99.3901C81.6824 99.6016 81.3868 99.8015 81.0803 99.9835C80.4491 100.358 79.7997 100.698 79.1781 101.09C78.4669 101.538 77.7754 102.017 77.0969 102.512C76.4119 103.013 75.7092 103.489 75.0182 103.981C74.8739 104.084 74.8043 104.266 74.9 104.429C74.9834 104.57 75.2053 104.65 75.3505 104.546Z" fill="#18181B"/>
<path d="M81.028 125.342C81.2238 125.343 81.4193 125.351 81.6148 125.362C81.827 125.374 81.4935 125.32 81.618 125.367C81.6574 125.382 81.6998 125.391 81.7403 125.403C81.8424 125.433 81.9445 125.463 82.0471 125.491C82.5025 125.616 82.9734 125.708 83.4466 125.725L83.1363 125.683C83.244 125.702 83.3768 125.731 83.4862 125.731C83.5999 125.731 83.7279 125.699 83.8403 125.682C83.8869 125.675 83.9334 125.668 83.9797 125.66C84.0895 125.639 84.1978 125.61 84.3026 125.572C84.707 125.423 84.9948 125.256 85.3272 124.987C85.7705 124.629 86.0951 124.123 86.3663 123.63C86.61 123.187 86.8225 122.727 87.0216 122.263C87.2002 121.846 87.3736 121.459 87.4629 121.017C87.5396 120.636 87.6049 120.248 87.7525 119.887L87.6033 120.238C87.6477 120.134 87.6991 120.035 87.7672 119.944C87.6896 120.044 87.612 120.143 87.5344 120.243C87.5704 120.198 87.6089 120.158 87.6542 120.122C87.5534 120.199 87.4527 120.277 87.3519 120.354C87.3832 120.331 87.415 120.312 87.4502 120.296L87.0926 120.446C87.1286 120.432 87.1642 120.422 87.2024 120.416L86.8037 120.469C86.8194 120.467 86.8351 120.466 86.851 120.466C86.4971 120.32 86.1432 120.174 85.7893 120.029C86.1503 120.424 86.4714 120.86 86.8731 121.216C87.1461 121.459 87.437 121.693 87.7739 121.839C88.2533 122.048 88.7096 122.188 89.2435 122.184C90.0478 122.177 90.8724 121.893 91.5326 121.442C91.8679 121.212 92.1946 120.956 92.4851 120.671C92.7342 120.427 92.9476 120.147 93.1609 119.873C93.5887 119.323 93.9623 118.734 94.3867 118.183L94.1744 118.456C94.4141 118.151 94.6925 117.884 94.9992 117.647L94.7365 117.849C95.4089 117.338 96.1794 116.978 96.9461 116.631L96.6672 116.748C97.1377 116.554 97.6103 116.363 98.0722 116.149C98.4989 115.952 98.9041 115.717 99.3153 115.49C99.8048 115.22 100.303 114.968 100.779 114.675C101.233 114.396 101.705 114.143 102.138 113.83C102.534 113.545 102.931 113.266 103.321 112.973C103.711 112.679 104.106 112.39 104.528 112.143C104.712 112.035 104.902 111.936 105.096 111.845C105.284 111.756 105.461 111.646 105.644 111.548C105.832 111.447 106.021 111.35 106.21 111.253C106.306 111.204 106.402 111.156 106.497 111.106C106.539 111.085 106.58 111.064 106.621 111.043C106.632 111.037 106.716 110.991 106.665 111.016C106.623 111.037 106.705 111.003 106.715 111C107.206 110.838 107.693 110.66 108.158 110.437C108.374 110.334 108.584 110.219 108.784 110.088C108.901 110.011 109.027 109.932 109.126 109.834C109.231 109.728 109.321 109.599 109.411 109.481C109.536 109.316 109.481 109.021 109.334 108.886C109.178 108.745 108.921 108.686 108.735 108.81C108.62 108.886 108.494 108.947 108.385 109.031C108.349 109.058 108.313 109.085 108.277 109.114C108.209 109.17 108.383 109.039 108.267 109.122C108.213 109.161 108.159 109.2 108.104 109.238C107.886 109.385 107.656 109.514 107.421 109.632C107.304 109.69 107.186 109.745 107.067 109.799C107.01 109.824 106.953 109.848 106.897 109.873C106.823 109.905 106.964 109.845 106.889 109.876C106.845 109.893 106.802 109.911 106.759 109.929C106.636 109.978 106.503 110.015 106.385 110.074L106.407 110.077C106.473 110.082 106.435 110.089 106.294 110.097C106.263 110.102 106.232 110.109 106.202 110.115C106.125 110.13 106.048 110.144 105.97 110.159C105.453 110.258 104.906 110.325 104.413 110.516C103.824 110.745 103.272 111.034 102.735 111.365C102.151 111.724 101.586 112.12 100.951 112.387L101.175 112.293C100.821 112.438 100.454 112.554 100.094 112.686C99.639 112.853 99.1999 113.044 98.7665 113.259C98.1222 113.58 97.4939 113.935 96.8297 114.214L97.1044 114.099C96.0296 114.547 94.8939 114.852 93.8543 115.383C93.3017 115.665 92.7747 116.033 92.3337 116.468C91.9726 116.825 91.6607 117.232 91.3227 117.61C90.9238 118.056 90.4981 118.485 90.0246 118.854L90.3293 118.62C90.0629 118.823 89.7785 118.998 89.4686 119.129C89.5898 119.078 89.711 119.027 89.8323 118.976C89.6099 119.066 89.3807 119.131 89.1427 119.163L89.5507 119.109C89.3795 119.128 89.21 119.13 89.039 119.108L89.4492 119.162C89.2952 119.139 89.1479 119.097 89.0042 119.038L89.3747 119.193C89.1668 119.101 88.972 118.978 88.7915 118.841L89.1046 119.081C88.758 118.812 88.4639 118.485 88.1604 118.17C88.0886 118.096 88.0174 118.02 87.9422 117.949C87.6445 117.667 87.2678 117.486 86.851 117.483C86.6992 117.482 86.5207 117.514 86.3712 117.55C85.8778 117.67 85.5102 118.013 85.2256 118.41C84.7513 119.072 84.7786 119.877 84.6059 120.632C84.5584 120.839 84.4734 121.04 84.4 121.24C84.2964 121.521 84.1869 121.8 84.0697 122.076L84.2103 121.745C83.9983 122.24 83.7211 122.704 83.5164 123.2L83.6529 122.879C83.5625 123.056 83.4662 123.232 83.3451 123.391L83.5473 123.131C83.4623 123.237 83.3684 123.331 83.2625 123.416L83.5158 123.222C83.3795 123.326 83.2326 123.41 83.0747 123.477L83.3613 123.357C83.169 123.435 82.9774 123.513 82.7867 123.595L83.0611 123.48C82.716 123.622 82.352 123.705 81.9857 123.773C81.8972 123.789 81.8086 123.804 81.7199 123.819C81.6724 123.827 81.625 123.837 81.5773 123.843C81.8152 123.81 81.6783 123.82 81.6147 123.816C81.4193 123.805 81.2238 123.796 81.028 123.796C80.6208 123.794 80.2309 124.152 80.2497 124.569C80.2686 124.989 80.5916 125.341 81.028 125.342Z" fill="#18181B"/>
<path d="M91.3508 131.726C94.2599 129.817 97.3336 128.145 100.035 125.938C101.381 124.839 102.535 123.555 103.765 122.335C104.383 121.722 105.035 121.158 105.713 120.611C106.019 120.364 106.324 120.115 106.635 119.871C106.676 119.839 106.718 119.806 106.76 119.773C106.912 119.655 106.598 119.896 106.751 119.78C106.836 119.716 106.921 119.652 107.007 119.589C107.178 119.463 107.35 119.341 107.526 119.224C107.906 118.971 108.298 118.763 108.707 118.565C108.444 118.692 108.612 118.607 108.672 118.582C108.779 118.539 108.886 118.493 108.993 118.447C109.112 118.396 109.229 118.342 109.347 118.288C109.561 118.188 109.773 118.084 109.985 117.979C110.209 117.869 110.432 117.758 110.658 117.651C110.753 117.605 110.849 117.561 110.945 117.517C110.993 117.496 111.041 117.475 111.09 117.454C111.122 117.44 111.154 117.426 111.186 117.412C111.053 117.468 111.031 117.477 111.118 117.441C111.33 117.359 111.542 117.28 111.76 117.215C111.878 117.18 111.998 117.154 112.117 117.122C112.224 117.093 112.323 117.043 112.426 117.002C112.173 117.103 112.414 117.009 112.466 116.988C112.794 116.863 113.078 116.587 113.063 116.209C113.054 115.982 113.04 115.756 113.034 115.529C112.93 115.71 112.825 115.891 112.721 116.072C112.817 116.019 112.914 115.965 113.01 115.912C113.21 115.801 113.33 115.528 113.258 115.307C113.182 115.075 112.985 114.926 112.738 114.914C112.626 114.909 112.513 114.904 112.401 114.899C112.18 114.889 111.962 115.026 111.853 115.211C111.74 115.403 111.635 115.596 111.548 115.801L112.25 115.401C111.762 115.366 111.297 115.498 110.84 115.66C110.387 115.822 109.946 116.019 109.51 116.223C109.117 116.407 108.726 116.599 108.328 116.773C108.278 116.795 108.223 116.813 108.175 116.839C108.398 116.716 108.247 116.808 108.187 116.834C108.039 116.895 107.89 116.955 107.745 117.023C107.568 117.106 107.397 117.2 107.229 117.299C106.458 117.758 105.758 118.335 105.076 118.913C104.439 119.453 103.795 119.986 103.199 120.571C101.951 121.796 100.853 123.162 99.5666 124.349C99.2529 124.639 98.9309 124.919 98.6028 125.192C98.4513 125.318 98.2985 125.443 98.1446 125.566C98.0604 125.633 97.9758 125.7 97.8909 125.766C97.8484 125.8 97.8058 125.833 97.7631 125.866C97.7346 125.888 97.7061 125.91 97.6776 125.932C97.7537 125.874 97.7598 125.869 97.6961 125.917C97.007 126.44 96.303 126.941 95.5888 127.429C93.9809 128.527 92.3299 129.562 90.7313 130.673C90.4689 130.856 90.3214 131.215 90.5112 131.507C90.6832 131.772 91.0643 131.914 91.3508 131.726Z" fill="#18181B"/>
<path d="M95.917 139.147C96.7193 138.542 97.4962 137.905 98.2839 137.282C98.3773 137.209 98.4709 137.135 98.5647 137.062C98.655 136.991 98.5222 137.091 98.6154 137.025C98.6748 136.983 98.7336 136.94 98.7929 136.898C98.9859 136.761 99.1802 136.626 99.3764 136.494C99.7805 136.221 100.193 135.96 100.616 135.718C101.031 135.479 101.463 135.27 101.873 135.022C102.277 134.777 102.668 134.51 103.053 134.237C103.097 134.206 103.141 134.176 103.184 134.145C103.181 134.147 103.474 133.922 103.316 134.044C103.158 134.165 103.451 133.94 103.448 133.942C103.547 133.866 103.646 133.79 103.745 133.714C103.873 133.615 103.606 133.82 103.734 133.722C103.784 133.684 103.833 133.646 103.883 133.609C103.974 133.539 104.067 133.469 104.159 133.4C104.537 133.119 104.923 132.847 105.326 132.602C105.807 132.309 106.306 132.041 106.796 131.762C107.303 131.472 107.814 131.173 108.351 130.939L108.118 131.036C108.627 130.823 109.169 130.734 109.7 130.596C110.137 130.482 110.558 130.311 110.961 130.109C111.382 129.899 111.802 129.639 112.147 129.318C112.381 129.099 112.636 128.825 112.721 128.514C112.801 128.223 112.797 127.946 112.74 127.653C112.675 127.322 112.333 127.077 112.018 127.035C111.664 126.988 111.348 127.153 111.153 127.447C111.097 127.533 111.252 127.33 111.245 127.333C111.229 127.342 111.213 127.37 111.2 127.384C111.168 127.415 111.134 127.444 111.099 127.471L111.298 127.319C111.094 127.469 110.995 127.561 110.84 127.762L111 127.557C110.849 127.746 110.662 127.899 110.472 128.048L110.681 127.888C110.299 128.18 109.875 128.42 109.432 128.607L109.673 128.506C109.208 128.698 108.711 128.79 108.23 128.934C107.602 129.122 107.03 129.427 106.468 129.756C105.952 130.058 105.448 130.378 104.937 130.686C104.455 130.976 103.991 131.283 103.544 131.624C103.067 131.989 102.595 132.364 102.135 132.75C101.924 132.927 101.718 133.111 101.506 133.287C101.403 133.372 101.299 133.456 101.194 133.538C101.173 133.555 101.152 133.571 101.131 133.588C101.021 133.675 101.156 133.573 101.168 133.56C101.114 133.615 101.036 133.66 100.973 133.706C100.517 134.04 100.034 134.334 99.5799 134.67C99.091 135.033 98.6167 135.414 98.1551 135.811C97.1907 136.638 96.2224 137.467 95.2278 138.259C95.0074 138.435 95.0266 138.799 95.1833 139.001C95.3396 139.202 95.6907 139.317 95.917 139.147Z" fill="#18181B"/>
<path d="M93.2187 22.3746C93.2269 22.253 93.239 22.1319 93.2545 22.011L93.2119 22.3257C93.3157 21.5624 93.5709 20.852 93.8703 20.145L93.7288 20.4781C94.1415 19.5106 94.568 18.5504 94.9539 17.5715C95.1765 17.0066 95.3637 16.4286 95.6012 15.8695L95.4289 16.2751C95.626 15.8151 95.8524 15.3621 96.1604 14.9644C96.067 15.0845 95.9736 15.2046 95.8802 15.3246C96.0328 15.1315 96.2045 14.9392 96.3994 14.7873L96.0348 15.0671C96.2173 14.9302 96.4144 14.8409 96.5781 14.666C96.7236 14.5105 96.8282 14.331 96.9529 14.1625L96.6913 14.4989C96.7454 14.4294 96.8053 14.3669 96.8747 14.3124L96.5733 14.5437C96.5945 14.5279 96.6158 14.5127 96.6377 14.4979C97.0646 14.2088 97.3493 13.7958 97.3493 13.2655C97.3485 13.0078 97.2831 12.7677 97.1531 12.5451C97.0254 12.3306 96.8536 12.16 96.6377 12.0331C96.4488 11.898 96.2143 11.8098 95.999 11.7361C95.4684 11.5544 94.886 11.6201 94.3911 11.8727C94.1478 11.997 93.9263 12.1846 93.7213 12.357C93.5076 12.5366 93.3457 12.7675 93.1831 12.9919C93.0099 13.231 92.8771 13.4958 92.7607 13.7659C92.5807 14.1837 92.413 14.5981 92.2839 15.0339C92.1252 15.5691 92.0115 16.1157 91.866 16.6544C91.6368 17.5025 91.3664 18.3346 91.2014 19.1985C91.09 19.7819 91.0007 20.3713 90.9447 20.9626C90.9 21.435 90.8521 21.8993 90.8838 22.3747C90.9044 22.684 91 22.9705 91.2257 23.1947C91.4282 23.3959 91.7604 23.5473 92.0513 23.5344C92.7186 23.5047 93.1752 23.0244 93.2187 22.3746Z" fill="#18181B"/>
<path d="M98.7402 29.3321C98.7378 29.3358 98.7747 29.2794 98.775 29.2797C98.7813 29.2858 98.6889 29.373 98.7578 29.3054C98.7876 29.2761 98.8155 29.2452 98.8462 29.2168C98.8849 29.1809 98.9267 29.149 98.9664 29.1143C99.0189 29.0684 98.9208 29.1533 98.9197 29.1501C98.9183 29.1462 99.0146 29.0825 99.0194 29.0792C99.1427 28.9943 99.2629 28.9073 99.3807 28.8146C99.4815 28.7352 99.3422 28.8446 99.332 28.8519C99.3554 28.8352 99.3781 28.817 99.4011 28.7998C99.4517 28.7617 99.5025 28.7239 99.5532 28.686C99.7813 28.5153 100.018 28.3469 100.221 28.1464C100.445 27.9256 100.662 27.6983 100.881 27.4736C101.309 27.0357 101.723 26.5929 102.13 26.1361C102.472 25.7514 102.817 25.3676 103.172 24.9944C103.548 24.6 103.94 24.2207 104.372 23.8878L104.1 24.0964C104.439 23.8389 104.8 23.615 105.193 23.4479C105.082 23.4946 104.97 23.5413 104.859 23.588C105.114 23.483 105.381 23.3964 105.643 23.3124C105.772 23.2711 105.902 23.2424 106.034 23.2117C106.376 23.1321 106.605 22.9191 106.832 22.6785C107.252 22.2344 107.252 21.5686 106.832 21.1225C106.521 20.7924 106.147 20.579 105.675 20.5743C105.387 20.5715 105.098 20.6163 104.814 20.6583C104.385 20.722 103.963 20.9332 103.592 21.1541C102.916 21.5558 102.322 22.0996 101.808 22.6882C101.264 23.3107 100.77 23.9791 100.276 24.6411C100.005 25.0046 99.7451 25.3701 99.5053 25.7548C99.2668 26.1372 99.0298 26.5206 98.7897 26.902C98.5833 27.2298 98.3935 27.5735 98.1994 27.9092C98.0049 28.2457 97.8365 28.6972 97.8477 29.0919C97.8612 29.5681 98.4858 29.7334 98.7402 29.3321Z" fill="#18181B"/>
<path d="M103.636 37.1992C104.231 37.1764 104.821 37.0437 105.342 36.7536C105.797 36.5006 106.21 36.1665 106.597 35.8223C107.163 35.3193 107.669 34.7731 108.183 34.2201C108.489 33.891 108.806 33.5695 109.162 33.2938L108.921 33.4787C109.107 33.3374 109.303 33.2102 109.519 33.1182L109.23 33.2393C109.407 33.1678 109.579 33.0876 109.753 33.0097L109.47 33.1283C109.554 33.093 109.64 33.0667 109.731 33.0521L110.002 32.9382C110.135 32.8672 110.241 32.7702 110.322 32.6472C110.47 32.4566 110.577 32.21 110.566 31.9625C110.557 31.7619 110.505 31.5697 110.41 31.3922C110.292 31.1695 109.985 30.9179 109.731 30.8729C109.379 30.8108 109.08 30.7949 108.728 30.8737C108.485 30.9278 108.231 31.062 108.023 31.2029C107.633 31.4669 107.283 31.7796 106.966 32.1251C106.463 32.6721 106.025 33.2718 105.517 33.8137C105.162 34.1918 104.8 34.5658 104.389 34.8839L104.604 34.7185C104.275 34.9678 103.908 35.2011 103.526 35.3616L103.759 35.2642C103.638 35.3127 103.515 35.354 103.39 35.3885C102.943 35.5112 102.664 35.9512 102.725 36.3999C102.784 36.8355 103.173 37.2169 103.636 37.1992Z" fill="#18181B"/>
</svg>
