<svg width="150" height="149" viewBox="0 0 150 149" fill="none" xmlns="http://www.w3.org/2000/svg">
<path d="M26.0897 130.533C25.6649 126.361 25.1796 122.329 25.5957 118.162C25.9947 114.165 24.8517 110.371 24.9686 106.431C25.0334 104.248 27.2175 95.3726 25.3685 94.0357C24.6341 93.5048 21.537 93.7943 20.4736 93.5085C19.3614 93.2096 17.1352 92.4582 16.3021 91.6103C14.9151 90.1987 15.3387 88.5705 16.4684 87.1394C16.9701 86.5038 17.9681 85.6052 18.5866 85.0293C19.8579 83.8454 21.1377 82.6111 22.4227 81.4203C24.3774 79.6091 26.8096 78.8596 28.7647 76.9643C30.6372 75.1491 32.0976 73.3446 33.7655 71.3773C34.6542 70.329 35.8122 69.686 36.7789 68.744C37.7069 67.8398 38.3126 66.6283 39.3044 65.7959C40.3044 64.9566 41.6166 64.5632 42.6739 63.7914C43.9873 62.8328 45.0694 61.202 46.573 60.5375C47.9678 59.9211 49.2806 60.6168 50.7093 60.6381C52.0311 60.6578 53.149 60.1248 54.4563 60.0905C56.2832 60.0427 58.0274 60.5965 59.8677 60.4088C62.0524 60.186 64.2096 59.7548 66.3865 59.5356C67.0707 59.4667 67.9982 59.6942 68.687 59.7644C69.9915 59.8974 70.5781 59.6424 71.7926 59.4238C72.9119 59.2223 73.8561 59.5003 74.9628 59.5361C76.0538 59.5715 76.8253 59.2706 77.8982 59.158C80.2423 58.9119 82.5783 59.5596 84.9309 59.5892C86.3516 59.607 87.5568 59.2439 88.9621 58.9427C91.7218 58.3512 94.9766 58.2788 97.8128 58.3215C102.111 58.3862 105.402 57.3309 109.173 60.1957C110.793 61.4259 111.591 63.1863 112.683 64.8086C114.537 67.5623 117.108 69.7782 119.064 72.4513C120.59 74.5365 121.631 76.973 123.168 79.0505C124.455 80.7902 126.113 82.2656 127.427 83.9875C129.843 87.1527 133.34 90.1209 132.009 94.5121C131.629 95.7677 131.956 95.1975 131.136 96.1019C130.535 96.7657 129.302 97.437 128.579 98.0418C126.474 99.8044 125.322 100.512 125 103.332C124.46 108.073 124.239 112.864 123.81 117.618C123.581 120.158 124.117 122.275 124.007 124.734C123.902 127.096 123.611 129.482 123.392 131.839C123.296 132.88 123.136 133.749 123.315 134.775C123.49 135.77 124.201 136.826 123.708 137.923C122.901 139.72 120.48 139.175 118.865 139.028C116.816 138.842 114.763 138.691 112.714 138.519C111.743 138.437 110.732 138.428 109.771 138.292C108.48 138.109 107.799 137.535 106.591 137.195C104.859 136.709 102.048 136.618 100.21 136.664C98.0252 136.719 95.6456 137.884 93.4523 136.838C93.1852 134.811 93.8961 134.057 92.1942 132.547C91.0469 131.529 89.9953 130.172 88.7075 129.326C87.9409 128.823 87.3449 128.407 86.2637 128.526C84.0767 128.768 84.1324 130.503 83.0313 131.981C82.4257 129.045 82.2488 126.862 78.6097 127.112C76.8616 127.232 75.2025 128.162 73.8725 129.27C72.0827 130.761 72.6774 131.701 71.7104 133.4C70.2311 135.999 66.3276 135.373 63.8355 135.226C60.7358 135.043 58.1448 136.261 55.1445 136.668C50.7725 137.261 45.5139 136.021 41.0702 135.651C38.6127 135.446 36.5855 135.279 34.2452 135.684C32.9274 135.913 26.7564 136.06 27.378 133.737" fill="#8FD4EA"/>
<path d="M26.8385 130.536C26.6089 127.81 26.3175 125.073 26.3609 122.335C26.4032 119.674 26.9192 117.064 26.7567 114.4C26.599 111.816 26.1515 109.245 26.2407 106.648C26.2488 106.414 26.2666 106.183 26.2922 105.949C26.3325 105.582 26.2765 106.02 26.305 105.849C26.3303 105.697 26.351 105.544 26.3754 105.392C26.4821 104.726 26.6021 104.063 26.7182 103.399C26.853 102.627 26.9851 101.855 27.1027 101.08C27.1748 100.605 27.2409 100.13 27.3028 99.6538C27.3142 99.5663 27.3701 99.0995 27.3372 99.3654C27.3738 99.0697 27.4091 98.7744 27.4438 98.4785C27.5983 97.1627 27.7584 95.6702 27.3335 94.3885C27.1067 93.7043 26.7069 93.0266 26.0505 92.6697C25.2789 92.2503 24.3368 92.2109 23.4778 92.1687C22.6528 92.1281 21.8255 92.0924 21.0007 92.0576C20.7769 92.0481 21.3576 92.163 21.0555 92.0618C21.0031 92.0443 20.9391 92.0364 20.8861 92.0232C20.7245 91.9832 20.5649 91.9322 20.4059 91.8835C19.9077 91.7309 19.4141 91.56 18.9309 91.3654C19.1055 91.4357 18.5839 91.2108 18.5405 91.1902C18.3257 91.0882 18.1137 90.9799 17.9082 90.8602C17.8266 90.8127 17.3456 90.4504 17.5919 90.6712C17.422 90.5188 17.3 90.3769 17.1771 90.2053C16.9968 89.9536 16.9729 89.7305 17.0238 89.4314C17.0049 89.5424 17.1977 88.9123 17.1424 89.0431C17.2615 88.7616 17.4376 88.5009 17.6093 88.2489C17.726 88.0778 17.6953 88.126 17.8799 87.922C18.0517 87.7322 18.2322 87.5499 18.4144 87.37C18.8023 86.9871 19.2042 86.6188 19.6038 86.2481C20.5506 85.3697 21.4839 84.477 22.4239 83.5915C23.2979 82.7682 24.0603 82.0443 25.0404 81.4157C25.9852 80.8098 26.9778 80.2803 27.9094 79.6538C30.0259 78.2304 31.6992 76.2666 33.3367 74.3409C34.1225 73.4167 34.856 72.4155 35.7814 71.6228C36.6688 70.8625 37.6501 70.224 38.4061 69.3221C39.0985 68.4961 39.6587 67.526 40.4028 66.9393C41.2826 66.2457 42.4025 65.9024 43.3263 65.2715C44.2801 64.6201 45.0452 63.7818 45.8747 62.9909C46.5804 62.3181 47.1462 61.8198 48.1416 61.8847C48.5594 61.9119 49.1597 62.0544 49.678 62.1273C50.4543 62.2365 51.1686 62.2345 51.9452 62.122C53.1653 61.9453 54.1158 61.6319 55.3269 61.7059C56.6239 61.785 57.9047 62.0707 59.2083 62.05C60.6596 62.027 62.1265 61.7357 63.5592 61.5227C64.7245 61.3494 65.9829 61.0463 67.1642 61.1676C67.5062 61.2027 66.785 61.1018 67.3814 61.1979C67.5026 61.2175 67.624 61.2369 67.7454 61.2553C68.0581 61.3027 68.3716 61.351 68.6863 61.3819C69.3443 61.4463 69.9758 61.4003 70.6283 61.2995C71.0988 61.2268 71.5588 61.1007 72.0283 61.0245C72.6486 60.9238 73.276 61.0031 73.8971 61.0715C74.4919 61.1371 75.0826 61.1951 75.6809 61.1398C76.37 61.0761 77.0386 60.9211 77.7204 60.8161C80.1816 60.4372 82.8171 61.3199 85.3504 61.2258C86.6563 61.1774 87.9227 60.8536 89.1921 60.5769C90.3903 60.3157 91.4049 60.1862 92.6204 60.0963C95.0511 59.9166 97.4816 60.0458 99.9134 59.9465C100.928 59.9051 101.943 59.8403 102.959 59.8535C103.419 59.8594 103.876 59.8885 104.334 59.9307C104.673 59.962 104.44 59.9447 104.368 59.9334C104.502 59.9543 104.635 59.9769 104.767 60.0026C105.036 60.0546 105.302 60.1178 105.565 60.1931C106.485 60.4568 107.344 60.891 108.129 61.5004C109.039 62.2065 109.464 62.8644 110.062 63.8099C110.664 64.7635 111.239 65.7266 111.922 66.6275C112.691 67.6425 113.52 68.6067 114.374 69.5519C115.989 71.3387 117.507 72.9766 118.731 75.0054C120.045 77.1836 121.199 79.3997 122.868 81.3449C123.688 82.3008 124.575 83.1976 125.4 84.1493C126.095 84.951 126.716 85.7913 127.42 86.6392C127.72 87.0007 128.021 87.3612 128.317 87.7266C128.386 87.8124 128.454 87.8988 128.524 87.9847C128.856 88.3973 128.426 87.8537 128.616 88.1017C128.781 88.3183 128.943 88.5373 129.099 88.7601C129.361 89.1321 129.608 89.5142 129.831 89.9106C129.946 90.1166 130.055 90.3262 130.156 90.5399C130.189 90.609 130.312 90.9241 130.204 90.642C130.259 90.787 130.313 90.9324 130.361 91.0801C130.425 91.2769 130.481 91.4766 130.526 91.6783C130.549 91.7799 130.567 91.8817 130.588 91.9837C130.685 92.4665 130.579 91.7891 130.599 92.0858C130.616 92.3274 130.627 92.5667 130.619 92.809C130.615 92.9193 130.606 93.0289 130.599 93.1389C130.577 93.4821 130.652 92.9965 130.565 93.3722C130.463 93.8114 130.341 94.2433 130.222 94.6784C130.164 94.8914 130.015 95.0864 130.29 94.6016C130.203 94.7555 130.327 94.4136 130.469 94.3788C130.441 94.3858 130.337 94.519 130.32 94.5361C130.191 94.6613 130.076 94.7994 129.951 94.9288C129.864 95.0194 129.777 95.1072 129.683 95.1914C129.658 95.2137 129.407 95.4263 129.534 95.3237C129.253 95.5509 128.655 95.9307 128.249 96.2214C127.41 96.8206 126.604 97.4956 125.84 98.1867C124.283 99.5956 123.583 101.284 123.339 103.335C123.011 106.083 122.827 108.85 122.63 111.609C122.532 112.971 122.436 114.334 122.329 115.695C122.224 117.02 122.076 118.337 122.128 119.668C122.176 120.935 122.338 122.195 122.379 123.463C122.421 124.776 122.308 126.094 122.195 127.402C122.08 128.736 121.937 130.067 121.811 131.4C121.685 132.732 121.489 134.045 121.789 135.372C121.907 135.896 122.119 136.394 122.253 136.915C122.257 136.93 122.313 137.22 122.277 137.022C122.277 137.025 122.295 137.33 122.295 137.142C122.295 137.301 122.221 137.391 122.277 137.263C122.224 137.385 122.033 137.58 122.22 137.389C122.16 137.45 122.101 137.508 122.037 137.565C122.315 137.318 122.061 137.579 121.993 137.566C121.823 137.533 122.206 137.508 122.016 137.554C121.913 137.58 121.806 137.608 121.704 137.639C121.638 137.658 121.402 137.681 121.724 137.646C121.634 137.656 121.543 137.662 121.452 137.667C121.219 137.68 120.985 137.677 120.752 137.667C119.818 137.625 118.885 137.487 117.953 137.408C116.549 137.29 115.143 137.184 113.738 137.073C112.5 136.975 111.197 137 109.978 136.794C108.891 136.61 108.21 136.092 107.09 135.761C105.008 135.146 102.673 135.114 100.516 135.152C99.3647 135.172 98.2444 135.399 97.1159 135.603C96.1875 135.77 95.1061 135.946 94.2128 135.548C94.4618 135.979 94.7108 136.41 94.9598 136.841C94.7777 135.35 95.1099 133.825 94.1706 132.517C93.6115 131.738 92.8477 131.118 92.1692 130.445C91.4245 129.706 90.6621 128.987 89.8062 128.374C89.0801 127.855 88.2589 127.344 87.3647 127.195C86.3835 127.03 85.289 127.176 84.4259 127.691C83.0331 128.52 82.7354 130.068 81.8574 131.303C82.6852 131.41 83.5129 131.517 84.3407 131.625C83.9859 129.951 83.7318 127.944 82.3229 126.777C80.4295 125.207 77.554 125.673 75.4982 126.635C74.3264 127.184 73.1127 128 72.2638 128.979C71.5677 129.782 71.2642 130.679 70.9798 131.678C70.8376 132.178 70.7418 132.421 70.4811 132.858C70.3405 133.095 69.997 133.4 69.7381 133.548C69.0994 133.915 68.1808 134.046 67.346 134.069C66.3869 134.096 65.4296 134.017 64.474 133.946C63.1805 133.85 61.9262 133.914 60.6457 134.129C58.0532 134.564 55.614 135.445 52.9568 135.473C47.5033 135.531 42.1708 133.896 36.7091 134.016C35.8592 134.035 35.0165 134.122 34.176 134.247C34.0541 134.265 33.9314 134.281 33.8106 134.305C33.5878 134.348 34.2269 134.273 33.9677 134.283C33.8206 134.288 33.672 134.311 33.525 134.321C32.7659 134.371 32.001 134.369 31.2417 134.323C31.0086 134.309 30.7758 134.29 30.5435 134.265C30.4664 134.257 30.3895 134.248 30.3124 134.239C30.7186 134.286 30.2149 134.221 30.1382 134.207C29.7519 134.139 29.3887 134.025 29.0122 133.922C28.7721 133.857 29.0632 133.947 29.1014 133.966C29.0093 133.92 28.917 133.87 28.824 133.828C28.7635 133.8 28.7092 133.739 28.6476 133.718C28.9118 133.807 28.8347 133.902 28.7102 133.753C28.5305 133.537 28.8989 134.068 28.765 133.83C28.6436 133.614 28.873 134.187 28.8046 133.933C28.746 133.716 28.8232 134.118 28.8234 134.12C28.7887 133.745 28.7539 134.387 28.8139 134.133C28.9979 133.356 28.5697 132.53 27.7733 132.313C27.0184 132.107 26.1256 132.565 25.9406 133.346C25.009 137.282 31.0429 137.402 33.525 137.212C34.3901 137.146 35.2377 136.963 36.1045 136.906C37.5036 136.815 38.9057 136.899 40.3014 137.004C43.0274 137.209 45.7234 137.641 48.4398 137.933C51.2059 138.23 53.9692 138.32 56.7085 137.754C58.0073 137.486 59.2801 137.108 60.5784 136.837C61.8327 136.576 63.0638 136.499 64.3422 136.591C66.3037 136.733 68.4088 136.947 70.2835 136.211C71.3625 135.787 72.2801 135.084 72.8636 134.073C73.3676 133.2 73.5119 132.248 73.8687 131.326C73.7681 131.586 73.934 131.204 73.9457 131.183C74.0129 131.062 74.086 130.94 74.1709 130.83C74.2611 130.714 74.621 130.377 74.8167 130.212C75.3276 129.781 75.9012 129.414 76.4936 129.103C77.0836 128.794 77.7362 128.553 78.4002 128.462C78.6894 128.422 78.9894 128.419 79.2813 128.424C79.6702 128.432 79.6272 128.423 79.9075 128.487C79.9876 128.506 80.0677 128.527 80.1463 128.551C80.2212 128.573 80.2952 128.599 80.3681 128.627C80.2393 128.573 80.2176 128.566 80.3031 128.608C80.3799 128.651 80.4564 128.701 80.5345 128.741C80.7685 128.861 80.4404 128.598 80.5885 128.786C80.6485 128.863 80.7323 128.934 80.7988 129.006C80.6488 128.844 80.7617 128.951 80.8314 129.068C80.8763 129.144 80.9211 129.219 80.9622 129.296C80.9941 129.357 81.134 129.713 81.0312 129.427C81.3701 130.37 81.5266 131.363 81.7204 132.343C81.8219 132.855 82.3573 133.251 82.8499 133.309C83.4271 133.377 83.8698 133.121 84.2037 132.665C84.737 131.936 85.0403 131.084 85.5279 130.329C85.7299 130.016 85.42 130.429 85.5758 130.275C85.6478 130.204 85.7149 130.129 85.7948 130.066C85.6003 130.219 85.7828 130.078 85.8233 130.065C86.2356 129.935 85.5463 130.126 85.997 129.988C86.2322 129.915 86.3122 129.9 86.5536 129.896C86.5851 129.896 86.9463 129.929 86.7827 129.9C86.7776 129.899 87.1894 130.022 87.0357 129.959C88.08 130.383 88.9122 131.323 89.6582 132.123C90.0703 132.565 90.4837 133.005 90.9269 133.417C91.1259 133.602 91.3197 133.793 91.5181 133.978C91.8381 134.277 91.4409 133.816 91.6546 134.135C91.7246 134.24 91.784 134.349 91.8423 134.46C91.679 134.148 91.8616 134.615 91.8881 134.738C91.8161 134.404 91.8744 134.73 91.8782 134.89C91.8898 135.376 91.8622 135.861 91.8948 136.347C91.9189 136.706 91.9327 137.087 92.0732 137.419C92.2985 137.95 92.731 138.171 93.239 138.371C93.973 138.659 94.7747 138.78 95.5629 138.777C96.8797 138.772 98.201 138.394 99.4635 138.231C100.514 138.095 101.699 138.155 102.788 138.208C103.994 138.267 104.926 138.329 106.041 138.624C106.651 138.785 106.91 138.92 107.452 139.153C108.076 139.421 108.688 139.659 109.362 139.766C110.841 140.002 112.36 140.026 113.852 140.15C115.371 140.276 116.89 140.396 118.408 140.534C120.416 140.716 122.869 141.24 124.448 139.603C125.529 138.483 125.649 136.969 125.218 135.539C125.077 135.072 124.897 134.626 124.861 134.137C124.807 133.411 124.931 132.674 125.003 131.953C125.29 129.08 125.751 126.147 125.638 123.255C125.585 121.883 125.406 120.517 125.393 119.143C125.378 117.653 125.583 116.159 125.699 114.675C125.935 111.648 126.13 108.618 126.422 105.596C126.488 104.917 126.564 104.239 126.635 103.561C126.709 102.858 126.573 103.804 126.676 103.248C126.696 103.14 126.715 103.033 126.737 102.925C126.799 102.633 126.889 102.355 126.979 102.07C127.004 101.989 127.117 101.8 126.964 102.092C127.014 101.997 127.058 101.899 127.11 101.805C127.2 101.639 127.306 101.485 127.409 101.327C127.633 100.985 127.172 101.567 127.458 101.271C127.516 101.21 127.57 101.144 127.627 101.083C127.793 100.906 127.968 100.738 128.147 100.575C128.498 100.256 128.866 99.9569 129.231 99.6555C129.446 99.4782 129.657 99.2919 129.878 99.1223C129.672 99.2801 129.903 99.1103 129.936 99.0883C130.108 98.9738 130.276 98.8527 130.447 98.7363C131.319 98.1421 132.136 97.522 132.839 96.7329C133.454 96.0428 133.677 94.9723 133.833 94.0875C134.052 92.8354 134.013 91.5647 133.647 90.341C132.974 88.0859 131.435 86.2502 129.956 84.4684C129.623 84.0669 129.29 83.6652 128.965 83.2574C128.772 83.0153 129.196 83.5575 128.879 83.1475C128.75 82.9812 128.622 82.8139 128.492 82.6487C128.239 82.329 127.979 82.0161 127.712 81.7092C126.817 80.6836 125.854 79.7179 124.985 78.6696C123.364 76.7133 122.29 74.1689 120.814 72.0259C119.275 69.792 117.323 67.8974 115.572 65.8355C114.783 64.9065 114.122 63.9721 113.454 62.8882C112.779 61.7949 112.095 60.6882 111.198 59.7565C109.356 57.8427 106.789 56.8203 104.173 56.5804C101.901 56.372 99.5915 56.6803 97.3132 56.6617C94.5063 56.6387 91.6704 56.7397 88.9093 57.2804C87.6168 57.5335 86.3652 57.9337 85.1417 57.9535C83.6715 57.9773 82.2108 57.7112 80.752 57.5702C79.2323 57.4234 77.7793 57.4989 76.2797 57.785C75.6887 57.8977 75.3269 57.9454 74.635 57.8983C73.9054 57.8486 73.1789 57.707 72.4451 57.7379C71.7472 57.7673 71.0644 57.9225 70.3837 58.0655C70.2936 58.0845 69.6538 58.1913 69.9616 58.1555C69.6042 58.1971 69.2554 58.1835 68.8973 58.1716C68.8668 58.1706 68.5145 58.1387 68.7851 58.1695C68.6351 58.1525 68.4858 58.1243 68.3366 58.1014C67.9774 58.0465 67.6173 57.9905 67.2558 57.9528C66.5076 57.875 65.7783 57.9917 65.0367 58.0895C63.5743 58.2824 62.1206 58.5392 60.6568 58.7205C59.1682 58.9049 57.7793 58.772 56.2973 58.6051C54.833 58.4402 53.5016 58.5621 52.0659 58.8756C51.4293 59.0146 50.9684 59.098 50.3033 59.0311C49.7604 58.9765 48.9627 58.7861 48.3359 58.7277C46.7759 58.5827 45.4603 59.1951 44.2811 60.1551C43.817 60.5329 43.3971 60.9596 42.9744 61.3816C42.7845 61.5712 42.5947 61.761 42.3997 61.9455C42.2934 62.0461 42.1863 62.1459 42.0762 62.2425C42.0849 62.2349 41.7018 62.5503 41.8675 62.4254C40.87 63.1776 39.6476 63.5662 38.6432 64.3135C37.566 65.1151 36.8255 66.312 36.0303 67.2226C35.1946 68.1796 34.089 68.832 33.1714 69.701C32.2092 70.6122 31.4141 71.7234 30.5496 72.7257C29.6437 73.7759 28.7116 74.8063 27.7153 75.7733C26.8679 76.5958 25.9171 77.1905 24.8696 77.814C23.728 78.4935 22.5969 79.1809 21.5862 80.0482C20.4889 80.9897 19.4673 82.0277 18.4163 83.0196C16.5677 84.7642 14.1793 86.5165 13.8752 89.222C13.722 90.5844 14.325 91.989 15.3668 92.8814C16.283 93.6664 17.4395 94.1309 18.5652 94.5336C19.4426 94.8474 20.3005 95.0925 21.2342 95.1594C22.1648 95.2261 23.1 95.189 24.0304 95.2596C24.1376 95.2677 24.2444 95.279 24.3514 95.2883C24.0076 95.2586 24.2135 95.2634 24.2926 95.2819C24.3741 95.301 24.4638 95.3243 24.5467 95.3358C24.7105 95.3586 24.7656 95.4904 24.4704 95.2815C24.7899 95.5076 24.2173 95.0076 24.457 95.2726C24.433 95.246 24.2745 94.9398 24.3302 95.1142C24.3459 95.1631 24.3957 95.2457 24.4292 95.2887C24.5876 95.4918 24.331 94.9295 24.3867 95.1956C24.397 95.2447 24.4203 95.2978 24.4342 95.3453C24.4744 95.4822 24.5007 95.6207 24.5295 95.7601C24.5531 95.8745 24.6181 96.3911 24.5729 95.9242C24.5897 96.0984 24.6096 96.2721 24.6214 96.4468C24.8495 99.8321 24.014 102.598 23.7182 105.912C23.5045 108.306 24.0178 110.757 24.3018 113.126C24.472 114.545 24.5868 115.975 24.5605 117.404C24.5337 118.865 24.4391 120.311 24.5007 121.774C24.6242 124.708 24.9898 127.623 25.3395 130.536C25.4512 131.467 26.9199 131.504 26.8385 130.536Z" fill="#8FD4EA"/>
<path d="M26.6055 91.6241C27.7846 90.1844 28.9596 88.7264 30.4341 87.5697C31.1876 86.9786 32.0382 86.5426 32.8262 86.0022C33.6476 85.4387 34.4209 84.809 35.1783 84.1641C36.7016 82.867 38.2132 81.5574 39.6422 80.1574C41.0298 78.798 42.2753 77.3121 43.6404 75.935C44.2726 75.2972 44.9652 74.7389 45.7575 74.3082C46.132 74.1047 46.5218 73.972 46.911 73.8023C47.0329 73.7491 47.154 73.6954 47.2697 73.6295C47.2953 73.615 47.3861 73.5792 47.3976 73.5599C47.3297 73.6735 47.0116 73.6514 46.9127 73.6385C46.6974 73.6104 46.4607 73.3922 46.7065 73.6202C46.8681 73.7701 47.0259 73.9239 47.1759 74.0853C47.4706 74.4027 47.723 74.7482 47.9756 75.0987C48.5827 75.9409 49.217 76.7242 49.9645 77.448C51.4023 78.8402 52.9565 80.1314 54.4731 81.4378C55.1512 82.0219 55.944 82.479 56.525 83.1694C57.1495 83.9114 57.6947 84.7077 58.3771 85.4027C58.6932 85.7247 59.034 86.0141 59.3796 86.3038C59.5088 86.412 59.6381 86.5208 59.7598 86.6375C59.813 86.6886 59.8656 86.7409 59.9158 86.7949C59.932 86.8123 60.1415 87.0818 60.0059 86.8937C60.4461 87.5042 60.7793 88.1862 61.3628 88.6842C61.9939 89.2228 62.4882 89.503 63.0566 90.0858C63.6742 90.7192 64.1017 91.2952 64.6052 92.0004C65.6276 93.4324 66.6123 94.9473 67.9334 96.1313C68.7014 96.8197 69.5502 97.3926 70.5342 97.7269C71.5003 98.0551 72.6067 98.0113 73.6157 98.018C75.7347 98.0319 77.8594 97.9829 79.9784 97.9572C81.0099 97.9448 82.0437 97.9111 83.0752 97.927C84.0892 97.9427 85.1025 98.0121 86.1125 97.8878C87.0474 97.7728 87.9934 97.3924 88.8972 97.3379C89.9476 97.2745 91.0079 97.2974 92.0597 97.2994C94.1876 97.3035 96.3287 97.3246 98.4457 97.0799C99.4351 96.9656 100.41 96.7514 101.405 96.6931C102.419 96.6338 103.435 96.6639 104.449 96.6996C106.502 96.772 108.564 96.6421 110.614 96.7489C111.54 96.7971 112.445 97.1815 113.374 97.2917C114.398 97.4132 115.434 97.4542 116.465 97.4549C118.572 97.4565 120.673 97.2678 122.766 97.0454C123.822 96.9333 124.893 96.8549 125.94 96.6791C125.611 95.904 125.282 95.1289 124.953 94.3538C124.548 94.5562 124.183 94.835 123.872 95.1616C123.426 95.6292 123.404 96.3843 123.872 96.8486C124.378 97.3512 125.056 97.2452 125.57 96.8486C125.693 96.7535 125.817 96.7188 125.94 96.6791C126.543 96.4846 126.954 95.9221 126.857 95.2832C126.768 94.6893 126.246 94.1465 125.6 94.1801C124.562 94.2341 123.521 94.409 122.488 94.5209C121.427 94.6359 120.365 94.7386 119.3 94.8095C118.262 94.8787 117.222 94.9183 116.182 94.9094C115.23 94.9012 114.223 94.9082 113.288 94.7253C112.251 94.5227 111.296 94.2206 110.226 94.1984C109.125 94.1754 108.023 94.2173 106.922 94.2218C104.967 94.2298 103.007 94.0232 101.054 94.1845C100.02 94.27 99.0062 94.4987 97.9734 94.5993C96.8984 94.7041 95.8201 94.739 94.7405 94.7387C93.6869 94.7383 92.6335 94.7106 91.58 94.6916C90.5462 94.673 89.4813 94.6058 88.4517 94.7167C87.4757 94.8217 86.5274 95.1633 85.5826 95.2029C84.5707 95.2453 83.5596 95.1306 82.5483 95.1133C80.4441 95.0773 78.3408 95.0618 76.2369 95.1215C75.1381 95.1527 74.0387 95.188 72.9393 95.1693C72.6829 95.165 72.4264 95.158 72.1702 95.1476C72.1131 95.1453 71.5157 95.0842 71.7218 95.1249C71.2242 95.0266 71.0921 94.9644 70.6548 94.702C69.3179 93.9 68.3375 92.4977 67.436 91.2669C66.3293 89.7561 65.1955 88.2751 63.6497 87.1825C63.5086 87.0828 63.3654 86.986 63.2247 86.8858C63.166 86.8441 63.1067 86.8028 63.0495 86.7591C63.093 86.7924 63.2264 86.9309 63.0782 86.773C62.9857 86.6746 62.8825 86.5872 62.7918 86.4861C62.7686 86.4602 62.6536 86.3107 62.77 86.4637C62.6963 86.3669 62.6301 86.2643 62.5627 86.1631C62.1192 85.498 61.6558 84.9502 61.0267 84.457C60.2491 83.8473 59.5998 83.1307 58.9841 82.3626C58.6993 82.0073 58.4347 81.6288 58.1245 81.2946C57.7551 80.8967 57.3134 80.5728 56.8794 80.2489C56.1356 79.6939 55.4583 79.0638 54.7523 78.4627C53.9666 77.7937 53.1728 77.1338 52.4061 76.4432C51.7137 75.8197 51.0062 75.1817 50.4331 74.445C49.8179 73.6542 49.2734 72.8114 48.5415 72.1175C47.9401 71.5475 47.2482 71.0967 46.4076 71.4573C45.7187 71.7528 45.1032 71.9928 44.3675 72.4313C43.5517 72.9177 42.7959 73.5303 42.1275 74.2018C41.4255 74.907 40.8884 75.7203 40.3037 76.5185C39.0994 78.1625 37.7447 79.6928 36.336 81.166C34.9693 82.5953 33.5842 84.0985 32.0054 85.3006C31.2734 85.858 30.4933 86.3296 29.8019 86.9417C29.0965 87.5661 28.4611 88.2656 27.8475 88.9781C27.2454 89.6773 26.6773 90.4043 26.1075 91.1295C25.8337 91.4779 26.3171 91.9763 26.6055 91.6241Z" fill="#18181B"/>
<path d="M70.423 125.663C70.453 125.264 70.5952 124.841 70.6975 124.434C70.8145 123.968 70.8512 123.498 70.8646 123.019C70.8917 122.053 70.9032 121.084 70.9119 120.117C70.9295 118.175 70.9474 116.233 70.9598 114.291C70.963 113.803 70.9667 113.315 70.9725 112.826C70.978 112.361 71.0111 111.892 70.9921 111.427C70.9743 110.99 70.9079 110.557 70.8524 110.124C70.7961 109.684 70.7674 109.249 70.7734 108.806C70.7864 107.835 70.8423 106.865 70.9016 105.896C70.961 104.926 71.04 103.955 71.0497 102.983C71.0545 102.491 71.0594 101.999 71.0642 101.507C71.0681 101.122 71.0818 100.736 71.0634 100.351C71.031 99.6757 70.9508 99.0021 70.972 98.3255C70.9772 98.1629 70.9891 98.0007 71.0107 97.8394L70.972 98.1256C70.9985 97.9429 71.0381 97.7628 71.1091 97.5917L70.9993 97.8502C71.011 97.8238 71.0231 97.7979 71.036 97.7721L70.3845 98.2697L70.4188 98.265C70.3222 98.2779 70.2256 98.2908 70.1289 98.3037C70.16 98.3017 70.1872 98.3019 70.218 98.3057C70.1213 98.2927 70.0246 98.2798 69.9279 98.2669C69.9445 98.2698 69.9604 98.2747 69.9757 98.2817L69.7148 98.1724L69.7353 98.1838L69.5143 98.0142C69.6113 98.0908 69.7064 98.1655 69.8086 98.2322L69.5932 98.0668C69.6129 98.0835 69.6279 98.0994 69.6438 98.1196L69.484 97.9142C69.5077 97.9498 69.5263 97.9861 69.5431 98.0254C69.6689 98.3195 70.0609 98.4918 70.3618 98.4918C70.7209 98.4918 70.9796 98.3022 71.1804 98.0254C71.4576 97.6433 71.4767 97.1202 71.2482 96.7132C70.9023 96.0972 69.9758 95.9592 69.434 96.375C68.9596 96.7391 68.8692 97.4463 68.8272 98.0019C68.7711 98.7443 68.8793 99.4899 68.9364 100.229C68.9686 100.645 68.9646 101.062 68.9687 101.478C68.9741 102.018 68.9794 102.557 68.9848 103.097C68.99 103.625 69.026 104.153 69.0462 104.681C69.0668 105.218 69.0843 105.755 69.1046 106.292C69.146 107.389 69.1644 108.503 69.3235 109.59C69.3929 110.065 69.5143 110.529 69.611 110.999C69.6331 111.106 69.654 111.213 69.6725 111.321C69.6826 111.38 69.6911 111.439 69.7006 111.497C69.7128 111.573 69.6961 111.456 69.6947 111.453C69.7083 111.486 69.7056 111.545 69.7095 111.582C69.7357 111.837 69.7375 112.091 69.7383 112.347C69.7449 114.484 69.78 116.621 69.7993 118.757C69.8089 119.822 69.803 120.889 69.8493 121.954C69.872 122.476 69.9057 122.999 69.9032 123.522C69.9026 123.645 69.8981 123.767 69.8856 123.89C69.8764 123.98 69.8612 124.07 69.8368 124.198C69.7926 124.431 69.738 124.661 69.6957 124.894C69.6495 125.147 69.6147 125.404 69.6103 125.663C69.6066 125.881 69.7997 126.066 70.0166 126.066C70.2502 126.066 70.4065 125.881 70.423 125.663Z" fill="#18181B"/>
<path d="M74.5681 128.637C74.824 128.564 75.0763 128.479 75.3274 128.391C75.5567 128.311 75.7822 128.222 76.0209 128.175C76.1349 128.152 76.2493 128.133 76.3639 128.114C76.4109 128.108 76.4124 128.107 76.3684 128.113C76.3307 128.118 76.3258 128.118 76.3538 128.116C76.4122 128.133 76.484 128.096 76.5464 128.089C76.4936 128.095 76.4472 128.102 76.528 128.093C76.5573 128.089 76.5868 128.086 76.6162 128.084C76.6668 128.08 76.7146 128.077 76.7655 128.07C77.0132 128.037 76.6603 128.074 76.7956 128.069C76.857 128.066 76.9182 128.062 76.9796 128.061C77.1077 128.058 77.2377 128.06 77.365 128.076L77.1801 128.051C77.3709 128.083 77.562 128.16 77.7397 128.234L77.5301 128.146C77.6594 128.201 77.7814 128.258 77.9188 128.288C77.9897 128.303 78.0601 128.321 78.1299 128.341C78.2663 128.381 78.3995 128.429 78.5303 128.484L78.3025 128.389C78.5376 128.49 78.7625 128.611 78.9835 128.739C79.2133 128.872 79.4457 129.005 79.6574 129.165L79.4428 129.001C79.5945 129.119 79.7312 129.251 79.8506 129.401C79.7933 129.328 79.736 129.254 79.6787 129.18C80.006 129.603 80.2651 130.078 80.555 130.526C80.8763 131.023 81.17 131.534 81.4021 132.078L81.287 131.807C81.4555 132.206 81.5949 132.616 81.7257 133.028C81.8653 133.468 82.2212 133.787 82.6853 133.849C82.8965 133.878 83.0871 133.853 83.2835 133.771C83.5038 133.679 83.7223 133.519 83.8354 133.302C84.065 132.861 84.3271 132.438 84.6311 132.044C84.5702 132.123 84.5092 132.201 84.4483 132.279C84.8135 131.811 85.2366 131.396 85.7073 131.032C85.6276 131.093 85.548 131.154 85.4682 131.215C85.7526 130.998 86.0545 130.781 86.3863 130.641C86.2926 130.68 86.1989 130.719 86.1052 130.759C86.4616 130.613 86.8426 130.529 87.2235 130.476L86.9121 130.518C87.2856 130.468 87.6676 130.448 88.0424 130.497L87.7322 130.456C87.8737 130.476 88.0101 130.508 88.1425 130.562C88.0498 130.523 87.957 130.484 87.8643 130.445C88.402 130.676 88.8813 131.072 89.344 131.423C89.266 131.363 89.188 131.303 89.11 131.243C89.2577 131.357 89.3933 131.48 89.5081 131.627C89.448 131.549 89.3879 131.472 89.3278 131.395C89.5116 131.639 89.6383 131.924 89.7765 132.194C89.929 132.493 90.0786 132.793 90.2245 133.096C90.3713 133.399 90.5142 133.705 90.653 134.013C90.7172 134.155 90.7768 134.3 90.8482 134.439C90.917 134.573 90.993 134.704 91.0545 134.841L90.9402 134.572C90.9855 134.68 91.0191 134.788 91.037 134.904L90.9965 134.605C91.0214 134.818 90.9911 135.028 90.9727 135.24C90.9472 135.535 90.9598 135.853 91.0571 136.133C91.2384 136.656 91.5745 137.204 92.1036 137.438C92.4019 137.571 92.6597 137.647 92.9941 137.65C93.2222 137.652 93.453 137.611 93.6761 137.568C93.9774 137.509 94.271 137.418 94.5754 137.375C94.4762 137.388 94.377 137.401 94.2778 137.414C94.5086 137.384 94.7416 137.388 94.9723 137.419C94.8731 137.405 94.7739 137.392 94.6747 137.379C94.8855 137.41 95.0878 137.467 95.2847 137.548L95.0173 137.436C95.3638 137.581 95.6877 137.775 96.027 137.935C96.3063 138.068 96.5833 138.207 96.8294 138.395L96.6028 138.221C96.7214 138.314 96.8296 138.418 96.9223 138.536C96.864 138.461 96.8056 138.386 96.7472 138.311C96.8163 138.403 96.8737 138.501 96.9194 138.606L96.8066 138.34C96.8535 138.455 96.8846 138.572 96.903 138.694L96.863 138.399C96.8864 138.577 96.8634 138.755 96.8798 138.933C97.5998 138.836 98.3198 138.739 99.0398 138.642C99.0208 138.565 99.0017 138.488 98.9827 138.412C98.8773 137.986 98.4198 137.628 97.9727 137.648C97.7867 137.656 97.6086 137.703 97.444 137.79C97.2356 137.899 97.0068 138.178 96.9627 138.412C96.9482 138.488 96.9336 138.565 96.9191 138.642C96.8638 138.936 96.8739 139.219 97.03 139.484C97.1634 139.711 97.425 139.927 97.6871 139.986C97.9686 140.05 98.2846 140.036 98.5344 139.876C98.7843 139.716 98.9419 139.503 99.0398 139.223C99.1693 138.853 99.1219 138.407 99.0501 138.03C98.9998 137.766 98.8882 137.499 98.7411 137.274C98.4456 136.822 98.0301 136.476 97.5581 136.216C97.3631 136.109 97.1595 136.019 96.9606 135.919C96.7475 135.812 96.5394 135.696 96.324 135.594C95.7425 135.318 95.133 135.141 94.481 135.171C93.9443 135.196 93.4491 135.376 92.9231 135.449L93.2208 135.409C93.1052 135.424 92.9899 135.429 92.874 135.415C92.9733 135.428 93.0727 135.441 93.172 135.455C93.1017 135.444 93.0342 135.427 92.9682 135.401L93.2362 135.513C93.1765 135.487 93.1219 135.455 93.07 135.416L93.2972 135.591C93.2408 135.545 93.1918 135.494 93.1467 135.438L93.3225 135.664C93.2487 135.565 93.1924 135.459 93.1443 135.346L93.2578 135.613C93.2221 135.524 93.1988 135.437 93.1858 135.343C93.1992 135.442 93.2126 135.541 93.226 135.64C93.1974 135.358 93.2643 135.082 93.2701 134.8C93.2795 134.35 93.1423 133.949 92.9414 133.552C92.6756 133.026 92.4506 132.482 92.1996 131.949C92.0754 131.685 91.9483 131.422 91.819 131.161C91.6886 130.897 91.5678 130.622 91.4113 130.373C91.2548 130.123 91.0636 129.883 90.8362 129.693C90.61 129.504 90.3678 129.333 90.1324 129.156C89.6869 128.82 89.2471 128.514 88.7208 128.314C88.4622 128.216 88.174 128.188 87.9017 128.163C87.6832 128.142 87.4626 128.144 87.2437 128.158C86.7151 128.193 86.1684 128.269 85.6638 128.437C85.1523 128.607 84.7037 128.867 84.2757 129.189C83.7625 129.574 83.3015 129.992 82.9035 130.496C82.4941 131.015 82.1359 131.553 81.8421 132.145C82.5454 132.236 83.2486 132.327 83.9519 132.419C83.6892 131.643 83.3898 130.873 82.979 130.162C82.7809 129.819 82.5598 129.49 82.3362 129.163C82.1539 128.897 81.9935 128.616 81.8073 128.352C81.5329 127.964 81.2274 127.66 80.8215 127.404C80.6622 127.303 80.4921 127.223 80.3191 127.149C80.0576 127.037 79.7961 126.924 79.5303 126.822C79.1081 126.66 78.6843 126.565 78.2336 126.519C77.9643 126.491 77.7011 126.552 77.4446 126.63C77.2459 126.691 77.0444 126.749 76.8475 126.815C76.7939 126.834 76.7407 126.853 76.6879 126.874C76.6646 126.883 76.6414 126.892 76.6183 126.901C76.5649 126.923 76.5117 126.946 76.4586 126.968L76.5315 126.936C76.4919 126.929 76.3975 126.994 76.3606 127.012C76.3338 127.026 76.3071 127.039 76.2806 127.052C76.2328 127.077 76.1852 127.102 76.1386 127.128C75.9485 127.237 75.7744 127.369 75.5947 127.493C75.4146 127.617 75.2167 127.722 75.0279 127.833C74.815 127.958 74.6002 128.081 74.3803 128.194C74.1337 128.321 74.3043 128.712 74.5681 128.637Z" fill="#18181B"/>
<path d="M36.1697 129.343C36.0457 128.683 35.9373 128.02 35.8531 127.354C35.7728 126.719 35.7486 126.084 35.7397 125.444C35.7211 124.111 35.7576 122.777 35.8268 121.446C35.8953 120.129 35.9173 118.826 35.6188 117.532C35.5849 117.385 35.5428 117.241 35.5063 117.094C35.4873 117.019 35.4705 116.943 35.4555 116.866C35.448 116.828 35.441 116.789 35.4345 116.751C35.4295 116.722 35.4248 116.693 35.4205 116.664C35.4103 116.596 35.4141 116.625 35.4321 116.753C35.4522 116.728 35.4144 116.591 35.4109 116.552C35.4042 116.474 35.399 116.397 35.3951 116.319C35.3867 116.153 35.3845 115.986 35.3868 115.82C35.3954 115.176 35.4322 114.533 35.4533 113.889C35.478 113.132 35.5149 112.369 35.4992 111.612C35.4828 110.815 35.2592 110.051 35.1471 109.267L35.1843 109.541C35.0983 108.896 35.1247 108.242 35.2094 107.598C35.1969 107.69 35.1845 107.782 35.1721 107.874C35.2951 106.968 35.5369 106.079 35.8913 105.236L35.7854 105.485C36.0511 104.861 36.3797 104.263 36.7969 103.726C36.742 103.797 36.687 103.867 36.632 103.938C36.8953 103.604 37.193 103.296 37.5291 103.033L37.3163 103.197C37.6051 102.975 37.9301 102.81 38.226 102.599C38.5426 102.372 38.8474 102.129 39.2075 101.973L38.9627 102.076C39.1329 102.006 39.3066 101.959 39.4887 101.933L39.218 101.969C39.9595 101.878 40.7474 101.764 41.4928 101.859L41.2293 101.824C41.3277 101.838 41.4221 101.859 41.5146 101.895C41.436 101.862 41.3573 101.829 41.2787 101.796C41.3562 101.831 41.4225 101.881 41.4976 101.918C41.2971 101.82 41.3495 101.799 41.4347 101.875C41.4685 101.905 41.5011 101.937 41.533 101.969C41.5933 102.029 41.6503 102.093 41.7055 102.158C41.7363 102.195 41.7659 102.232 41.796 102.269C41.8701 102.359 41.649 102.075 41.7448 102.203C42.0071 102.553 42.2737 102.895 42.56 103.226C42.6221 103.297 42.6831 103.37 42.7428 103.444C42.7851 103.496 42.8957 103.652 42.7115 103.401C42.7404 103.44 42.7704 103.479 42.7992 103.518C42.908 103.667 43.0102 103.82 43.1054 103.978C43.3223 104.337 43.4994 104.717 43.6638 105.102L43.5639 104.867C44.1318 106.213 44.4967 107.63 44.6951 109.075L44.6595 108.812C44.8132 109.957 44.8553 111.107 44.8552 112.261C44.8552 113.521 44.9419 114.758 45.123 116.006L45.0855 115.729C45.205 116.632 45.0865 117.537 45.0688 118.442C45.0587 118.961 45.1009 119.474 45.2002 119.984C45.2828 120.408 45.4047 120.823 45.468 121.251L45.4289 120.962C45.499 121.485 45.4836 122.019 45.4717 122.545C45.4596 123.079 45.4556 123.614 45.4428 124.148C45.4173 125.211 45.3253 126.279 45.4685 127.338C45.5518 127.954 45.7036 128.557 45.7875 129.173C45.775 129.081 45.7625 128.988 45.75 128.896C45.8571 129.707 45.927 130.531 45.9084 131.349C45.8988 131.776 45.902 132.227 46.0527 132.632C46.1334 132.849 46.2392 133.052 46.339 133.26C46.3766 133.339 46.38 133.439 46.3262 133.224C46.3338 133.254 46.3486 133.284 46.358 133.314C46.3625 133.328 46.4024 133.442 46.3931 133.455L46.3749 133.324C46.3778 133.358 46.3789 133.393 46.3781 133.428H48.1119C48.1062 133.353 48.0975 133.278 48.0948 133.202C48.0791 132.757 47.7115 132.329 47.237 132.35C46.7857 132.37 46.3623 132.725 46.3792 133.202C46.3819 133.277 46.3785 133.353 46.3781 133.428C46.3759 133.878 46.7784 134.31 47.245 134.289C47.7437 134.267 48.0754 133.91 48.1119 133.428C48.1335 133.142 48.073 132.844 47.9702 132.577C47.8879 132.363 47.7958 132.159 47.7617 131.931L47.7946 132.174C47.7534 131.805 47.8158 131.436 47.8521 131.069C47.8918 130.667 47.894 130.26 47.8936 129.856C47.8929 128.98 47.7623 128.121 47.6413 127.256L47.6801 127.543C47.542 126.485 47.604 125.42 47.6343 124.358C47.6497 123.816 47.6481 123.275 47.6607 122.733C47.6734 122.185 47.6944 121.627 47.6338 121.081C47.5598 120.412 47.3558 119.775 47.2587 119.112C47.2717 119.209 47.2847 119.305 47.2977 119.401C47.1965 118.637 47.2553 117.864 47.2648 117.097C47.2695 116.723 47.2626 116.348 47.2187 115.976C47.164 115.513 47.0739 115.056 47.011 114.595L47.0481 114.869C46.9656 114.249 46.9132 113.625 46.8846 113C46.8562 112.38 46.8647 111.759 46.8452 111.138C46.8052 109.863 46.6691 108.584 46.4083 107.335C46.1488 106.091 45.7421 104.884 45.2064 103.731C44.9893 103.264 44.7313 102.82 44.4172 102.411C44.2178 102.151 44.0112 101.901 43.793 101.656C43.756 101.615 43.7196 101.573 43.6844 101.53C43.6662 101.508 43.6491 101.483 43.6297 101.462C43.615 101.446 43.7767 101.654 43.7152 101.571C43.6404 101.471 43.5653 101.371 43.4899 101.272C43.0813 100.732 42.6599 100.228 42.0021 99.9869C41.5932 99.8368 41.104 99.843 40.6719 99.8511C40.2642 99.8587 39.8572 99.8896 39.451 99.9248C39.1652 99.9495 38.8744 99.9707 38.5981 100.051C38.2996 100.138 38.0067 100.273 37.7421 100.436C37.5416 100.559 37.3523 100.699 37.1574 100.831C36.9573 100.966 36.7456 101.077 36.5394 101.202C36.1372 101.445 35.7616 101.751 35.4438 102.097C34.7359 102.867 34.2439 103.764 33.8483 104.723C33.47 105.639 33.2484 106.597 33.1225 107.577C33.0699 107.986 33.04 108.398 33.0469 108.811C33.057 109.42 33.1651 110.02 33.2893 110.614C33.3485 110.897 33.4082 111.181 33.4487 111.467L33.4119 111.195C33.4923 111.812 33.4686 112.441 33.4692 113.062C33.4698 113.664 33.4682 114.267 33.4647 114.869C33.461 115.514 33.513 116.156 33.6418 116.789C33.7608 117.373 34.0252 117.907 34.1756 118.481C34.2487 118.76 34.3059 119.043 34.3504 119.328C34.3548 119.356 34.3589 119.385 34.3632 119.413C34.3811 119.529 34.3415 119.4 34.3597 119.383C34.3458 119.396 34.3822 119.567 34.384 119.583C34.4001 119.726 34.4136 119.869 34.4252 120.013C34.4726 120.6 34.4874 121.188 34.5084 121.777C34.5546 123.066 34.6426 124.237 34.8238 125.477C34.92 126.136 35.0403 126.791 35.1413 127.449C35.2477 128.143 35.3773 128.833 35.5254 129.519C35.5632 129.695 35.7696 129.797 35.9363 129.751C36.1225 129.7 36.2029 129.52 36.1697 129.343Z" fill="#18181B"/>
<path d="M57.4057 102.419C57.0026 102.163 56.5623 102.012 56.087 101.968C55.639 101.926 55.1522 102.008 54.7424 102.188C54.3778 102.348 54.0377 102.553 53.7036 102.768C53.328 103.01 52.9458 103.245 52.6014 103.53C52.2142 103.85 51.893 104.224 51.5863 104.619C51.6299 104.563 51.6734 104.507 51.717 104.451C51.5183 104.675 51.3599 104.946 51.2119 105.206C51.0925 105.415 50.9827 105.63 50.8831 105.849C50.6625 106.334 50.4808 106.827 50.3522 107.344C50.0752 108.459 50.0256 109.65 50.3773 110.756C50.7295 111.862 51.4183 112.843 52.2358 113.661C53.0623 114.489 54.0689 115.183 55.1959 115.534C55.713 115.695 56.2664 115.752 56.8063 115.774C57.3323 115.795 57.8449 115.746 58.3654 115.672C59.3237 115.536 60.2525 115.224 61.1155 114.791C61.5093 114.593 61.8864 114.362 62.2389 114.099C62.647 113.794 63.0334 113.473 63.3732 113.093C64.0054 112.386 64.517 111.569 64.7966 110.661C64.9089 110.296 64.9878 109.921 65.0424 109.543C65.1119 109.062 65.1602 108.583 65.1539 108.097C65.1421 107.202 64.9614 106.185 64.2482 105.564C64.0298 105.374 63.7848 105.22 63.5544 105.046L63.7238 105.176C63.5992 105.08 63.4858 104.974 63.3875 104.851L63.5176 105.019C63.4282 104.902 63.3589 104.778 63.3009 104.643L63.3843 104.84C63.2403 104.496 63.1482 104.117 62.928 103.81C62.7351 103.541 62.5242 103.277 62.2864 103.045C62.0464 102.811 61.7704 102.584 61.4629 102.444C61.2863 102.363 61.1102 102.288 60.9178 102.257C60.6404 102.214 60.4198 102.215 60.1412 102.272C59.9535 102.31 59.7606 102.474 59.6664 102.634C59.5667 102.803 59.5245 103.053 59.5863 103.242C59.6485 103.433 59.7676 103.618 59.9514 103.714C60.1477 103.817 60.3453 103.838 60.5637 103.794C60.5892 103.789 60.6145 103.785 60.6403 103.781C60.5698 103.791 60.4993 103.8 60.4288 103.809C60.5132 103.8 60.5964 103.801 60.6807 103.811C60.61 103.802 60.5393 103.792 60.4686 103.783C60.5785 103.799 60.6833 103.83 60.7856 103.873L60.5942 103.793C60.742 103.858 60.8773 103.943 61.005 104.041L60.8418 103.916C61.0854 104.107 61.2947 104.336 61.484 104.58L61.3565 104.416C61.474 104.568 61.5828 104.722 61.6605 104.899L61.5776 104.704C61.7378 105.083 61.8224 105.503 62.0707 105.84C62.2077 106.026 62.3489 106.199 62.5292 106.344C62.7026 106.483 62.8848 106.61 63.0617 106.745L62.8914 106.614C63.0221 106.715 63.1465 106.825 63.2486 106.955L63.1162 106.785C63.1986 106.893 63.2638 107.011 63.3172 107.135L63.2315 106.934C63.3256 107.159 63.3801 107.397 63.4136 107.638C63.4034 107.563 63.3931 107.487 63.3829 107.412C63.4485 107.905 63.4272 108.402 63.3622 108.894L63.3937 108.661C63.3101 109.278 63.1652 109.898 62.9214 110.473C62.9523 110.4 62.9832 110.327 63.0141 110.254C62.8339 110.674 62.5847 111.066 62.3047 111.426L62.4529 111.236C62.1016 111.684 61.6886 112.079 61.2372 112.427L61.4354 112.275C60.9223 112.668 60.3578 112.988 59.7617 113.239L60.0005 113.138C59.333 113.416 58.6305 113.604 57.9133 113.7L58.1851 113.664C57.4751 113.757 56.7418 113.78 56.0308 113.686L56.3007 113.722C55.9315 113.67 55.5739 113.564 55.2303 113.421L55.4703 113.522C54.9798 113.314 54.5242 113.036 54.1017 112.714C54.1685 112.765 54.2352 112.817 54.302 112.868C53.7656 112.456 53.2827 111.976 52.8665 111.444C52.9171 111.509 52.9677 111.574 53.0183 111.639C52.709 111.241 52.4402 110.814 52.2418 110.35C52.2739 110.426 52.306 110.502 52.3381 110.577C52.1772 110.194 52.0672 109.794 52.011 109.383C52.0222 109.466 52.0335 109.549 52.0447 109.633C51.982 109.152 51.9927 108.666 52.0544 108.186L52.0211 108.431C52.04 108.299 52.0556 108.166 52.0731 108.033C52.0621 108.115 52.0511 108.196 52.04 108.278C52.1329 107.597 52.3061 106.934 52.575 106.301L52.4873 106.507C52.6217 106.193 52.7746 105.888 52.9489 105.594C53.1204 105.305 53.2879 105.018 53.4936 104.751L53.3727 104.906C53.5462 104.683 53.7435 104.481 53.9653 104.306C54.2201 104.104 54.4723 103.898 54.7302 103.7L54.5926 103.806C54.7365 103.696 54.8825 103.588 55.0333 103.488C55.2128 103.368 55.4153 103.274 55.5788 103.134L55.4524 103.231C55.5884 103.144 55.7291 103.071 55.8747 103.001C55.7089 103.081 55.8356 103.017 55.8804 103.001C55.9182 102.987 55.9563 102.974 55.9947 102.962C56.0761 102.937 56.1585 102.921 56.2412 102.901C56.2662 102.897 56.2587 102.897 56.2187 102.904C56.1623 102.912 56.1713 102.911 56.2455 102.901C56.4451 102.874 56.1604 102.907 56.2664 102.896C56.3085 102.892 56.3506 102.888 56.3928 102.886C56.4792 102.882 56.5658 102.883 56.652 102.889C56.6961 102.892 56.7415 102.894 56.785 102.902C56.7531 102.896 56.7322 102.894 56.7764 102.902C56.8027 102.907 56.8289 102.911 56.8551 102.916C56.9589 102.936 57.0611 102.962 57.1622 102.993C57.3133 103.038 57.4757 102.95 57.535 102.811C57.5973 102.664 57.5397 102.504 57.4057 102.419Z" fill="#18181B"/>
<path d="M57.5189 103.262C57.4825 103.463 57.4329 103.669 57.4163 103.873C57.4024 104.043 57.4054 104.217 57.401 104.388C57.3922 104.737 57.3834 105.087 57.373 105.436C57.3625 105.789 57.3395 106.142 57.337 106.495C57.3347 106.829 57.3832 107.168 57.4637 107.491C57.5426 107.808 57.6342 108.121 57.6807 108.444L57.6582 108.278C57.7005 108.592 57.6884 108.909 57.6667 109.224C57.6409 109.598 57.5993 109.971 57.5643 110.344C57.4914 111.122 57.4305 111.924 57.6049 112.694C57.653 112.906 57.7315 113.113 57.8288 113.308C57.864 113.378 57.9047 113.446 57.9508 113.51C58.0685 113.673 58.1766 113.803 58.3829 113.863C58.4608 113.885 58.5454 113.892 58.6271 113.892C58.9436 113.895 59.1996 113.627 59.205 113.318C59.206 113.265 59.2044 113.226 59.1967 113.169C59.1828 113.066 59.1823 113.014 59.1171 112.914C59.081 112.858 59.0345 112.807 58.993 112.756L59.0946 112.886C59.0155 112.785 58.9527 112.673 58.9015 112.555L58.9669 112.709C58.8768 112.495 58.8264 112.269 58.7954 112.04L58.8184 112.21C58.7277 111.511 58.7975 110.798 58.8597 110.099C58.9207 109.413 58.9944 108.733 58.8815 108.049C58.8003 107.557 58.6147 107.088 58.5434 106.594L58.5651 106.755C58.5286 106.482 58.5335 106.207 58.5267 105.932C58.5196 105.644 58.5109 105.356 58.5016 105.068C58.4924 104.786 58.4826 104.504 58.473 104.222C58.4668 104.04 58.4633 103.862 58.4316 103.682C58.4069 103.542 58.3802 103.402 58.3548 103.262C58.3227 103.085 58.1134 102.938 57.9369 102.946C57.7581 102.954 57.5532 103.072 57.5189 103.262Z" fill="#18181B"/>
<path d="M51.7241 108.617C53.0772 108.665 54.4178 108.854 55.762 109.002C57.1095 109.15 58.468 109.17 59.8173 109.036C60.6043 108.958 61.3871 108.844 62.1707 108.74L61.9981 108.763C62.5228 108.693 63.0482 108.627 63.5755 108.58C63.8385 108.556 64.1019 108.538 64.3656 108.525C64.6363 108.513 64.9152 108.49 65.1845 108.526C65.362 108.549 65.5506 108.438 65.6761 108.324C65.8377 108.176 65.8955 107.952 65.8673 107.743C65.8419 107.556 65.7565 107.409 65.6057 107.293C65.5386 107.232 65.4598 107.191 65.3693 107.169C65.2461 107.136 65.1228 107.136 64.9996 107.169C64.965 107.174 64.9304 107.179 64.8959 107.183L65.0769 107.159C64.9185 107.177 64.755 107.171 64.5957 107.179C64.4366 107.187 64.2776 107.198 64.1188 107.21C63.8034 107.235 63.4888 107.269 63.1749 107.308C62.5052 107.391 61.8385 107.494 61.1715 107.596C60.8153 107.651 60.4588 107.704 60.1015 107.752L60.2699 107.729C59.722 107.802 59.1722 107.862 58.6201 107.892C58.0538 107.922 57.486 107.918 56.9194 107.897C55.8228 107.858 54.7275 107.788 53.6309 107.749C52.9955 107.726 52.3596 107.717 51.7241 107.739C51.493 107.746 51.2707 107.935 51.2816 108.178C51.2927 108.423 51.476 108.609 51.7241 108.617Z" fill="#18181B"/>
<path d="M109.017 103.768C108.004 103.787 106.991 103.854 105.978 103.866C104.965 103.879 103.952 103.879 102.94 103.83C101.907 103.779 100.874 103.692 99.8397 103.671C98.8686 103.651 97.8965 103.556 96.9252 103.572C96.3432 103.582 95.7483 103.635 95.191 103.809C94.6951 103.963 94.2182 104.186 93.6997 104.258L93.9239 104.228C93.4965 104.279 93.0688 104.237 92.6402 104.233C92.1605 104.228 91.6825 104.285 91.2096 104.361C90.8105 104.426 90.4164 104.517 90.0247 104.616C89.6552 104.709 89.2829 104.838 88.9046 104.889L89.1423 104.857C88.6066 104.92 88.0677 104.825 87.5318 104.81C86.8042 104.791 86.1108 104.941 85.5495 105.422C84.6518 106.192 84.5901 107.529 84.6102 108.617C84.6196 109.129 84.6674 109.649 84.6056 110.16L84.6399 109.907C84.5844 110.309 84.4325 110.686 84.3332 111.078C84.2507 111.404 84.2222 111.74 84.1919 112.074C84.144 112.602 84.0971 113.143 84.1609 113.671C84.2119 114.094 84.3031 114.475 84.6049 114.798C84.8345 115.044 85.1557 115.205 85.4769 115.294C86.0417 115.452 86.6584 115.432 87.238 115.391C87.7776 115.354 88.332 115.254 88.8724 115.321C88.7856 115.309 88.6989 115.298 88.6121 115.286C89.0559 115.348 89.4811 115.489 89.9186 115.581C90.4502 115.692 90.9884 115.716 91.5297 115.705C92.0035 115.696 92.4766 115.671 92.9507 115.675C93.4329 115.68 93.9149 115.699 94.3963 115.728C95.3508 115.784 96.3027 115.875 97.2564 115.942C98.2117 116.01 99.166 116.04 100.124 116.034C100.632 116.03 101.142 116.017 101.648 115.965C101.97 115.933 102.291 115.889 102.609 115.832C102.875 115.784 103.136 115.712 103.404 115.675L103.136 115.711C103.887 115.616 104.639 115.736 105.392 115.718C106.209 115.699 106.97 115.43 107.772 115.322L107.505 115.357C108.014 115.296 108.53 115.326 109.04 115.341C109.606 115.358 110.16 115.35 110.717 115.227C111.529 115.046 112.271 114.644 113.101 114.533L112.837 114.568C113.313 114.507 113.805 114.504 114.272 114.387C114.818 114.251 115.348 113.911 115.599 113.396C115.922 112.734 115.877 111.998 115.872 111.281C115.868 110.541 115.848 109.801 115.835 109.061C115.829 108.686 115.829 108.311 115.804 107.936C115.779 107.567 115.748 107.195 115.793 106.826C115.782 106.907 115.771 106.989 115.76 107.071C115.83 106.601 116.077 106.195 116.09 105.711C116.109 105.056 115.694 104.496 115.171 104.143C114.423 103.638 113.425 103.768 112.604 103.984C112.254 104.076 111.906 104.203 111.548 104.262C111.346 104.295 111.129 104.49 111.03 104.658C110.921 104.843 110.875 105.115 110.942 105.322C111.01 105.53 111.14 105.731 111.341 105.836C111.559 105.951 111.766 105.963 112.009 105.923C112.028 105.92 112.046 105.917 112.065 105.913C111.988 105.924 111.911 105.934 111.835 105.944C112.445 105.864 113.03 105.665 113.64 105.579L113.402 105.611C113.633 105.58 113.866 105.569 114.098 105.597L113.858 105.565C113.985 105.583 114.108 105.613 114.228 105.66L114.011 105.569C114.07 105.594 114.126 105.621 114.181 105.653C114.206 105.668 114.229 105.687 114.254 105.701C114.049 105.588 114.11 105.584 114.182 105.648C114.228 105.69 114.266 105.739 114.311 105.782C114.139 105.616 114.214 105.65 114.266 105.734C114.29 105.773 114.31 105.814 114.328 105.855L114.236 105.638C114.256 105.69 114.271 105.742 114.281 105.797L114.248 105.555C114.259 105.633 114.258 105.709 114.249 105.788L114.282 105.546C114.247 105.768 114.153 105.973 114.078 106.183C113.97 106.485 113.924 106.804 113.91 107.124C113.898 107.403 113.917 107.683 113.93 107.963C113.944 108.251 113.941 108.539 113.94 108.827C113.937 109.451 113.942 110.074 113.94 110.697C113.938 111.009 113.936 111.32 113.93 111.632C113.924 111.911 113.929 112.194 113.892 112.471C113.904 112.385 113.916 112.299 113.927 112.213C113.908 112.341 113.877 112.466 113.827 112.587L113.926 112.353C113.891 112.434 113.847 112.509 113.793 112.579C113.844 112.513 113.896 112.447 113.947 112.381C113.901 112.436 113.85 112.485 113.794 112.53L113.993 112.376C113.921 112.429 113.844 112.472 113.762 112.507L113.998 112.408C113.827 112.476 113.646 112.511 113.463 112.536C113.551 112.524 113.639 112.513 113.727 112.501C113.126 112.58 112.519 112.594 111.931 112.758C111.239 112.951 110.587 113.269 109.87 113.37C109.959 113.358 110.047 113.346 110.136 113.335C109.414 113.425 108.676 113.316 107.951 113.334C107.152 113.355 106.407 113.607 105.624 113.719C105.713 113.707 105.802 113.695 105.891 113.683C105.217 113.771 104.54 113.678 103.865 113.67C103.465 113.665 103.066 113.699 102.673 113.772C102.338 113.835 102.009 113.912 101.671 113.958C101.761 113.946 101.85 113.934 101.94 113.922C101.226 114.014 100.508 114.032 99.7898 114.035C99.0199 114.038 98.2521 114.017 97.4836 113.97C95.9827 113.877 94.4852 113.718 92.9799 113.71C92.1386 113.705 91.281 113.821 90.4435 113.709L90.7049 113.744C90.1737 113.666 89.6648 113.485 89.1327 113.41C88.764 113.358 88.4293 113.352 88.0604 113.382C87.3871 113.439 86.7001 113.538 86.025 113.455L86.2835 113.489C86.1237 113.468 85.9662 113.435 85.8172 113.372L86.0492 113.47C85.9827 113.44 85.9203 113.405 85.8622 113.361C85.9277 113.411 85.9932 113.462 86.0586 113.512C86.0176 113.478 85.9816 113.443 85.949 113.401L86.1007 113.596C86.076 113.562 86.0562 113.527 86.0394 113.488C86.0719 113.565 86.1045 113.642 86.1371 113.718C86.0987 113.621 86.0789 113.519 86.0641 113.415L86.0988 113.671C86.0138 113.015 86.0813 112.318 86.1604 111.663L86.126 111.917C86.192 111.456 86.3841 111.026 86.4675 110.569C86.5376 110.185 86.5572 109.805 86.5481 109.417C86.5318 108.728 86.4603 108.036 86.549 107.349C86.5378 107.432 86.5266 107.515 86.5154 107.597C86.5486 107.358 86.602 107.123 86.6933 106.899L86.5993 107.12C86.6577 106.983 86.7291 106.855 86.8182 106.736L86.6731 106.922C86.7456 106.83 86.826 106.746 86.9174 106.672L86.7303 106.815C86.8223 106.745 86.9203 106.689 87.0264 106.642L86.8065 106.735C86.9522 106.676 87.1027 106.639 87.2582 106.616L87.0147 106.648C87.3791 106.6 87.747 106.622 88.1127 106.642C88.5412 106.665 88.9543 106.668 89.3798 106.601C89.8103 106.534 90.232 106.375 90.6524 106.262C91.1145 106.138 91.5807 106.031 92.055 105.965L91.8249 105.996C92.3848 105.922 92.9371 105.956 93.4989 105.939C94.1077 105.921 94.6496 105.761 95.2116 105.547C95.4567 105.453 95.7031 105.361 95.9583 105.297C96.079 105.267 96.2018 105.245 96.3244 105.224C96.3626 105.217 96.559 105.189 96.4306 105.206C96.3042 105.223 96.4264 105.207 96.4581 105.204C96.4944 105.2 96.5308 105.196 96.5673 105.192C97.1128 105.138 97.6621 105.14 98.2097 105.146C98.7734 105.153 99.3357 105.153 99.8993 105.142C100.477 105.13 101.053 105.091 101.629 105.058C102.802 104.991 103.969 104.911 105.135 104.775C106.428 104.623 107.72 104.472 109.017 104.36C109.177 104.346 109.315 104.234 109.315 104.064C109.315 103.906 109.179 103.765 109.017 103.768Z" fill="#18181B"/>
<path d="M100.192 104.404C100.188 104.471 100.182 104.536 100.173 104.602L100.194 104.45C100.169 104.615 100.115 104.769 100.077 104.93C100.041 105.086 99.9989 105.239 99.9513 105.391C99.8529 105.706 99.7448 106.019 99.6916 106.345C99.6269 106.742 99.5875 107.143 99.5696 107.545C99.5535 107.91 99.5675 108.276 99.5808 108.641C99.6074 109.37 99.6418 110.098 99.6084 110.827C99.5755 111.546 99.4941 112.261 99.4162 112.976C99.3722 113.38 99.3299 113.784 99.2989 114.189C99.2834 114.393 99.2706 114.597 99.2618 114.802C99.2571 114.908 99.2499 115.016 99.2511 115.122C99.253 115.291 99.3004 115.432 99.3738 115.584C99.3965 115.631 99.4198 115.677 99.4432 115.724C99.6695 116.175 100.418 116.174 100.644 115.724C100.672 115.668 100.702 115.612 100.73 115.556C100.798 115.416 100.833 115.278 100.84 115.122C100.842 115.075 100.841 115.027 100.842 114.979C100.845 114.832 100.85 114.685 100.857 114.538C100.871 114.238 100.892 113.938 100.918 113.639C100.967 113.061 101.03 112.483 101.079 111.905C101.129 111.305 101.161 110.704 101.152 110.102C101.143 109.515 101.101 108.93 101.077 108.344C101.05 107.691 101.006 107.022 101.093 106.372L101.068 106.556C101.117 106.215 101.214 105.885 101.285 105.549C101.328 105.342 101.369 105.129 101.358 104.918C101.347 104.698 101.316 104.474 101.256 104.261C101.184 104.002 100.926 103.841 100.662 103.876C100.387 103.913 100.207 104.134 100.192 104.404Z" fill="#18181B"/>
<path d="M130.964 66.2087C131.183 65.9378 131.4 65.6662 131.618 65.3945C131.838 65.1194 132.091 64.8669 132.33 64.6075C132.804 64.0928 133.26 63.5632 133.727 63.0425C134.198 62.5181 134.678 62.002 135.174 61.5011C135.671 60.9993 136.19 60.5196 136.691 60.0218C136.976 59.7377 137.257 59.4485 137.528 59.1498C137.791 58.859 138.018 58.5425 138.257 58.2324L138.08 58.4591C138.202 58.3035 138.308 58.1423 138.427 57.9864C138.369 58.0605 138.312 58.1347 138.254 58.2089C138.324 58.1202 138.4 58.0385 138.489 57.9688L138.27 58.1367C138.327 58.0944 138.387 58.0586 138.452 58.0298L138.198 58.1364C138.228 58.1242 138.258 58.1136 138.289 58.1043C138.548 58.0263 138.783 57.8558 138.92 57.622C139.053 57.3971 139.109 57.0656 139.027 56.8134C138.944 56.5595 138.786 56.3145 138.541 56.1862L138.289 56.0804C138.102 56.0305 137.915 56.0305 137.727 56.0804C137.66 56.0898 137.596 56.1067 137.532 56.1306C137.393 56.183 137.246 56.2384 137.119 56.3188C136.928 56.4391 136.746 56.5863 136.592 56.7507C136.332 57.0272 136.163 57.3607 135.932 57.6576L136.105 57.4351C135.398 58.3415 134.593 59.1605 133.834 60.0227C133.041 60.9237 132.299 61.8667 131.569 62.8186C131.182 63.3244 130.828 63.8556 130.463 64.378L130.585 64.2219C130.346 64.5209 130.106 64.8198 129.866 65.1178C129.733 65.2833 129.639 65.4426 129.639 65.6633C129.639 65.8525 129.723 66.0784 129.866 66.2087C130.014 66.3436 130.208 66.4438 130.415 66.4346C130.608 66.4261 130.838 66.365 130.964 66.2087Z" fill="#18181B"/>
<path d="M137.484 72.3443C137.599 72.2177 137.724 72.1029 137.859 71.9978L137.707 72.1141C138.2 71.737 138.787 71.5298 139.332 71.2441C140.016 70.8861 140.629 70.3941 141.234 69.9217L141.032 70.077C141.495 69.7242 141.931 69.3377 142.392 68.9827L142.18 69.1458C142.932 68.5686 143.734 68.0233 144.611 67.652C144.52 67.6902 144.429 67.7284 144.338 67.7666C144.691 67.619 145.062 67.5072 145.442 67.4532L145.132 67.4946C145.219 67.4831 145.305 67.4786 145.393 67.4765C145.612 67.4712 145.847 67.4093 146.029 67.2826C146.057 67.2627 146.087 67.2441 146.117 67.2267C146.394 67.0661 146.562 66.797 146.604 66.4863C146.634 66.3516 146.628 66.2169 146.586 66.0821C146.537 65.9104 146.45 65.7614 146.323 65.6349C146.301 65.6078 146.277 65.5814 146.253 65.5562C146.239 65.5423 146.225 65.5296 146.21 65.5167L146.093 65.4269C146.021 65.3558 145.936 65.3066 145.838 65.2793C145.676 65.2114 145.565 65.1905 145.373 65.179C145.272 65.1729 145.171 65.1757 145.07 65.1855C144.742 65.2172 144.448 65.2707 144.144 65.3892C143.588 65.606 143.07 65.877 142.576 66.2097C141.672 66.8185 140.857 67.5368 140.067 68.283C139.515 68.8041 138.981 69.3338 138.378 69.7985L138.557 69.6609C138.218 69.9197 137.851 70.139 137.504 70.3872C137.292 70.5387 137.08 70.6935 136.886 70.8662C136.682 71.0474 136.51 71.255 136.35 71.4748C136.25 71.6111 136.226 71.8716 136.277 72.0277C136.326 72.179 136.408 72.3028 136.536 72.4004C136.806 72.6079 137.243 72.6116 137.484 72.3443Z" fill="#18181B"/>
<path d="M144.391 78.8825C144.855 78.6617 145.32 78.4409 145.785 78.2201C145.907 78.1547 146.005 78.0653 146.079 77.9521C146.171 77.8516 146.234 77.7336 146.266 77.5983C146.31 77.46 146.316 77.3217 146.285 77.1834C146.279 77.0449 146.237 76.916 146.161 76.7966C146.016 76.5744 145.802 76.3788 145.535 76.3184L145.256 76.2812C145.067 76.2818 144.891 76.3292 144.727 76.4233C144.272 76.6596 143.816 76.8959 143.361 77.1322C143.242 77.1959 143.146 77.2829 143.074 77.3932C142.984 77.4911 142.923 77.606 142.892 77.7379C142.849 77.8726 142.843 78.0073 142.873 78.142C142.88 78.2769 142.92 78.4026 142.995 78.5189C143.135 78.7353 143.344 78.9258 143.604 78.9846C143.695 78.9967 143.785 79.0088 143.876 79.0209C144.06 79.0203 144.231 78.9742 144.391 78.8825Z" fill="#18181B"/>
<path d="M16.0469 32.6234C19.5122 29.1489 22.6846 25.2092 26.9683 22.676C28.7173 21.6417 30.5947 20.9414 32.589 20.5511C33.5502 20.3629 34.4803 20.2434 35.4707 20.2337C36.4127 20.2245 37.2233 20.2945 38.1081 20.634C38.2293 20.6805 38.1596 20.6543 38.1332 20.6429C38.1915 20.668 38.249 20.6949 38.306 20.7228C38.3903 20.7641 38.4731 20.8084 38.5541 20.8556C38.6341 20.9022 38.7124 20.9516 38.7884 21.0042C38.779 20.9977 38.9392 21.1167 38.8701 21.0625C38.8299 21.0309 38.972 21.1506 38.9907 21.1676C39.058 21.2287 39.1225 21.2928 39.184 21.3597C39.2184 21.397 39.2515 21.4352 39.2841 21.474C39.2068 21.3819 39.3046 21.5006 39.3136 21.5132C39.4815 21.7501 39.6364 22.0009 39.7477 22.2693C40.1806 23.313 40.096 24.4897 39.8302 25.5646C39.5442 26.7211 39.0916 27.7948 38.4728 28.8103C38.1405 29.3556 37.7637 29.8672 37.3147 30.3236C37.1292 30.5121 36.9534 30.6885 36.7388 30.8106C36.6354 30.8695 36.8933 30.7736 36.741 30.8065C36.8266 30.788 36.9185 30.7869 37.0038 30.8101C37.21 30.8661 37.3472 31.0075 37.4151 31.1962C37.3728 31.0785 37.4016 31.3891 37.4256 31.2435C37.4365 31.1771 37.4361 31.0807 37.4333 31.0147C37.4285 30.9007 37.3922 31.2147 37.4325 31.028C37.4411 30.9885 37.4474 30.9483 37.4557 30.9086C37.4994 30.6992 37.5585 30.4931 37.6256 30.2899C37.823 29.692 38.0167 29.2349 38.2942 28.6815C38.8778 27.5176 39.5896 26.4868 40.4004 25.5526C40.816 25.0737 41.2608 24.6197 41.7323 24.1948C42.246 23.7319 42.6412 23.4388 43.1616 23.0485C44.3104 22.1867 45.4686 21.3356 46.6649 20.5395C47.8291 19.7649 49.0302 19.0426 50.2831 18.418C50.863 18.1289 51.4557 17.8711 52.0513 17.6162C52.1572 17.5709 52.2629 17.5255 52.3689 17.4803C52.4306 17.454 52.6684 17.3553 52.4921 17.4279C52.7625 17.3165 53.0338 17.2073 53.3085 17.1065C53.8011 16.9256 54.3043 16.7663 54.8199 16.6643C54.8992 16.6486 54.9789 16.6359 55.0585 16.6217C55.1001 16.6142 55.2371 16.6068 55.0503 16.6219C55.179 16.6115 55.3063 16.5973 55.4356 16.5938C55.5478 16.5906 55.6588 16.5978 55.7709 16.5996C55.8286 16.6005 55.9951 16.6302 55.7778 16.5937C55.8475 16.6055 55.9167 16.6176 55.9855 16.634C56.0477 16.6489 56.3701 16.7783 56.1557 16.6743C56.2371 16.7138 56.3409 16.8 56.4242 16.8209C56.5267 16.8465 56.2899 16.6885 56.4311 16.8233C56.4866 16.8763 56.5454 16.9252 56.5998 16.9794C56.5825 16.9622 56.8134 17.2197 56.7244 17.1054C56.7795 17.1761 56.8238 17.2561 56.8668 17.3342C56.9555 17.4956 56.8819 17.3807 56.8721 17.3459C56.8723 17.3467 56.9353 17.5927 56.9075 17.4505C56.8808 17.3141 56.9071 17.5461 56.9078 17.5528C56.9216 17.7033 56.9079 17.5825 56.9176 17.5343C56.905 17.5969 56.7914 17.9114 56.8671 17.7508C56.8041 17.8845 56.7279 18.0112 56.6439 18.1327C56.6242 18.1612 56.5143 18.3025 56.6027 18.1931C56.566 18.2386 56.5278 18.2831 56.4893 18.3272C56.3901 18.4407 56.2858 18.5497 56.1791 18.6563C55.9595 18.8755 55.7283 19.0827 55.4925 19.2844C54.7523 19.9176 55.7281 21.1899 56.5436 20.6376C57.7589 19.8146 58.5728 18.6063 59.7 17.6883C60.1653 17.3093 60.7774 16.8993 61.3484 16.5279C61.9357 16.1459 62.5311 15.7757 63.1087 15.3793C65.5866 13.6789 68.1993 12.1982 71.0146 11.2748C72.6009 10.7546 74.2662 10.3806 75.8837 10.2539C76.3261 10.2193 76.7053 9.90358 76.7053 9.43772C76.7053 9.00747 76.3292 8.60602 75.8837 8.62153C72.672 8.73326 69.5875 9.69641 66.7296 11.1231C65.3606 11.8065 64.0452 12.5941 62.7847 13.4588C61.5891 14.279 60.3408 15.0342 59.1773 15.899C58.4901 16.4097 57.8641 16.9588 57.2898 17.5928C56.7805 18.155 56.2492 18.7521 55.668 19.1497C56.0184 19.6008 56.3687 20.0519 56.7191 20.5029C57.7431 19.6185 58.9597 18.5161 58.65 17.0194C58.3535 15.5869 56.8931 14.7506 55.5111 14.7659C54.2935 14.7794 53.1137 15.2135 52.0056 15.6754C50.7153 16.2135 49.4411 16.7785 48.2207 17.4617C46.8746 18.2153 45.5891 19.0708 44.3359 19.9674C43.0853 20.8623 41.801 21.7592 40.6447 22.773C38.5051 24.6491 36.8439 27.1579 36.0366 29.8842C35.9051 30.3285 35.7816 30.8231 35.8224 31.2882C35.8818 31.9666 36.4443 32.4888 37.1492 32.2775C37.4687 32.1818 37.7279 31.9429 37.9705 31.7271C38.2512 31.4774 38.5086 31.2023 38.7465 30.9122C39.2098 30.3471 39.6159 29.7412 39.9587 29.0968C41.1702 26.8195 42.0965 23.7321 40.7477 21.3176C39.6423 19.3389 37.3064 18.9146 35.2069 19.0104C33.178 19.1031 31.1203 19.5811 29.2473 20.36C24.1487 22.4803 20.5466 26.7916 16.9329 30.765C16.4969 31.2444 16.0579 31.7211 15.6127 32.1922C15.3426 32.4779 15.7676 32.9034 16.0469 32.6234Z" fill="#18181B"/>
<path d="M11.6022 140.024C12.6433 140.024 13.6848 140.009 14.7254 140.042C15.7347 140.075 16.7552 140.161 17.7647 140.136C18.745 140.111 19.714 139.934 20.6967 139.961C21.1925 139.974 21.6868 140.021 22.1827 140.028C22.679 140.036 23.1674 139.975 23.6612 139.936C24.6152 139.861 25.5697 139.943 26.5211 139.878C27.0368 139.842 27.5515 139.761 28.0569 139.655C28.5785 139.545 28.8486 139.493 29.3256 139.448C29.8687 139.398 30.4044 139.327 30.9384 139.217C31.0675 139.19 31.1972 139.166 31.3274 139.145C31.3731 139.137 31.6421 139.103 31.4807 139.121C31.7146 139.094 31.9487 139.073 32.1838 139.059C33.1728 139.001 34.1664 139.045 35.1559 139.068C36.1917 139.091 37.2272 139.112 38.2631 139.127C39.2167 139.141 40.1736 139.261 41.125 139.145C41.4374 139.106 41.7448 139.052 42.0549 139.001C42.1678 138.982 42.2808 138.964 42.394 138.947C42.4508 138.939 42.5077 138.932 42.5643 138.923C42.7643 138.892 42.3683 138.945 42.5693 138.922C43.0649 138.866 43.5601 138.813 44.0576 138.774C44.6419 138.73 45.2281 138.714 45.8088 138.633C46.007 138.606 46.2022 138.568 46.3977 138.526C46.5104 138.501 46.6228 138.476 46.736 138.453C46.7845 138.444 46.8332 138.435 46.8819 138.426C47.1058 138.384 46.8299 138.439 46.8288 138.432C46.8283 138.429 47.1092 138.422 47.1339 138.422C47.1866 138.424 47.2391 138.43 47.2916 138.432C47.4583 138.438 47.1999 138.424 47.2037 138.42C47.2722 138.363 47.8018 138.549 47.9003 138.571C48.4465 138.693 48.9949 138.742 49.5531 138.754C50.5931 138.775 51.6329 138.759 52.6729 138.789C53.2397 138.806 53.8169 138.771 54.3662 138.623C54.5873 138.563 54.8033 138.486 55.0227 138.421C55.1236 138.391 55.2249 138.362 55.3276 138.339C55.3779 138.327 55.4302 138.321 55.4802 138.308C55.6659 138.262 55.2273 138.327 55.4286 138.315C56.4104 138.254 57.385 138.343 58.3667 138.317C58.834 138.304 59.3008 138.272 59.7685 138.276C59.8748 138.277 59.9812 138.28 60.0874 138.285C60.1571 138.288 60.2266 138.295 60.2963 138.299C60.3382 138.302 60.5186 138.324 60.3053 138.297C60.0782 138.267 60.4135 138.324 60.4713 138.338C60.5882 138.366 60.7033 138.401 60.819 138.434C61.8548 138.731 62.9321 138.636 63.9969 138.631C65.0629 138.626 66.1748 138.722 67.225 138.515C67.6636 138.428 68.0828 138.269 68.5147 138.157C68.6126 138.131 68.7115 138.111 68.81 138.088C69.0698 138.027 68.5508 138.079 68.8405 138.088C69.0982 138.096 69.3598 138.119 69.6172 138.099C70.1948 138.056 70.6562 137.803 71.2058 137.667C71.7916 137.522 72.2404 136.926 72.2313 136.329C72.2305 136.271 72.2453 136.058 72.2219 136.301C72.1998 136.531 72.2203 136.351 72.2382 136.295C72.259 136.23 72.2818 136.165 72.3024 136.099C72.3739 135.873 72.2123 136.281 72.2857 136.135C72.3972 135.913 72.508 135.691 72.6206 135.47C72.8232 135.071 72.8544 134.627 72.6206 134.23C72.4208 133.891 71.9709 133.572 71.5534 133.622C71.0925 133.678 70.7539 133.791 70.4636 134.165C70.1634 134.551 70.1717 134.947 70.2392 135.405C70.3254 135.989 71.0299 136.329 71.5569 136.259C72.1664 136.178 72.5624 135.687 72.5982 135.088L72.3208 135.728C72.1405 135.833 71.9603 135.937 71.78 136.041L71.5534 136.078C71.2621 135.379 70.9708 134.681 70.6795 133.982C70.2137 134.563 69.623 135.2 69.4874 135.96C69.9364 135.621 70.3854 135.281 70.8344 134.942C70.5209 134.958 70.2077 135.004 69.899 135.06C69.7999 135.078 69.7011 135.098 69.602 135.116C69.5784 135.12 69.4596 135.125 69.446 135.142C69.4856 135.093 69.7356 135.132 69.5057 135.128C68.9284 135.118 68.3832 135.123 67.8153 135.261C67.3808 135.366 66.9616 135.526 66.5249 135.623C66.4678 135.636 66.142 135.693 66.3815 135.656C66.6181 135.62 66.2892 135.654 66.2268 135.655C65.9547 135.658 65.6821 135.65 65.41 135.649C64.4101 135.647 63.4105 135.648 62.4115 135.685C62.2845 135.69 62.1572 135.693 62.0301 135.689C61.9775 135.687 61.9243 135.68 61.8718 135.679C61.7068 135.677 61.9966 135.688 62.005 135.697C61.9696 135.657 61.7611 135.642 61.7039 135.628C61.588 135.598 61.4729 135.565 61.3566 135.537C60.8053 135.402 60.2278 135.358 59.6611 135.372C58.7138 135.395 57.7775 135.453 56.8287 135.443C56.3422 135.438 55.8568 135.447 55.3737 135.508C54.8078 135.579 54.3105 135.72 53.7717 135.894C53.6564 135.931 53.5404 135.966 53.4224 135.993C53.4036 135.998 53.2727 136.038 53.2614 136.027C53.2594 136.025 53.5266 136.005 53.3519 136.016C53.0869 136.031 52.8251 136.041 52.5594 136.038C52.0524 136.032 51.5461 136.04 51.0392 136.052C50.5241 136.063 50.009 136.077 49.4937 136.078C49.4067 136.078 48.7946 136.127 48.7575 136.055C48.7545 136.049 49.0174 136.101 48.8575 136.066C48.808 136.056 48.7572 136.049 48.7074 136.04C48.5916 136.018 48.4765 135.993 48.3611 135.969C47.8424 135.863 47.3089 135.766 46.7792 135.827C46.7265 135.834 45.2201 136.135 45.2176 136.129C45.2149 136.123 45.4732 136.108 45.3116 136.116C45.2566 136.119 45.2012 136.125 45.1464 136.129C45.032 136.139 44.9176 136.147 44.8032 136.157C44.5354 136.179 44.2677 136.203 44.0003 136.23C43.4284 136.287 42.8579 136.358 42.2892 136.441C42.0437 136.477 41.7988 136.517 41.5546 136.56C41.4424 136.581 41.3303 136.602 41.2185 136.624C41.1221 136.643 40.9406 136.717 40.8447 136.696C40.8535 136.698 41.0674 136.674 40.9142 136.686C40.861 136.691 40.8078 136.698 40.7546 136.702C40.6291 136.713 40.5033 136.72 40.3775 136.725C40.1411 136.734 39.9045 136.733 39.6679 136.73C38.6605 136.714 37.6574 136.708 36.6498 136.731C34.6254 136.776 32.5257 136.686 30.5418 137.152C29.5952 137.374 28.6245 137.466 27.6854 137.716C27.4824 137.77 27.2786 137.821 27.0733 137.866C26.9566 137.891 26.8394 137.914 26.7218 137.935C26.6715 137.944 26.6212 137.952 26.5707 137.96C26.5295 137.967 26.4169 137.98 26.5212 137.968C26.0458 138.022 25.5686 138.005 25.0918 138.032C24.0961 138.09 23.119 138.332 22.1257 138.375C21.6305 138.396 21.1346 138.382 20.6394 138.403C20.1246 138.425 19.6135 138.496 19.1049 138.575C17.1374 138.882 15.1244 138.89 13.1344 138.892C12.6236 138.893 12.1129 138.894 11.6022 138.894C10.8702 138.894 10.8689 140.024 11.6022 140.024Z" fill="#18181B"/>
<path d="M134.816 139.049C133.454 139.003 132.092 139.012 130.732 138.95C130.049 138.918 129.366 138.882 128.683 138.832C128.343 138.807 128.004 138.779 127.664 138.746C127.495 138.73 127.326 138.713 127.157 138.694C127.078 138.685 126.999 138.676 126.921 138.667C126.881 138.662 126.822 138.663 126.786 138.651C126.84 138.669 126.921 138.672 126.816 138.653C126.135 138.533 125.479 138.329 124.789 138.255C124.138 138.184 123.475 138.244 122.825 138.293C121.53 138.391 120.236 138.416 118.938 138.37C117.456 138.317 115.969 138.193 114.498 137.999L114.86 138.047C113.957 137.926 113.068 137.755 112.153 137.743C111.332 137.731 110.51 137.779 109.688 137.764C107.956 137.733 106.225 137.707 104.492 137.699C103.536 137.694 102.582 137.728 101.632 137.602C101.767 137.62 101.902 137.638 102.037 137.656C101.615 137.6 101.195 137.537 100.772 137.488C100.625 137.472 100.477 137.454 100.33 137.447C100.045 137.433 99.7628 137.501 99.4887 137.572C98.9025 137.725 98.4069 138.331 98.4347 138.947C98.463 139.575 98.8599 140.153 99.4887 140.322C99.5918 140.35 99.6933 140.384 99.7962 140.412C100.002 140.468 100.241 140.47 100.458 140.487C100.676 140.504 100.894 140.53 101.112 140.558C101.522 140.61 101.931 140.671 102.344 140.698C102.804 140.728 103.267 140.709 103.728 140.707C104.191 140.706 104.654 140.706 105.117 140.706C106.041 140.705 106.964 140.694 107.888 140.677C108.789 140.661 109.692 140.661 110.592 140.612C111.578 140.559 112.571 140.469 113.555 140.597L113.188 140.548C113.922 140.647 114.657 140.73 115.396 140.779C116.061 140.822 116.726 140.822 117.391 140.809C118.706 140.782 120.022 140.697 121.331 140.568C122.138 140.489 122.937 140.343 123.741 140.234L123.47 140.271C124.183 140.177 124.886 140.122 125.603 140.202C125.954 140.24 126.304 140.289 126.656 140.297C127.014 140.306 127.374 140.293 127.732 140.282C129.248 140.237 130.756 140.081 132.27 139.997C133.118 139.949 133.966 139.904 134.816 139.874C135.35 139.856 135.351 139.067 134.816 139.049Z" fill="#18181B"/>
</svg>
