<svg width="1440" height="243" viewBox="0 0 1440 243" fill="none" xmlns="http://www.w3.org/2000/svg">
<path d="M-0.288792 0.513814H36.4305L53.4046 186.882H54.0974L72.1107 0.513814H113.68L131.693 186.882H132.386L149.36 0.513814H182.269L157.674 243H110.216L92.8952 79.495H92.2024L74.8819 243H24.3062L-0.288792 0.513814ZM226.252 0.513814H277.867L317.357 243H279.252L272.324 194.849V195.542H229.023L222.095 243H186.761L226.252 0.513814ZM267.821 162.633L250.847 42.7757H250.154L233.526 162.633H267.821ZM335.844 0.513814H373.949V208.359H436.649V243H335.844V0.513814ZM454.922 0.513814H493.027V102.704L541.524 0.513814H579.629L534.25 89.5409L580.322 243H540.485L508.269 134.92L493.027 165.751V243H454.922V0.513814ZM653.837 0.513814H708.223L732.471 174.065H733.164L757.413 0.513814H811.799V243H775.773V59.4033H775.08L747.367 243H715.497L687.785 59.4033H687.092V243H653.837V0.513814ZM875.222 139.77L829.149 0.513814H869.679L895.66 89.5409H896.353L922.333 0.513814H959.399L913.327 139.77V243H875.222V139.77ZM1032.04 0.513814H1070.15V208.359H1132.85V243H1032.04V0.513814ZM1151.12 0.513814H1189.23V243H1151.12V0.513814ZM1217.77 0.513814H1318.57V35.1547H1255.87V102.704H1305.06V137.345H1255.87V243H1217.77V0.513814ZM1336.84 0.513814H1440.77V35.1547H1374.95V99.2403H1427.26V133.881H1374.95V208.359H1440.77V243H1336.84V0.513814Z" fill="#71717A"/>
</svg>
