<svg width="134" height="137" viewBox="0 0 134 137" fill="none" xmlns="http://www.w3.org/2000/svg">
<path d="M7.48909 108.085C7.92723 108.855 8.29871 109.66 8.73031 110.432C8.86926 110.723 8.86551 110.698 8.71922 110.356L9.0118 111.044C9.30233 111.648 8.88244 110.584 9.07482 111.157C9.22361 111.601 9.40032 112.038 9.57028 112.473C10.2641 114.251 11.0195 115.975 12.1132 117.548L11.7011 116.58C11.8596 116.966 12.0223 117.35 12.1893 117.732C12.4125 118.096 12.6786 118.422 12.9877 118.711C13.1228 118.868 13.2561 119.026 13.3904 119.183C13.7062 119.552 14.0315 119.914 14.362 120.27C14.9729 120.929 15.6032 121.57 16.2332 122.211C17.5693 123.57 18.8636 124.969 20.2157 126.313L19.3708 125.228C19.8954 125.974 20.3822 126.511 21.0466 127.074C21.3351 127.319 21.6255 127.562 21.9182 127.801C22.9067 128.611 23.9223 129.389 24.9454 130.156C26.2639 131.143 27.6135 132.057 29.0879 132.801C31.6173 134.077 34.3567 135.059 37.0994 135.782C38.804 136.231 40.5173 136.508 42.2682 136.721C43.9183 136.923 45.4375 136.803 47.0898 136.492C49.0478 136.123 50.9195 135.222 52.7128 134.402C54.1205 133.758 55.5334 133.128 56.9427 132.488C60.3642 130.936 63.5507 128.918 67.0145 127.452L65.523 128.076C68.004 127.046 70.56 126.231 73.0305 125.166C75.019 124.308 76.7845 123.151 78.6438 122.064C80.673 120.877 82.8508 119.958 84.8539 118.725C87.4336 117.137 89.7051 115.04 92.0035 113.083C96.1235 109.575 100.192 106.008 104.335 102.526C106.209 100.951 107.921 99.3284 109.466 97.4282C110.936 95.6196 112.308 93.7306 113.892 92.0151C115.463 90.3132 117.299 88.8732 118.851 87.1511C119.913 85.9737 121.013 84.7016 121.709 83.2672C122.043 82.58 122.378 81.857 122.61 81.1303C122.857 80.3541 122.899 79.5058 123 78.7055C123.087 78.0089 123.102 77.3068 123.188 76.6101L122.953 78.3471C123.127 77.2117 123.666 76.1302 124.11 75.077C123.888 75.5986 123.666 76.1202 123.444 76.6418C124.146 74.9997 124.998 73.4545 125.906 71.9167C127.098 69.897 128.157 67.891 129.062 65.7237C129.968 63.5509 130.421 61.153 130.243 58.8007C130.094 56.8257 129.658 54.9021 129.914 52.9146L129.677 54.6646C130.068 52.0423 131.362 49.7228 132.08 47.1965C132.482 45.7807 132.65 44.2968 132.827 42.8427C132.954 41.7988 133.015 40.7483 133.013 39.6968C133.008 37.0712 132.724 34.3262 131.949 31.8092C131.019 28.7873 129.366 26.3018 127.197 24.0001C125.052 21.7224 122.339 20.1375 119.865 18.258L121.192 19.2744C120.447 18.6853 119.795 18.0179 119.21 17.2721C119.551 17.7092 119.891 18.1465 120.232 18.5836C119.608 17.7672 119.071 16.895 118.524 16.0273C117.812 14.8958 117.041 13.8244 116.218 12.7687C115.433 11.762 114.639 10.776 113.728 9.87753C112.678 8.84159 111.509 7.9525 110.328 7.06795C108.807 5.92866 107.145 5.00294 105.424 4.19729C104.076 3.56637 102.694 3.00608 101.304 2.47449C100.223 2.06164 99.1448 1.63055 98.0142 1.37155C95.2774 0.74464 92.4615 0.657464 89.6737 0.869232C87.1575 1.06038 84.6566 1.25927 82.134 1.3541C80.4576 1.41708 78.7786 1.59185 77.128 1.88882C75.5417 2.17425 74.079 2.79238 72.6103 3.43979C70.5146 4.3636 68.641 5.69436 66.6249 6.76592C65.4705 7.37956 64.2642 7.88266 63.1271 8.5313C62.0952 9.11987 61.1061 9.77874 60.1539 10.4867C57.6901 12.3185 55.4318 14.3805 53.0079 16.2574L54.2149 15.333C52.0624 16.9792 49.6356 18.1556 47.3379 19.5797C44.9402 21.0658 42.6319 22.6887 40.3916 24.3982C37.8154 26.3641 35.2946 28.3879 32.8906 30.559C30.5953 32.6319 28.4384 34.7441 26.6145 37.2483C24.8833 39.6251 23.6129 42.298 21.8179 44.6324L22.7611 43.4222C21.4288 45.119 20.1526 46.7043 19.2832 48.6802C18.4301 50.6188 17.7278 52.6089 16.9095 54.5601L17.5215 53.1223C17.1144 54.0758 16.5694 54.9335 15.9349 55.7536C16.252 55.3467 16.5691 54.9398 16.8862 54.5328C15.5729 56.1993 14.0838 57.7329 12.9201 59.5141C12.2162 60.5916 11.6723 61.8231 11.2876 63.0403C10.8442 64.4431 10.8453 65.9448 10.6788 67.3957L10.8976 65.7812C10.8263 66.2881 10.7101 66.7602 10.515 67.2348L11.1333 65.7826C10.209 67.9018 8.69567 69.7603 7.2948 71.5856C7.61592 71.1735 7.93712 70.7615 8.25823 70.3494C7.08637 71.8067 5.63155 73.0899 4.76692 74.7687C3.98226 76.2923 3.71962 77.4024 3.54698 79.0773C3.49199 79.6112 3.50095 80.1479 3.43899 80.6814C3.51273 80.1376 3.5864 79.5938 3.66014 79.05C3.6064 79.4218 3.53218 79.7847 3.40344 80.1387C3.61165 79.6496 3.81979 79.1606 4.02799 78.6716C3.81948 79.1534 3.51772 79.5674 3.19605 79.9802L4.16575 78.736C2.97103 80.2655 1.82502 81.6751 1.46236 83.6517C1.28374 84.625 1.13395 85.5799 1.22893 86.5601C1.3244 87.5454 1.50507 88.5155 1.64726 89.4934C1.57314 88.9467 1.49911 88.4001 1.425 87.8534C1.49301 88.3915 1.49778 88.9067 1.42933 89.445C1.50351 88.8978 1.57768 88.3506 1.65186 87.8034C1.29001 90.4466 0.542228 93.0457 0.56496 95.7333C0.578537 97.3393 0.852572 98.9522 1.37448 100.472C1.73801 101.53 2.16967 102.57 2.34711 103.68L2.12264 102.024C2.17683 102.452 2.18438 102.861 2.12994 103.289C1.94304 104.757 2.96743 106.701 3.97189 107.697C5.0626 108.778 6.85214 109.592 8.41861 109.523C10.045 109.451 11.7318 108.921 12.8653 107.697L13.8486 106.435C14.4175 105.463 14.7037 104.414 14.7072 103.289C15.086 100.312 13.3077 97.867 12.9086 95.0472C12.9831 95.5971 13.0576 96.147 13.1322 96.697C13.0147 95.6101 13.0769 94.5059 13.2207 93.4247L12.9975 95.0709C13.1633 93.9142 13.4247 92.7737 13.5939 91.6175C13.7503 90.549 14.0092 89.4181 13.9244 88.3264C13.8404 87.2449 13.6307 86.1784 13.4665 85.1076C13.5406 85.6538 13.6146 86.2 13.6886 86.7462C13.6276 86.2905 13.6057 85.8511 13.6492 85.3927C13.5752 85.9384 13.5013 86.4841 13.4274 87.0299C13.4777 86.6883 13.5559 86.3657 13.6811 86.0439C13.4725 86.5339 13.2639 87.024 13.0553 87.514C13.2882 87.0016 13.6185 86.5635 13.9585 86.1176C14.5879 85.2922 14.9975 84.3882 15.3511 83.4041C15.8671 81.9681 15.7343 80.4225 15.933 78.939C15.8594 79.4821 15.7858 80.0253 15.7122 80.5684C15.767 80.2521 15.857 79.9572 15.9799 79.66C15.7723 80.1477 15.5646 80.6355 15.357 81.1233C15.5548 80.6968 15.794 80.306 16.0756 79.9292C15.7539 80.3421 15.4321 80.7549 15.1103 81.1678C16.0825 79.9282 17.1592 78.7971 18.1026 77.5278C18.7788 76.6179 19.4612 75.7109 20.0985 74.7735C20.7164 73.8647 21.2863 72.9277 21.7234 71.9193C22.0139 71.2489 22.3556 70.5755 22.551 69.8673C22.753 69.1351 22.81 68.3572 22.9026 67.6089C22.9815 66.9719 23.0053 66.331 23.0764 65.6933C23.0035 66.2308 22.9307 66.7683 22.8578 67.3058C22.9409 66.7079 23.1002 66.1432 23.3276 65.5842C23.1223 66.0666 22.9169 66.549 22.7115 67.0314C23.114 66.1034 23.6701 65.2691 24.2898 64.4708L23.3362 65.6944C24.7378 63.9181 26.3752 62.2689 27.486 60.2881C28.6987 58.1258 29.3486 55.67 30.3057 53.3931L29.6956 54.8263C30.2326 53.5772 30.8806 52.3991 31.7172 51.321L30.7736 52.5318C32.1817 50.7776 33.4409 48.9947 34.5935 47.0703C35.5037 45.5507 36.4023 44.0226 37.491 42.6192C37.1776 43.0214 36.8641 43.4236 36.5506 43.8258C38.0723 41.9069 39.969 40.242 41.7886 38.6065C43.7358 36.8563 45.7526 35.1834 47.8299 33.5871C47.4259 33.8966 47.0218 34.2061 46.6176 34.5155C49.831 32.0581 53.1901 29.7808 56.7469 27.8383C60.5752 25.7476 63.6314 22.6172 67.0603 19.9844C66.6588 20.292 66.2572 20.5995 65.8557 20.9071C66.7981 20.1907 67.7701 19.5148 68.789 18.9093C69.9119 18.242 71.0991 17.7212 72.2585 17.1248C74.5336 15.9546 76.6056 14.4265 78.9721 13.4278L77.5559 14.0202C78.6799 13.5632 79.8332 13.2642 81.035 13.0931L79.4607 13.3029C82.0081 12.9708 84.5789 13.0962 87.1391 12.9785C89.6052 12.8653 92.0481 12.7325 94.5059 13.0397L92.8737 12.8223C93.9214 13.0687 94.9323 13.2952 95.9351 13.6983C95.4363 13.4896 94.9375 13.2809 94.4386 13.0722C96.1251 13.7825 97.7903 14.5811 99.4254 15.4007C100.918 16.1487 102.353 16.9989 103.683 18.0063L102.378 17.0067C103.849 18.1397 105.147 19.4509 106.291 20.9067C105.953 20.4728 105.615 20.0388 105.277 19.6049C106.671 21.407 107.677 23.4569 109.053 25.267C109.661 26.0675 110.268 26.8956 110.977 27.6163C111.735 28.3876 112.626 29.0311 113.493 29.673C114.454 30.3855 115.447 31.0552 116.4 31.7805L115.067 30.7597C116.525 31.881 117.853 33.1035 118.987 34.5516C118.644 34.1105 118.3 33.6694 117.956 33.2282C118.523 33.9678 119.035 34.7181 119.413 35.5704C119.191 35.0493 118.969 34.5283 118.747 34.0072C119.294 35.2935 119.604 36.659 119.798 38.0381L119.562 36.2964C119.857 38.5193 119.857 40.7809 119.564 43.0041C119.642 42.4224 119.721 41.8408 119.8 41.2591C119.641 42.3985 119.396 43.5134 119.008 44.5984C118.451 46.1543 117.768 47.6662 117.299 49.2525C116.698 51.2864 116.403 53.4899 116.59 55.6061C116.744 57.3513 117.107 59.0792 116.912 60.8369L117.15 59.0831C116.982 60.2753 116.561 61.3994 116.093 62.5037C116.316 61.9781 116.54 61.4525 116.764 60.927C115.64 63.4551 114.054 65.7391 112.837 68.2194C112.053 69.819 111.389 71.4827 110.75 73.1441C110.057 74.9422 110.068 76.8215 109.838 78.7055L110.073 76.9712C110.02 77.3083 109.945 77.6264 109.826 77.9461L110.489 76.3888C110.166 77.1425 109.72 77.821 109.22 78.4699L110.246 77.1529C108.798 78.9817 107.001 80.4826 105.362 82.133C103.263 84.2457 101.547 86.716 99.7235 89.0565C100.062 88.6221 100.4 88.1878 100.739 87.7535C99.3162 89.5715 97.8042 91.26 96.0412 92.7616C94.09 94.4234 92.1575 96.1067 90.2304 97.7959C88.3049 99.4837 86.3848 101.177 84.4563 102.862C82.5276 104.547 80.6303 106.31 78.5979 107.872C79.0262 107.544 79.4545 107.216 79.8828 106.887C77.6426 108.564 75.0593 109.655 72.6472 111.051C71.5032 111.713 70.4253 112.478 69.2744 113.13C68.2301 113.721 67.1486 114.239 66.0422 114.705C66.5415 114.496 67.0409 114.287 67.5403 114.078C65.3484 114.99 63.0979 115.742 60.9145 116.677C59.0546 117.473 57.274 118.427 55.5 119.394C53.7207 120.364 51.9439 121.346 50.0892 122.169C48.2883 122.968 46.5587 123.917 44.7455 124.688C45.233 124.484 45.7204 124.28 46.2079 124.076C45.259 124.468 44.2931 124.797 43.2749 124.957C43.8137 124.885 44.3525 124.813 44.8913 124.742C43.8015 124.884 42.7034 124.801 41.6178 124.659L43.2224 124.873C40.2456 124.461 37.2652 123.636 34.491 122.489L35.9038 123.08C34.4578 122.472 33.0519 121.727 31.6836 120.965C30.1313 120.101 28.593 119.164 27.1557 118.121C27.5247 118.403 27.8937 118.686 28.2628 118.968C27.8358 118.637 27.407 118.308 26.9763 117.982C26.481 117.76 25.98 117.553 25.4733 117.359L26.7641 117.899C25.2885 117 23.8536 116.039 22.3899 115.122C20.9691 114.231 19.5407 113.351 18.1957 112.349C18.4781 112.566 18.7605 112.782 19.0428 112.998C18.7961 112.799 18.568 112.597 18.3133 112.402C17.8204 112.024 17.3039 111.829 16.7299 111.595L17.7064 112.003C17.4937 111.851 17.2836 111.697 17.0758 111.538L17.875 112.15C16.6658 111.208 15.6344 110.093 14.6434 108.931C14.4097 108.657 14.1618 108.387 13.9448 108.1C14.5458 108.895 13.3547 107.325 13.5706 107.557C13.8986 107.909 13.6666 107.635 13.5122 107.403C13.0614 106.726 12.6008 106.057 12.1161 105.404C11.288 104.288 9.75496 103.618 8.4505 104.451C7.21562 105.241 6.75175 106.79 7.48909 108.085Z" fill="#18181B"/>
<path d="M8.41791 103.286C8.05575 105.071 10.9348 107.983 12.5265 108.711C14.7171 109.712 20.6938 108.798 22.9469 108.098C26.6115 106.96 31.4631 105.422 34.6388 103.293C37.674 101.258 40.0352 98.2934 43.0608 96.1876C46.0187 94.129 49.4581 93.2811 52.3926 91.3672C54.6554 89.8914 55.9225 87.5899 57.932 85.8905C59.7066 84.3898 61.4631 82.9371 63.2474 81.3852C65.2564 79.638 67.9912 78.8638 69.9352 77.278C72.0262 75.5721 73.4181 73.0013 75.5667 71.2115C77.6976 69.4365 79.0472 67.4303 80.8382 65.3184C81.3818 64.6772 82.9064 63.5087 83.4206 62.6596C84.5116 60.858 84.4944 58.787 85.3213 56.858C86.5682 53.949 89.0284 51.8356 90.6772 49.208C91.7856 47.4418 92.4776 45.2248 93.2173 43.2701C94.7847 39.1282 96.0598 34.8635 97.5536 30.696C100.52 22.4205 99.4299 8.8668 87.4862 9.2583C82.3637 9.42617 75.8845 12.4557 71.0115 14.117C66.2187 15.7511 62.2865 18.6152 57.8501 21.035C53.1096 23.6208 50.0865 25.8654 46.4805 29.8574C44.2604 32.315 42.1657 35.0995 39.6855 37.29C37.0763 39.5943 34.1829 41.4434 32.3212 44.5081C30.7101 47.1604 29.6195 50.6663 28.4595 53.5602C27.3145 56.4169 25.8857 58.8375 24.5687 61.622C22.2289 66.5692 20.9754 71.8997 18.7665 76.8607C17.029 80.7629 14.8154 84.7483 13.2191 88.8861C12.2872 91.3018 12.9255 93.2196 12.4769 95.7316C12.0607 98.0623 11.8114 99.4775 11.9041 101.914" fill="#18181B"/>
<path d="M6.37374 102.731C5.95641 103.841 6.19999 105.186 6.63246 106.253C7.19734 107.648 7.94503 108.805 8.8933 109.975L8.40176 109.345C8.71945 110.09 9.76099 110.781 10.3936 111.226C10.8962 111.58 11.4639 111.816 12.0428 112.023C13.1058 112.404 14.2859 112.507 15.4063 112.579C17.7379 112.729 20.1382 112.401 22.4269 111.974C24.5167 111.584 26.5762 110.9 28.5921 110.241C31.2742 109.364 34.0109 108.364 36.4257 106.893C39.3234 105.129 41.7477 102.73 44.4201 100.67L43.5239 101.356C45.057 100.187 46.6895 99.2575 48.4689 98.5082C48.0938 98.6651 47.7188 98.822 47.3438 98.9789C48.2517 98.6014 49.1619 98.2309 50.0691 97.8509L48.9279 98.3283C50.8306 97.5331 52.7916 96.7933 54.5702 95.7394C56.283 94.7245 57.7216 93.3769 59.0472 91.9166C59.5792 91.3306 60.1073 90.7399 60.6788 90.1909C61.3202 89.5747 62.0294 89.0335 62.7224 88.4764C64.2189 87.2737 65.6884 86.0338 67.1968 84.8465C66.844 85.1168 66.491 85.387 66.1382 85.6573C67.9258 84.2992 70.0938 83.6053 71.9688 82.3921C73.2175 81.5842 74.375 80.6238 75.3827 79.5344C76.1581 78.6962 76.8677 77.8012 77.6304 76.9521C78.4037 76.0913 79.2631 75.3733 80.1319 74.6138C81.0096 73.8464 81.8033 72.9976 82.5509 72.1067C83.3274 71.1813 84.0562 70.211 84.8638 69.3119C85.442 68.6682 86.139 68.1375 86.7492 67.5246C88.2245 66.0427 89.1437 64.2849 89.7465 62.2989C90.1424 60.9944 90.3474 59.6435 90.8836 58.3818L90.3022 59.7475C90.8323 58.5614 91.559 57.4917 92.3556 56.4671L91.4492 57.6301C93.1845 55.421 95.2037 53.3532 96.4538 50.8179C97.7981 48.0917 98.8105 45.1537 99.8391 42.2969C100.798 39.634 101.678 36.9442 102.616 34.2742C103.21 32.5852 103.846 30.9298 104.223 29.1768C105.104 25.0856 105.222 21.0262 104.439 16.915C104.073 14.993 103.351 13.1071 102.433 11.3816C101.57 9.75818 100.371 8.20189 98.928 7.04451C96.9745 5.47798 94.8435 4.23925 92.3533 3.701C91.0193 3.41261 89.6302 3.23412 88.2619 3.21609C86.7233 3.19584 85.1787 3.42482 83.667 3.67801C78.9789 4.46328 74.6104 6.51928 70.1753 8.12545C67.3728 9.14033 64.6536 10.2935 62.0583 11.7564C59.7931 13.0333 57.6069 14.4423 55.3417 15.7192C51.0347 18.1471 46.9541 20.8966 43.5041 24.4551C41.7408 26.2739 40.16 28.2509 38.4759 30.1394C36.8027 32.0155 34.9549 33.6311 33.0113 35.2221C30.8129 37.0217 28.8074 38.9798 27.2881 41.4011C25.7575 43.8403 24.766 46.6191 23.7573 49.299C23.3303 50.4334 22.9103 51.5709 22.4359 52.687L23.0359 51.2777C22.27 53.0547 21.3674 54.7661 20.4865 56.4886C19.3791 58.6543 18.3831 60.8659 17.4943 63.1295C16.0496 66.8094 14.9624 70.6199 13.423 74.2641C13.6245 73.7906 13.8261 73.3172 14.0276 72.8437C12.6053 76.1767 10.8525 79.3594 9.33421 82.6488C8.76068 83.8915 8.2228 85.1506 7.69834 86.4143C7.36258 87.2232 7.04867 88.0259 6.90836 88.8942C6.70283 90.1658 6.56197 91.3984 6.54864 92.678C6.53992 93.5192 6.53021 94.3569 6.42708 95.1931L6.64614 93.5768C6.25652 96.3596 5.62976 99.0891 5.7281 101.918C5.78384 103.521 6.37884 105.099 7.53731 106.248C8.60865 107.31 10.3665 108.11 11.9052 108.041C13.5027 107.97 15.1595 107.45 16.273 106.248C17.3603 105.074 18.1391 103.556 18.0822 101.918C18.0369 100.615 18.0769 99.329 18.2464 98.0355C18.1731 98.5759 18.0999 99.1162 18.0267 99.6566C18.2692 97.8805 18.6762 96.1186 18.7635 94.3247C18.8242 93.0769 18.7229 91.8274 18.8829 90.5844L18.665 92.1927C18.8615 90.8658 19.4158 89.6339 19.937 88.406L19.3244 89.845C20.6479 86.752 22.1993 83.763 23.5843 80.6978C25.1466 77.2404 26.397 73.6962 27.6264 70.1146C28.2487 68.3013 28.8937 66.4955 29.6396 64.728L29.0379 66.1414C30.1987 63.4199 31.6832 60.8533 32.906 58.1608C34.2444 55.2136 35.2399 52.144 36.4999 49.1675C36.3004 49.6363 36.1008 50.105 35.9013 50.5738C36.5727 49.0062 37.3329 47.4788 38.3857 46.1249C38.0767 46.5215 37.7676 46.918 37.4586 47.3146C39.5697 44.6614 42.49 42.8473 44.8899 40.483C47.4636 37.9476 49.5903 35.0101 52.1172 32.4303C53.3361 31.1858 54.6331 30.0215 56.0163 28.9587L54.8255 29.8707C57.3419 27.9541 60.1342 26.5319 62.868 24.9572C65.8751 23.2251 68.818 21.3671 72.0252 20.0097L70.597 20.6072C71.9496 20.0436 73.3486 19.6037 74.7243 19.1002C76.1029 18.5957 77.4744 18.0726 78.8552 17.5739C81.6134 16.5777 84.4315 15.631 87.3499 15.2293C86.8112 15.301 86.2725 15.3728 85.7339 15.4446C87.0585 15.2724 88.3917 15.2372 89.7181 15.4107L88.0961 15.1946C89.0043 15.3223 89.8899 15.5474 90.739 15.8934L89.2777 15.2822C90.0164 15.5926 90.7079 15.9883 91.3453 16.4716C90.9317 16.1548 90.5182 15.8381 90.1046 15.5213C90.7645 16.033 91.3503 16.6288 91.8669 17.2822C91.5473 16.872 91.2276 16.4618 90.908 16.0516C91.5283 16.8517 92.0255 17.7294 92.4234 18.6571C92.2181 18.1748 92.0128 17.6926 91.8075 17.2102C92.3652 18.5378 92.7134 19.9367 92.9127 21.3592C92.8403 20.8254 92.768 20.2916 92.6957 19.7578C92.9762 21.8411 92.9428 23.9546 92.6659 26.0364L92.8812 24.4477C92.5941 26.5396 91.9833 28.4913 91.3084 30.486C90.1861 33.8028 89.1696 37.1544 87.9987 40.4551C87.3923 42.1644 86.8101 43.8944 86.1092 45.5682C86.306 45.1058 86.5028 44.6435 86.6996 44.1811C86.0661 45.6638 85.2324 46.9826 84.2456 48.2576C84.549 47.8684 84.8524 47.4791 85.1558 47.0898C83.6372 49.037 81.9129 50.8982 80.76 53.0937C80.0728 54.4025 79.5213 55.7886 79.1786 57.2246C78.9238 58.2925 78.7202 59.3702 78.2956 60.389L78.8729 59.0329C78.7108 59.3976 78.5332 59.7531 78.2953 60.0754L79.1893 58.9283C78.5086 59.795 77.6036 60.4438 76.8742 61.2637C75.938 62.316 75.1222 63.4745 74.221 64.5561C73.2981 65.6639 72.3009 66.6418 71.2565 67.6331C69.9686 68.8555 68.9235 70.3336 67.8403 71.7262C68.1262 71.3595 68.4121 70.9927 68.6979 70.6259C67.8121 71.7624 66.9055 72.8936 65.761 73.7873C66.1245 73.5089 66.488 73.2304 66.8514 72.952C65.7891 73.7549 64.5985 74.3556 63.4374 75.0017C61.8726 75.8725 60.4465 76.9241 59.1188 78.1223C56.8618 80.1592 54.3978 82.0338 52.4448 84.3707C51.475 85.5311 50.5317 86.7146 49.3297 87.6519L50.3226 86.8914C48.9158 87.9499 47.3007 88.7067 45.7123 89.4538C44.1489 90.1892 42.6029 90.9783 41.1982 91.989C39.5149 93.2001 38.0063 94.56 36.5613 96.0369C35.3215 97.3042 34.1141 98.6204 32.7457 99.7549L33.5666 99.1262C33.1557 99.4373 32.7517 99.757 32.3439 100.072L33.1619 99.4452C31.3446 100.823 29.2823 101.824 27.1821 102.703C27.4898 102.574 27.7975 102.446 28.1052 102.317C24.6003 103.771 21.0157 105.07 17.2383 105.586L18.1874 105.459C17.3036 105.576 16.3735 105.586 15.5068 105.778L16.4404 105.653C15.457 105.752 14.459 105.808 13.475 105.687C13.7709 105.726 14.0669 105.766 14.3628 105.805C14.005 105.755 13.6563 105.681 13.321 105.545L14.1037 105.873C13.6851 105.691 13.2862 105.457 12.9201 105.186L13.5677 105.682C13.0479 105.263 12.628 104.913 11.9518 104.767C12.2021 104.872 12.4525 104.976 12.7027 105.081C12.3178 104.863 11.9583 104.618 11.5932 104.37C11.3206 104.185 12.1574 104.824 11.8074 104.535C11.7229 104.465 11.6371 104.397 11.5536 104.326C11.3752 104.174 11.2016 104.016 11.036 103.85C10.8984 103.712 10.778 103.532 10.63 103.407C10.7168 103.48 10.9901 103.913 10.7686 103.581C10.7173 103.504 10.6636 103.429 10.6153 103.35C10.5702 103.276 10.5213 103.14 10.464 103.077C10.5265 103.145 10.6516 103.647 10.5616 103.296C10.5492 103.247 10.5258 103.105 10.4993 103.072C10.5606 103.148 10.5483 103.705 10.5402 103.29C10.5196 102.239 9.74871 101.364 8.70103 101.225C7.60229 101.078 6.74774 101.736 6.37374 102.731Z" fill="#18181B"/>
<path d="M73.3721 32.0304C71.9658 30.8799 70.4891 29.8371 68.9833 28.8213L69.6239 29.312C69.0495 28.8447 68.4483 28.4038 67.887 27.9215C67.4653 27.5591 67.0032 27.1809 66.6251 26.7769L67.2302 27.5532C66.5809 26.2902 65.4127 25.3621 64.0488 24.952C64.7215 25.3406 65.3942 25.7293 66.0669 26.118L66.0445 26.0959C64.5662 24.6356 62.166 24.3355 60.3627 25.3691L60.3059 25.4017C60.6795 25.2453 61.0531 25.0891 61.4268 24.9327C60.3081 25.3119 59.4653 25.7165 58.6002 26.5272C58.3448 26.7667 58.1011 27.0181 57.8598 27.2714C57.3066 27.8523 56.7435 28.4192 56.2196 29.0272C55.5237 29.8348 54.7744 30.5702 54.0348 31.3362C53.0497 32.3562 52.2225 33.4963 51.356 34.6145L52.1361 33.6135C51.426 34.4984 50.6526 35.3002 49.9907 36.2312C49.6069 36.771 49.3452 37.4192 49.1692 38.0481C49.0664 38.4152 48.9697 39.1341 48.9739 39.5147C48.9746 39.5765 48.9786 39.6379 48.9825 39.6996C49.0173 40.2455 49.0539 40.8179 49.2199 41.3426L49.0444 40.0481C49.1116 40.8652 49.2088 41.7011 49.4983 42.475C49.7982 43.277 50.1398 44.0783 50.5547 44.8312C51.0187 45.6733 51.5645 46.4763 52.112 47.2668C53.3041 48.9884 54.5874 50.6861 55.4266 52.6134L54.9569 51.5099C55.2278 52.1518 55.4402 52.8113 55.5452 53.5005C55.49 53.0936 55.4349 52.6867 55.3797 52.2798C55.441 52.7464 55.4491 53.2084 55.3868 53.6754L55.5516 52.4596C55.4078 53.3938 55.1086 54.2945 54.7451 55.1657L55.2064 54.0822C54.6499 55.3893 53.9468 56.6136 53.0762 57.7399C53.3137 57.4352 53.5513 57.1304 53.7887 56.8256C53.1955 57.5819 52.5425 58.2948 51.7816 58.8889L52.7102 58.1776C51.8371 58.8414 50.8409 59.3439 49.8304 59.7668L50.9349 59.3047C49.6708 59.823 48.3511 60.2071 46.9948 60.3945C47.4085 60.3394 47.8221 60.2842 48.2357 60.2292C47.4093 60.3352 46.5893 60.3522 45.7615 60.2506C46.1775 60.3061 46.5935 60.3614 47.0095 60.4169C45.8948 60.2655 44.8124 59.9581 43.7381 59.6349C42.3129 59.2061 40.8842 58.7011 39.38 58.6489C40.7398 59.4221 42.0995 60.1953 43.4592 60.9684C43.4104 60.8923 43.3683 60.8126 43.333 60.7293L43.8046 61.8371L43.7539 61.7113C43.61 61.1113 43.3325 60.5886 42.9214 60.1433C42.4848 59.5831 42.3073 59.3558 41.581 58.9375C40.8885 58.5386 40.09 58.3148 39.2868 58.3076C38.8721 58.3039 38.4469 58.3573 38.0491 58.4658C37.2679 58.679 36.5875 59.0861 36.0132 59.6496C35.2449 60.4035 34.8418 61.2807 34.7004 62.3242C34.6487 62.7054 34.6079 62.8755 34.6303 63.2015C34.659 63.6165 34.7066 64.1771 34.8246 64.5772C35.0471 65.3311 35.4841 66.093 36.0396 66.6437C36.6677 67.2663 37.3297 67.5445 38.1242 67.8481C38.5368 68.0057 38.9852 68.0727 39.4133 68.1829C41.0216 68.5968 42.6006 69.1246 44.2501 69.3606C45.3535 69.5186 46.4265 69.6729 47.5386 69.5708C48.6475 69.4691 49.7682 69.313 50.8479 69.0323C52.6348 68.5677 54.4107 67.8412 56.0079 66.9234C58.9921 65.2084 61.2079 62.4086 62.7546 59.3909C63.6058 57.7301 64.2988 56.0169 64.5493 54.1688C64.6193 53.6528 64.6997 53.1526 64.6732 52.6318C64.6353 51.8897 64.5283 51.1356 64.3685 50.4092C64.1276 49.3144 63.6436 48.2595 63.1705 47.2513C61.9314 44.6098 59.9134 42.4044 58.7535 39.7263C58.9158 40.1076 59.0781 40.489 59.2405 40.8703C59.0085 40.3212 58.8139 39.7569 58.727 39.166L58.902 40.4568C58.8849 40.3207 58.8749 40.1852 58.8682 40.0482L58.6927 41.3427C58.7645 41.0342 58.8246 40.7202 58.9451 40.4253C58.7764 40.8215 58.6078 41.2177 58.4391 41.6139C58.5579 41.364 58.722 41.1414 58.8907 40.9227L58.1074 41.9279C58.4219 41.5295 58.7605 41.1508 59.0787 40.7555C59.675 40.0143 60.2083 39.2395 60.7913 38.491L60.0136 39.4887C60.5662 38.7893 61.1673 38.1379 61.7934 37.5031C62.4502 36.8373 63.0131 36.0941 63.6205 35.3856C64.0091 34.9323 64.4286 34.5039 64.8313 34.0626C65.0376 33.8364 65.2463 33.6119 65.4641 33.3967C65.9439 32.9225 66.2779 32.3433 66.6855 31.815L65.9488 32.7603L65.9921 32.7072L65.0424 33.4345L65.0957 33.3959C65.412 33.1537 65.7283 32.9114 66.0446 32.6692C66.5018 32.2482 66.8249 31.7496 67.014 31.1734C67.2261 30.8109 67.3328 30.4199 67.3341 30.0004C67.4736 29.3826 67.4457 28.7648 67.2503 28.147L67.2432 28.1188C67.0895 29.2834 66.9359 30.4479 66.7822 31.6124C66.7979 31.5766 66.8137 31.5443 66.8347 31.5113C66.6014 31.8107 66.3681 32.1099 66.1349 32.4092C66.1667 32.3701 66.2016 32.3387 66.2407 32.3066L65.3622 32.9794L65.4177 32.9405C65.0765 33.0833 64.7354 33.226 64.3942 33.3687C64.7123 33.2629 65.2655 33.0791 65.5349 32.8813C65.2027 33.0202 64.8705 33.1592 64.5383 33.2982C64.6628 33.2515 64.7878 33.2162 64.9177 33.1882C64.5749 33.2339 64.232 33.2796 63.8891 33.3252L63.9835 33.3362L62.9646 33.2005C63.136 33.2443 63.2991 33.3118 63.4626 33.3786L62.5706 33.0055C63.2605 33.2964 63.9335 33.6265 64.6396 33.8796C65.2738 34.107 65.9112 34.3256 66.544 34.557L65.7878 34.2407C67.1992 34.9115 68.5765 35.6631 69.9 36.4914C71.1102 37.2487 72.7561 36.8378 73.5962 35.7598C74.3985 34.7305 74.4755 32.9331 73.3721 32.0304Z" fill="#8FD4EA"/>
<path d="M57.9906 118.614C57.9191 118.588 57.8482 118.561 57.778 118.532L58.2937 118.737C57.8099 118.534 57.3682 118.274 56.9467 117.976L57.3957 118.294C56.5994 117.716 55.9124 117.034 55.1812 116.393C54.2667 115.592 53.2355 114.898 52.1867 114.248C51.216 113.647 50.2148 113.09 49.2293 112.51C48.3349 111.984 47.4741 111.42 46.6111 110.852C45.7633 110.294 44.9147 109.738 44.087 109.155L44.7161 109.6C43.2187 108.541 41.7179 107.376 40.5442 106.021L41.0592 106.616C40.6943 106.187 40.3879 105.714 39.9799 105.316C39.7469 105.088 39.515 104.863 39.301 104.621L39.7814 105.176C39.7394 105.128 39.698 105.079 39.6573 105.03C39.1777 104.462 38.637 103.937 37.8324 103.756C37.1804 103.609 36.5637 103.622 35.9571 103.833C34.5956 104.308 33.9899 105.574 34.3575 106.875C34.5637 107.605 34.8484 108.355 35.3568 108.975C35.8775 109.61 36.4266 110.232 37.0428 110.798C38.1129 111.78 39.3584 112.604 40.6322 113.355C42.9553 114.726 45.3966 115.957 47.8665 117.08C49.4434 117.796 51.0424 118.515 52.4454 119.504L51.9615 119.162C53.5669 120.307 55.0643 121.582 57.058 122.111C58.0997 122.387 59.3114 121.851 59.5153 120.893C59.6128 120.435 59.5687 119.92 59.2618 119.501C58.9382 119.059 58.5305 118.814 57.9906 118.614Z" fill="black"/>
<path d="M73.2835 111.614C73.2121 111.588 73.1412 111.561 73.071 111.532L73.5866 111.737C73.1029 111.534 72.6611 111.274 72.2396 110.976L72.6887 111.294C71.8923 110.716 71.2054 110.034 70.4741 109.393C69.5597 108.592 68.5285 107.898 67.4797 107.248C66.509 106.647 65.5077 106.09 64.5222 105.51C63.6279 104.984 62.767 104.42 61.9041 103.852C61.0563 103.294 60.2076 102.738 59.38 102.155L60.0091 102.6C58.5117 101.541 57.0109 100.376 55.8372 99.0213L56.3521 99.6156C55.9873 99.1871 55.6809 98.7142 55.2728 98.3156C55.0398 98.0881 54.808 97.8633 54.594 97.6211L55.0743 98.1756C55.0324 98.1275 54.991 98.0791 54.9502 98.0303C54.4707 97.4623 53.93 96.9371 53.1254 96.7561C52.4734 96.6095 51.8567 96.6218 51.25 96.8334C49.8885 97.3084 49.2829 98.5743 49.6505 99.8754C49.8567 100.605 50.1414 101.355 50.6497 101.975C51.1705 102.61 51.7196 103.232 52.3358 103.798C53.4058 104.78 54.6514 105.604 55.9252 106.355C58.2482 107.726 60.6896 108.957 63.1595 110.08C64.7364 110.796 66.3354 111.515 67.7383 112.504L67.2544 112.162C68.8599 113.307 70.3572 114.582 72.351 115.111C73.3927 115.387 74.6044 114.851 74.8082 113.893C74.9058 113.435 74.8617 112.92 74.5548 112.501C74.2312 112.059 73.8234 111.814 73.2835 111.614Z" fill="black"/>
<path d="M83.2835 99.6136C83.2121 99.5879 83.1412 99.5608 83.071 99.5322L83.5866 99.737C83.1029 99.5341 82.6611 99.2742 82.2396 98.9763L82.6887 99.2938C81.8923 98.7158 81.2054 98.0341 80.4741 97.3935C79.5597 96.5923 78.5285 95.8977 77.4797 95.2483C76.509 94.6473 75.5077 94.09 74.5222 93.5102C73.6279 92.984 72.767 92.4196 71.9041 91.852C71.0563 91.2943 70.2076 90.7378 69.38 90.1554L70.0091 90.6003C68.5117 89.5413 67.0109 88.3756 65.8372 87.0213L66.3521 87.6156C65.9873 87.1871 65.6809 86.7142 65.2728 86.3156C65.0398 86.0881 64.808 85.8633 64.594 85.6211L65.0743 86.1756C65.0324 86.1275 64.991 86.0791 64.9502 86.0303C64.4707 85.4623 63.93 84.9371 63.1254 84.7561C62.4734 84.6095 61.8567 84.6218 61.25 84.8334C59.8885 85.3084 59.2829 86.5743 59.6505 87.8754C59.8567 88.6051 60.1414 89.3553 60.6497 89.9752C61.1705 90.6104 61.7196 91.2321 62.3358 91.7978C63.4058 92.78 64.6514 93.6038 65.9252 94.3555C68.2482 95.7263 70.6896 96.9572 73.1595 98.0795C74.7364 98.7961 76.3354 99.5149 77.7383 100.504L77.2544 100.162C78.8599 101.307 80.3572 102.582 82.351 103.111C83.3927 103.387 84.6044 102.851 84.8082 101.893C84.9058 101.435 84.8617 100.92 84.5548 100.501C84.2312 100.059 83.8234 99.814 83.2835 99.6136Z" fill="black"/>
<path d="M99.2835 91.6136C99.2121 91.5879 99.1412 91.5608 99.071 91.5322L99.5866 91.737C99.1029 91.5341 98.6611 91.2742 98.2396 90.9763L98.6887 91.2938C97.8923 90.7158 97.2054 90.0341 96.4741 89.3935C95.5597 88.5923 94.5285 87.8977 93.4797 87.2483C92.509 86.6473 91.5077 86.09 90.5222 85.5102C89.6279 84.984 88.767 84.4196 87.9041 83.852C87.0563 83.2943 86.2076 82.7378 85.38 82.1554L86.0091 82.6003C84.5117 81.5413 83.0109 80.3756 81.8372 79.0213L82.3521 79.6156C81.9873 79.1871 81.6809 78.7142 81.2728 78.3156C81.0398 78.0881 80.808 77.8633 80.594 77.6211L81.0743 78.1756C81.0324 78.1275 80.991 78.0791 80.9502 78.0303C80.4707 77.4623 79.93 76.9371 79.1254 76.7561C78.4734 76.6095 77.8567 76.6218 77.25 76.8334C75.8885 77.3084 75.2829 78.5743 75.6505 79.8754C75.8567 80.6051 76.1414 81.3553 76.6497 81.9752C77.1705 82.6104 77.7196 83.2321 78.3358 83.7978C79.4058 84.78 80.6514 85.6038 81.9252 86.3555C84.2482 87.7263 86.6896 88.9572 89.1595 90.0795C90.7364 90.7961 92.3354 91.5149 93.7383 92.5042L93.2544 92.162C94.8599 93.3065 96.3572 94.582 98.351 95.111C99.3927 95.3874 100.604 94.8513 100.808 93.8931C100.906 93.4347 100.862 92.9205 100.555 92.501C100.231 92.0587 99.8234 91.814 99.2835 91.6136Z" fill="black"/>
<path d="M108.284 79.6136C108.212 79.5879 108.141 79.5608 108.071 79.5322L108.587 79.737C108.103 79.5341 107.661 79.2742 107.24 78.9763L107.689 79.2938C106.892 78.7158 106.205 78.0341 105.474 77.3935C104.56 76.5923 103.529 75.8977 102.48 75.2483C101.509 74.6473 100.508 74.09 99.5222 73.5102C98.6279 72.984 97.767 72.4196 96.9041 71.852C96.0563 71.2943 95.2076 70.7378 94.38 70.1554L95.0091 70.6003C93.5117 69.5413 92.0109 68.3756 90.8372 67.0213L91.3521 67.6156C90.9873 67.1871 90.6809 66.7142 90.2728 66.3156C90.0398 66.0881 89.808 65.8633 89.594 65.6211L90.0743 66.1756C90.0324 66.1275 89.991 66.0791 89.9502 66.0303C89.4707 65.4623 88.93 64.9371 88.1254 64.7561C87.4734 64.6095 86.8567 64.6218 86.25 64.8334C84.8885 65.3084 84.2829 66.5743 84.6505 67.8754C84.8567 68.6051 85.1414 69.3553 85.6497 69.9752C86.1705 70.6104 86.7196 71.2321 87.3358 71.7978C88.4058 72.78 89.6514 73.6038 90.9252 74.3555C93.2482 75.7263 95.6896 76.9572 98.1595 78.0795C99.7364 78.7961 101.335 79.5149 102.738 80.5042L102.254 80.162C103.86 81.3065 105.357 82.582 107.351 83.111C108.393 83.3874 109.604 82.8513 109.808 81.8931C109.906 81.4347 109.862 80.9205 109.555 80.501C109.231 80.0587 108.823 79.814 108.284 79.6136Z" fill="black"/>
<path d="M116.284 66.6136C116.212 66.5879 116.141 66.5608 116.071 66.5322L116.587 66.737C116.103 66.5341 115.661 66.2742 115.24 65.9763L115.689 66.2938C114.892 65.7158 114.205 65.0341 113.474 64.3935C112.56 63.5923 111.529 62.8977 110.48 62.2483C109.509 61.6473 108.508 61.09 107.522 60.5102C106.628 59.984 105.767 59.4196 104.904 58.852C104.056 58.2943 103.208 57.7378 102.38 57.1554L103.009 57.6003C101.512 56.5413 100.011 55.3756 98.8372 54.0213L99.3521 54.6156C98.9873 54.1871 98.6809 53.7142 98.2728 53.3156C98.0398 53.0881 97.808 52.8633 97.594 52.6211L98.0743 53.1756C98.0324 53.1275 97.991 53.0791 97.9502 53.0303C97.4707 52.4623 96.93 51.9371 96.1254 51.7561C95.4734 51.6095 94.8567 51.6218 94.25 51.8334C92.8885 52.3084 92.2829 53.5743 92.6505 54.8754C92.8567 55.6051 93.1414 56.3553 93.6497 56.9752C94.1705 57.6104 94.7196 58.2321 95.3358 58.7978C96.4058 59.78 97.6514 60.6038 98.9252 61.3555C101.248 62.7263 103.69 63.9572 106.159 65.0795C107.736 65.7961 109.335 66.5149 110.738 67.5042L110.254 67.162C111.86 68.3065 113.357 69.582 115.351 70.111C116.393 70.3874 117.604 69.8513 117.808 68.8931C117.906 68.4347 117.862 67.9205 117.555 67.501C117.231 67.0587 116.823 66.814 116.284 66.6136Z" fill="black"/>
<path d="M122.284 50.6136C122.212 50.5879 122.141 50.5608 122.071 50.5322L122.587 50.737C122.103 50.5341 121.661 50.2742 121.24 49.9763L121.689 50.2938C120.892 49.7158 120.205 49.0341 119.474 48.3935C118.56 47.5923 117.529 46.8977 116.48 46.2483C115.509 45.6473 114.508 45.09 113.522 44.5102C112.628 43.984 111.767 43.4196 110.904 42.852C110.056 42.2943 109.208 41.7378 108.38 41.1554L109.009 41.6003C107.512 40.5413 106.011 39.3756 104.837 38.0213L105.352 38.6156C104.987 38.1871 104.681 37.7142 104.273 37.3156C104.04 37.0881 103.808 36.8633 103.594 36.6211L104.074 37.1756C104.032 37.1275 103.991 37.0791 103.95 37.0303C103.471 36.4623 102.93 35.9371 102.125 35.7561C101.473 35.6095 100.857 35.6218 100.25 35.8334C98.8885 36.3084 98.2829 37.5743 98.6505 38.8754C98.8567 39.6051 99.1414 40.3553 99.6497 40.9752C100.17 41.6104 100.72 42.2321 101.336 42.7978C102.406 43.78 103.651 44.6038 104.925 45.3555C107.248 46.7263 109.69 47.9572 112.159 49.0795C113.736 49.7961 115.335 50.5149 116.738 51.5042L116.254 51.162C117.86 52.3065 119.357 53.582 121.351 54.111C122.393 54.3874 123.604 53.8513 123.808 52.8931C123.906 52.4347 123.862 51.9205 123.555 51.501C123.231 51.0587 122.823 50.814 122.284 50.6136Z" fill="black"/>


</svg>
