<svg width="149" height="270" viewBox="0 0 149 270" fill="none" xmlns="http://www.w3.org/2000/svg">
<path d="M76.8431 207.563C77.0865 207.991 77.2929 208.438 77.5327 208.867C77.6099 209.029 77.6078 209.015 77.5265 208.825L77.6891 209.207C77.8505 209.543 77.6172 208.952 77.7241 209.27C77.8067 209.516 77.9049 209.759 77.9993 210.001C78.3848 210.989 78.8044 211.947 79.4121 212.82L79.1831 212.283C79.2712 212.497 79.3616 212.71 79.4543 212.923C79.5783 213.125 79.7262 213.306 79.8979 213.467C79.973 213.554 80.047 213.641 80.1216 213.729C80.2971 213.934 80.4778 214.135 80.6614 214.333C81.0008 214.699 81.3509 215.055 81.7009 215.411C82.4433 216.166 83.1623 216.943 83.9135 217.69L83.4441 217.087C83.7355 217.502 84.006 217.8 84.3751 218.113C84.5353 218.249 84.6967 218.384 84.8593 218.517C85.4084 218.967 85.9727 219.399 86.541 219.825C87.2736 220.374 88.0233 220.881 88.8425 221.294C90.2477 222.003 91.7695 222.549 93.2933 222.95C94.2403 223.2 95.1921 223.354 96.1648 223.472C97.0815 223.584 97.9256 223.518 98.8435 223.345C99.9313 223.14 100.971 222.639 101.967 222.184C102.749 221.826 103.534 221.476 104.317 221.121C106.218 220.258 107.988 219.137 109.913 218.323L109.084 218.669C110.462 218.097 111.883 217.644 113.255 217.053C114.36 216.576 115.341 215.933 116.374 215.329C117.501 214.67 118.711 214.159 119.824 213.474C121.257 212.592 122.519 211.427 123.796 210.34C126.084 208.391 128.345 206.409 130.647 204.475C131.688 203.6 132.638 202.699 133.497 201.643C134.314 200.638 135.076 199.589 135.956 198.636C136.829 197.69 137.849 196.89 138.711 195.933C139.301 195.279 139.912 194.572 140.299 193.776C140.484 193.394 140.67 192.992 140.799 192.588C140.936 192.157 140.96 191.686 141.016 191.241C141.064 190.854 141.073 190.464 141.12 190.077L140.99 191.042C141.086 190.411 141.386 189.811 141.633 189.225C141.509 189.515 141.386 189.805 141.263 190.095C141.652 189.183 142.126 188.324 142.63 187.47C143.293 186.348 143.881 185.233 144.383 184.029C144.887 182.822 145.139 181.49 145.04 180.183C144.957 179.086 144.715 178.017 144.857 176.913L144.725 177.885C144.943 176.428 145.661 175.14 146.06 173.736C146.284 172.95 146.377 172.125 146.475 171.318C146.546 170.738 146.58 170.154 146.579 169.57C146.576 168.111 146.418 166.586 145.988 165.188C145.471 163.509 144.552 162.128 143.348 160.849C142.156 159.584 140.649 158.704 139.274 157.659L140.012 158.224C139.597 157.897 139.235 157.526 138.91 157.112C139.1 157.355 139.289 157.597 139.478 157.84C139.132 157.387 138.833 156.902 138.529 156.42C138.133 155.791 137.705 155.196 137.248 154.61C136.812 154.051 136.371 153.503 135.865 153.004C135.281 152.428 134.632 151.934 133.976 151.443C133.131 150.81 132.208 150.295 131.251 149.848C130.502 149.497 129.735 149.186 128.962 148.891C128.362 148.661 127.763 148.422 127.135 148.278C125.614 147.93 124.05 147.881 122.501 147.999C121.103 148.105 119.714 148.216 118.312 148.268C117.381 148.303 116.448 148.4 115.531 148.565C114.65 148.724 113.838 149.067 113.022 149.427C111.857 149.94 110.816 150.68 109.696 151.275C109.055 151.616 108.385 151.895 107.753 152.256C107.18 152.583 106.63 152.949 106.101 153.342C104.733 154.36 103.478 155.505 102.131 156.548L102.802 156.034C101.606 156.949 100.258 157.602 98.9814 158.394C97.6493 159.219 96.3669 160.121 95.1223 161.071C93.6911 162.163 92.2906 163.287 90.9551 164.493C89.6799 165.645 88.4816 166.818 87.4683 168.21C86.5065 169.53 85.8008 171.015 84.8036 172.312L85.3275 171.639C84.5874 172.582 83.8784 173.463 83.3954 174.561C82.9215 175.638 82.5313 176.743 82.0767 177.827L82.4167 177.028C82.1905 177.558 81.8877 178.035 81.5352 178.49C81.7114 178.264 81.8876 178.038 82.0638 177.812C81.3341 178.738 80.5068 179.59 79.8603 180.579C79.4693 181.178 79.1671 181.862 78.9534 182.538C78.7071 183.318 78.7077 184.152 78.6152 184.958L78.7368 184.061C78.6971 184.343 78.6326 184.605 78.5242 184.869L78.8676 184.062C78.3541 185.239 77.5134 186.272 76.7352 187.286C76.9136 187.057 77.092 186.828 77.2704 186.599C76.6194 187.409 75.8112 188.122 75.3308 189.054C74.8949 189.901 74.749 190.517 74.6531 191.448C74.6225 191.744 74.6275 192.043 74.5931 192.339C74.634 192.037 74.675 191.735 74.7159 191.433C74.6861 191.639 74.6448 191.841 74.5733 192.038C74.689 191.766 74.8046 191.494 74.9203 191.222C74.8044 191.49 74.6368 191.72 74.4581 191.95L74.9968 191.258C74.3331 192.108 73.6964 192.891 73.4949 193.989C73.3957 194.53 73.3125 195.06 73.3652 195.605C73.4183 196.152 73.5187 196.691 73.5977 197.235C73.5565 196.931 73.5153 196.627 73.4742 196.324C73.512 196.622 73.5146 196.909 73.4766 197.208C73.5178 196.904 73.559 196.6 73.6002 196.296C73.3992 197.764 72.9837 199.208 72.9964 200.701C73.0039 201.593 73.1562 202.49 73.4461 203.334C73.6481 203.922 73.8879 204.499 73.9865 205.116L73.8618 204.196C73.8919 204.434 73.8961 204.661 73.8658 204.899C73.762 205.715 74.3311 206.795 74.8891 207.348C75.4951 207.948 76.4893 208.401 77.3595 208.362C78.2631 208.322 79.2002 208.028 79.8299 207.348L80.3762 206.647C80.6922 206.107 80.8512 205.524 80.8532 204.899C81.0636 203.245 80.0757 201.887 79.8539 200.32C79.8953 200.626 79.9368 200.931 79.9782 201.237C79.9129 200.633 79.9474 200.019 80.0273 199.419L79.9034 200.333C79.9955 199.691 80.1407 199.057 80.2347 198.415C80.3216 197.821 80.4654 197.193 80.4183 196.586C80.3716 195.985 80.2551 195.393 80.1639 194.798C80.205 195.101 80.2462 195.405 80.2873 195.708C80.2534 195.455 80.2412 195.211 80.2654 194.956C80.2243 195.26 80.1833 195.563 80.1421 195.866C80.1701 195.676 80.2136 195.497 80.2831 195.318C80.1672 195.59 80.0514 195.863 79.9354 196.135C80.0648 195.85 80.2483 195.607 80.4373 195.359C80.7869 194.901 81.0145 194.398 81.2109 193.852C81.4976 193.054 81.4238 192.195 81.5342 191.371C81.4933 191.673 81.4524 191.975 81.4115 192.276C81.442 192.101 81.492 191.937 81.5602 191.772C81.4449 192.043 81.3295 192.314 81.2142 192.585C81.3241 192.348 81.4569 192.13 81.6134 191.921C81.4347 192.151 81.2559 192.38 81.0771 192.609C81.6172 191.921 82.2154 191.292 82.7395 190.587C83.1152 190.082 83.4943 189.578 83.8484 189.057C84.1916 188.552 84.5082 188.031 84.7511 187.471C84.9125 187.099 85.1023 186.725 85.2109 186.331C85.3231 185.924 85.3547 185.492 85.4062 185.077C85.45 184.723 85.4632 184.367 85.5027 184.012C85.4622 184.311 85.4218 184.61 85.3813 184.908C85.4274 184.576 85.516 184.262 85.6423 183.952C85.5282 184.22 85.4141 184.488 85.3 184.756C85.5236 184.24 85.8326 183.777 86.1768 183.333L85.647 184.013C86.4258 183.026 87.3354 182.11 87.9525 181.009C88.6262 179.808 88.9873 178.444 89.519 177.179L89.18 177.975C89.4784 177.281 89.8384 176.627 90.3032 176.028L89.7789 176.7C90.5612 175.726 91.2608 174.735 91.9011 173.666C92.4068 172.822 92.906 171.973 93.5109 171.193C93.3367 171.417 93.1626 171.64 92.9884 171.864C93.8338 170.798 94.8875 169.873 95.8984 168.964C96.9802 167.992 98.1006 167.062 99.2547 166.176C99.0302 166.347 98.8057 166.519 98.5812 166.691C100.366 165.326 102.233 164.061 104.209 162.982C106.335 161.82 108.033 160.081 109.938 158.619C109.715 158.789 109.492 158.96 109.269 159.131C109.793 158.733 110.333 158.358 110.899 158.021C111.522 157.651 112.182 157.361 112.826 157.03C114.09 156.38 115.241 155.531 116.556 154.976L115.769 155.305C116.394 155.051 117.034 154.885 117.702 154.79L116.827 154.907C118.243 154.722 119.671 154.792 121.093 154.726C122.463 154.663 123.82 154.59 125.186 154.76L124.279 154.64C124.861 154.776 125.423 154.902 125.98 155.126C125.703 155.01 125.426 154.894 125.148 154.778C126.085 155.173 127.01 155.617 127.919 156.072C128.748 156.488 129.546 156.96 130.284 157.52L129.559 156.964C130.377 157.594 131.097 158.322 131.733 159.131C131.545 158.89 131.358 158.649 131.17 158.408C131.944 159.409 132.503 160.548 133.267 161.553C133.605 161.998 133.942 162.458 134.336 162.858C134.758 163.287 135.253 163.644 135.734 164.001C136.268 164.397 136.82 164.769 137.349 165.172L136.609 164.605C137.418 165.228 138.157 165.907 138.787 166.711C138.596 166.466 138.405 166.221 138.214 165.976C138.529 166.387 138.813 166.804 139.023 167.277C138.9 166.988 138.776 166.698 138.653 166.409C138.957 167.124 139.129 167.882 139.237 168.648L139.106 167.681C139.27 168.916 139.27 170.172 139.107 171.407C139.151 171.084 139.194 170.761 139.238 170.438C139.15 171.071 139.014 171.69 138.798 172.293C138.489 173.157 138.109 173.997 137.849 174.879C137.515 176.008 137.351 177.233 137.455 178.408C137.54 179.378 137.742 180.338 137.634 181.314L137.766 180.34C137.672 181.002 137.439 181.627 137.178 182.24C137.303 181.948 137.427 181.656 137.551 181.364C136.927 182.769 136.046 184.038 135.37 185.416C134.934 186.304 134.565 187.229 134.21 188.152C133.826 189.151 133.832 190.195 133.704 191.241L133.834 190.278C133.805 190.465 133.763 190.642 133.697 190.819L134.065 189.954C133.886 190.373 133.638 190.75 133.36 191.11L133.93 190.379C133.126 191.395 132.128 192.229 131.217 193.146C130.051 194.319 129.097 195.692 128.084 196.992C128.273 196.751 128.461 196.509 128.649 196.268C127.858 197.278 127.018 198.216 126.039 199.05C124.955 199.974 123.881 200.909 122.811 201.847C121.741 202.785 120.674 203.726 119.603 204.662C118.531 205.598 117.477 206.577 116.348 207.445C116.586 207.262 116.824 207.08 117.062 206.898C115.817 207.829 114.382 208.436 113.042 209.211C112.407 209.579 111.808 210.004 111.168 210.366C110.588 210.694 109.987 210.982 109.373 211.241C109.65 211.125 109.927 211.009 110.205 210.893C108.987 211.399 107.737 211.817 106.524 212.337C105.491 212.779 104.501 213.309 103.516 213.846C102.527 214.385 101.54 214.93 100.51 215.388C99.5093 215.831 98.5485 216.359 97.5411 216.787C97.8119 216.674 98.0827 216.56 98.3535 216.447C97.8264 216.665 97.2898 216.848 96.7241 216.937C97.0235 216.897 97.3228 216.857 97.6221 216.817C97.0167 216.896 96.4066 216.85 95.8035 216.771L96.6949 216.89C95.0412 216.661 93.3854 216.202 91.8442 215.566L92.6291 215.894C91.8257 215.556 91.0447 215.142 90.2845 214.719C89.4221 214.239 88.5675 213.718 87.769 213.139C87.974 213.296 88.179 213.453 88.384 213.61C88.1468 213.426 87.9086 213.243 87.6693 213.061C87.3942 212.938 87.1159 212.823 86.8343 212.716L87.5515 213.016C86.7317 212.516 85.9345 211.982 85.1213 211.473C84.332 210.978 83.5385 210.489 82.7913 209.932C82.9481 210.053 83.105 210.173 83.2619 210.293C83.1248 210.182 82.9981 210.07 82.8566 209.962C82.5827 209.752 82.2958 209.643 81.9769 209.513L82.5194 209.74C82.4012 209.656 82.2845 209.57 82.1691 209.482L82.613 209.822C81.9413 209.298 81.3683 208.679 80.8177 208.033C80.6879 207.881 80.5502 207.731 80.4296 207.572C80.7635 208.013 80.1018 207.141 80.2217 207.27C80.404 207.466 80.2751 207.313 80.1893 207.184C79.9389 206.809 79.6829 206.437 79.4137 206.074C78.9536 205.454 78.1019 205.081 77.3772 205.545C76.6912 205.983 76.4335 206.844 76.8431 207.563Z" fill="#18181B"/>
<path d="M77.3591 204.899C77.1579 205.89 78.7574 207.508 79.6417 207.912C80.8587 208.468 84.1791 207.961 85.4308 207.572C87.4667 206.939 90.162 206.085 91.9263 204.902C93.6125 203.772 94.9243 202.125 96.6052 200.955C98.2484 199.811 100.159 199.34 101.79 198.277C103.047 197.457 103.751 196.178 104.867 195.234C105.853 194.401 106.829 193.594 107.82 192.731C108.936 191.761 110.455 191.331 111.535 190.45C112.697 189.502 113.47 188.074 114.664 187.079C115.848 186.093 116.598 184.979 117.593 183.805C117.895 183.449 118.742 182.8 119.027 182.328C119.633 181.327 119.624 180.177 120.083 179.105C120.776 177.489 122.143 176.315 123.059 174.855C123.674 173.874 124.059 172.642 124.47 171.556C125.341 169.255 126.049 166.886 126.879 164.571C128.527 159.973 127.921 152.443 121.286 152.661C118.44 152.754 114.841 154.437 112.133 155.36C109.471 156.268 107.286 157.859 104.821 159.203C102.188 160.64 100.508 161.887 98.505 164.105C97.2716 165.47 96.1079 167.017 94.73 168.234C93.2805 169.514 91.673 170.541 90.6388 172.244C89.7437 173.718 89.1378 175.665 88.4933 177.273C87.8572 178.86 87.0635 180.205 86.3318 181.752C85.0319 184.5 84.3355 187.462 83.1083 190.218C82.1431 192.386 80.9133 194.6 80.0265 196.899C79.5088 198.241 79.8633 199.306 79.6141 200.702C79.3829 201.996 79.2444 202.783 79.2959 204.136" fill="#18181B"/>
<path d="M76.2238 204.588C75.9919 205.204 76.1273 205.951 76.3675 206.544C76.6814 207.319 77.0967 207.962 77.6236 208.612L77.3505 208.262C77.527 208.676 78.1056 209.06 78.4571 209.307C78.7363 209.503 79.0517 209.634 79.3733 209.75C79.9638 209.962 80.6195 210.019 81.2419 210.059C82.5372 210.142 83.8707 209.96 85.1422 209.723C86.3032 209.506 87.4474 209.126 88.5673 208.76C90.0574 208.272 91.5778 207.717 92.9193 206.9C94.5292 205.92 95.876 204.587 97.3606 203.442L96.8628 203.824C97.7145 203.174 98.6215 202.658 99.61 202.242C99.4016 202.329 99.1933 202.416 98.9849 202.503C99.4893 202.293 99.995 202.088 100.499 201.876L99.865 202.142C100.922 201.7 102.012 201.289 103 200.703C103.951 200.139 104.75 199.391 105.487 198.58C105.782 198.254 106.076 197.926 106.393 197.621C106.75 197.278 107.144 196.978 107.529 196.668C108.36 196 109.176 195.311 110.014 194.652C109.818 194.802 109.622 194.952 109.426 195.102C110.419 194.348 111.624 193.962 112.666 193.288C113.359 192.839 114.002 192.306 114.562 191.701C114.993 191.235 115.387 190.738 115.811 190.266C116.24 189.788 116.718 189.389 117.201 188.967C117.688 188.541 118.129 188.069 118.544 187.574C118.976 187.06 119.381 186.521 119.829 186.021C120.151 185.664 120.538 185.369 120.877 185.028C121.696 184.205 122.207 183.229 122.542 182.125C122.762 181.401 122.876 180.65 123.174 179.949L122.851 180.708C123.145 180.049 123.549 179.455 123.991 178.885L123.488 179.531C124.452 178.304 125.574 177.155 126.268 175.747C127.015 174.232 127.578 172.6 128.149 171.013C128.682 169.534 129.171 168.039 129.692 166.556C130.022 165.618 130.375 164.698 130.585 163.724C131.074 161.451 131.139 159.196 130.704 156.912C130.501 155.844 130.1 154.797 129.59 153.838C129.111 152.936 128.445 152.071 127.643 151.428C126.558 150.558 125.374 149.87 123.99 149.571C123.249 149.411 122.477 149.311 121.717 149.301C120.862 149.29 120.004 149.417 119.164 149.558C116.56 149.994 114.133 151.137 111.669 152.029C110.112 152.593 108.601 153.233 107.16 154.046C105.901 154.755 104.687 155.538 103.428 156.248C101.035 157.596 98.7684 159.124 96.8518 161.101C95.8722 162.111 94.994 163.21 94.0583 164.259C93.1288 165.301 92.1022 166.199 91.0225 167.083C89.8011 168.082 88.6869 169.17 87.8429 170.515C86.9926 171.87 86.4417 173.414 85.8814 174.903C85.6441 175.533 85.4108 176.165 85.1472 176.785L85.4806 176.002C85.055 176.99 84.5536 177.94 84.0642 178.897C83.449 180.1 82.8956 181.329 82.4019 182.587C81.5993 184.631 80.9953 186.748 80.14 188.773C80.252 188.51 80.364 188.247 80.4759 187.984C79.6858 189.835 78.712 191.603 77.8685 193.431C77.5499 194.121 77.2511 194.821 76.9597 195.523C76.7732 195.972 76.5988 196.418 76.5208 196.9C76.4066 197.607 76.3284 198.292 76.321 199.003C76.3161 199.47 76.3107 199.935 76.2534 200.4L76.3751 199.502C76.1587 201.048 75.8105 202.564 75.8651 204.136C75.8961 205.027 76.2266 205.903 76.8702 206.541C77.4654 207.131 78.442 207.576 79.2968 207.538C80.1843 207.498 81.1048 207.209 81.7234 206.541C82.3275 205.889 82.7601 205.046 82.7285 204.136C82.7033 203.412 82.7256 202.698 82.8197 201.979C82.779 202.279 82.7383 202.579 82.6976 202.88C82.8324 201.893 83.0585 200.914 83.107 199.917C83.1407 199.224 83.0844 198.53 83.1733 197.839L83.0523 198.733C83.1614 197.996 83.4694 197.311 83.759 196.629L83.4186 197.429C84.1539 195.71 85.0158 194.05 85.7852 192.347C86.6532 190.426 87.3479 188.457 88.0308 186.467C88.3766 185.46 88.7349 184.457 89.1493 183.475L88.815 184.26C89.4599 182.748 90.2846 181.322 90.9639 179.826C91.7075 178.189 92.2605 176.484 92.9606 174.83C92.8497 175.09 92.7388 175.351 92.628 175.611C93.001 174.74 93.4234 173.892 94.0082 173.14C93.8366 173.36 93.6648 173.58 93.4931 173.801C94.666 172.327 96.2884 171.319 97.6217 170.005C99.0515 168.597 100.233 166.965 101.637 165.532C102.314 164.84 103.035 164.193 103.803 163.603L103.141 164.11C104.539 163.045 106.091 162.255 107.609 161.38C109.28 160.418 110.915 159.385 112.697 158.631L111.903 158.963C112.655 158.65 113.432 158.406 114.196 158.126C114.962 157.846 115.724 157.555 116.491 157.278C118.024 156.725 119.589 156.199 121.211 155.975C120.911 156.015 120.612 156.055 120.313 156.095C121.049 155.999 121.789 155.98 122.526 156.076L121.625 155.956C122.13 156.027 122.622 156.152 123.093 156.344L122.282 156.005C122.692 156.177 123.076 156.397 123.43 156.666C123.2 156.49 122.971 156.314 122.741 156.138C123.108 156.422 123.433 156.753 123.72 157.116C123.542 156.888 123.365 156.66 123.187 156.432C123.532 156.877 123.808 157.364 124.029 157.88C123.915 157.612 123.801 157.344 123.687 157.076C123.997 157.814 124.19 158.591 124.301 159.381C124.261 159.084 124.221 158.788 124.18 158.491C124.336 159.649 124.318 160.823 124.164 161.979L124.284 161.097C124.124 162.259 123.785 163.343 123.41 164.451C122.786 166.294 122.222 168.156 121.571 169.99C121.234 170.939 120.911 171.901 120.521 172.83C120.631 172.574 120.74 172.317 120.849 172.06C120.497 172.884 120.034 173.616 119.486 174.325C119.654 174.108 119.823 173.892 119.992 173.676C119.148 174.758 118.19 175.792 117.55 177.011C117.168 177.738 116.861 178.508 116.671 179.306C116.529 179.899 116.416 180.498 116.18 181.064L116.501 180.311C116.411 180.513 116.312 180.711 116.18 180.89L116.677 180.253C116.299 180.734 115.796 181.095 115.391 181.55C114.871 182.135 114.417 182.778 113.917 183.379C113.404 183.995 112.85 184.538 112.27 185.089C111.554 185.768 110.974 186.589 110.372 187.363C110.531 187.159 110.69 186.955 110.848 186.751C110.356 187.383 109.853 188.011 109.217 188.508C109.419 188.353 109.621 188.198 109.823 188.044C109.232 188.49 108.571 188.823 107.926 189.182C107.057 189.666 106.264 190.25 105.527 190.916C104.273 192.048 102.904 193.089 101.819 194.387C101.28 195.032 100.756 195.69 100.088 196.21L100.64 195.788C99.8583 196.376 98.961 196.796 98.0786 197.211C97.21 197.62 96.3511 198.058 95.5707 198.62C94.6356 199.293 93.7974 200.048 92.9947 200.869C92.3059 201.573 91.6351 202.304 90.8749 202.934L91.3309 202.585C91.1026 202.758 90.8782 202.935 90.6517 203.11L91.1061 202.762C90.0965 203.528 88.9508 204.084 87.784 204.572C87.9549 204.5 88.1259 204.429 88.2968 204.357C86.3497 205.165 84.3582 205.887 82.2597 206.173L82.787 206.103C82.296 206.168 81.7792 206.174 81.2977 206.28L81.8164 206.211C81.2701 206.266 80.7156 206.297 80.169 206.23C80.3334 206.252 80.4978 206.273 80.6621 206.295C80.4634 206.268 80.2697 206.226 80.0834 206.151L80.5182 206.333C80.2857 206.232 80.0641 206.102 79.8606 205.952L80.2205 206.227C79.9317 205.994 79.6984 205.8 79.3227 205.719C79.4618 205.777 79.6009 205.835 79.7399 205.893C79.5261 205.772 79.3264 205.636 79.1235 205.498C78.9721 205.395 79.437 205.751 79.2425 205.59C79.1955 205.551 79.1479 205.513 79.1015 205.473C79.0024 205.389 78.906 205.301 78.814 205.209C78.7375 205.133 78.6706 205.032 78.5884 204.963C78.6366 205.004 78.7884 205.244 78.6654 205.06C78.6369 205.017 78.6071 204.975 78.5802 204.931C78.5552 204.89 78.528 204.815 78.4962 204.78C78.5309 204.818 78.6004 205.097 78.5504 204.901C78.5435 204.874 78.5305 204.795 78.5158 204.777C78.5498 204.819 78.543 205.128 78.5385 204.898C78.527 204.314 78.0988 203.828 77.5167 203.751C76.9063 203.669 76.4316 204.035 76.2238 204.588Z" fill="#18181B"/>
<path d="M130.862 91.4849C132.278 91.902 133.782 90.8564 134.774 89.9707C134.519 90.1182 134.264 90.2658 134.008 90.4132C134.339 90.3066 134.598 90.1893 134.847 89.9425C134.986 89.8045 135.091 89.6292 135.207 89.471C135.286 89.3645 135.367 89.2602 135.439 89.1491C135.629 88.8574 135.775 88.5265 135.882 88.1983C136.08 87.595 136.115 86.9158 136.113 86.2834C136.107 84.9602 135.859 83.6023 135.511 82.3253C135.179 81.1056 134.674 79.9096 134.183 78.746C133.827 77.9019 133.462 77.0612 133.024 76.2547C132.598 75.4699 132.093 74.7665 131.536 74.0676C130.407 72.6513 128.999 71.4844 127.879 70.0612C128.01 70.2288 128.14 70.3965 128.271 70.5641C127.741 69.8781 127.321 69.1294 126.94 68.3541L127.205 68.9779C126.761 67.878 126.192 66.7669 125.55 65.7646C124.897 64.7456 124.113 63.9095 123.164 63.1677C122.79 62.8762 122.412 62.5904 122.058 62.2757C121.656 61.9184 121.299 61.5145 120.932 61.1227C120.532 60.6953 120.132 60.2675 119.729 59.8423C119.337 59.4287 118.921 59.0319 118.565 58.5869C118.716 58.7818 118.868 58.9767 119.02 59.1716C118.655 58.701 118.353 58.1899 118.053 57.6775C117.642 56.9771 117.201 56.3302 116.688 55.696C115.789 54.5843 114.517 53.8318 113.391 52.9703L114.012 53.446C113.218 52.8313 112.571 52.0689 111.795 51.4342C110.834 50.6485 109.783 49.9936 108.797 49.2423L109.437 49.7325C109.114 49.4725 108.83 49.1684 108.521 48.8929C108.187 48.5949 107.827 48.3107 107.457 48.06C107.058 47.7889 106.564 47.6171 106.12 47.4518C105.056 47.0556 103.894 47.0693 102.839 46.6309C103.094 46.7378 103.349 46.8446 103.605 46.9514C102.551 46.4958 101.646 45.7947 100.708 45.1491C99.5565 44.3567 98.2987 43.7887 96.9633 43.3643C94.4835 42.5764 91.9585 41.9477 89.4477 41.2681C88.5556 41.0267 87.6746 40.7485 86.7619 40.5922C85.7746 40.4232 84.7687 40.2943 83.7654 40.2723C82.7204 40.2494 81.6972 40.3711 80.664 40.5222C79.9557 40.6258 79.2546 40.7922 78.5836 41.0417C77.6735 41.38 76.7688 41.76 75.9837 42.3353C74.972 43.0768 74.1778 43.8259 73.4978 44.896C73.1668 45.417 72.9335 46.0075 72.7132 46.5779C72.5801 46.9224 72.4852 47.2809 72.425 47.6448C72.3159 48.304 72.2157 48.9764 72.2209 49.6469C72.2266 50.3831 72.3381 51.1273 72.4633 51.8492C72.6488 52.9187 73.0084 53.9543 73.4123 54.9599C73.9349 56.261 74.517 57.5363 75.1158 58.8042C75.5842 59.7957 76.0048 60.8143 76.4983 61.7932C77.0369 62.8618 77.6927 63.8666 78.3762 64.8486C79.0661 65.84 79.7839 66.8123 80.4494 67.8204C81.1877 68.9388 81.9751 70.0129 82.8207 71.0551C84.3618 72.9547 86.2772 74.4449 88.2451 75.887C88.7374 76.2478 89.2308 76.6073 89.7155 76.9782C89.4942 76.8087 89.2728 76.6391 89.0514 76.4696C89.9072 77.1287 90.7016 77.8387 91.4479 78.6175C92.1282 79.3275 92.7905 80.059 93.547 80.6916C94.1214 81.172 94.7222 81.6448 95.37 82.0268C96.0129 82.406 96.7173 82.6816 97.4068 82.9623C98.3962 83.3651 99.4237 83.6649 100.448 83.9674C101.651 84.3229 102.826 84.7232 103.983 85.2062L103.193 84.8754C105.078 85.6653 106.938 86.4698 108.904 87.0409C110.627 87.5413 112.381 87.9399 114.089 88.4902C115.797 89.0404 117.442 89.7684 119.107 90.4305C119.937 90.7603 120.772 91.0776 121.621 91.3568C122.679 91.7048 123.792 91.8555 124.906 91.7996C125.326 91.7785 125.746 91.7448 126.167 91.7508C126.652 91.7577 127.132 91.8306 127.614 91.8791C128.503 91.9685 129.388 91.986 130.278 91.8961C130.75 91.9138 131.191 91.8162 131.6 91.6032C132.025 91.466 132.394 91.2315 132.704 90.8997C133.3 90.3097 133.748 89.3416 133.709 88.4942C133.67 87.6144 133.378 86.7019 132.704 86.0887C132.073 85.5141 131.168 85.0024 130.278 85.0923C129.161 85.205 128.076 85.1588 126.961 85.0468C125.826 84.9329 124.692 85.1888 123.562 85.0388L124.463 85.1588C123.87 85.0663 123.297 84.8593 122.731 84.667C122.149 84.4697 121.573 84.2577 121 84.039C119.867 83.607 118.744 83.1483 117.608 82.7257C115.342 81.8837 112.989 81.3603 110.669 80.6954C109.359 80.32 108.089 79.8596 106.833 79.3348L107.624 79.6657C106.053 79.0078 104.499 78.3338 102.864 77.8462C101.56 77.4572 100.239 77.1094 98.981 76.5839L99.7686 76.9134C99.0897 76.6237 98.4565 76.2721 97.8674 75.8284L98.5339 76.3389C97.2768 75.3719 96.2972 74.1204 95.1317 73.0562C93.6718 71.7233 92.0007 70.64 90.4317 69.4418C90.6527 69.6111 90.8737 69.7804 91.0947 69.9496C89.626 68.8205 88.2838 67.5625 87.1444 66.1034L87.6551 66.7587C86.5974 65.3594 85.6816 63.8593 84.6825 62.4188C83.642 60.9188 82.6183 59.4016 81.8948 57.721L82.2303 58.509C81.5033 56.787 80.6928 55.1026 79.9598 53.3834L80.298 54.1779C79.71 52.7901 79.1632 51.3565 78.9496 49.8586L79.0703 50.7495C78.9843 50.1005 78.9684 49.446 79.051 48.7959C79.0106 49.0938 78.9702 49.3918 78.9298 49.6897C78.9977 49.1978 79.1224 48.7193 79.3149 48.2606L78.9721 49.0659C79.1398 48.679 79.3517 48.3169 79.6078 47.9809L79.0749 48.6646C79.3748 48.2801 79.7238 47.9359 80.1092 47.6358C79.8795 47.8117 79.6498 47.9876 79.4202 48.1635C79.8974 47.7991 80.4213 47.5069 80.9741 47.2713C80.7041 47.3842 80.4341 47.4972 80.1642 47.6101C80.996 47.2626 81.8745 47.0467 82.7674 46.9236L81.8715 47.043C83.0989 46.8802 84.345 46.89 85.572 47.051L84.6837 46.9327C85.3308 47.0205 85.9627 47.1594 86.5928 47.3279C87.7371 47.6338 88.8884 47.9127 90.0383 48.197C91.1698 48.4767 92.3002 48.7614 93.4207 49.0819C94.4438 49.3745 95.4862 49.6223 96.4718 50.0283L95.6957 49.7036C97.0643 50.2861 98.1835 51.2811 99.4707 52.0045C100.332 52.4887 101.281 52.9019 102.257 53.0906C103.053 53.2447 103.866 53.3 104.623 53.61L103.863 53.2922C104.058 53.3783 104.23 53.4772 104.4 53.604L103.757 53.1119C104.036 53.329 104.294 53.5711 104.554 53.8097C104.99 54.2093 105.465 54.5641 105.952 54.9015C106.687 55.4121 107.441 55.897 108.155 56.4374C107.944 56.2757 107.733 56.1138 107.521 55.952C107.879 56.2268 108.217 56.5194 108.542 56.8316C109.009 57.2814 109.533 57.6721 110.056 58.0557C110.729 58.5493 111.451 58.9743 112.116 59.4787L111.505 59.0106C111.946 59.3523 112.341 59.7285 112.685 60.1679L112.219 59.5694C112.709 60.2116 113.105 60.9169 113.58 61.5701C113.942 62.069 114.321 62.58 114.763 63.0161C115.125 63.3734 115.5 63.7187 115.865 64.073C116.546 64.7329 117.199 65.437 117.918 66.0552C118.692 66.7198 119.551 67.2693 120.36 67.887L119.803 67.46C120.248 67.8055 120.658 68.181 121.008 68.6228C120.866 68.441 120.724 68.2593 120.583 68.0776C121.205 68.881 121.691 69.7716 122.189 70.6525C122.771 71.6815 123.488 72.6775 124.3 73.5387C125.702 75.0257 127.507 76.1027 128.778 77.7139L128.429 77.2667C129.701 78.909 130.543 80.8561 131.351 82.7513C131.281 82.5882 131.212 82.4251 131.143 82.262C131.66 83.4784 132.027 84.7466 132.226 86.0537C132.203 85.8812 132.18 85.7087 132.156 85.5362C132.203 85.9082 132.272 86.2746 132.325 86.6455L132.256 86.1376C132.319 86.6085 132.361 87.0883 132.304 87.562L132.369 87.0761C132.343 87.2641 132.295 87.4393 132.222 87.6147C132.283 87.4718 132.344 87.3289 132.405 87.1859C132.167 87.7247 131.822 88.1142 131.811 88.7541C131.89 88.4646 131.969 88.1751 132.048 87.8856C131.937 88.1068 131.816 88.3223 131.68 88.5294C131.619 88.6227 131.549 88.7106 131.488 88.8038C131.392 88.9508 131.724 88.5219 131.562 88.7073C131.521 88.7538 131.482 88.8016 131.44 88.8476C131.369 88.9266 131.295 89.0033 131.218 89.0759C131.178 89.1129 131.13 89.147 131.092 89.1862C130.987 89.2966 131.362 89.0061 131.181 89.1164C131.109 89.1607 130.984 89.2064 130.923 89.2632C130.925 89.2607 131.214 89.1236 131.063 89.1967C130.986 89.2343 130.729 89.2292 131.175 89.1904C130.585 89.2417 130.1 89.596 130.018 90.2033C129.939 90.7797 130.295 91.3178 130.862 91.4849Z" fill="#8FD4EA"/>
<path d="M29.3448 269.06C30.3952 268.852 31.4517 268.679 32.5091 268.51C33.0266 268.428 33.5444 268.346 34.0617 268.263C34.3218 268.221 34.5817 268.178 34.8415 268.135C34.9975 268.109 35.1534 268.082 35.3093 268.055C35.3099 268.055 35.7947 267.967 35.5302 268.012C37.6982 267.645 39.9337 267.444 41.9949 266.624C45.8705 265.081 49.7579 263.055 52.7891 260.16C54.0955 258.912 55.1711 257.47 56.1889 255.988C57.1027 254.656 57.9553 253.282 58.7112 251.856C60.2968 248.865 61.543 245.43 61.4283 242.004C61.3719 240.317 60.9677 238.644 60.1213 237.171C59.1908 235.553 57.7576 234.263 56.152 233.319C54.3517 232.259 52.125 231.534 50.0342 232.059C48.1135 232.541 46.8209 233.98 46.0215 235.708C45.2906 237.288 44.6984 238.987 44.4283 240.71C44.2422 241.897 44.2661 243.085 44.2937 244.282C44.3186 245.36 44.2376 246.423 44.2056 247.5C44.1706 248.679 44.3534 249.758 44.8405 250.835C45.2711 251.786 45.8836 252.644 46.4603 253.512C47.6474 255.298 48.4421 257.284 49.5209 259.13C50.0291 259.999 50.62 260.814 51.413 261.45C52.2094 262.088 53.0772 262.542 54.0205 262.928C54.8459 263.265 55.6989 263.523 56.55 263.787C57.5 264.083 58.4241 264.435 59.3579 264.776C61.6333 265.608 63.9928 266.29 66.4319 266.38C68.5685 266.458 70.7615 266.396 72.8816 266.12C75.1322 265.826 77.3159 265.208 79.2767 264.047C80.8892 263.091 82.4803 262.086 83.9647 260.943C85.394 259.842 86.6332 258.56 87.6633 257.082C88.4933 255.891 89.1054 254.595 89.6976 253.278C90.8283 250.765 91.7534 248.052 91.8002 245.272C91.8479 242.436 90.6294 239.587 87.885 238.387C86.1152 237.613 84.3303 237.448 82.4303 237.765C80.6606 238.06 78.7792 238.913 77.512 240.193C76.0066 241.713 75.5994 243.829 76.4885 245.765C77.1646 247.236 78.5822 248.338 79.9404 249.16C81.2259 249.938 82.6242 250.523 84.0188 251.078C86.1449 251.924 88.3544 252.594 90.6172 252.965C93.0044 253.356 95.4295 253.387 97.8444 253.389C99.0889 253.39 100.391 253.309 101.58 252.919C102.694 252.554 103.715 251.995 104.702 251.377C108.392 249.069 112.368 247.085 115.091 243.592C115.445 243.138 115.789 242.678 116.123 242.209C116.266 242.009 116.406 241.807 116.551 241.609C116.604 241.536 116.659 241.464 116.713 241.391C116.963 241.054 116.426 241.748 116.76 241.33C117.444 240.472 118.159 239.639 118.812 238.756C119.453 237.888 119.958 236.965 120.336 235.953C120.645 235.124 120.758 234.228 120.842 233.354C120.922 232.51 120.967 231.57 120.671 230.765C120.314 229.794 119.66 228.43 118.509 228.213L119.284 228.661C119.245 228.624 119.205 228.589 119.161 228.557C118.444 227.991 117.368 227.811 116.676 228.557C116.092 229.188 115.908 230.415 116.676 231.021C116.72 231.053 116.76 231.087 116.799 231.124C116.648 230.868 116.498 230.612 116.347 230.356C116.38 230.559 116.474 230.749 116.58 230.924C116.704 231.127 116.414 230.83 116.494 230.715C116.488 230.723 116.538 230.856 116.543 230.881C116.586 231.085 116.529 231.256 116.537 230.727C116.532 231.062 116.525 231.407 116.529 231.742C116.537 232.433 116.539 233.097 116.477 233.787C116.454 234.057 116.574 233.174 116.514 233.524C116.505 233.576 116.498 233.629 116.489 233.682C116.462 233.844 116.431 234.005 116.392 234.165C116.344 234.365 116.285 234.563 116.217 234.757C116.202 234.802 116.08 235.048 116.098 235.075C116.219 234.797 116.246 234.731 116.179 234.878C116.151 234.94 116.123 235.001 116.092 235.061C115.913 235.427 115.706 235.778 115.482 236.118C115.357 236.309 115.226 236.496 115.093 236.68C115.026 236.773 114.957 236.864 114.889 236.956C114.848 237.01 114.541 237.392 114.761 237.124C114.988 236.848 114.698 237.203 114.671 237.236C114.614 237.308 114.556 237.38 114.499 237.452C114.355 237.632 114.211 237.81 114.068 237.99C113.702 238.451 113.336 238.913 112.99 239.39C112.717 239.766 112.46 240.155 112.191 240.534C112.065 240.711 111.938 240.887 111.809 241.061C111.787 241.09 111.513 241.47 111.716 241.188C111.914 240.912 111.568 241.369 111.53 241.415C110.927 242.142 110.253 242.796 109.529 243.403C109.329 243.57 109.126 243.733 108.922 243.896C108.63 244.128 108.931 243.894 108.978 243.854C108.865 243.95 108.737 244.035 108.618 244.123C108.224 244.411 107.822 244.688 107.414 244.957C105.775 246.04 104.074 247.034 102.414 248.085C102.039 248.323 101.659 248.554 101.265 248.762C101.204 248.794 100.671 249.125 100.598 249.082L100.8 248.996C100.73 249.023 100.659 249.049 100.588 249.073C100.445 249.124 100.3 249.17 100.153 249.211C99.9232 249.276 99.6897 249.317 99.4568 249.369C98.9455 249.482 99.7409 249.352 99.4173 249.379C99.2803 249.391 99.1439 249.408 99.0068 249.418C98.4535 249.458 97.8972 249.453 97.3429 249.439C96.2477 249.412 95.1492 249.4 94.0546 249.359C93.5705 249.342 93.0871 249.306 92.6055 249.254C92.4707 249.24 92.3363 249.223 92.2017 249.207C91.8718 249.17 92.6937 249.288 92.1699 249.201C91.9008 249.156 91.6312 249.115 91.3629 249.066C89.2411 248.676 87.1709 248.028 85.1735 247.224C84.9942 247.151 84.3234 246.865 85.0844 247.19C84.9616 247.138 84.8384 247.086 84.7158 247.034C84.4402 246.915 84.1661 246.792 83.8943 246.665C83.2954 246.384 82.7064 246.081 82.1394 245.741C81.8541 245.57 81.5744 245.39 81.3024 245.199C81.2457 245.159 81.1902 245.117 81.1335 245.078C80.809 244.85 81.5225 245.397 81.2207 245.144C81.0919 245.036 80.9617 244.931 80.8375 244.817C80.717 244.707 80.6001 244.593 80.4884 244.474C80.4172 244.399 80.0989 244.009 80.3404 244.32C80.5809 244.631 80.2912 244.239 80.2374 244.152C80.1983 244.089 80.1614 244.024 80.1264 243.959C80.1052 243.92 80.0852 243.881 80.0661 243.842C79.98 243.656 80.0139 243.738 80.1677 244.086C80.1656 243.99 80.0952 243.854 80.064 243.76C79.9801 243.505 80.1555 243.504 80.0764 243.961C80.0846 243.914 80.0634 243.835 80.0635 243.79C80.0636 243.718 80.066 243.644 80.0646 243.572C80.0608 243.371 80.19 243.28 80.0256 243.799C80.0724 243.651 80.102 243.494 80.1455 243.344C80.2503 242.984 79.9105 243.776 80.0958 243.462C80.128 243.408 80.1551 243.351 80.1875 243.296C80.2204 243.241 80.2581 243.189 80.2913 243.134C80.485 242.813 79.9513 243.506 80.2149 243.23C80.3092 243.131 80.3988 243.029 80.4982 242.935C80.575 242.862 80.6563 242.795 80.7353 242.725C81.0036 242.486 80.342 242.991 80.6693 242.776C80.9555 242.589 81.2398 242.408 81.5457 242.252C81.7019 242.173 82.3 241.987 81.7018 242.162C81.9085 242.101 82.1087 242.003 82.3135 241.935C82.6651 241.818 83.0251 241.715 83.3853 241.628C83.5508 241.588 83.7174 241.552 83.8849 241.522C83.9741 241.505 84.0703 241.499 84.1575 241.476C83.625 241.62 83.8734 241.511 84.0581 241.493C84.3547 241.465 84.6538 241.453 84.9516 241.469C85.146 241.48 85.6521 241.613 85.0623 241.467C85.2488 241.513 85.4464 241.53 85.6347 241.572C85.9374 241.639 86.2269 241.734 86.5197 241.834C86.7928 241.927 86.3346 241.755 86.3249 241.749C86.401 241.793 86.4886 241.823 86.5674 241.862C86.6959 241.926 86.822 241.995 86.9445 242.07C87.0581 242.14 87.1707 242.243 87.289 242.302C87.2829 242.299 86.9153 241.988 87.1095 242.167C87.1587 242.213 87.2119 242.254 87.2615 242.299C87.3498 242.379 87.435 242.462 87.5165 242.549C87.5613 242.596 87.6031 242.646 87.6475 242.694C87.9035 242.97 87.4168 242.349 87.5843 242.608C87.7123 242.805 87.8459 242.994 87.956 243.203C88.0519 243.385 88.0994 243.733 87.9786 243.212C88.0078 243.338 88.0776 243.462 88.1193 243.585C88.2063 243.843 88.2757 244.106 88.3304 244.372C88.3528 244.48 88.3676 244.59 88.39 244.699C88.4567 245.022 88.3478 244.251 88.3753 244.583C88.3824 244.668 88.3941 244.753 88.4018 244.839C88.4531 245.413 88.4505 245.991 88.4122 246.566C88.393 246.854 88.3372 247.144 88.3277 247.432C88.3284 247.411 88.3889 247.014 88.3479 247.283C88.3362 247.36 88.325 247.437 88.3129 247.514C88.286 247.685 88.2566 247.854 88.225 248.024C88.1127 248.624 87.9719 249.22 87.8093 249.809C87.6513 250.382 87.4725 250.949 87.2758 251.509C87.1845 251.77 87.0844 252.027 86.9905 252.286C86.957 252.379 86.8647 252.585 87.0253 252.217L86.8794 252.56L86.96 252.371C86.9694 252.377 86.7728 252.794 86.7619 252.818C86.4899 253.417 86.1977 254.008 85.87 254.58C85.6494 254.965 85.4136 255.342 85.1618 255.707C85.0651 255.848 84.966 255.986 84.8646 256.123C84.8453 256.149 84.5889 256.479 84.7817 256.237C84.7045 256.334 84.6264 256.43 84.547 256.525C84.0441 257.127 83.4925 257.688 82.9047 258.208C82.6198 258.461 82.3247 258.7 82.0283 258.939C81.9888 258.97 81.8193 259.1 82.0243 258.944C81.9435 259.005 81.862 259.066 81.7803 259.127C81.5987 259.261 81.4153 259.393 81.2304 259.524C79.7825 260.543 78.2554 261.593 76.646 262.343C76.3168 262.496 75.9533 262.639 75.4968 262.79C75.001 262.954 74.4964 263.092 73.9865 263.206C73.5498 263.303 73.1097 263.379 72.6679 263.449C72.5404 263.469 72.4214 263.484 72.1383 263.515C71.8888 263.543 71.639 263.566 71.3888 263.586C70.3734 263.669 69.3545 263.699 68.336 263.715C67.3089 263.731 66.2835 263.754 65.2609 263.639C63.1993 263.407 61.0225 262.623 59.0239 261.878C58.2375 261.586 57.4342 261.346 56.6316 261.102C56.2454 260.984 55.8603 260.863 55.4775 260.735C55.298 260.675 55.1195 260.612 54.9423 260.545C54.8444 260.509 54.7471 260.471 54.65 260.433C54.5659 260.399 54.5726 260.402 54.67 260.442C54.5937 260.41 54.5178 260.376 54.4424 260.341C53.6747 259.99 53.1428 259.661 52.6478 259.175C52.0514 258.59 51.6013 257.777 51.1368 256.929C50.6568 256.051 50.2166 255.154 49.7367 254.276C49.2586 253.403 48.7131 252.583 48.1468 251.763C47.6416 251.033 47.0489 250.204 46.7624 249.422C46.4338 248.524 46.4876 247.583 46.5297 246.633C46.618 244.642 46.2484 242.574 46.6548 240.61C46.9606 239.132 47.372 237.614 48.074 236.332C48.2603 235.992 48.4635 235.653 48.7043 235.348C48.6309 235.441 48.8823 235.151 48.9245 235.106C48.985 235.043 49.0468 234.982 49.1111 234.922C49.1419 234.894 49.3674 234.705 49.2033 234.832C49.8719 234.317 50.6948 234.052 51.4905 234.05C53.1951 234.046 54.8137 235.078 56.0181 236.206C56.2872 236.458 56.5424 236.724 56.7806 237.005C56.7697 236.992 57.0149 237.295 56.9019 237.15C56.7906 237.007 57.017 237.308 57.0088 237.297C57.1191 237.45 57.2241 237.608 57.3235 237.769C57.5179 238.083 57.6859 238.41 57.8388 238.746C57.7156 238.475 57.8619 238.812 57.9001 238.917C57.9731 239.118 58.0379 239.322 58.0947 239.528C58.1801 239.838 58.2398 240.15 58.2962 240.466C58.3581 240.813 58.2888 240.225 58.2935 240.448C58.2953 240.535 58.3125 240.625 58.3199 240.712C58.3349 240.89 58.3448 241.068 58.3499 241.246C58.3601 241.608 58.3504 241.97 58.3235 242.331C58.3112 242.496 58.2929 242.66 58.276 242.825C58.2575 243.006 58.3423 243.074 58.2816 242.792C58.3008 242.881 58.2435 243.035 58.2284 243.121C58.1007 243.85 57.9122 244.569 57.6816 245.273C57.5659 245.627 57.4394 245.977 57.3036 246.323C57.272 246.404 57.0747 246.915 57.1677 246.665C57.2702 246.39 57.129 246.753 57.1154 246.784C57.0673 246.893 57.0185 247.001 56.9689 247.109C55.7112 249.849 54.0951 252.411 52.2724 254.814C52.1695 254.95 52.0654 255.085 51.9616 255.22C51.7369 255.513 52.2134 254.904 52.0545 255.101C51.9971 255.172 51.9417 255.245 51.8843 255.317C51.6112 255.657 51.3226 255.984 51.0219 256.3C50.4021 256.952 49.7288 257.539 49.041 258.118C48.6974 258.407 48.3585 258.717 47.9896 258.974C48.4226 258.672 47.8584 259.069 47.7582 259.142C47.5425 259.3 47.3248 259.455 47.1052 259.607C46.3064 260.161 45.4826 260.679 44.6404 261.165C43.8618 261.615 43.067 262.037 42.2583 262.431C41.8715 262.619 41.4814 262.801 41.0882 262.976C40.9078 263.056 40.7277 263.139 40.5444 263.212C41.1111 262.985 40.3814 263.285 40.1931 263.373C40.0716 263.429 39.9498 263.485 39.8273 263.54C39.7366 263.58 39.6454 263.619 39.5544 263.659C39.9064 263.506 39.5884 263.643 39.4986 263.679C39.2855 263.764 39.0712 263.845 38.8558 263.924C38.3718 264.101 37.8824 264.263 37.3898 264.415C36.3919 264.721 35.3797 265.008 34.3539 265.206C32.4293 265.577 30.4911 265.876 28.5756 266.293C27.8353 266.455 27.333 267.348 27.5649 268.058C27.8205 268.841 28.548 269.218 29.3448 269.06Z" fill="#18181B"/>
<path d="M113.445 165.31C112.663 164.671 111.843 164.091 111.006 163.527L111.362 163.8C111.043 163.54 110.709 163.295 110.397 163.027C110.163 162.826 109.906 162.616 109.696 162.391L110.033 162.823C109.672 162.121 109.023 161.605 108.265 161.377C108.639 161.593 109.012 161.809 109.386 162.025L109.374 162.013C108.552 161.202 107.219 161.035 106.217 161.609L106.186 161.627C106.393 161.54 106.601 161.454 106.808 161.367C106.187 161.577 105.719 161.802 105.238 162.253C105.096 162.386 104.961 162.525 104.827 162.666C104.519 162.989 104.207 163.304 103.916 163.641C103.529 164.09 103.113 164.499 102.702 164.924C102.154 165.491 101.695 166.124 101.213 166.745L101.647 166.189C101.252 166.681 100.823 167.126 100.455 167.644C100.242 167.944 100.096 168.304 99.9986 168.653C99.9415 168.857 99.8878 169.256 99.8901 169.468C99.8905 169.502 99.8927 169.536 99.8949 169.571C99.9142 169.874 99.9345 170.192 100.027 170.483L99.9293 169.764C99.9666 170.218 100.021 170.682 100.181 171.112C100.348 171.558 100.538 172.003 100.768 172.421C101.026 172.889 101.329 173.335 101.633 173.775C102.296 174.731 103.009 175.674 103.475 176.745L103.214 176.132C103.365 176.488 103.483 176.855 103.541 177.238C103.51 177.012 103.48 176.786 103.449 176.56C103.483 176.819 103.487 177.075 103.453 177.335L103.544 176.659C103.465 177.178 103.298 177.679 103.096 178.163L103.353 177.561C103.043 178.287 102.653 178.967 102.169 179.593C102.301 179.424 102.433 179.254 102.565 179.085C102.235 179.505 101.873 179.901 101.45 180.231L101.966 179.836C101.481 180.205 100.927 180.484 100.366 180.719L100.98 180.462C100.277 180.75 99.5441 180.964 98.7906 181.068C99.0204 181.037 99.2502 181.006 99.48 180.976C99.0209 181.035 98.5653 181.044 98.1054 180.988C98.3366 181.019 98.5677 181.049 98.7988 181.08C98.1795 180.996 97.5782 180.825 96.9813 180.646C96.1896 180.407 95.3958 180.127 94.5602 180.098C95.3156 180.527 96.071 180.957 96.8264 181.387C96.7993 181.344 96.7759 181.3 96.7563 181.254L97.0183 181.869L96.9901 181.799C96.9102 181.466 96.756 181.176 96.5276 180.928C96.2851 180.617 96.1865 180.491 95.783 180.258C95.3982 180.037 94.9546 179.912 94.5084 179.908C94.278 179.906 94.0418 179.936 93.8208 179.996C93.3868 180.115 93.0088 180.341 92.6897 180.654C92.2629 181.073 92.039 181.56 91.9604 182.14C91.9317 182.352 91.909 182.446 91.9215 182.627C91.9374 182.858 91.9638 183.169 92.0294 183.391C92.153 183.81 92.3958 184.234 92.7044 184.539C93.0533 184.885 93.4211 185.04 93.8625 185.209C94.0917 185.296 94.3408 185.333 94.5787 185.395C95.4722 185.625 96.3494 185.918 97.2658 186.049C97.8788 186.137 98.4749 186.222 99.0927 186.166C99.7088 186.109 100.331 186.022 100.931 185.866C101.924 185.608 102.911 185.205 103.798 184.695C105.456 183.742 106.687 182.187 107.546 180.51C108.019 179.587 108.404 178.636 108.543 177.609C108.582 177.322 108.627 177.044 108.612 176.755C108.591 176.343 108.531 175.924 108.443 175.52C108.309 174.912 108.04 174.326 107.777 173.766C107.089 172.298 105.968 171.073 105.323 169.585C105.413 169.797 105.504 170.009 105.594 170.221C105.465 169.916 105.357 169.602 105.308 169.274L105.406 169.991C105.396 169.916 105.391 169.84 105.387 169.764L105.289 170.483C105.329 170.312 105.363 170.138 105.43 169.974C105.336 170.194 105.242 170.414 105.149 170.634C105.215 170.495 105.306 170.372 105.399 170.25L104.964 170.808C105.139 170.587 105.327 170.377 105.504 170.157C105.835 169.745 106.131 169.315 106.455 168.899L106.023 169.453C106.33 169.065 106.664 168.703 107.012 168.35C107.377 167.98 107.69 167.567 108.027 167.174C108.243 166.922 108.476 166.684 108.7 166.439C108.814 166.313 108.93 166.188 109.051 166.069C109.318 165.805 109.503 165.484 109.73 165.19L109.321 165.715L109.345 165.686L108.817 166.09L108.847 166.068C109.022 165.934 109.198 165.799 109.374 165.665C109.628 165.431 109.807 165.154 109.912 164.834C110.03 164.632 110.089 164.415 110.09 164.182C110.168 163.839 110.152 163.496 110.044 163.152L110.04 163.137C109.954 163.784 109.869 164.431 109.784 165.078C109.792 165.058 109.801 165.04 109.813 165.021C109.683 165.188 109.554 165.354 109.424 165.52C109.442 165.499 109.461 165.481 109.483 165.463L108.995 165.837L109.026 165.815C108.836 165.895 108.647 165.974 108.457 166.053C108.634 165.995 108.941 165.892 109.091 165.783C108.906 165.86 108.722 165.937 108.537 166.014C108.606 165.988 108.676 165.969 108.748 165.953C108.557 165.978 108.367 166.004 108.176 166.029L108.229 166.035L107.663 165.96C107.758 165.984 107.849 166.022 107.939 166.059L107.444 165.852C107.827 166.013 108.201 166.197 108.593 166.337C108.946 166.464 109.3 166.585 109.651 166.714L109.231 166.538C110.015 166.91 110.78 167.328 111.516 167.788C112.188 168.209 113.102 167.981 113.569 167.382C114.015 166.81 114.058 165.811 113.445 165.31Z" fill="#8FD4EA"/>

</svg>
