<svg width="250" height="249" viewBox="0 0 250 249" fill="none" xmlns="http://www.w3.org/2000/svg">
<g filter="url(#filter0_d_1111_61746)">
<path d="M47.1826 109.669C46.556 103.527 45.84 97.5909 46.4539 91.4554C47.0426 85.5718 45.3563 79.986 45.5289 74.1841C45.6244 70.9712 48.8465 57.9039 46.1188 55.9358C45.0354 55.1541 40.4663 55.5803 38.8975 55.1596C37.2567 54.7194 33.9725 53.6133 32.7435 52.3649C30.6973 50.2866 31.3222 47.8896 32.9889 45.7826C33.729 44.8469 35.2014 43.5239 36.1137 42.676C37.9892 40.933 39.8772 39.1158 41.773 37.3627C44.6566 34.6961 48.2447 33.5926 51.129 30.8023C53.8915 28.1298 56.0459 25.4732 58.5064 22.5768C59.8175 21.0335 61.5258 20.0868 62.9519 18.7C64.3209 17.3687 65.2146 15.585 66.6777 14.3595C68.153 13.1239 70.0887 12.5447 71.6486 11.4085C73.586 9.9972 75.1825 7.59625 77.4006 6.61794C79.4583 5.71041 81.3951 6.73458 83.5028 6.76599C85.4527 6.79504 87.102 6.01028 89.0305 5.95985C91.7256 5.88939 94.2987 6.70477 97.0136 6.42846C100.237 6.10042 103.419 5.46555 106.631 5.14281C107.64 5.04138 109.008 5.37629 110.024 5.47968C111.949 5.67548 112.814 5.30006 114.606 4.97822C116.257 4.6816 117.65 5.0908 119.283 5.1436C120.892 5.19566 122.03 4.75272 123.613 4.58692C127.071 4.22466 130.517 5.17822 133.988 5.22174C136.084 5.24802 137.862 4.71332 139.935 4.26992C144.006 3.39917 148.808 3.29249 152.992 3.35536C159.332 3.45063 164.189 1.89695 169.752 6.11463C172.141 7.92589 173.319 10.5175 174.93 12.906C177.664 16.9602 181.458 20.2225 184.344 24.1581C186.595 27.228 188.13 30.8151 190.397 33.8737C192.296 36.435 194.742 38.6072 196.681 41.1422C200.244 45.8022 205.403 50.1722 203.441 56.6371C202.88 58.4856 203.361 57.6462 202.153 58.9777C201.265 59.955 199.446 60.9433 198.38 61.8337C195.274 64.4287 193.575 65.47 193.101 69.6221C192.303 76.6026 191.977 83.6563 191.345 90.6551C191.007 94.3948 191.797 97.5107 191.635 101.131C191.48 104.608 191.05 108.122 190.728 111.592C190.586 113.125 190.35 114.404 190.615 115.914C190.872 117.379 191.922 118.934 191.195 120.549C190.004 123.194 186.431 122.393 184.049 122.176C181.026 121.901 177.998 121.68 174.974 121.426C173.543 121.306 172.051 121.293 170.633 121.092C168.729 120.822 167.724 119.977 165.942 119.477C163.387 118.761 159.241 118.627 156.529 118.695C153.306 118.776 149.795 120.491 146.559 118.952C146.165 115.968 147.214 114.857 144.703 112.634C143.011 111.135 141.459 109.137 139.559 107.892C138.429 107.151 137.549 106.538 135.954 106.714C132.728 107.07 132.81 109.625 131.186 111.8C130.292 107.478 130.031 104.264 124.663 104.633C122.084 104.81 119.636 106.179 117.674 107.81C115.034 110.005 115.911 111.388 114.485 113.89C112.302 117.717 106.544 116.795 102.867 116.579C98.2943 116.309 94.472 118.102 90.0458 118.701C83.596 119.574 75.8383 117.748 69.2826 117.203C65.6572 116.902 62.6666 116.656 59.2141 117.253C57.27 117.589 48.1662 117.806 49.0832 114.386" fill="#8FD4EA"/>
<path d="M221.709 33.6227C222.395 33.2976 223.081 32.9725 223.766 32.6474C223.946 32.5511 224.091 32.4196 224.2 32.2529C224.336 32.1049 224.429 31.9313 224.476 31.7319C224.541 31.5283 224.55 31.3247 224.504 31.1211C224.495 30.9173 224.433 30.7275 224.321 30.5516C224.108 30.2246 223.791 29.9367 223.397 29.8477L222.986 29.793C222.707 29.7938 222.447 29.8635 222.206 30.0021C221.534 30.35 220.862 30.6979 220.19 31.0458C220.015 31.1396 219.874 31.2677 219.768 31.4301C219.635 31.5742 219.545 31.7433 219.498 31.9375C219.436 32.1359 219.427 32.3342 219.471 32.5325C219.48 32.7311 219.54 32.9161 219.65 33.0873C219.857 33.4059 220.166 33.6864 220.55 33.7731C220.683 33.7908 220.816 33.8086 220.95 33.8264C221.221 33.8255 221.475 33.7576 221.709 33.6227Z" fill="#18181B"/>
<path d="M211.518 23.9992C211.687 23.8128 211.872 23.6438 212.071 23.489L211.847 23.6603C212.574 23.105 213.44 22.8 214.245 22.3794C215.253 21.8524 216.158 21.128 217.05 20.4325L216.752 20.6611C217.435 20.1418 218.078 19.5728 218.759 19.0501L218.446 19.2902C219.555 18.4404 220.738 17.6376 222.033 17.0909C221.899 17.1471 221.764 17.2033 221.63 17.2596C222.15 17.0423 222.698 16.8778 223.258 16.7983L222.801 16.8591C222.929 16.8422 223.057 16.8357 223.186 16.8326C223.509 16.8248 223.856 16.7337 224.124 16.5471C224.166 16.5178 224.209 16.4905 224.254 16.4648C224.663 16.2283 224.91 15.8321 224.972 15.3747C225.017 15.1764 225.008 14.978 224.945 14.7797C224.874 14.5269 224.745 14.3075 224.558 14.1213C224.525 14.0813 224.491 14.0424 224.454 14.0054C224.434 13.9849 224.413 13.9663 224.392 13.9472L224.219 13.815C224.113 13.7103 223.987 13.6378 223.843 13.5977C223.604 13.4977 223.44 13.467 223.157 13.45C223.008 13.4411 222.858 13.4452 222.709 13.4596C222.225 13.5063 221.792 13.585 221.343 13.7595C220.523 14.0787 219.759 14.4777 219.03 14.9675C217.696 15.8638 216.494 16.9214 215.329 18.0199C214.515 18.7871 213.726 19.5669 212.837 20.2511L213.102 20.0486C212.601 20.4296 212.059 20.7524 211.547 21.1179C211.235 21.3409 210.923 21.5689 210.636 21.8231C210.335 22.0898 210.082 22.3954 209.845 22.719C209.698 22.9197 209.662 23.3032 209.737 23.5331C209.81 23.7558 209.932 23.9381 210.119 24.0818C210.518 24.3873 211.162 24.3927 211.518 23.9992Z" fill="#18181B"/>
<path d="M201.901 14.9666C202.223 14.5678 202.544 14.1679 202.865 13.7679C203.189 13.3628 203.564 12.991 203.916 12.6092C204.615 11.8514 205.288 11.0716 205.977 10.3051C206.671 9.53306 207.38 8.77322 208.111 8.03582C208.844 7.29702 209.61 6.59079 210.349 5.8578C210.77 5.43956 211.185 5.01377 211.583 4.5741C211.972 4.14592 212.307 3.6799 212.659 3.22335L212.399 3.55716C212.578 3.32812 212.735 3.0907 212.911 2.86116C212.825 2.97038 212.74 3.0796 212.655 3.18882C212.758 3.05823 212.87 2.93791 213.002 2.83536L212.679 3.08245C212.763 3.02018 212.852 2.9675 212.948 2.92517L212.573 3.08201C212.617 3.06411 212.661 3.04849 212.707 3.03476C213.088 2.91997 213.435 2.66895 213.638 2.32476C213.834 1.99361 213.916 1.50554 213.795 1.13426C213.673 0.76042 213.44 0.399744 213.079 0.210936L212.707 0.0551815C212.431 -0.0183938 212.154 -0.0183938 211.878 0.0551815C211.779 0.0689576 211.684 0.0938606 211.59 0.129069C211.385 0.206088 211.168 0.287733 210.98 0.406081C210.699 0.583263 210.431 0.799886 210.203 1.042C209.82 1.44908 209.57 1.93998 209.23 2.37719L209.485 2.04959C208.442 3.38406 207.254 4.58983 206.135 5.85921C204.965 7.18569 203.869 8.57394 202.793 9.97538C202.222 10.7201 201.7 11.5022 201.162 12.2713L201.341 12.0414C200.988 12.4816 200.635 12.9217 200.281 13.3605C200.084 13.6042 199.945 13.8387 199.945 14.1635C199.945 14.442 200.07 14.7748 200.281 14.9665C200.499 15.1652 200.786 15.3127 201.091 15.2992C201.375 15.2865 201.715 15.1967 201.901 14.9666Z" fill="#18181B"/>
<path d="M156.502 71.2032C156.496 71.3005 156.487 71.397 156.474 71.4937L156.504 71.2705C156.468 71.5133 156.388 71.74 156.332 71.9777C156.279 72.2064 156.217 72.4317 156.146 72.6559C156.001 73.1195 155.842 73.5795 155.763 74.0602C155.668 74.645 155.61 75.2354 155.583 75.8271C155.56 76.3645 155.58 76.9026 155.6 77.4399C155.639 78.5134 155.69 79.5851 155.641 80.6592C155.592 81.7173 155.472 82.7699 155.357 83.8223C155.292 84.4172 155.23 85.0123 155.184 85.609C155.161 85.9092 155.142 86.2098 155.129 86.5106C155.122 86.6674 155.112 86.8258 155.113 86.9828C155.116 87.231 155.186 87.4381 155.295 87.6619C155.328 87.731 155.362 87.7996 155.397 87.8681C155.731 88.5319 156.834 88.5316 157.168 87.8681C157.21 87.7855 157.254 87.7041 157.295 87.6209C157.395 87.4147 157.448 87.2121 157.457 86.9828C157.46 86.9127 157.459 86.8423 157.46 86.7721C157.465 86.5552 157.472 86.3384 157.482 86.1218C157.503 85.6803 157.535 85.2394 157.572 84.799C157.644 83.9471 157.738 83.0972 157.809 82.2452C157.883 81.3625 157.931 80.4772 157.917 79.5912C157.904 78.7277 157.842 77.8659 157.807 77.0033C157.767 76.0425 157.703 75.0563 157.831 74.0998L157.794 74.3714C157.866 73.8695 158.01 73.3831 158.114 72.8876C158.177 72.5837 158.238 72.2705 158.222 71.9597C158.205 71.6349 158.159 71.3063 158.071 70.9926C157.965 70.6114 157.584 70.3732 157.195 70.425C156.79 70.479 156.524 70.805 156.502 71.2032Z" fill="#18181B"/>
<path d="M169.524 70.2599C168.029 70.2878 166.535 70.3862 165.04 70.4045C163.546 70.4229 162.051 70.4237 160.558 70.3509C159.034 70.2764 157.51 70.1483 155.985 70.1168C154.552 70.0873 153.118 69.9471 151.685 69.9716C150.826 69.9863 149.949 70.0644 149.127 70.32C148.395 70.5474 147.691 70.8748 146.926 70.9813L147.257 70.9372C146.627 71.0119 145.996 70.9508 145.363 70.9444C144.656 70.9373 143.951 71.0203 143.253 71.1329C142.664 71.2279 142.083 71.3624 141.505 71.5079C140.96 71.6452 140.411 71.8348 139.853 71.9103L140.203 71.8636C139.413 71.9565 138.618 71.8157 137.827 71.7945C136.754 71.7657 135.731 71.9867 134.903 72.6955C133.579 73.8292 133.488 75.7966 133.517 77.3981C133.531 78.1527 133.602 78.9185 133.51 79.6706L133.561 79.2973C133.479 79.8901 133.255 80.4442 133.109 81.0215C132.987 81.5014 132.945 81.9965 132.9 82.4883C132.829 83.2651 132.76 84.0622 132.854 84.8398C132.93 85.4618 133.064 86.0234 133.509 86.4989C133.848 86.8606 134.322 87.0972 134.796 87.2294C135.629 87.4619 136.539 87.4317 137.394 87.3723C138.19 87.317 139.008 87.1707 139.805 87.2684C139.677 87.2514 139.549 87.2343 139.421 87.2173C140.076 87.308 140.703 87.5165 141.348 87.651C142.133 87.8145 142.927 87.8496 143.725 87.8344C144.424 87.8211 145.122 87.7842 145.821 87.7907C146.533 87.7972 147.244 87.8257 147.954 87.8673C149.362 87.9498 150.767 88.0837 152.173 88.1835C153.583 88.2836 154.991 88.3267 156.403 88.3179C157.154 88.3133 157.906 88.2934 158.653 88.2174C159.127 88.1691 159.601 88.1048 160.07 88.0204C160.463 87.9499 160.848 87.8451 161.243 87.7897L160.847 87.8424C161.955 87.7038 163.065 87.8802 164.176 87.8539C165.381 87.8254 166.504 87.4285 167.687 87.2695L167.293 87.3219C168.043 87.2312 168.804 87.2755 169.557 87.2978C170.393 87.3225 171.21 87.3117 172.032 87.1297C173.229 86.8644 174.324 86.2717 175.549 86.1084L175.159 86.1603C175.861 86.0708 176.586 86.0653 177.276 85.8939C178.081 85.6938 178.863 85.1923 179.234 84.4339C179.71 83.4594 179.643 82.3767 179.636 81.3212C179.629 80.2314 179.6 79.1418 179.582 78.0521C179.573 77.4998 179.573 76.9482 179.536 76.3968C179.5 75.8526 179.453 75.3053 179.52 74.7615C179.503 74.8818 179.487 75.0019 179.471 75.1222C179.574 74.4311 179.938 73.8329 179.958 73.1197C179.986 72.1562 179.374 71.3312 178.602 70.8114C177.498 70.0682 176.027 70.2591 174.816 70.5778C174.299 70.7138 173.786 70.9007 173.257 70.9876C172.96 71.0364 172.639 71.323 172.493 71.5701C172.332 71.8419 172.264 72.2423 172.364 72.547C172.464 72.8537 172.656 73.1496 172.951 73.3046C173.273 73.473 173.579 73.4911 173.937 73.4324C173.965 73.428 173.992 73.4233 174.02 73.4183C173.907 73.4333 173.793 73.4484 173.68 73.4635C174.581 73.3463 175.444 73.052 176.343 72.9259L175.992 72.9727C176.333 72.9281 176.676 72.9107 177.019 72.9525L176.665 72.9053C176.853 72.9319 177.034 72.9761 177.21 73.0448L176.891 72.9112C176.977 72.9474 177.061 72.9875 177.141 73.0354C177.178 73.0572 177.212 73.0847 177.25 73.1051C176.946 72.9388 177.037 72.9335 177.143 73.0278C177.211 73.0893 177.267 73.1618 177.333 73.2255C177.08 72.9803 177.19 73.0304 177.267 73.1542C177.302 73.2115 177.331 73.2713 177.359 73.3327L177.223 73.0134C177.252 73.0902 177.274 73.1657 177.289 73.2463L177.241 72.8904C177.256 73.0062 177.256 73.1177 177.242 73.2338L177.291 72.8771C177.239 73.2044 177.101 73.5057 176.99 73.8157C176.831 74.2599 176.763 74.7298 176.742 75.2001C176.724 75.6119 176.751 76.0241 176.771 76.4353C176.791 76.8599 176.787 77.2834 176.785 77.7083C176.782 78.6259 176.788 79.5435 176.785 80.461C176.784 80.9197 176.78 81.3783 176.771 81.8369C176.763 82.2478 176.77 82.6652 176.716 83.0732C176.733 82.9463 176.75 82.8194 176.767 82.6925C176.738 82.8821 176.693 83.0655 176.62 83.2432L176.766 82.8998C176.713 83.0186 176.649 83.1287 176.569 83.2317C176.645 83.1344 176.72 83.0372 176.796 82.94C176.728 83.0217 176.654 83.0939 176.57 83.1593L176.865 82.9335C176.758 83.0115 176.645 83.0737 176.523 83.1254L176.872 82.9795C176.619 83.0806 176.352 83.1314 176.083 83.1688C176.212 83.1515 176.342 83.1342 176.472 83.1169C175.585 83.2338 174.689 83.2533 173.822 83.4951C172.801 83.7797 171.84 84.2482 170.782 84.3963C170.912 84.3789 171.043 84.3615 171.174 84.3441C170.108 84.478 169.021 84.3173 167.95 84.3441C166.773 84.3736 165.672 84.7451 164.517 84.9098C164.649 84.8923 164.78 84.8748 164.911 84.8573C163.918 84.9864 162.919 84.8503 161.923 84.8377C161.333 84.8302 160.745 84.8803 160.165 84.9887C159.671 85.081 159.185 85.1947 158.686 85.262C158.818 85.2444 158.95 85.2268 159.083 85.2092C158.03 85.3451 156.971 85.3703 155.911 85.3751C154.775 85.3803 153.642 85.3495 152.509 85.2794C150.294 85.1425 148.085 84.909 145.865 84.8966C144.623 84.8896 143.358 85.0601 142.123 84.8961L142.508 84.9474C141.725 84.8315 140.974 84.565 140.189 84.4553C139.645 84.3793 139.151 84.3693 138.607 84.4148C137.614 84.4976 136.6 84.6434 135.604 84.5213L135.986 84.5721C135.75 84.5405 135.518 84.4917 135.298 84.3999L135.64 84.543C135.542 84.4993 135.45 84.4479 135.364 84.3832C135.461 84.4572 135.557 84.5312 135.654 84.6051C135.593 84.5561 135.54 84.5033 135.492 84.442L135.716 84.7292C135.68 84.6787 135.65 84.6273 135.626 84.5704C135.674 84.6833 135.722 84.7962 135.77 84.9091C135.713 84.7657 135.684 84.6151 135.662 84.463L135.713 84.8397C135.588 83.8737 135.687 82.847 135.804 81.8829L135.753 82.2577C135.851 81.5781 136.134 80.9455 136.257 80.2721C136.361 79.7068 136.389 79.1481 136.376 78.5759C136.352 77.5619 136.247 76.5432 136.377 75.5321C136.361 75.6539 136.344 75.7758 136.328 75.8976C136.377 75.5452 136.456 75.1994 136.59 74.8691L136.452 75.1949C136.538 74.9936 136.643 74.8048 136.775 74.6291L136.56 74.9037C136.667 74.7673 136.786 74.6445 136.921 74.5349L136.645 74.7462C136.781 74.643 136.925 74.5597 137.082 74.4916L136.757 74.6274C136.972 74.5405 137.194 74.4867 137.424 74.4527L137.064 74.5005C137.602 74.4297 138.145 74.4619 138.684 74.4908C139.316 74.5248 139.926 74.5295 140.554 74.4312C141.189 74.3317 141.811 74.0973 142.431 73.9317C143.113 73.7497 143.8 73.5914 144.5 73.4946L144.161 73.5398C144.987 73.4318 145.801 73.481 146.63 73.4564C147.528 73.4298 148.328 73.1942 149.157 72.8786C149.518 72.7409 149.882 72.6044 150.258 72.5113C150.437 72.4672 150.618 72.4342 150.798 72.4029C150.855 72.3931 151.145 72.3517 150.955 72.3771C150.769 72.402 150.949 72.3788 150.996 72.3735C151.049 72.3674 151.103 72.3617 151.157 72.3564C151.962 72.2768 152.772 72.2791 153.58 72.2889C154.411 72.299 155.241 72.2993 156.072 72.2823C156.924 72.2649 157.774 72.2073 158.625 72.1588C160.354 72.0604 162.076 71.9432 163.797 71.7418C165.703 71.5185 167.61 71.2969 169.523 71.1315C169.76 71.111 169.963 70.9458 169.963 70.6957C169.963 70.4629 169.762 70.2555 169.524 70.2599Z" fill="#18181B"/>
<path d="M85.0009 77.3991C86.9972 77.469 88.9749 77.7472 90.9579 77.9652C92.9458 78.1837 94.9498 78.2122 96.9405 78.0155C98.1014 77.9007 99.2563 77.7331 100.412 77.579L100.158 77.613C100.932 77.5101 101.707 77.4129 102.485 77.3437C102.873 77.3092 103.261 77.2816 103.65 77.2634C104.05 77.2447 104.461 77.212 104.858 77.264C105.12 77.2984 105.399 77.1347 105.584 76.9662C105.822 76.7493 105.907 76.4188 105.866 76.1121C105.828 75.8362 105.702 75.6191 105.48 75.4488C105.381 75.3589 105.264 75.2983 105.131 75.2668C104.949 75.2184 104.767 75.2184 104.586 75.2668C104.535 75.2736 104.484 75.2806 104.433 75.2877L104.7 75.2521C104.466 75.2781 104.225 75.2695 103.99 75.2813C103.755 75.2931 103.52 75.3086 103.286 75.3272C102.821 75.3641 102.357 75.4134 101.894 75.4707C100.906 75.5928 99.9222 75.7451 98.9383 75.8954C98.4127 75.9757 97.8868 76.0541 97.3598 76.1245L97.6081 76.0914C96.7999 76.1985 95.9887 76.2862 95.1743 76.3303C94.3388 76.3756 93.5012 76.3689 92.6653 76.339C91.0476 76.2811 89.4317 76.1783 87.814 76.1201C86.8767 76.0864 85.9385 76.0738 85.0009 76.105C84.6601 76.1163 84.3321 76.3945 84.3482 76.752C84.3645 77.1128 84.635 77.3862 85.0009 77.3991Z" fill="#18181B"/>
<path d="M93.5498 69.5205C93.496 69.8171 93.4229 70.1195 93.3984 70.4199C93.3778 70.6709 93.3822 70.9262 93.3758 71.1781C93.3628 71.6926 93.3498 72.2071 93.3345 72.7215C93.319 73.2408 93.285 73.7614 93.2814 74.2808C93.2779 74.7719 93.3496 75.2716 93.4684 75.7478C93.5846 76.214 93.7198 76.6741 93.7884 77.1506L93.7553 76.9065C93.8176 77.3681 93.7998 77.8347 93.7678 78.298C93.7297 78.8489 93.6683 79.398 93.6167 79.9478C93.5092 81.0933 93.4193 82.2737 93.6766 83.4072C93.7476 83.7198 93.8633 84.0239 94.0069 84.3108C94.0588 84.4146 94.1188 84.5137 94.1869 84.6079C94.3606 84.8483 94.52 85.0405 94.8243 85.1276C94.9392 85.1605 95.0641 85.1706 95.1847 85.1716C95.6515 85.1753 96.0291 84.7812 96.0372 84.3265C96.0386 84.2477 96.0362 84.1903 96.0248 84.1062C96.0044 83.9554 96.0037 83.879 95.9074 83.731C95.8542 83.6492 95.7856 83.5742 95.7244 83.498L95.8743 83.6904C95.7576 83.5406 95.6649 83.3766 95.5894 83.2031L95.6858 83.4296C95.553 83.1149 95.4787 82.7812 95.4329 82.444L95.4669 82.6949C95.333 81.6654 95.436 80.6154 95.5277 79.5868C95.6177 78.577 95.7265 77.5755 95.5599 76.568C95.4401 75.8437 95.1663 75.1531 95.061 74.426L95.0932 74.6629C95.0393 74.262 95.0465 73.8562 95.0365 73.4525C95.026 73.0283 95.0132 72.6041 94.9994 72.18C94.9859 71.7647 94.9714 71.3496 94.9572 70.9344C94.9481 70.667 94.9429 70.4041 94.8962 70.1395C94.8598 69.9329 94.8204 69.7269 94.7829 69.5205C94.7356 69.2598 94.4268 69.0436 94.1664 69.0551C93.9027 69.0668 93.6004 69.2412 93.5498 69.5205Z" fill="#18181B"/>
<path d="M93.3835 68.2774C92.7888 67.901 92.1393 67.6781 91.4382 67.6133C90.7772 67.5522 90.0591 67.6722 89.4545 67.9372C88.9166 68.173 88.4149 68.4757 87.922 68.7922C87.3679 69.1479 86.8041 69.4933 86.296 69.9129C85.7248 70.3848 85.251 70.9345 84.7985 71.5165C84.8628 71.4341 84.927 71.3516 84.9913 71.2692C84.6982 71.5995 84.4645 71.9982 84.2461 72.3804C84.07 72.6885 83.9081 73.0046 83.7611 73.3274C83.4356 74.0423 83.1675 74.7678 82.9779 75.5293C82.5693 77.17 82.496 78.9242 83.0149 80.5513C83.5344 82.1801 84.5507 83.6244 85.7566 84.8295C86.9759 86.048 88.4609 87.07 90.1236 87.5867C90.8863 87.8237 91.7028 87.9077 92.4993 87.9392C93.2752 87.9699 94.0315 87.8983 94.7993 87.7897C96.213 87.5896 97.5832 87.1297 98.8565 86.4922C99.4374 86.2014 99.9937 85.8615 100.514 85.4735C101.116 85.0242 101.686 84.5514 102.187 83.9919C103.12 82.9511 103.875 81.7484 104.287 80.4115C104.453 79.8744 104.569 79.322 104.65 78.7663C104.752 78.0587 104.823 77.3534 104.814 76.6379C104.797 75.3191 104.53 73.8224 103.478 72.9081C103.156 72.6282 102.794 72.4022 102.454 72.1458L102.704 72.3372C102.52 72.1957 102.353 72.0399 102.208 71.859L102.4 72.1053C102.268 71.9339 102.166 71.7507 102.08 71.5528L102.203 71.842C101.991 71.335 101.855 70.7778 101.53 70.3257C101.246 69.9299 100.935 69.5412 100.584 69.2C100.23 68.8556 99.8226 68.521 99.3689 68.3145C99.1083 68.1959 98.8485 68.0846 98.5647 68.0399C98.1555 67.9756 97.8301 67.9774 97.4191 68.0607C97.1422 68.1169 96.8576 68.3592 96.7186 68.5947C96.5715 68.8438 96.5092 69.2109 96.6004 69.4902C96.6922 69.7713 96.8679 70.0426 97.1391 70.1846C97.4286 70.3362 97.7201 70.3671 98.0423 70.3018C98.08 70.2941 98.1173 70.2884 98.1553 70.2832C98.0513 70.297 97.9474 70.3109 97.8434 70.3247C97.9679 70.3111 98.0906 70.3124 98.2149 70.3275C98.1106 70.3136 98.0063 70.2997 97.902 70.2858C98.0642 70.3095 98.2188 70.3554 98.3697 70.4184L98.0873 70.3003C98.3053 70.3959 98.505 70.522 98.6934 70.6663L98.4527 70.4819C98.8119 70.7633 99.1207 71.1006 99.4001 71.459L99.2119 71.2176C99.3852 71.4421 99.5457 71.6681 99.6603 71.9285L99.5382 71.6415C99.7745 72.1995 99.8993 72.8187 100.266 73.3149C100.468 73.5887 100.676 73.8423 100.942 74.0558C101.198 74.2611 101.467 74.448 101.728 74.6462L101.476 74.4538C101.669 74.6026 101.853 74.7643 102.003 74.9559L101.808 74.7053C101.929 74.8643 102.026 75.0384 102.104 75.2216L101.978 74.9244C102.117 75.2561 102.197 75.6072 102.247 75.9622C102.232 75.851 102.216 75.7397 102.201 75.6285C102.298 76.3539 102.267 77.087 102.171 77.8106L102.217 77.4683C102.094 78.3765 101.88 79.2884 101.521 80.1347C101.566 80.0276 101.612 79.9205 101.657 79.8134C101.391 80.431 101.024 81.0083 100.611 81.5388L100.829 81.2581C100.311 81.9178 99.7019 82.5005 99.0359 83.0126L99.3284 82.7886C98.5714 83.3662 97.7386 83.8383 96.8592 84.207L97.2115 84.0596C96.2267 84.4686 95.1903 84.7454 94.1324 84.8869L94.5333 84.8335C93.4859 84.9702 92.4042 85.0041 91.3552 84.8651L91.7534 84.9181C91.2086 84.8416 90.6812 84.6859 90.1742 84.4755L90.5283 84.6236C89.8047 84.3184 89.1326 83.9084 88.5093 83.4347C88.6078 83.5101 88.7063 83.5856 88.8048 83.661C88.0134 83.0543 87.3011 82.3483 86.6871 81.5655C86.7617 81.6612 86.8364 81.7569 86.9109 81.8527C86.4547 81.2663 86.0581 80.6376 85.7655 79.9549C85.8128 80.0662 85.8602 80.1775 85.9076 80.2888C85.6702 79.7252 85.5079 79.1364 85.425 78.531C85.4416 78.6534 85.4582 78.7757 85.4747 78.898C85.3822 78.1899 85.398 77.4754 85.489 76.7679L85.44 77.1295C85.4677 76.9344 85.4908 76.739 85.5166 76.5437C85.5004 76.6637 85.4841 76.7837 85.4678 76.9036C85.6049 75.901 85.8604 74.9252 86.257 73.9925L86.1276 74.2965C86.3259 73.8348 86.5515 73.3846 86.8087 72.9522C87.0616 72.527 87.3088 72.1037 87.6122 71.7105L87.4338 71.9394C87.6899 71.6115 87.9808 71.3141 88.308 71.0553C88.6839 70.7579 89.056 70.4556 89.4364 70.164L89.2335 70.3194C89.4458 70.1574 89.6612 69.9992 89.8836 69.851C90.1484 69.6746 90.4471 69.5371 90.6885 69.3309L90.502 69.4737C90.7025 69.3446 90.9101 69.2375 91.1249 69.1344C90.8804 69.2518 91.0673 69.1587 91.1333 69.1344C91.189 69.114 91.2453 69.0948 91.302 69.0773C91.422 69.0402 91.5436 69.0162 91.6656 68.9874C91.7025 68.9808 91.6914 68.9822 91.6325 68.9914C91.5493 69.0033 91.5624 69.0017 91.672 68.9868C91.9664 68.9475 91.5464 68.9956 91.7027 68.9802C91.7648 68.9741 91.827 68.969 91.8893 68.966C92.0167 68.96 92.1444 68.9615 92.2717 68.9701C92.3367 68.9745 92.4037 68.9775 92.4678 68.9889C92.4208 68.9806 92.39 68.9771 92.4551 68.9887C92.4939 68.9956 92.5327 69.0019 92.5713 69.0093C92.7244 69.0387 92.8751 69.0775 93.0243 69.1222C93.2473 69.1889 93.4868 69.0601 93.5743 68.8546C93.6661 68.6389 93.5812 68.4025 93.3835 68.2774Z" fill="#18181B"/>
<path d="M62.0537 107.917C61.8707 106.945 61.7108 105.969 61.5866 104.988C61.4682 104.053 61.4325 103.118 61.4194 102.176C61.3919 100.214 61.4457 98.2494 61.5478 96.2899C61.6488 94.3522 61.6814 92.4332 61.241 90.5282C61.191 90.312 61.1289 90.0991 61.075 89.8839C61.047 89.7724 61.0221 89.6602 61.0001 89.5475C60.9891 89.4911 60.9787 89.4345 60.969 89.3779C60.9617 89.3353 60.9548 89.2927 60.9485 89.2501C60.9334 89.1494 60.9391 89.1933 60.9656 89.3817C60.9952 89.3443 60.9394 89.1426 60.9343 89.0845C60.9244 88.9706 60.9167 88.8565 60.9109 88.7423C60.8986 88.4976 60.8954 88.2525 60.8987 88.0076C60.9114 87.0598 60.9658 86.1125 60.9968 85.1648C61.0332 84.0499 61.0876 82.9271 61.0646 81.8117C61.0403 80.6382 60.7104 79.5135 60.5452 78.3593L60.6 78.7639C60.4731 77.8136 60.5121 76.8509 60.637 75.9024C60.6186 76.0378 60.6003 76.1732 60.5819 76.3086C60.7635 74.9755 61.1202 73.6669 61.643 72.4254L61.4868 72.7924C61.8788 71.8737 62.3635 70.9932 62.979 70.2021C62.8979 70.3062 62.8169 70.4103 62.7358 70.5143C63.1242 70.0221 63.5633 69.5691 64.0592 69.1822L63.7452 69.4226C64.1713 69.0967 64.6507 68.8535 65.0873 68.5422C65.5543 68.2092 66.004 67.8514 66.5352 67.6216L66.174 67.7726C66.4252 67.6704 66.6814 67.6011 66.95 67.5617L66.5507 67.6149C67.6445 67.4817 68.8069 67.313 69.9065 67.4533L69.5178 67.4015C69.663 67.4224 69.8022 67.4527 69.9388 67.5066C69.8228 67.4581 69.7068 67.4095 69.5907 67.361C69.7051 67.4117 69.8029 67.4863 69.9137 67.5406C69.6179 67.3954 69.6951 67.3658 69.8209 67.4772C69.8707 67.5214 69.9189 67.5675 69.9659 67.6147C70.0549 67.7039 70.139 67.7979 70.2204 67.8939C70.2657 67.9474 70.3094 68.0022 70.3539 68.0565C70.4632 68.1899 70.137 67.7714 70.2783 67.9595C70.6653 68.4748 71.0586 68.9785 71.481 69.4655C71.5725 69.571 71.6626 69.6778 71.7506 69.7862C71.813 69.8631 71.9763 70.0933 71.7045 69.7238C71.747 69.7816 71.7913 69.8382 71.8338 69.896C71.9944 70.1147 72.1452 70.3404 72.2855 70.5724C72.6056 71.1014 72.8668 71.6612 73.1093 72.2285L72.962 71.8824C73.7998 73.8642 74.3381 75.9499 74.6308 78.0771L74.5782 77.6894C74.805 79.3756 74.8671 81.0685 74.867 82.768C74.867 84.623 74.9949 86.4446 75.262 88.281L75.2067 87.8731C75.383 89.2023 75.2083 90.5354 75.1821 91.8677C75.1672 92.6315 75.2294 93.3866 75.3759 94.1377C75.4978 94.7623 75.6776 95.3739 75.771 96.004L75.7134 95.5784C75.8167 96.3473 75.7941 97.134 75.7764 97.9077C75.7585 98.6948 75.7527 99.482 75.7338 100.269C75.6963 101.834 75.5606 103.406 75.7718 104.964C75.8947 105.871 76.1186 106.759 76.2424 107.667C76.2239 107.531 76.2055 107.395 76.187 107.258C76.345 108.453 76.4481 109.666 76.4208 110.871C76.4065 111.499 76.4112 112.163 76.6335 112.759C76.7526 113.078 76.9088 113.378 77.056 113.684C77.1114 113.799 77.1164 113.947 77.0371 113.63C77.0483 113.675 77.0701 113.719 77.0839 113.763C77.0906 113.784 77.1495 113.951 77.1357 113.971L77.109 113.777C77.1132 113.828 77.1147 113.88 77.1137 113.931H79.6714C79.663 113.82 79.6501 113.71 79.6462 113.599C79.623 112.944 79.0807 112.313 78.3807 112.344C77.715 112.374 77.0904 112.896 77.1153 113.599C77.1192 113.709 77.1142 113.82 77.1137 113.931C77.1104 114.594 77.7042 115.229 78.3925 115.199C79.1283 115.166 79.6176 114.641 79.6714 113.931C79.7033 113.509 79.614 113.072 79.4623 112.678C79.341 112.364 79.2051 112.063 79.1548 111.727L79.2033 112.084C79.1426 111.541 79.2345 110.998 79.2881 110.458C79.3467 109.867 79.3499 109.266 79.3494 108.672C79.3484 107.383 79.1557 106.118 78.9771 104.844L79.0344 105.267C78.8306 103.708 78.9222 102.141 78.9668 100.577C78.9895 99.7802 78.9873 98.9828 79.0058 98.1858C79.0246 97.378 79.0555 96.5572 78.9661 95.7524C78.8569 94.7688 78.5559 93.8308 78.4127 92.8549C78.4319 92.9966 78.4511 93.1382 78.4703 93.2799C78.321 92.1549 78.4077 91.017 78.4218 89.8871C78.4286 89.3365 78.4185 88.7845 78.3537 88.2371C78.2731 87.5562 78.1401 86.8833 78.0473 86.2041L78.102 86.6075C77.9803 85.6943 77.903 84.7765 77.8608 83.8564C77.8189 82.9428 77.8315 82.029 77.8028 81.1152C77.7437 79.2377 77.5429 77.355 77.1581 75.5149C76.7753 73.6839 76.1754 71.907 75.385 70.2093C75.0648 69.5214 74.6843 68.8687 74.2209 68.2657C73.9267 67.8829 73.6219 67.5148 73.3 67.1551C73.2453 67.094 73.1917 67.0322 73.1397 66.9689C73.1129 66.9362 73.0877 66.8996 73.0591 66.8686C73.0373 66.8451 73.276 67.1512 73.1852 67.0299C73.0749 66.8825 72.9641 66.7355 72.8528 66.5888C72.25 65.7939 71.6283 65.0528 70.658 64.6972C70.0547 64.4761 69.333 64.4853 68.6956 64.4972C68.0941 64.5084 67.4937 64.5539 66.8945 64.6057C66.4729 64.6421 66.0438 64.6733 65.6362 64.7916C65.1959 64.9194 64.7637 65.118 64.3734 65.3577C64.0776 65.5392 63.7983 65.7454 63.5108 65.9393C63.2157 66.1384 62.9033 66.3023 62.5991 66.4861C62.0058 66.8445 61.4517 67.2948 60.9829 67.8035C59.9384 68.937 59.2127 70.2582 58.629 71.6692C58.071 73.0181 57.7441 74.4283 57.5583 75.8713C57.4807 76.474 57.4366 77.0809 57.4468 77.6888C57.4617 78.5846 57.6212 79.4682 57.8044 80.3431C57.8917 80.76 57.9798 81.1772 58.0395 81.599L57.9852 81.1983C58.1039 82.1062 58.069 83.0331 58.0698 83.9467C58.0707 84.834 58.0684 85.7207 58.0632 86.608C58.0577 87.5569 58.1344 88.5024 58.3245 89.4346C58.4999 90.2946 58.89 91.0797 59.1119 91.9258C59.2197 92.3366 59.3042 92.7532 59.3697 93.1726C59.3762 93.2141 59.3823 93.2557 59.3887 93.2972C59.4151 93.4675 59.3567 93.2776 59.3835 93.2531C59.363 93.2718 59.4167 93.5244 59.4193 93.5475C59.443 93.7581 59.4631 93.9691 59.4802 94.1803C59.5501 95.0443 59.5719 95.9112 59.6029 96.7772C59.671 98.6757 59.8009 100.399 60.0682 102.226C60.2101 103.196 60.3876 104.16 60.5365 105.129C60.6936 106.15 60.8847 107.166 61.1031 108.176C61.1589 108.434 61.4634 108.585 61.7094 108.518C61.9841 108.443 62.1027 108.177 62.0537 107.917Z" fill="#18181B"/>
<path d="M112.586 102.497C112.631 101.91 112.84 101.288 112.991 100.688C113.164 100.002 113.218 99.3098 113.238 98.6052C113.278 97.182 113.295 95.7564 113.308 94.3326C113.333 91.4736 113.36 88.6147 113.378 85.7556C113.383 85.0366 113.388 84.3175 113.397 83.5985C113.405 82.9133 113.454 82.2229 113.426 81.5384C113.4 80.8948 113.302 80.2576 113.22 79.6194C113.137 78.9729 113.094 78.3321 113.103 77.6803C113.122 76.2505 113.205 74.8228 113.292 73.3958C113.38 71.968 113.497 70.5372 113.511 69.1068C113.518 68.3823 113.525 67.6578 113.532 66.9334C113.538 66.3664 113.558 65.7979 113.531 65.2313C113.483 64.2377 113.365 63.2459 113.396 62.2498C113.404 62.0104 113.421 61.7716 113.453 61.5341L113.396 61.9555C113.435 61.6865 113.494 61.4214 113.599 61.1695L113.437 61.5501C113.454 61.5112 113.472 61.473 113.491 61.435L112.529 62.1677L112.58 62.1607C112.438 62.1797 112.295 62.1987 112.152 62.2177C112.198 62.2148 112.238 62.215 112.284 62.2206C112.141 62.2016 111.999 62.1825 111.856 62.1636C111.88 62.1678 111.904 62.175 111.926 62.1853L111.542 62.0243L111.572 62.0412L111.246 61.7914C111.389 61.9042 111.529 62.0142 111.68 62.1124L111.362 61.869C111.391 61.8935 111.413 61.9169 111.437 61.9467L111.201 61.6442C111.236 61.6967 111.263 61.75 111.288 61.8079C111.474 62.2409 112.052 62.4946 112.496 62.4946C113.026 62.4946 113.407 62.2154 113.704 61.8079C114.113 61.2454 114.141 60.4753 113.804 59.8761C113.293 58.9692 111.927 58.766 111.127 59.3782C110.427 59.9142 110.294 60.9554 110.232 61.7733C110.149 62.8664 110.309 63.9641 110.393 65.0522C110.441 65.6644 110.435 66.278 110.441 66.8916C110.449 67.6857 110.457 68.4798 110.465 69.274C110.472 70.0514 110.525 70.8289 110.555 71.606C110.586 72.3969 110.611 73.188 110.641 73.9789C110.702 75.593 110.73 77.2337 110.964 78.834C111.067 79.5328 111.246 80.2166 111.388 80.9077C111.421 81.0657 111.452 81.2241 111.479 81.383C111.494 81.4692 111.507 81.5557 111.521 81.6421C111.539 81.7537 111.514 81.5813 111.512 81.5764C111.532 81.6256 111.528 81.7121 111.534 81.767C111.572 82.1421 111.575 82.5168 111.576 82.8934C111.586 86.039 111.638 89.1847 111.666 92.3302C111.68 93.8986 111.672 95.4691 111.74 97.0364C111.773 97.8058 111.823 98.5752 111.819 99.3457C111.819 99.5267 111.812 99.7066 111.794 99.8868C111.78 100.019 111.758 100.152 111.721 100.341C111.656 100.683 111.576 101.022 111.513 101.365C111.445 101.738 111.394 102.117 111.387 102.497C111.382 102.818 111.667 103.091 111.987 103.091C112.331 103.091 112.562 102.818 112.586 102.497Z" fill="#18181B"/>
<path d="M47.9443 52.3848C49.6837 50.2652 51.4171 48.1186 53.5923 46.4156C54.7039 45.5453 55.9588 44.9035 57.1212 44.1079C58.3331 43.2783 59.4738 42.3512 60.5912 41.4017C62.8384 39.4921 65.0684 37.564 67.1766 35.5029C69.2237 33.5014 71.0611 31.3138 73.0749 29.2865C74.0076 28.3474 75.0293 27.5254 76.1982 26.8914C76.7507 26.5918 77.3258 26.3964 77.8998 26.1466C78.0798 26.0682 78.2583 25.9892 78.4291 25.8921C78.4668 25.8707 78.6008 25.818 78.6177 25.7896C78.5175 25.9569 78.0482 25.9244 77.9023 25.9053C77.5848 25.864 77.2355 25.5427 77.5982 25.8784C77.8366 26.0991 78.0694 26.3255 78.2907 26.5632C78.7255 27.0304 79.0977 27.5391 79.4704 28.0551C80.366 29.2951 81.3018 30.4482 82.4045 31.5139C84.5257 33.5636 86.8185 35.4645 89.0559 37.3879C90.0562 38.2478 91.2258 38.9209 92.0829 39.9372C93.0042 41.0297 93.8085 42.202 94.8152 43.2252C95.2815 43.6992 95.7843 44.1254 96.2942 44.5518C96.4848 44.7113 96.6756 44.8714 96.855 45.0432C96.9336 45.1185 97.0111 45.1953 97.0852 45.2749C97.109 45.3005 97.4181 45.6974 97.218 45.4204C97.8675 46.3191 98.3591 47.3233 99.2199 48.0564C100.151 48.8494 100.88 49.2619 101.719 50.12C102.63 51.0525 103.261 51.9005 104.003 52.9388C105.512 55.0471 106.964 57.2773 108.913 59.0205C110.046 60.0339 111.298 60.8774 112.75 61.3695C114.175 61.8528 115.807 61.7883 117.296 61.7981C120.422 61.8186 123.556 61.7464 126.682 61.7087C128.204 61.6904 129.729 61.6408 131.251 61.6642C132.747 61.6873 134.242 61.7895 135.732 61.6065C137.111 61.4371 138.507 60.8772 139.84 60.7969C141.389 60.7036 142.954 60.7373 144.505 60.7402C147.645 60.7462 150.803 60.7774 153.926 60.4171C155.386 60.2488 156.824 59.9334 158.292 59.8477C159.787 59.7603 161.287 59.8046 162.783 59.8572C165.812 59.9637 168.854 59.7724 171.877 59.9297C173.244 60.0007 174.579 60.5667 175.95 60.7289C177.461 60.9077 178.988 60.9681 180.509 60.9692C183.617 60.9715 186.717 60.6937 189.805 60.3663C191.362 60.2012 192.943 60.0858 194.487 59.827C194.002 58.6858 193.517 57.5447 193.031 56.4036C192.434 56.7015 191.895 57.112 191.436 57.5928C190.778 58.2813 190.746 59.393 191.436 60.0765C192.182 60.8165 193.183 60.6604 193.941 60.0765C194.123 59.9364 194.306 59.8854 194.487 59.827C195.377 59.5406 195.983 58.7125 195.841 57.7719C195.708 56.8975 194.939 56.0984 193.985 56.1479C192.454 56.2273 190.919 56.4849 189.394 56.6496C187.829 56.8188 186.262 56.9701 184.691 57.0745C183.16 57.1763 181.626 57.2346 180.091 57.2215C178.687 57.2095 177.202 57.2197 175.822 56.9505C174.293 56.6523 172.884 56.2075 171.306 56.1747C169.681 56.1409 168.056 56.2025 166.431 56.2092C163.547 56.221 160.656 55.9168 157.775 56.1543C156.248 56.2802 154.753 56.6169 153.23 56.765C151.644 56.9192 150.053 56.9707 148.46 56.9701C146.906 56.9696 145.352 56.9288 143.798 56.9009C142.273 56.8735 140.702 56.7746 139.183 56.9378C137.743 57.0925 136.344 57.5953 134.95 57.6537C133.457 57.7161 131.966 57.5472 130.474 57.5217C127.369 57.4687 124.267 57.4458 121.163 57.5337C119.542 57.5797 117.92 57.6316 116.298 57.6042C115.92 57.5978 115.541 57.5876 115.163 57.5723C115.079 57.5689 114.198 57.4788 114.502 57.5387C113.768 57.3941 113.573 57.3025 112.928 56.9162C110.956 55.7354 109.509 53.6708 108.179 51.8589C106.547 49.6346 104.874 47.4541 102.594 45.8455C102.385 45.6987 102.174 45.5563 101.967 45.4088C101.88 45.3474 101.793 45.2866 101.708 45.2222C101.772 45.2712 101.969 45.4752 101.75 45.2427C101.614 45.0978 101.462 44.9691 101.328 44.8203C101.294 44.7821 101.124 44.562 101.296 44.7874C101.187 44.6448 101.089 44.4937 100.99 44.3448C100.336 43.3656 99.6521 42.5591 98.7241 41.8329C97.5769 40.9352 96.6191 39.8802 95.7107 38.7495C95.2905 38.2263 94.9002 37.669 94.4426 37.1771C93.8976 36.5913 93.2459 36.1144 92.6057 35.6376C91.5084 34.8205 90.5093 33.8929 89.4677 33.0078C88.3086 32.0229 87.1376 31.0513 86.0065 30.0346C84.985 29.1166 83.9413 28.1773 83.0958 27.0927C82.1883 25.9285 81.385 24.6877 80.3052 23.6661C79.4181 22.8268 78.3974 22.1631 77.1573 22.694C76.141 23.1291 75.2329 23.4824 74.1476 24.1281C72.9441 24.8442 71.8291 25.7461 70.843 26.7347C69.8075 27.7729 69.0151 28.9703 68.1524 30.1455C66.3759 32.5658 64.3773 34.8188 62.2992 36.9877C60.2829 39.0921 58.2396 41.3052 55.9104 43.075C54.8305 43.8955 53.6797 44.5899 52.6596 45.491C51.619 46.4104 50.6816 47.4401 49.7765 48.4891C48.8883 49.5185 48.0501 50.5889 47.2096 51.6565C46.8056 52.1696 47.5187 52.9033 47.9443 52.3848Z" fill="#18181B"/>
<path d="M48.2898 109.668C47.9512 105.655 47.5212 101.625 47.5853 97.5934C47.6476 93.6766 48.4088 89.8332 48.1691 85.9123C47.9365 82.1073 47.2763 78.3215 47.408 74.4995C47.4199 74.154 47.4461 73.8135 47.4838 73.47C47.5433 72.9292 47.4607 73.5742 47.5027 73.3223C47.5401 73.0985 47.5706 72.8734 47.6066 72.6494C47.764 71.6695 47.9411 70.6927 48.1123 69.7151C48.3112 68.5787 48.5061 67.4416 48.6796 66.3011C48.786 65.6024 48.8834 64.9023 48.9748 64.2015C48.9916 64.0727 49.074 63.3854 49.0256 63.7769C49.0795 63.3415 49.1316 62.9069 49.1828 62.4712C49.4108 60.534 49.6468 58.3367 49.0201 56.4497C48.6854 55.4424 48.0956 54.4446 47.1273 53.9192C45.9891 53.3017 44.5992 53.2437 43.332 53.1815C42.1149 53.1218 40.8944 53.0693 39.6777 53.018C39.3474 53.004 40.2041 53.1732 39.7584 53.0242C39.6811 52.9984 39.5868 52.9867 39.5085 52.9673C39.2702 52.9084 39.0346 52.8334 38.8001 52.7617C38.0652 52.537 37.337 52.2854 36.6242 51.9989C36.8818 52.1025 36.1122 51.7713 36.0482 51.741C35.7313 51.5908 35.4185 51.4313 35.1154 51.2551C34.9951 51.1852 34.2855 50.6518 34.6488 50.9768C34.3981 50.7525 34.2181 50.5436 34.0369 50.291C33.7709 49.9203 33.7355 49.592 33.8108 49.1516C33.7828 49.315 34.0673 48.3873 33.9856 48.5799C34.1613 48.1654 34.4211 47.7816 34.6745 47.4106C34.8466 47.1587 34.8013 47.2297 35.0737 46.9294C35.3272 46.6499 35.5934 46.3815 35.8622 46.1166C36.4344 45.5529 37.0274 45.0107 37.6168 44.465C39.0137 43.1717 40.3905 41.8575 41.7772 40.5537C43.0665 39.3416 44.1913 38.2758 45.6372 37.3504C47.0309 36.4584 48.4954 35.6788 49.8697 34.7564C52.992 32.6608 55.4605 29.7696 57.8762 26.9345C59.0355 25.5739 60.1177 24.0999 61.4828 22.9327C62.792 21.8134 64.2396 20.8734 65.355 19.5455C66.3764 18.3294 67.2028 16.9012 68.3006 16.0374C69.5985 15.0163 71.2506 14.5109 72.6134 13.5821C74.0206 12.623 75.1493 11.3888 76.373 10.2245C77.414 9.23397 78.2488 8.50035 79.7172 8.59577C80.3335 8.6358 81.2192 8.84573 81.9838 8.95302C83.1291 9.11371 84.1828 9.11088 85.3285 8.94522C87.1284 8.68498 88.5306 8.2237 90.3174 8.33255C92.2307 8.44907 94.1202 8.86973 96.0434 8.83926C98.1844 8.80533 100.348 8.37644 102.462 8.06286C104.181 7.8078 106.038 7.36144 107.78 7.54007C108.285 7.5918 107.221 7.44319 108.101 7.58475C108.28 7.61353 108.459 7.64209 108.638 7.66921C109.099 7.73903 109.561 7.81013 110.026 7.85554C110.996 7.95046 111.928 7.8826 112.891 7.73423C113.585 7.62722 114.263 7.44164 114.956 7.32939C115.871 7.1811 116.797 7.29787 117.713 7.39864C118.59 7.49514 119.462 7.5806 120.345 7.49915C121.361 7.40535 122.347 7.17722 123.353 7.02265C126.984 6.46474 130.872 7.76428 134.609 7.62582C136.536 7.55444 138.404 7.07784 140.277 6.67046C142.045 6.28593 143.541 6.09519 145.334 5.96287C148.92 5.69825 152.506 5.88846 156.093 5.74232C157.59 5.68136 159.087 5.58602 160.586 5.60535C161.265 5.6141 161.939 5.65694 162.615 5.71909C163.115 5.76507 162.772 5.73969 162.665 5.72302C162.862 5.75375 163.058 5.78711 163.254 5.82491C163.65 5.90147 164.043 5.99444 164.431 6.1054C165.788 6.49356 167.056 7.13288 168.214 8.03004C169.557 9.06966 170.183 10.0382 171.064 11.4302C171.953 12.8342 172.801 14.2521 173.809 15.5784C174.944 17.0728 176.166 18.4923 177.426 19.8838C179.809 22.5146 182.049 24.926 183.854 27.9128C185.792 31.1198 187.495 34.3823 189.957 37.2462C191.166 38.6536 192.475 39.9738 193.692 41.3749C194.717 42.5553 195.634 43.7924 196.672 45.0407C197.115 45.5729 197.56 46.1038 197.995 46.6417C198.098 46.768 198.199 46.8952 198.301 47.0217C198.791 47.6291 198.157 46.8288 198.436 47.1939C198.68 47.5128 198.919 47.8352 199.15 48.1632C199.535 48.711 199.901 49.2735 200.229 49.857C200.4 50.1603 200.56 50.4689 200.709 50.7835C200.757 50.8853 200.939 51.3491 200.779 50.9338C200.861 51.1473 200.941 51.3614 201.012 51.5789C201.106 51.8687 201.188 52.1626 201.255 52.4595C201.289 52.6091 201.316 52.759 201.346 52.9092C201.489 53.6201 201.332 52.6227 201.362 53.0596C201.387 53.4152 201.403 53.7675 201.391 54.1243C201.386 54.2866 201.373 54.4479 201.363 54.61C201.33 55.1152 201.441 54.4003 201.312 54.9535C201.161 55.6 200.982 56.2359 200.807 56.8764C200.721 57.1901 200.501 57.4772 200.906 56.7634C200.778 56.9899 200.961 56.4866 201.171 56.4354C201.129 56.4458 200.977 56.6419 200.951 56.667C200.761 56.8513 200.59 57.0546 200.407 57.2451C200.279 57.3786 200.149 57.5078 200.011 57.6317C199.975 57.6645 199.604 57.9776 199.791 57.8265C199.377 58.1611 198.495 58.7202 197.895 59.1482C196.658 60.0304 195.469 61.0241 194.342 62.0416C192.044 64.1158 191.012 66.6017 190.651 69.6213C190.168 73.6672 189.896 77.74 189.606 81.8028C189.462 83.8084 189.32 85.8142 189.162 87.8187C189.008 89.7692 188.79 91.7079 188.865 93.6673C188.937 95.5329 189.175 97.3881 189.235 99.2543C189.298 101.188 189.131 103.128 188.965 105.053C188.795 107.017 188.583 108.978 188.398 110.94C188.212 112.902 187.924 114.834 188.365 116.787C188.539 117.559 188.852 118.293 189.05 119.059C189.056 119.082 189.139 119.509 189.085 119.217C189.086 119.221 189.112 119.67 189.112 119.394C189.112 119.627 189.003 119.761 189.085 119.571C189.007 119.752 188.725 120.038 189.001 119.757C188.913 119.848 188.826 119.933 188.732 120.017C189.142 119.652 188.767 120.037 188.667 120.018C188.415 119.97 188.98 119.932 188.701 120C188.549 120.038 188.39 120.08 188.24 120.125C188.143 120.154 187.795 120.188 188.27 120.135C188.137 120.15 188.002 120.16 187.868 120.167C187.525 120.186 187.18 120.181 186.836 120.166C185.458 120.105 184.081 119.902 182.707 119.786C180.635 119.611 178.561 119.456 176.488 119.292C174.662 119.147 172.739 119.184 170.942 118.881C169.337 118.611 168.333 117.848 166.681 117.361C163.609 116.454 160.164 116.408 156.982 116.464C155.284 116.493 153.631 116.827 151.966 117.127C150.597 117.374 149.001 117.632 147.684 117.047C148.051 117.682 148.418 118.316 148.786 118.951C148.517 116.756 149.007 114.511 147.621 112.584C146.797 111.438 145.67 110.525 144.669 109.534C143.57 108.446 142.446 107.387 141.183 106.486C140.112 105.721 138.9 104.969 137.581 104.749C136.133 104.507 134.519 104.722 133.246 105.479C131.191 106.7 130.752 108.979 129.456 110.797C130.678 110.955 131.899 111.113 133.12 111.271C132.596 108.807 132.222 105.852 130.143 104.133C127.35 101.823 123.108 102.508 120.075 103.925C118.346 104.733 116.556 105.934 115.303 107.376C114.276 108.558 113.829 109.878 113.409 111.35C113.199 112.085 113.058 112.443 112.674 113.087C112.466 113.435 111.959 113.884 111.577 114.103C110.635 114.643 109.28 114.835 108.049 114.87C106.634 114.909 105.221 114.792 103.812 114.688C101.903 114.547 100.053 114.641 98.1638 114.958C94.3393 115.599 90.7408 116.896 86.8208 116.937C78.7756 117.022 70.9087 114.615 62.8514 114.792C61.5976 114.819 60.3544 114.948 59.1145 115.131C58.9347 115.158 58.7537 115.181 58.5753 115.216C58.2467 115.281 59.1895 115.17 58.8072 115.184C58.5902 115.192 58.371 115.225 58.1541 115.24C57.0341 115.315 55.9058 115.311 54.7856 115.243C54.4418 115.223 54.0983 115.195 53.7557 115.159C53.6419 115.147 53.5284 115.133 53.4148 115.12C54.0139 115.189 53.2708 115.093 53.1577 115.073C52.5878 114.973 52.0519 114.804 51.4966 114.653C51.1424 114.557 51.5717 114.69 51.6281 114.717C51.4923 114.651 51.3561 114.577 51.2189 114.514C51.1297 114.473 51.0496 114.383 50.9587 114.353C51.3485 114.483 51.2347 114.624 51.0511 114.404C50.786 114.087 51.3294 114.867 51.1319 114.517C50.9529 114.2 51.2912 115.042 51.1903 114.67C51.1038 114.35 51.2177 114.941 51.2181 114.945C51.1669 114.393 51.1155 115.337 51.204 114.964C51.4755 113.819 50.8437 112.604 49.6689 112.284C48.5552 111.981 47.2381 112.655 46.9653 113.806C45.5908 119.6 54.4924 119.776 58.1541 119.496C59.4303 119.399 60.6807 119.129 61.9595 119.046C64.0235 118.912 66.092 119.036 68.151 119.191C72.1725 119.493 76.1497 120.129 80.1571 120.559C84.2378 120.996 88.3143 121.127 92.3554 120.295C94.2716 119.9 96.1492 119.343 98.0646 118.945C99.915 118.56 101.731 118.446 103.617 118.583C106.511 118.792 109.616 119.107 112.382 118.023C113.974 117.399 115.328 116.364 116.188 114.876C116.932 113.589 117.145 112.189 117.671 110.831C117.523 111.214 117.767 110.652 117.785 110.621C117.884 110.442 117.992 110.263 118.117 110.101C118.25 109.929 118.781 109.434 119.07 109.191C119.823 108.556 120.67 108.016 121.543 107.559C122.414 107.103 123.377 106.748 124.356 106.615C124.783 106.556 125.225 106.551 125.656 106.559C126.23 106.57 126.166 106.557 126.58 106.652C126.698 106.679 126.816 106.71 126.932 106.745C127.043 106.778 127.152 106.816 127.259 106.858C127.069 106.777 127.037 106.768 127.163 106.829C127.277 106.893 127.39 106.966 127.505 107.025C127.85 107.203 127.366 106.814 127.584 107.092C127.673 107.204 127.797 107.31 127.895 107.415C127.673 107.177 127.84 107.334 127.943 107.507C128.009 107.619 128.075 107.729 128.136 107.843C128.183 107.932 128.389 108.456 128.238 108.035C128.738 109.424 128.968 110.885 129.254 112.328C129.404 113.083 130.194 113.665 130.921 113.751C131.772 113.851 132.425 113.474 132.918 112.802C133.705 111.729 134.152 110.475 134.871 109.363C135.169 108.903 134.712 109.511 134.942 109.284C135.048 109.179 135.147 109.068 135.265 108.975C134.978 109.202 135.247 108.994 135.307 108.975C135.915 108.783 134.898 109.064 135.563 108.86C135.91 108.754 136.028 108.731 136.384 108.726C136.431 108.725 136.964 108.774 136.722 108.732C136.715 108.73 137.322 108.911 137.096 108.819C138.636 109.443 139.864 110.826 140.964 112.005C141.572 112.656 142.182 113.303 142.836 113.91C143.13 114.182 143.416 114.463 143.708 114.735C144.18 115.175 143.594 114.497 143.91 114.967C144.013 115.121 144.101 115.281 144.187 115.446C143.946 114.986 144.215 115.673 144.254 115.855C144.148 115.363 144.234 115.843 144.24 116.078C144.257 116.794 144.216 117.508 144.264 118.223C144.3 118.751 144.32 119.313 144.527 119.801C144.86 120.583 145.498 120.909 146.247 121.203C147.33 121.627 148.513 121.805 149.675 121.8C151.618 121.793 153.567 121.237 155.43 120.996C156.98 120.796 158.728 120.885 160.334 120.963C162.113 121.049 163.488 121.142 165.133 121.576C166.033 121.813 166.415 122.011 167.215 122.354C168.135 122.749 169.039 123.099 170.032 123.257C172.215 123.605 174.455 123.64 176.656 123.822C178.897 124.008 181.139 124.184 183.378 124.387C186.34 124.655 189.958 125.427 192.289 123.016C193.883 121.368 194.059 119.138 193.424 117.034C193.217 116.347 192.951 115.689 192.897 114.97C192.818 113.9 193.001 112.815 193.107 111.754C193.53 107.525 194.21 103.206 194.044 98.9484C193.965 96.9279 193.701 94.9181 193.682 92.8947C193.66 90.7009 193.962 88.5011 194.133 86.3159C194.482 81.8603 194.77 77.3995 195.201 72.9505C195.298 71.9507 195.41 70.9528 195.515 69.9539C195.623 68.9193 195.424 70.3112 195.575 69.4936C195.604 69.3348 195.632 69.1762 195.665 69.0181C195.756 68.5874 195.89 68.1785 196.022 67.7594C196.059 67.6392 196.226 67.3613 196 67.7917C196.074 67.6514 196.138 67.5071 196.215 67.3681C196.348 67.1241 196.504 66.8974 196.656 66.6653C196.987 66.1621 196.306 67.0185 196.728 66.5823C196.814 66.4931 196.894 66.3957 196.978 66.3053C197.223 66.0449 197.481 65.7985 197.746 65.5584C198.263 65.0888 198.805 64.6478 199.345 64.2041C199.662 63.9431 199.972 63.6688 200.299 63.4191C199.995 63.6513 200.335 63.4013 200.384 63.369C200.637 63.2005 200.885 63.0221 201.137 62.8508C202.425 61.9759 203.63 61.063 204.667 59.9013C205.574 58.8852 205.904 57.3092 206.133 56.0065C206.457 54.1632 206.398 52.2923 205.86 50.4907C204.867 47.1707 202.596 44.468 200.414 41.8448C199.923 41.2537 199.432 40.6623 198.952 40.0619C198.667 39.7055 199.293 40.5037 198.825 39.9001C198.634 39.6552 198.446 39.409 198.253 39.1657C197.882 38.695 197.498 38.2344 197.103 37.7826C195.783 36.2726 194.362 34.8509 193.081 33.3075C190.69 30.4273 189.105 26.6813 186.927 23.5262C184.656 20.2374 181.777 17.448 179.194 14.4125C178.03 13.0446 177.055 11.6691 176.069 10.0733C175.074 8.4636 174.064 6.83426 172.741 5.46254C170.024 2.64501 166.237 1.13981 162.378 0.786606C159.026 0.479801 155.619 0.933626 152.258 0.906183C148.117 0.872379 143.933 1.02104 139.86 1.8171C137.953 2.18974 136.107 2.77895 134.302 2.80813C132.133 2.8432 129.978 2.4514 127.826 2.24383C125.584 2.02761 123.44 2.13889 121.228 2.56C120.356 2.72595 119.822 2.79615 118.802 2.72683C117.725 2.65374 116.653 2.44525 115.571 2.49075C114.541 2.53403 113.534 2.76252 112.53 2.97307C112.397 3.00093 111.453 3.15826 111.907 3.10548C111.38 3.16677 110.865 3.14665 110.337 3.12924C110.292 3.12775 109.772 3.08084 110.171 3.12612C109.95 3.10102 109.73 3.05952 109.51 3.02591C108.98 2.94497 108.449 2.86251 107.915 2.80714C106.812 2.69257 105.736 2.86429 104.642 3.0083C102.484 3.29229 100.34 3.67041 98.1802 3.93734C95.9842 4.20878 93.9352 4.01312 91.7489 3.76741C89.5887 3.52464 87.6245 3.70419 85.5065 4.16569C84.5674 4.37032 83.8874 4.4931 82.9063 4.39465C82.1053 4.31427 80.9285 4.03383 80.0039 3.948C77.7025 3.73438 75.7616 4.63601 74.022 6.04941C73.3373 6.60566 72.7179 7.23387 72.0943 7.85507C71.8141 8.13422 71.5342 8.41367 71.2465 8.68534C71.0897 8.83347 70.9316 8.9804 70.7693 9.12264C70.7821 9.11141 70.2168 9.57583 70.4613 9.39187C68.9898 10.4994 67.1864 11.0714 65.7047 12.1717C64.1155 13.3518 63.0231 15.114 61.8501 16.4546C60.6172 17.8635 58.9861 18.8241 57.6325 20.1034C56.2129 21.445 55.0399 23.081 53.7646 24.5565C52.4282 26.1027 51.053 27.6197 49.5833 29.0433C48.3333 30.2542 46.9306 31.1299 45.3852 32.0479C43.701 33.0482 42.0324 34.0602 40.5413 35.337C38.9226 36.7232 37.4155 38.2515 35.865 39.7117C33.1378 42.2802 29.6144 44.8601 29.1657 48.8433C28.9397 50.849 29.8294 52.9169 31.3662 54.2309C32.7179 55.3865 34.424 56.0705 36.0846 56.6633C37.379 57.1253 38.6446 57.4861 40.0222 57.5846C41.3949 57.6828 42.7746 57.6281 44.1472 57.7321C44.3053 57.7441 44.4628 57.7608 44.6207 57.7744C44.1136 57.7307 44.4173 57.7377 44.534 57.765C44.6542 57.7932 44.7866 57.8274 44.9089 57.8444C45.1505 57.8779 45.2317 58.072 44.7963 57.7644C45.2676 58.0973 44.4229 57.3612 44.7764 57.7513C44.741 57.7122 44.5072 57.2614 44.5895 57.518C44.6126 57.5901 44.686 57.7117 44.7354 57.775C44.9692 58.0741 44.5906 57.2462 44.6728 57.6379C44.688 57.7102 44.7223 57.7885 44.7429 57.8584C44.8022 58.0599 44.841 58.2637 44.8835 58.469C44.9183 58.6374 45.0141 59.3981 44.9474 58.7106C44.9723 58.9671 45.0016 59.2228 45.019 59.4801C45.3555 64.4641 44.1229 68.5368 43.6865 73.4156C43.3713 76.9396 44.1285 80.5489 44.5476 84.036C44.7986 86.1249 44.9679 88.2301 44.9292 90.335C44.8896 92.4859 44.7501 94.6144 44.841 96.7686C45.0232 101.088 45.5625 105.379 46.0784 109.668C46.2432 111.038 48.41 111.093 48.2898 109.668Z" fill="#8FD4EA"/>
<path d="M25.8106 123.643C27.3465 123.643 28.8829 123.621 30.4181 123.67C31.9071 123.718 33.4125 123.845 34.9018 123.808C36.348 123.771 37.7775 123.511 39.2273 123.55C39.9587 123.57 40.6879 123.638 41.4195 123.65C42.1517 123.661 42.8722 123.571 43.6006 123.514C45.0081 123.403 46.4161 123.525 47.8198 123.428C48.5804 123.376 49.3398 123.255 50.0854 123.1C50.8549 122.939 51.2533 122.861 51.9571 122.796C52.7582 122.722 53.5486 122.617 54.3363 122.455C54.5268 122.416 54.7181 122.38 54.9101 122.349C54.9776 122.338 55.3745 122.287 55.1363 122.314C55.4814 122.275 55.8268 122.243 56.1735 122.223C57.6325 122.137 59.0984 122.203 60.5582 122.235C62.0862 122.27 63.6139 122.301 65.1421 122.323C66.5489 122.344 67.9606 122.519 69.3641 122.349C69.8249 122.293 70.2785 122.213 70.7359 122.137C70.9024 122.109 71.0692 122.083 71.2362 122.058C71.3199 122.046 71.4038 122.035 71.4875 122.022C71.7825 121.977 71.1983 122.055 71.4947 122.021C72.226 121.938 72.9565 121.86 73.6904 121.804C74.5524 121.738 75.4172 121.714 76.2739 121.596C76.5663 121.555 76.8542 121.5 77.1426 121.437C77.3088 121.401 77.4747 121.364 77.6417 121.331C77.7133 121.317 77.7851 121.304 77.8569 121.29C78.1872 121.228 77.7802 121.309 77.7787 121.3C77.7778 121.295 78.1922 121.284 78.2287 121.285C78.3064 121.287 78.3838 121.296 78.4613 121.299C78.7072 121.308 78.3261 121.287 78.3316 121.283C78.4327 121.198 79.214 121.471 79.3594 121.504C80.1651 121.683 80.9741 121.756 81.7976 121.773C83.3319 121.805 84.8659 121.78 86.4001 121.826C87.2363 121.851 88.0877 121.798 88.8981 121.58C89.2243 121.492 89.543 121.38 89.8667 121.284C90.0154 121.239 90.165 121.197 90.3164 121.163C90.3907 121.146 90.4678 121.136 90.5416 121.117C90.8156 121.049 90.1685 121.145 90.4655 121.127C91.9139 121.038 93.3516 121.168 94.7999 121.13C95.4892 121.112 96.1779 121.064 96.8678 121.07C97.0247 121.071 97.1816 121.075 97.3383 121.083C97.4412 121.088 97.5437 121.098 97.6465 121.104C97.7083 121.108 97.9744 121.141 97.6597 121.1C97.3248 121.057 97.8194 121.14 97.9046 121.161C98.0771 121.203 98.247 121.254 98.4176 121.303C99.9456 121.74 101.535 121.6 103.106 121.592C104.678 121.585 106.319 121.727 107.868 121.421C108.515 121.294 109.134 121.06 109.771 120.894C109.915 120.857 110.061 120.827 110.206 120.793C110.59 120.704 109.824 120.78 110.251 120.793C110.631 120.805 111.017 120.838 111.397 120.81C112.249 120.746 112.93 120.374 113.741 120.174C114.605 119.961 115.267 119.082 115.254 118.204C115.252 118.119 115.274 117.804 115.24 118.163C115.207 118.501 115.237 118.236 115.264 118.153C115.295 118.057 115.328 117.961 115.359 117.865C115.464 117.532 115.226 118.133 115.334 117.918C115.498 117.592 115.662 117.264 115.828 116.938C116.127 116.351 116.173 115.698 115.828 115.114C115.533 114.615 114.869 114.145 114.254 114.219C113.574 114.3 113.074 114.467 112.646 115.017C112.203 115.585 112.215 116.168 112.315 116.843C112.442 117.703 113.481 118.204 114.259 118.101C115.158 117.981 115.742 117.258 115.795 116.376L115.386 117.319C115.12 117.473 114.854 117.626 114.588 117.78L114.254 117.833C113.824 116.805 113.394 115.776 112.964 114.748C112.277 115.604 111.406 116.541 111.206 117.661C111.868 117.161 112.53 116.661 113.193 116.161C112.73 116.185 112.268 116.253 111.813 116.335C111.667 116.362 111.521 116.391 111.375 116.417C111.34 116.423 111.165 116.431 111.145 116.456C111.203 116.384 111.572 116.441 111.233 116.435C110.381 116.421 109.577 116.428 108.739 116.631C108.098 116.786 107.48 117.021 106.835 117.164C106.751 117.183 106.27 117.267 106.624 117.212C106.973 117.159 106.488 117.209 106.395 117.21C105.994 117.215 105.592 117.203 105.19 117.202C103.715 117.199 102.241 117.2 100.767 117.255C100.58 117.262 100.392 117.267 100.204 117.261C100.127 117.258 100.048 117.248 99.9708 117.247C99.7273 117.244 100.155 117.259 100.167 117.273C100.115 117.214 99.8075 117.193 99.7231 117.171C99.552 117.127 99.3823 117.079 99.2107 117.037C98.3974 116.838 97.5454 116.774 96.7094 116.794C95.3119 116.828 93.9306 116.913 92.5309 116.899C91.8133 116.892 91.0971 116.905 90.3844 116.994C89.5496 117.099 88.8159 117.307 88.021 117.562C87.8509 117.617 87.6798 117.668 87.5058 117.709C87.4781 117.716 87.2849 117.776 87.2683 117.759C87.2653 117.756 87.6596 117.727 87.4018 117.742C87.0109 117.765 86.6247 117.779 86.2326 117.775C85.4847 117.767 84.7378 117.778 83.99 117.795C83.2301 117.812 82.4702 117.832 81.71 117.833C81.5816 117.833 80.6786 117.906 80.6239 117.8C80.6195 117.792 81.0074 117.868 80.7714 117.817C80.6984 117.801 80.6234 117.791 80.55 117.777C80.3792 117.745 80.2093 117.709 80.0391 117.674C79.2739 117.518 78.4869 117.374 77.7054 117.465C77.6277 117.474 75.4053 117.917 75.4017 117.909C75.3976 117.9 75.7788 117.878 75.5403 117.89C75.4593 117.894 75.3776 117.903 75.2966 117.91C75.1279 117.923 74.9591 117.936 74.7904 117.95C74.3953 117.983 74.0004 118.018 73.6059 118.057C72.7622 118.142 71.9205 118.247 71.0816 118.369C70.7194 118.421 70.358 118.48 69.9978 118.544C69.8323 118.574 69.667 118.605 69.502 118.637C69.3598 118.666 69.092 118.775 68.9505 118.743C68.9636 118.746 69.2791 118.711 69.0531 118.73C68.9746 118.736 68.8962 118.746 68.8176 118.753C68.6325 118.769 68.447 118.779 68.2613 118.786C67.9126 118.799 67.5635 118.799 67.2145 118.793C65.7284 118.77 64.2485 118.761 62.7621 118.795C59.7755 118.862 56.6779 118.728 53.7513 119.415C52.3547 119.742 50.9228 119.877 49.5373 120.245C49.2379 120.325 48.9372 120.4 48.6343 120.466C48.4621 120.503 48.2893 120.537 48.1157 120.568C48.0416 120.581 47.9673 120.593 47.8929 120.605C47.8321 120.615 47.6659 120.633 47.8199 120.616C47.1185 120.695 46.4146 120.67 45.7111 120.711C44.2422 120.796 42.8007 121.153 41.3354 121.216C40.6048 121.247 39.8732 121.227 39.1427 121.257C38.3833 121.29 37.6292 121.393 36.8789 121.51C33.9764 121.962 31.0067 121.973 28.0709 121.977C27.3175 121.978 26.5641 121.979 25.8107 121.979C24.7307 121.979 24.7288 123.643 25.8106 123.643Z" fill="#18181B"/>
<path d="M118.701 106.878C119.079 106.771 119.451 106.647 119.822 106.517C120.16 106.399 120.493 106.268 120.845 106.198C121.013 106.165 121.182 106.137 121.351 106.109C121.42 106.1 121.422 106.099 121.357 106.108C121.302 106.114 121.295 106.116 121.336 106.112C121.422 106.137 121.528 106.082 121.62 106.073C121.542 106.081 121.474 106.091 121.593 106.077C121.636 106.073 121.68 106.067 121.723 106.064C121.798 106.059 121.868 106.055 121.943 106.045C122.309 105.996 121.788 106.051 121.988 106.043C122.078 106.039 122.168 106.032 122.259 106.03C122.448 106.027 122.64 106.029 122.828 106.053L122.555 106.016C122.836 106.063 123.118 106.177 123.38 106.285L123.071 106.156C123.262 106.237 123.442 106.32 123.645 106.365C123.749 106.388 123.853 106.414 123.956 106.443C124.157 106.501 124.354 106.573 124.547 106.654L124.211 106.513C124.558 106.662 124.889 106.841 125.215 107.029C125.554 107.225 125.897 107.42 126.209 107.657L125.893 107.414C126.117 107.588 126.318 107.783 126.494 108.004C126.41 107.896 126.325 107.788 126.241 107.679C126.724 108.301 127.106 109.001 127.534 109.66C128.008 110.391 128.441 111.144 128.783 111.945L128.614 111.546C128.862 112.133 129.068 112.737 129.261 113.344C129.467 113.991 129.992 114.462 130.676 114.553C130.988 114.594 131.269 114.559 131.559 114.438C131.884 114.302 132.206 114.067 132.373 113.747C132.712 113.098 133.098 112.476 133.547 111.895C133.457 112.011 133.367 112.126 133.277 112.241C133.816 111.551 134.44 110.94 135.135 110.405C135.017 110.495 134.899 110.585 134.782 110.675C135.201 110.355 135.647 110.035 136.136 109.829C135.998 109.887 135.86 109.945 135.722 110.003C136.247 109.787 136.809 109.664 137.371 109.587L136.912 109.648C137.463 109.575 138.027 109.544 138.579 109.617L138.122 109.556C138.33 109.586 138.532 109.633 138.727 109.713C138.59 109.656 138.453 109.598 138.317 109.541C139.11 109.881 139.817 110.463 140.5 110.98C140.385 110.892 140.269 110.804 140.154 110.716C140.372 110.883 140.572 111.064 140.742 111.28C140.653 111.167 140.564 111.053 140.476 110.939C140.747 111.298 140.934 111.718 141.138 112.116C141.363 112.556 141.583 112.998 141.799 113.443C142.015 113.89 142.226 114.34 142.431 114.793C142.525 115.003 142.613 115.217 142.719 115.422C142.82 115.619 142.932 115.81 143.023 116.013L142.854 115.617C142.921 115.775 142.971 115.935 142.997 116.105L142.937 115.665C142.974 115.978 142.93 116.288 142.902 116.601C142.865 117.034 142.883 117.503 143.027 117.916C143.294 118.685 143.79 119.492 144.571 119.837C145.011 120.031 145.391 120.144 145.884 120.148C146.221 120.151 146.561 120.091 146.891 120.027C147.335 119.941 147.768 119.807 148.217 119.743C148.071 119.763 147.925 119.782 147.778 119.802C148.119 119.757 148.462 119.763 148.803 119.808C148.656 119.788 148.51 119.769 148.364 119.749C148.675 119.795 148.973 119.88 149.264 119.998L148.869 119.833C149.38 120.047 149.858 120.332 150.359 120.569C150.771 120.763 151.179 120.969 151.542 121.246L151.208 120.99C151.383 121.126 151.543 121.278 151.679 121.453C151.593 121.343 151.507 121.232 151.421 121.122C151.523 121.257 151.608 121.401 151.675 121.556L151.509 121.165C151.578 121.333 151.624 121.506 151.651 121.686L151.592 121.251C151.627 121.514 151.593 121.775 151.617 122.037C152.679 121.894 153.741 121.752 154.803 121.609C154.775 121.496 154.747 121.383 154.719 121.27C154.564 120.643 153.889 120.116 153.229 120.145C152.955 120.157 152.692 120.227 152.449 120.354C152.142 120.515 151.804 120.925 151.739 121.27C151.718 121.383 151.696 121.496 151.675 121.609C151.593 122.041 151.608 122.458 151.838 122.849C152.035 123.182 152.421 123.5 152.808 123.588C153.223 123.681 153.689 123.661 154.058 123.425C154.426 123.19 154.659 122.877 154.803 122.464C154.994 121.919 154.924 121.262 154.819 120.708C154.744 120.319 154.58 119.925 154.363 119.594C153.927 118.929 153.314 118.42 152.617 118.037C152.33 117.879 152.029 117.747 151.736 117.6C151.422 117.443 151.115 117.271 150.797 117.121C149.939 116.715 149.04 116.455 148.078 116.499C147.286 116.535 146.556 116.8 145.78 116.908L146.219 116.849C146.048 116.871 145.878 116.878 145.707 116.858C145.854 116.877 146 116.897 146.147 116.916C146.043 116.901 145.944 116.876 145.846 116.837L146.242 117.003C146.153 116.964 146.073 116.917 145.996 116.86L146.332 117.116C146.248 117.049 146.176 116.974 146.11 116.891L146.369 117.224C146.26 117.079 146.177 116.922 146.106 116.756L146.273 117.149C146.221 117.019 146.186 116.89 146.167 116.751C146.187 116.897 146.207 117.043 146.227 117.189C146.184 116.774 146.283 116.367 146.292 115.953C146.305 115.289 146.103 114.699 145.807 114.114C145.415 113.341 145.083 112.539 144.712 111.755C144.529 111.366 144.342 110.98 144.151 110.595C143.958 110.207 143.78 109.802 143.549 109.434C143.319 109.067 143.036 108.713 142.701 108.433C142.367 108.155 142.01 107.904 141.663 107.643C141.005 107.148 140.357 106.699 139.58 106.403C139.199 106.258 138.774 106.218 138.372 106.181C138.05 106.15 137.724 106.153 137.401 106.174C136.621 106.225 135.815 106.337 135.07 106.584C134.316 106.835 133.654 107.217 133.023 107.691C132.265 108.259 131.585 108.875 130.998 109.616C130.394 110.38 129.866 111.172 129.432 112.043C130.47 112.177 131.507 112.312 132.545 112.446C132.157 111.305 131.716 110.17 131.11 109.123C130.817 108.619 130.491 108.135 130.161 107.654C129.892 107.262 129.656 106.848 129.381 106.46C128.976 105.887 128.526 105.44 127.927 105.063C127.692 104.915 127.441 104.797 127.186 104.688C126.8 104.523 126.414 104.356 126.022 104.206C125.399 103.968 124.774 103.829 124.109 103.76C123.712 103.719 123.323 103.809 122.945 103.925C122.652 104.015 122.355 104.099 122.064 104.197C121.985 104.224 121.907 104.252 121.829 104.283C121.794 104.296 121.76 104.31 121.726 104.324C121.647 104.356 121.569 104.389 121.49 104.422L121.598 104.374C121.54 104.364 121.4 104.46 121.346 104.487C121.306 104.507 121.267 104.526 121.228 104.546C121.157 104.582 121.087 104.619 121.018 104.658C120.738 104.817 120.481 105.012 120.216 105.194C119.95 105.377 119.658 105.531 119.38 105.695C119.066 105.88 118.749 106.06 118.424 106.227C118.061 106.414 118.312 106.989 118.701 106.878Z" fill="#18181B"/>
<path d="M207.583 122.205C205.575 122.137 203.565 122.15 201.558 122.059C200.55 122.013 199.543 121.959 198.536 121.885C198.035 121.849 197.533 121.807 197.033 121.759C196.783 121.735 196.534 121.709 196.284 121.682C196.168 121.669 196.052 121.656 195.936 121.643C195.877 121.636 195.79 121.637 195.737 121.619C195.816 121.646 195.936 121.65 195.781 121.623C194.777 121.445 193.809 121.145 192.79 121.035C191.831 120.932 190.852 121.019 189.894 121.092C187.984 121.236 186.075 121.272 184.16 121.205C181.972 121.127 179.779 120.945 177.609 120.659L178.143 120.73C176.811 120.551 175.499 120.3 174.15 120.282C172.938 120.265 171.726 120.335 170.514 120.313C167.958 120.267 165.404 120.229 162.848 120.217C161.438 120.21 160.03 120.259 158.629 120.075C158.828 120.102 159.027 120.128 159.226 120.155C158.604 120.071 157.984 119.978 157.36 119.907C157.144 119.882 156.925 119.857 156.707 119.846C156.287 119.826 155.871 119.925 155.467 120.031C154.602 120.256 153.871 121.148 153.912 122.055C153.954 122.979 154.539 123.83 155.467 124.08C155.619 124.121 155.768 124.17 155.92 124.211C156.224 124.294 156.576 124.297 156.896 124.322C157.219 124.347 157.541 124.385 157.862 124.426C158.467 124.503 159.07 124.593 159.679 124.632C160.358 124.676 161.041 124.648 161.721 124.646C162.404 124.644 163.087 124.644 163.77 124.644C165.133 124.642 166.495 124.627 167.858 124.602C169.187 124.578 170.519 124.578 171.846 124.507C173.301 124.428 174.766 124.295 176.218 124.484L175.677 124.412C176.76 124.557 177.843 124.68 178.934 124.752C179.915 124.815 180.896 124.815 181.878 124.795C183.817 124.756 185.759 124.631 187.689 124.442C188.881 124.325 190.058 124.11 191.244 123.95L190.845 124.003C191.897 123.865 192.935 123.785 193.992 123.902C194.509 123.959 195.025 124.03 195.546 124.043C196.074 124.055 196.605 124.036 197.133 124.021C199.37 123.953 201.594 123.724 203.827 123.6C205.078 123.53 206.33 123.463 207.583 123.42C208.371 123.392 208.372 122.231 207.583 122.205Z" fill="#18181B"/>
<path d="M26.1203 215.376H29.2163C29.2163 217.552 28.6723 219.224 27.5843 220.392C26.4963 221.56 24.9603 222.144 22.9763 222.144C18.6083 222.144 16.4243 219.576 16.4243 214.44V213C16.4243 208.952 17.5443 206.416 19.7843 205.392C20.6643 204.976 21.7283 204.768 22.9763 204.768C24.8003 204.768 26.2803 205.272 27.4163 206.28C28.5683 207.272 29.1443 208.712 29.1443 210.6H26.0243C25.8483 209.656 25.5363 208.944 25.0883 208.464C24.6403 207.984 23.9363 207.744 22.9763 207.744C21.8563 207.744 21.0243 208.096 20.4803 208.8C20.0963 209.296 19.8723 210.144 19.8083 211.344C19.7763 211.728 19.7603 212.248 19.7603 212.904V214.392C19.7603 216.232 20.0163 217.488 20.5283 218.16C21.0563 218.832 21.8723 219.168 22.9763 219.168C24.0963 219.168 24.8643 218.864 25.2803 218.256C25.7123 217.632 25.9923 216.672 26.1203 215.376ZM34.8184 222L31.6984 222.024V203.952H34.8184V222ZM45.586 215.808V214.56C45.586 213.376 45.41 212.472 45.058 211.848C44.722 211.224 44.01 210.912 42.922 210.912C41.162 210.912 40.282 212.096 40.282 214.464V215.712C40.282 218.256 41.162 219.528 42.922 219.528C44.058 219.528 44.802 219.104 45.154 218.256C45.442 217.584 45.586 216.768 45.586 215.808ZM48.706 215.088C48.706 218.048 48.146 220.032 47.026 221.04C46.082 221.904 44.714 222.336 42.922 222.336C40.634 222.336 39.09 221.664 38.29 220.32C37.538 219.088 37.162 217.344 37.162 215.088C37.162 212.976 37.538 211.32 38.29 210.12C39.122 208.776 40.634 208.104 42.826 208.104C45.034 208.104 46.562 208.696 47.41 209.88C48.274 211.048 48.706 212.784 48.706 215.088ZM60.6092 218.208V218.568C60.5132 219.768 60.0012 220.672 59.0732 221.28C58.1612 221.888 57.0172 222.192 55.6412 222.192C53.6092 222.192 52.1852 221.824 51.3692 221.088C50.6172 220.416 50.2412 219.424 50.2412 218.112V217.824H53.0732C53.0732 218.56 53.2652 219.064 53.6492 219.336C54.0332 219.608 54.6972 219.744 55.6412 219.744C56.9212 219.744 57.5612 219.28 57.5612 218.352C57.5612 217.584 57.3372 217.072 56.8892 216.816C56.6812 216.688 56.4172 216.592 56.0972 216.528L53.6732 216.12C51.5612 215.784 50.5052 214.464 50.5052 212.16C50.5052 210.88 50.9692 209.888 51.8972 209.184C52.8412 208.464 54.0332 208.104 55.4732 208.104C58.7532 208.104 60.3932 209.52 60.3932 212.352V212.664H57.6812C57.6492 211.912 57.4492 211.4 57.0812 211.128C56.7132 210.856 56.1932 210.72 55.5212 210.72C54.8652 210.72 54.3692 210.856 54.0332 211.128C53.6972 211.384 53.5292 211.672 53.5292 211.992C53.5292 212.904 53.8972 213.424 54.6332 213.552L57.5372 214.08C59.5852 214.464 60.6092 215.84 60.6092 218.208ZM73.4967 215.88H65.5047C65.5047 217.128 65.6967 218.04 66.0807 218.616C66.4807 219.192 67.2727 219.48 68.4567 219.48C69.2247 219.48 69.7927 219.24 70.1607 218.76C70.5287 218.264 70.7127 217.792 70.7127 217.344H73.5207C73.5207 219.056 73.0567 220.312 72.1287 221.112C71.2167 221.912 70.0007 222.312 68.4807 222.312C66.9767 222.312 65.8087 222.096 64.9767 221.664C63.2647 220.784 62.4087 218.448 62.4087 214.656C62.4087 212.4 62.8967 210.752 63.8727 209.712C64.8487 208.656 66.3367 208.128 68.3367 208.128C71.8087 208.128 73.5447 210.056 73.5447 213.912C73.5447 214.328 73.5287 214.984 73.4967 215.88ZM65.5767 213.744H70.7127C70.7127 212.688 70.5127 211.92 70.1127 211.44C69.7127 210.96 69.0967 210.72 68.2647 210.72C67.4487 210.72 66.7927 210.968 66.2967 211.464C65.8167 211.944 65.5767 212.704 65.5767 213.744ZM87.7592 211.2H85.2152V222H82.0952V211.2H80.7992V208.824H82.0952V207.504C82.0952 206.528 82.4072 205.688 83.0312 204.984C83.6552 204.28 84.5592 203.928 85.7432 203.928H87.7592V206.568H86.2952C85.5752 206.568 85.2152 206.944 85.2152 207.696V208.824H87.7592V211.2ZM97.4263 208.344L96.5623 211.416C96.3223 211.32 96.0503 211.272 95.7463 211.272C94.9463 211.272 93.9623 211.616 92.7943 212.304V222H89.6743V208.296H92.0023L92.7223 209.496L96.0343 208.128C96.1943 208.112 96.4103 208.104 96.6823 208.104C96.9543 208.104 97.2023 208.184 97.4263 208.344ZM101.09 203.064C101.842 203.064 102.33 203.184 102.554 203.424C102.778 203.648 102.89 204.136 102.89 204.888C102.89 205.624 102.77 206.112 102.53 206.352C102.306 206.576 101.818 206.688 101.066 206.688C100.33 206.688 99.8419 206.568 99.6019 206.328C99.3779 206.088 99.2659 205.6 99.2659 204.864C99.2659 204.128 99.3779 203.648 99.6019 203.424C99.8419 203.184 100.338 203.064 101.09 203.064ZM102.626 222H99.5059V208.8H102.626V222ZM116.387 215.88H108.395C108.395 217.128 108.587 218.04 108.971 218.616C109.371 219.192 110.163 219.48 111.347 219.48C112.115 219.48 112.683 219.24 113.051 218.76C113.419 218.264 113.603 217.792 113.603 217.344H116.411C116.411 219.056 115.947 220.312 115.019 221.112C114.107 221.912 112.891 222.312 111.371 222.312C109.867 222.312 108.699 222.096 107.867 221.664C106.155 220.784 105.299 218.448 105.299 214.656C105.299 212.4 105.787 210.752 106.763 209.712C107.739 208.656 109.227 208.128 111.227 208.128C114.699 208.128 116.435 210.056 116.435 213.912C116.435 214.328 116.419 214.984 116.387 215.88ZM108.467 213.744H113.603C113.603 212.688 113.403 211.92 113.003 211.44C112.603 210.96 111.987 210.72 111.155 210.72C110.339 210.72 109.683 210.968 109.187 211.464C108.707 211.944 108.467 212.704 108.467 213.744ZM129.896 222H126.776V213.24C126.776 212.456 126.616 211.92 126.296 211.632C125.976 211.344 125.528 211.2 124.952 211.2L122.144 212.376V222H119.024V208.296H121.352L122.072 209.928L125.912 208.152C126.984 208.152 127.912 208.552 128.696 209.352C129.496 210.136 129.896 211.288 129.896 212.808V222ZM142.982 222H140.894L139.934 220.344L136.598 222.144C134.742 222.144 133.494 221.472 132.854 220.128C132.534 219.472 132.31 218.768 132.182 218.016C132.07 217.248 132.014 216.456 132.014 215.64C132.014 214.808 132.022 214.2 132.038 213.816C132.054 213.416 132.094 212.96 132.158 212.448C132.222 211.92 132.31 211.48 132.422 211.128C132.55 210.776 132.726 210.416 132.95 210.048C133.174 209.664 133.446 209.36 133.766 209.136C134.486 208.64 135.422 208.392 136.574 208.392H139.862V203.952H142.982V222ZM139.862 217.632V211.2H137.486C136.606 211.2 135.99 211.536 135.638 212.208C135.302 212.88 135.134 213.888 135.134 215.232C135.134 216.56 135.294 217.496 135.614 218.04C135.95 218.584 136.574 218.856 137.486 218.856L139.862 217.632ZM149.739 206.568V207.816C149.739 208.376 149.579 208.912 149.259 209.424C148.955 209.92 148.627 210.232 148.275 210.36V208.824C148.275 208.552 148.227 208.36 148.131 208.248C148.035 208.12 147.795 208.056 147.411 208.056C147.027 208.056 146.747 207.976 146.571 207.816C146.411 207.64 146.331 207.216 146.331 206.544C146.331 205.856 146.435 205.408 146.643 205.2C146.867 204.976 147.331 204.864 148.035 204.864C148.739 204.864 149.195 204.976 149.403 205.2C149.627 205.408 149.739 205.864 149.739 206.568ZM162.445 218.208V218.568C162.349 219.768 161.837 220.672 160.909 221.28C159.997 221.888 158.853 222.192 157.477 222.192C155.445 222.192 154.021 221.824 153.205 221.088C152.453 220.416 152.077 219.424 152.077 218.112V217.824H154.909C154.909 218.56 155.101 219.064 155.485 219.336C155.869 219.608 156.533 219.744 157.477 219.744C158.757 219.744 159.397 219.28 159.397 218.352C159.397 217.584 159.173 217.072 158.725 216.816C158.517 216.688 158.253 216.592 157.933 216.528L155.509 216.12C153.397 215.784 152.341 214.464 152.341 212.16C152.341 210.88 152.805 209.888 153.733 209.184C154.677 208.464 155.869 208.104 157.309 208.104C160.589 208.104 162.229 209.52 162.229 212.352V212.664H159.517C159.485 211.912 159.285 211.4 158.917 211.128C158.549 210.856 158.029 210.72 157.357 210.72C156.701 210.72 156.205 210.856 155.869 211.128C155.533 211.384 155.365 211.672 155.365 211.992C155.365 212.904 155.733 213.424 156.469 213.552L159.373 214.08C161.421 214.464 162.445 215.84 162.445 218.208ZM181.223 222H178.103V213.408C178.103 211.936 177.527 211.2 176.375 211.2L173.399 212.376V222H170.279V203.952H173.399V209.928L177.359 208.152C178.767 208.152 179.759 208.552 180.335 209.352C180.927 210.152 181.223 211.272 181.223 212.712V222ZM191.719 215.808V214.56C191.719 213.376 191.543 212.472 191.191 211.848C190.855 211.224 190.143 210.912 189.055 210.912C187.295 210.912 186.415 212.096 186.415 214.464V215.712C186.415 218.256 187.295 219.528 189.055 219.528C190.191 219.528 190.935 219.104 191.287 218.256C191.575 217.584 191.719 216.768 191.719 215.808ZM194.839 215.088C194.839 218.048 194.279 220.032 193.159 221.04C192.215 221.904 190.847 222.336 189.055 222.336C186.767 222.336 185.223 221.664 184.423 220.32C183.671 219.088 183.295 217.344 183.295 215.088C183.295 212.976 183.671 211.32 184.423 210.12C185.255 208.776 186.767 208.104 188.959 208.104C191.167 208.104 192.695 208.696 193.543 209.88C194.407 211.048 194.839 212.784 194.839 215.088ZM207.582 222H205.254L204.534 220.368L200.694 222.144C199.622 222.144 198.686 221.752 197.886 220.968C197.102 220.168 196.71 219.008 196.71 217.488V208.296H199.83V216.816C199.83 218.336 200.438 219.096 201.654 219.096L204.462 217.584V208.296H207.582V222ZM220.5 218.208V218.568C220.404 219.768 219.892 220.672 218.964 221.28C218.052 221.888 216.908 222.192 215.532 222.192C213.5 222.192 212.076 221.824 211.26 221.088C210.508 220.416 210.132 219.424 210.132 218.112V217.824H212.964C212.964 218.56 213.156 219.064 213.54 219.336C213.924 219.608 214.588 219.744 215.532 219.744C216.812 219.744 217.452 219.28 217.452 218.352C217.452 217.584 217.228 217.072 216.78 216.816C216.572 216.688 216.308 216.592 215.988 216.528L213.564 216.12C211.452 215.784 210.396 214.464 210.396 212.16C210.396 210.88 210.86 209.888 211.788 209.184C212.732 208.464 213.924 208.104 215.364 208.104C218.644 208.104 220.284 209.52 220.284 212.352V212.664H217.572C217.54 211.912 217.34 211.4 216.972 211.128C216.604 210.856 216.084 210.72 215.412 210.72C214.756 210.72 214.26 210.856 213.924 211.128C213.588 211.384 213.42 211.672 213.42 211.992C213.42 212.904 213.788 213.424 214.524 213.552L217.428 214.08C219.476 214.464 220.5 215.84 220.5 218.208ZM233.387 215.88H225.395C225.395 217.128 225.587 218.04 225.971 218.616C226.371 219.192 227.163 219.48 228.347 219.48C229.115 219.48 229.683 219.24 230.051 218.76C230.419 218.264 230.603 217.792 230.603 217.344H233.411C233.411 219.056 232.947 220.312 232.019 221.112C231.107 221.912 229.891 222.312 228.371 222.312C226.867 222.312 225.699 222.096 224.867 221.664C223.155 220.784 222.299 218.448 222.299 214.656C222.299 212.4 222.787 210.752 223.763 209.712C224.739 208.656 226.227 208.128 228.227 208.128C231.699 208.128 233.435 210.056 233.435 213.912C233.435 214.328 233.419 214.984 233.387 215.88ZM225.467 213.744H230.603C230.603 212.688 230.403 211.92 230.003 211.44C229.603 210.96 228.987 210.72 228.155 210.72C227.339 210.72 226.683 210.968 226.187 211.464C225.707 211.944 225.467 212.704 225.467 213.744Z" fill="#18181B"/>
</g>
<defs>
<filter id="filter0_d_1111_61746" x="-4" y="0" width="258" height="249" filterUnits="userSpaceOnUse" color-interpolation-filters="sRGB">
<feFlood flood-opacity="0" result="BackgroundImageFix"/>
<feColorMatrix in="SourceAlpha" type="matrix" values="0 0 0 0 0 0 0 0 0 0 0 0 0 0 0 0 0 0 127 0" result="hardAlpha"/>
<feOffset dy="4"/>
<feGaussianBlur stdDeviation="2"/>
<feComposite in2="hardAlpha" operator="out"/>
<feColorMatrix type="matrix" values="0 0 0 0 0 0 0 0 0 0 0 0 0 0 0 0 0 0 0.25 0"/>
<feBlend mode="normal" in2="BackgroundImageFix" result="effect1_dropShadow_1111_61746"/>
<feBlend mode="normal" in="SourceGraphic" in2="effect1_dropShadow_1111_61746" result="shape"/>
</filter>
</defs>
</svg>
