<svg width="251" height="241" viewBox="0 0 251 241" fill="none" xmlns="http://www.w3.org/2000/svg">
<path d="M121.541 92.8852C121.557 93.5311 121.581 94.1817 121.637 94.8255C121.693 95.4753 121.773 96.1417 121.957 96.7691C122.345 98.0876 123.015 99.3067 123.663 100.513C124.322 101.741 125.057 102.915 125.99 103.957C126.468 104.491 126.944 105.027 127.439 105.545C127.979 106.109 128.552 106.61 129.211 107.034C129.528 107.238 129.854 107.425 130.178 107.616C130.477 107.791 130.769 107.972 131.085 108.115C131.755 108.418 132.458 108.63 133.136 108.912L132.832 108.784C133.187 108.934 133.527 109.11 133.835 109.342L133.577 109.144C133.935 109.421 134.213 109.771 134.489 110.125L134.29 109.869C134.608 110.279 134.868 110.724 135.172 111.142C135.383 111.432 135.571 111.659 135.88 111.85C136.15 112.017 136.513 112.099 136.828 112.082C137.122 112.067 137.402 112 137.681 111.915C137.993 111.821 138.277 111.76 138.579 111.625C139.158 111.366 139.547 110.835 140.034 110.452C139.949 110.517 139.865 110.582 139.78 110.647C140.026 110.463 140.298 110.322 140.581 110.203L140.282 110.328C140.697 110.159 141.123 110.054 141.558 109.952C142.054 109.835 142.543 109.682 143.027 109.521C143.537 109.353 144.072 109.212 144.523 108.91C144.947 108.625 145.319 108.275 145.722 107.965C145.641 108.027 145.561 108.089 145.48 108.151C145.891 107.842 146.348 107.599 146.764 107.296C147.031 107.101 147.299 106.9 147.543 106.676C147.75 106.485 147.93 106.261 148.104 106.04C148.327 105.757 148.542 105.469 148.75 105.175C148.785 105.124 148.821 105.074 148.857 105.024C148.876 104.997 148.918 104.952 148.928 104.923C148.929 104.921 148.796 105.081 148.866 104.999C148.961 104.888 149.055 104.775 149.152 104.665C149.548 104.218 149.923 103.753 150.315 103.303C150.5 103.092 150.7 102.901 150.918 102.724C150.941 102.706 150.964 102.687 150.987 102.669C151.113 102.567 150.942 102.703 150.928 102.713C150.975 102.678 151.022 102.642 151.069 102.606C151.188 102.518 151.307 102.43 151.425 102.34C151.919 101.965 152.37 101.562 152.79 101.106C153.158 100.708 153.504 100.29 153.868 99.8884C154.29 99.424 154.746 99.0029 155.13 98.5048C155.33 98.2443 155.501 97.9653 155.673 97.6859C155.841 97.4142 156.026 97.1586 156.212 96.8992C156.421 96.6084 156.564 96.2879 156.682 95.9508C156.706 95.8822 156.729 95.8131 156.753 95.7445C156.767 95.7032 156.848 95.5012 156.779 95.6617C156.708 95.826 156.81 95.6033 156.833 95.5633C156.847 95.5399 156.862 95.5174 156.876 95.4941C156.976 95.3262 156.722 95.6696 156.859 95.5204C157.21 95.1354 157.27 94.4904 156.859 94.1152C156.478 93.768 155.816 93.7014 155.444 94.1152C155.192 94.3958 155.041 94.6685 154.903 95.0158C154.87 95.0993 154.84 95.1839 154.812 95.269C154.794 95.3208 154.777 95.3727 154.76 95.4244C154.748 95.4593 154.736 95.494 154.724 95.5286C154.687 95.6229 154.699 95.5986 154.759 95.4556C154.694 95.5354 154.657 95.6593 154.6 95.7482C154.553 95.8233 154.501 95.8959 154.449 95.9681C154.303 96.1705 154.16 96.3726 154.029 96.585C153.902 96.791 153.781 97.0008 153.648 97.2031C153.612 97.2564 153.577 97.3092 153.54 97.3613L153.502 97.4135C153.451 97.482 153.451 97.4828 153.503 97.4157L153.542 97.3659C153.516 97.3979 153.49 97.4296 153.464 97.461C153.412 97.5225 153.359 97.5828 153.305 97.6423C152.985 97.996 152.64 98.3266 152.326 98.6864C152.026 99.0283 151.736 99.3779 151.431 99.7148C151.285 99.8756 151.137 100.034 150.982 100.186C150.897 100.268 150.811 100.348 150.723 100.427C150.628 100.511 150.485 100.591 150.408 100.69C150.53 100.534 150.518 100.606 150.439 100.665C150.399 100.695 150.36 100.724 150.32 100.753C150.225 100.824 150.129 100.893 150.034 100.963C149.794 101.141 149.553 101.32 149.329 101.517C148.953 101.847 148.644 102.247 148.322 102.626C147.612 103.461 146.881 104.32 146.009 104.994L146.241 104.817C146.075 104.943 145.913 105.074 145.748 105.202L145.982 105.023C145.675 105.257 145.35 105.462 145.017 105.656C144.596 105.902 144.201 106.142 143.817 106.443L144.06 106.257C143.85 106.415 143.645 106.579 143.438 106.739C143.519 106.677 143.601 106.614 143.682 106.552C143.447 106.732 143.205 106.901 142.931 107.018L143.223 106.896C142.978 106.994 142.717 107.055 142.465 107.13C142.214 107.205 141.964 107.282 141.713 107.355C141.221 107.498 140.716 107.588 140.223 107.726C139.701 107.873 139.17 108.073 138.708 108.359C138.211 108.666 137.839 109.103 137.381 109.456C137.467 109.39 137.552 109.325 137.637 109.26C137.531 109.337 137.424 109.404 137.302 109.455L137.605 109.328C137.428 109.394 137.242 109.419 137.061 109.47C136.892 109.516 136.728 109.571 136.554 109.595L136.892 109.55C136.823 109.558 136.756 109.56 136.687 109.552L137.025 109.597C136.992 109.591 136.96 109.582 136.928 109.571C137.029 109.613 137.13 109.656 137.232 109.698C137.192 109.682 137.157 109.662 137.122 109.638C137.208 109.703 137.294 109.769 137.38 109.835C137.316 109.786 137.264 109.729 137.214 109.666L137.413 109.922C137.11 109.527 136.868 109.088 136.565 108.691C136.34 108.397 136.113 108.102 135.871 107.822C135.644 107.56 135.379 107.349 135.099 107.143C134.259 106.521 133.207 106.28 132.254 105.885L132.558 106.012C132.1 105.82 131.685 105.561 131.258 105.311C130.797 105.042 130.339 104.769 129.916 104.444L130.173 104.641C129.409 104.043 128.733 103.325 128.055 102.634C127.411 101.978 126.788 101.304 126.223 100.579L126.398 100.803C125.645 99.8307 124.969 98.7961 124.308 97.761C123.988 97.2597 123.695 96.7461 123.454 96.2022C123.442 96.1759 123.396 96.0633 123.439 96.1706C123.481 96.2726 123.444 96.1826 123.436 96.1633C123.389 96.0498 123.341 95.9372 123.29 95.8254C123.275 95.7924 123.261 95.7592 123.246 95.7262C123.21 95.6466 123.261 95.6797 123.257 95.7547C123.26 95.6996 123.193 95.6 123.173 95.5492C123.067 95.2832 122.971 95.0133 122.884 94.7407C122.677 94.0916 122.537 93.4379 122.434 92.7651C122.401 92.5462 122.135 92.4118 121.935 92.4416C121.719 92.474 121.536 92.6564 121.541 92.8852Z" fill="#18181B"/>
<path d="M135.401 95.6468C135.156 94.9224 134.756 94.2638 134.524 93.535C134.135 92.3124 134.114 91.1624 134.1 89.9048C134.08 88.0779 134.985 86.3602 134.762 84.5099C134.666 83.7128 134.504 82.9095 134.264 82.1477C134.026 81.3883 133.709 80.8348 133.226 80.2101C133.005 79.9252 132.918 79.6175 132.61 79.4039C132.158 79.0902 131.613 78.9597 131.157 78.6022C130.761 78.2906 130.286 78.2117 129.895 77.9403C129.6 77.7353 129.585 77.3624 129.152 77.4029C129.052 76.8928 129.643 76.1652 129.861 75.7154C130.28 74.8486 130.627 73.9728 131.087 73.1129C131.856 71.6735 132.579 70.1875 133.464 68.824C133.634 68.5627 133.666 68.2601 133.822 68.0086C134 67.7228 133.963 67.778 134.321 67.767C134.658 67.7568 135.012 67.9476 135.357 67.9815C135.565 68.0019 135.724 68.0214 135.887 68.0486C135.705 67.5135 135.524 66.9751 135.305 66.4327C134.271 63.866 133.399 61.1904 132.2 58.6691C131.503 57.2035 130.526 55.8365 129.663 54.4818C128.891 53.2724 128.556 51.6619 127.96 50.3581C126.812 47.8444 125.962 45.1198 125.131 42.4879C124.674 41.0415 124.192 39.7233 123.509 38.3842C123.157 37.6959 122.93 36.9548 122.61 36.2499C122.309 35.5877 122.274 34.8751 121.913 34.2612C121.437 33.4527 120.741 32.7398 120.258 31.9205C119.933 31.3699 119.841 31.1548 119.383 30.7117C119.148 30.4842 118.874 30.3094 118.636 30.0761C117.639 29.0987 116.382 28.5695 115.079 28.0552C113.891 27.5863 112.391 27.7575 111.204 28.0708C110.49 28.2596 109.877 28.1207 109.17 28.3762C108.436 28.6413 107.708 28.7871 106.971 29.0205C105.554 29.4694 104.123 29.6862 102.829 30.3254C101.763 30.8519 100.568 31.0272 99.4676 31.4443C98.4897 31.815 97.4196 31.9475 96.4338 32.3182C95.5808 32.639 94.8329 33.2143 94.0094 33.6181C92.8879 34.168 91.7456 34.6284 90.8147 35.4802C90.1831 36.058 89.5391 36.6017 88.8212 37.0821C87.0267 38.2831 86.0102 39.1101 85.409 41.1848C84.9748 42.6832 84.7178 44.3033 84.9151 45.882C85.061 47.0497 85.6151 48.2369 85.8965 49.4009C86.0556 50.0589 86.2759 50.5376 86.5476 51.1605C86.847 51.8468 86.8983 52.5558 87.1035 53.2747C87.5424 54.8121 88.3175 56.2201 88.7334 57.7675C89.2593 59.7239 89.9544 61.6356 90.7604 63.4965C92.157 66.7208 92.9762 70.1593 94.3235 73.4107C95.121 75.3354 95.7932 77.3614 96.5018 79.3281C97.8167 82.9772 99.4156 86.5069 101.136 89.9855L101.784 91.2738C101.942 91.2635 102.058 91.1968 102.134 91.0732C101.895 91.9729 102.498 91.9968 102.854 92.6098C103.128 93.0813 102.95 93.629 103.145 94.1096C103.269 94.4149 103.5 94.5444 103.651 94.8077C104.465 96.2268 105.064 97.7221 106.072 99.0042C106.412 99.4376 106.709 99.7099 106.98 100.221C107.132 100.508 107.285 100.843 107.486 101.101C107.913 101.645 108.413 102.321 108.902 102.797C109.857 103.725 111.529 103.838 112.793 103.836C114.383 103.832 116.013 103.937 117.601 103.843C118.161 103.81 118.752 103.659 119.287 103.529C120.104 103.331 120.734 102.658 121.553 102.386C124.729 101.331 127.689 99.6804 130.967 99.0123C132.754 98.648 134.19 97.6217 135.765 96.7898C135.649 96.4096 135.53 96.0288 135.401 95.6468Z" fill="#8FD4EA"/>
<path d="M136.523 95.3383C136.263 94.599 135.86 93.8897 135.646 93.2265C135.405 92.4817 135.336 91.941 135.297 91.1989C135.278 90.837 135.271 90.4745 135.266 90.1121C135.264 89.9314 135.262 89.7512 135.27 89.5706C135.274 89.4822 135.28 89.3939 135.288 89.3057C135.291 89.2682 135.318 89.0139 135.301 89.1522C135.398 88.4051 135.609 87.675 135.751 86.9361C135.901 86.1626 136.014 85.364 135.933 84.5763C135.847 83.745 135.698 82.9137 135.468 82.1097C135.264 81.3983 134.975 80.7027 134.562 80.0849C134.144 79.4592 133.745 78.7404 133.091 78.3351C132.748 78.1228 132.362 77.9921 132.016 77.786C131.673 77.5819 131.372 77.3716 131.003 77.2106C130.931 77.1794 130.859 77.1491 130.788 77.115C130.746 77.0945 130.5 77.0144 130.615 77.0361C130.725 77.0567 130.52 76.9411 130.631 77.062C130.687 77.1369 130.686 77.1342 130.626 77.054L130.444 76.82C130.112 76.4392 129.661 76.2362 129.151 76.2456C129.539 76.631 129.927 77.0163 130.315 77.4017C130.295 77.2425 130.346 77.2069 130.292 77.3626C130.316 77.2934 130.402 77.0893 130.318 77.2622C130.412 77.0689 130.524 76.8856 130.635 76.7015C130.889 76.2801 131.085 75.8331 131.287 75.3854C131.766 74.3241 132.302 73.2982 132.842 72.2673C133.363 71.2741 133.962 70.3295 134.501 69.3492C134.591 69.1864 134.661 69.0119 134.726 68.8384C134.749 68.7791 134.771 68.7193 134.791 68.659C134.757 68.72 134.759 68.7158 134.797 68.6463C134.931 68.3937 135.118 68.3408 134.501 68.691C133.925 69.0179 133.997 68.9193 134.273 68.9228C134.339 68.9267 134.337 68.9208 134.267 68.9051C134.333 68.9183 134.397 68.9343 134.461 68.9532C134.592 68.9882 134.72 69.032 134.852 69.0608C135.038 69.1012 135.228 69.121 135.416 69.1425C135.473 69.1481 135.53 69.1543 135.586 69.161C135.447 69.1416 135.444 69.142 135.577 69.1622C136 69.2292 136.391 69.181 136.709 68.8649C136.99 68.5858 137.139 68.1249 137.009 67.74C136.625 66.6075 136.174 65.5026 135.751 64.3848C135.324 63.2602 134.91 62.1309 134.466 61.0131C134.006 59.8558 133.533 58.6907 132.955 57.5856C132.413 56.5484 131.76 55.5742 131.119 54.5953C130.835 54.1602 130.543 53.7298 130.315 53.2622C130.121 52.8666 129.966 52.43 129.783 51.9076C129.443 50.9328 129.008 49.9126 128.631 49.0162C127.712 46.8335 127.008 44.568 126.295 42.3133C125.574 40.0309 124.559 37.9393 123.67 35.79C123.615 35.6555 123.567 35.5084 123.51 35.3103C123.437 35.0582 123.378 34.8019 123.296 34.5525C123.096 33.9499 122.787 33.4341 122.41 32.9273C122.098 32.5063 121.763 32.1015 121.471 31.6655C121.218 31.2881 121.02 30.878 120.746 30.5149C120.422 30.0859 120.049 29.77 119.643 29.4232C119.186 29.0334 118.756 28.6317 118.251 28.2995C117.345 27.7038 116.294 27.2541 115.272 26.8958C114.145 26.5006 112.897 26.5705 111.739 26.77C111.331 26.8403 110.816 27.002 110.516 27.0198C109.846 27.0594 109.224 27.1459 108.585 27.3544C107.46 27.7219 106.299 28.0249 105.154 28.3239C104.614 28.4648 104.074 28.6061 103.546 28.7876C102.986 28.9801 102.358 29.3107 101.892 29.4784C101.377 29.6637 100.851 29.8087 100.325 29.9575C99.7555 30.1185 99.2059 30.3316 98.6402 30.5026C97.4948 30.8487 96.3285 31.0345 95.2522 31.5854C94.8033 31.8151 94.3796 32.0895 93.9423 32.3395C93.4731 32.6076 92.9801 32.8287 92.4936 33.0634C91.4518 33.566 90.5547 34.1651 89.691 34.9325C88.3027 36.166 86.506 37.028 85.3476 38.6056C84.7953 39.3578 84.455 40.249 84.2116 41.142C83.9039 42.2704 83.7018 43.4506 83.6845 44.6215C83.666 45.87 83.932 47.0422 84.3218 48.2205C84.6874 49.3259 84.9681 50.4305 85.4364 51.5006C85.5983 51.8708 85.7209 52.4354 85.8212 52.9102C85.9446 53.494 86.118 54.0587 86.3262 54.618C86.723 55.6843 87.2125 56.7172 87.5361 57.8097C87.864 58.9171 88.1762 60.0226 88.568 61.1103C88.9745 62.239 89.4796 63.394 89.9133 64.459C90.8089 66.6586 91.473 68.9404 92.2488 71.1822C93.0127 73.3897 93.9306 75.5406 94.7086 77.7441C96.2694 82.1647 98.0766 86.4755 100.181 90.6696C100.38 91.0653 100.58 91.4606 100.779 91.8562C101.026 92.3465 101.603 92.4686 102.093 92.3875C102.416 92.334 102.754 92.1475 102.956 91.8895C102.308 91.5146 101.66 91.1396 101.011 90.7647C100.824 91.566 100.967 92.2685 101.545 92.8693C101.615 92.9426 101.692 93.0092 101.763 93.0823C101.801 93.122 101.839 93.1624 101.874 93.2045C101.807 93.1249 101.817 93.0503 101.849 93.1922C101.835 93.1272 101.836 93.0652 101.859 93.2528C101.853 93.2005 101.847 93.0564 101.862 93.2961C101.878 93.5572 101.892 93.8154 101.937 94.0742C102.014 94.5118 102.214 94.8734 102.496 95.2116C102.541 95.2649 102.588 95.3155 102.634 95.368C102.601 95.3294 102.529 95.1896 102.646 95.3901C102.749 95.5661 102.846 95.7458 102.942 95.9253C103.293 96.578 103.617 97.2447 103.975 97.8939C104.368 98.6083 104.812 99.2831 105.326 99.9179C105.423 100.037 105.521 100.157 105.623 100.272C105.77 100.438 105.681 100.338 105.649 100.297C105.696 100.357 105.74 100.42 105.782 100.483C105.994 100.8 106.135 101.156 106.338 101.478C106.584 101.866 106.747 102.027 107.056 102.423C107.289 102.72 107.523 103.016 107.776 103.296C108.284 103.859 108.871 104.251 109.574 104.529C110.867 105.039 112.299 104.976 113.664 104.998C115.327 105.024 117.048 105.172 118.691 104.85C119.46 104.7 120.179 104.488 120.851 104.079C121.13 103.909 121.407 103.739 121.69 103.576C121.872 103.472 121.804 103.517 121.746 103.541C121.826 103.508 121.91 103.484 121.992 103.456C122.209 103.382 122.425 103.307 122.641 103.229C124.084 102.705 125.488 102.083 126.912 101.514C127.696 101.201 128.486 100.904 129.291 100.649C130.114 100.388 130.959 100.234 131.789 100.001C133.435 99.5395 134.861 98.5805 136.353 97.7869C136.793 97.5524 137.034 96.9549 136.887 96.4812C136.77 96.099 136.65 95.7176 136.523 95.3383C136.324 94.7459 135.72 94.3591 135.091 94.5307C134.508 94.6899 134.079 95.3579 134.278 95.9529C134.405 96.3323 134.525 96.7137 134.643 97.0959C134.821 96.6607 134.999 96.2255 135.178 95.7903C134.567 96.115 133.973 96.4676 133.368 96.8022C132.78 97.1272 132.196 97.4264 131.666 97.6138C130.991 97.853 130.281 97.9637 129.59 98.1492C128.886 98.3384 128.193 98.5674 127.508 98.8178C126.154 99.3129 124.834 99.8922 123.497 100.43C122.817 100.704 122.133 100.968 121.438 101.204C120.754 101.437 120.188 101.782 119.572 102.145C119.436 102.226 119.296 102.311 119.148 102.371C119.211 102.345 119.287 102.336 119.093 102.382C119.009 102.401 118.925 102.425 118.842 102.446C118.474 102.537 118.094 102.644 117.716 102.682C117.114 102.744 116.255 102.73 115.563 102.721C114.183 102.705 112.77 102.757 111.397 102.612C111.358 102.608 111.171 102.575 111.372 102.609C111.317 102.6 111.261 102.591 111.206 102.581C111.059 102.555 110.913 102.523 110.768 102.486C110.643 102.454 110.522 102.41 110.398 102.375C110.191 102.317 110.318 102.351 110.371 102.374C110.289 102.339 110.209 102.299 110.13 102.257C110.067 102.223 110.006 102.188 109.946 102.151C109.92 102.135 109.739 102.01 109.847 102.091C109.955 102.172 109.786 102.035 109.763 102.014C109.721 101.974 109.679 101.933 109.639 101.892C109.377 101.628 109.141 101.341 108.909 101.051C108.814 100.932 108.719 100.81 108.684 100.764C108.636 100.703 108.31 100.252 108.418 100.416C108.218 100.112 108.076 99.7798 107.889 99.4692C107.535 98.8786 107.057 98.4238 106.717 97.9292C106.273 97.2834 105.904 96.591 105.545 95.8962C105.172 95.1744 104.844 94.3316 104.28 93.733C104.243 93.6942 104.123 93.6152 104.26 93.7258L104.201 93.6318C104.233 93.7082 104.237 93.7084 104.215 93.6321C104.181 93.5008 104.207 93.6229 104.211 93.65C104.196 93.5333 104.198 93.4133 104.19 93.2961C104.155 92.8185 104.074 92.3562 103.809 91.9451C103.643 91.687 103.431 91.4761 103.217 91.26C103.184 91.227 103.154 91.1843 103.117 91.1566C103.012 91.077 103.257 91.3645 103.16 91.193C103.222 91.3035 103.232 91.3679 103.244 91.4848C103.22 91.2602 103.186 91.6796 103.256 91.3794C103.373 90.8776 103.178 90.3395 102.721 90.0738C102.314 89.8372 101.622 89.8564 101.31 90.2545C101.626 90.1472 101.68 90.115 101.474 90.1578C101.913 90.3349 102.351 90.512 102.789 90.6891C101.109 87.3513 99.5148 83.9875 98.1819 80.5182C97.3474 78.3462 96.6398 76.1282 95.7912 73.9614C95.3664 72.8767 94.9235 71.8027 94.5402 70.7022C94.1652 69.6259 93.8179 68.5404 93.4597 67.4586C93.1019 66.3781 92.7334 65.3004 92.3165 64.2407C91.8881 63.152 91.4261 62.1404 91.0127 61.0395C90.6055 59.955 90.2414 58.8542 89.9317 57.7382C89.6301 56.6515 89.2101 55.6226 88.7928 54.5761C88.5989 54.0899 88.4131 53.5995 88.2639 53.0977C88.0951 52.5294 88.0191 51.9397 87.8539 51.3708C87.7682 51.0756 87.6478 50.7963 87.5255 50.5144C87.41 50.2483 87.417 50.2773 87.3238 50.0413C87.1148 49.5122 86.9972 48.9608 86.8307 48.4186C86.5145 47.389 86.0861 46.3073 86.0274 45.3222C85.96 44.1919 86.0863 43.2406 86.3518 42.1595C86.4686 41.6837 86.6035 41.2132 86.7814 40.7562C86.6897 40.9919 86.8135 40.6876 86.8271 40.6591C86.869 40.5712 86.9131 40.4843 86.9594 40.3987C87.0484 40.2345 87.1457 40.0748 87.2517 39.9209C87.2783 39.8822 87.465 39.6406 87.2861 39.8632C87.3426 39.7928 87.4004 39.7236 87.4602 39.6559C87.5808 39.5194 87.7082 39.3891 87.8407 39.2639C87.9777 39.1345 88.1203 39.0109 88.2663 38.8916C88.2921 38.8705 88.5479 38.6714 88.3411 38.8288C88.4504 38.7455 88.5617 38.6646 88.6735 38.5846C89.5468 37.9598 90.4277 37.367 91.2362 36.6567C91.42 36.4952 91.5976 36.3266 91.7836 36.1678C91.9339 36.0395 91.9985 35.9936 92.2156 35.8517C92.6776 35.5496 93.1715 35.2998 93.6685 35.06C94.1152 34.8445 94.5694 34.6426 95.0027 34.4009C95.4809 34.134 95.9391 33.8318 96.4271 33.582C97.245 33.1634 98.4033 33.006 99.3897 32.692C99.9098 32.5264 100.418 32.3359 100.944 32.1872C101.469 32.0387 101.999 31.8997 102.51 31.7081C103.062 31.5017 103.533 31.2427 104.034 31.0632C104.603 30.8594 105.189 30.7062 105.773 30.5536C106.874 30.2664 107.981 29.9667 109.067 29.6278C109.341 29.5422 109.609 29.428 109.894 29.3782C109.846 29.3866 109.716 29.3913 109.985 29.3677C110.118 29.3562 110.25 29.3505 110.383 29.3413C111.019 29.2969 111.611 29.138 112.233 29.0222C113.1 28.8606 113.992 28.8645 114.887 29.2158C115.338 29.3925 115.618 29.5056 116.108 29.748C116.55 29.9664 116.987 30.2108 117.381 30.5076C117.232 30.3951 117.549 30.6493 117.534 30.6367C117.63 30.7192 117.72 30.8071 117.813 30.8925C117.994 31.0593 118.189 31.2065 118.377 31.3656C118.552 31.5133 118.707 31.6755 118.859 31.8446C118.677 31.6429 118.857 31.8463 118.889 31.8939C118.939 31.9688 118.985 32.046 119.031 32.1232C119.576 33.0377 120.288 33.8285 120.841 34.7339C121.073 35.1142 121.124 35.4379 121.265 35.925C121.443 36.5405 121.678 36.9979 121.9 37.566C122.301 38.5902 122.859 39.628 123.232 40.5751C124.058 42.6676 124.63 44.8537 125.374 46.9754C125.768 48.0974 126.198 49.205 126.669 50.297C126.778 50.5492 126.895 50.7978 127.004 51.0498C126.923 50.862 127.076 51.2326 127.073 51.2234C127.118 51.3388 127.161 51.4548 127.204 51.5711C127.392 52.085 127.561 52.6057 127.753 53.1185C128.141 54.1603 128.655 55.0684 129.262 55.996C129.878 56.9354 130.498 57.8762 131.01 58.8767C132.032 60.8759 132.753 63.0187 133.557 65.1341C133.965 66.2068 134.396 67.2676 134.764 68.3547L136.196 66.9325C135.993 66.9005 135.79 66.8695 135.586 66.8487C135.27 66.8166 135.764 66.9127 135.406 66.8162C135.044 66.7186 134.701 66.6179 134.321 66.6097C133.664 66.5955 133.15 66.8491 132.817 67.4239C132.726 67.5815 132.656 67.7567 132.59 67.926C132.56 68.0049 132.532 68.0843 132.504 68.164C132.544 68.0861 132.529 68.1112 132.459 68.2392C132.285 68.5148 132.111 68.79 131.945 69.0707C131.625 69.6145 131.324 70.1695 131.029 70.7273C130.419 71.8799 129.813 73.0295 129.277 74.2183C129.045 74.7336 128.802 75.2293 128.516 75.7162C128.225 76.2096 127.914 76.8105 127.987 77.4017C128.063 78.0132 128.459 78.5706 129.151 78.5579C129.007 78.5606 128.814 78.4194 128.702 78.3419C128.736 78.3649 128.887 78.5328 128.662 78.2833C128.773 78.4063 128.854 78.5571 128.974 78.6726C129.254 78.942 129.585 79.1008 129.936 79.2533C130.206 79.3704 130.435 79.5132 130.676 79.678C130.977 79.8837 131.316 80.0162 131.64 80.1798C131.683 80.2016 131.978 80.3535 131.882 80.2948C132.022 80.3799 131.968 80.39 131.916 80.3166C131.958 80.3763 131.993 80.442 132.031 80.5043C132.202 80.7804 132.409 81.0307 132.586 81.3025C132.979 81.9031 133.109 82.2767 133.298 82.9979C133.478 83.6855 133.614 84.3133 133.631 84.9798C133.635 85.1352 133.632 85.2908 133.623 85.446C133.618 85.5345 133.611 85.6224 133.603 85.7106C133.582 85.9517 133.589 85.8543 133.596 85.798C133.552 86.1488 133.474 86.4973 133.398 86.8425C133.234 87.5948 133.066 88.3415 132.98 89.1078C132.902 89.7988 132.932 90.5058 132.969 91.1989C133.014 92.0408 133.118 92.8955 133.36 93.7056C133.598 94.502 134.032 95.2527 134.278 95.9529C134.485 96.5422 135.074 96.9339 135.71 96.7604C136.286 96.6033 136.731 95.9304 136.523 95.3383Z" fill="#8FD4EA"/>
<path d="M106.502 35.6702C106.103 35.7829 105.708 35.912 105.31 36.029C104.913 36.1453 104.513 36.2479 104.117 36.3644C103.327 36.5965 102.542 36.8436 101.76 37.099C101.545 37.1692 101.329 37.2397 101.114 37.3099C100.821 37.4059 100.542 37.5331 100.258 37.6548C100.349 37.6165 100.441 37.5783 100.532 37.54C100.212 37.6735 99.8646 37.7335 99.5416 37.862C99.0041 38.0758 98.5025 38.3231 98.1761 38.825C97.9491 39.1741 97.8995 39.6504 98.0227 40.0435C98.1506 40.4514 98.4467 40.8057 98.8149 41.0237C99.0848 41.1834 99.4498 41.284 99.7649 41.2604C99.9307 41.2479 100.102 41.2303 100.263 41.1845C100.424 41.1389 100.578 41.0623 100.73 40.998L100.448 41.1163C100.754 40.9889 101.064 40.8742 101.369 40.7453L101.096 40.86C101.302 40.7842 101.506 40.7012 101.704 40.6069C101.825 40.5494 101.937 40.4754 102.06 40.4226L101.788 40.5369C101.947 40.4733 102.114 40.4411 102.282 40.4041C102.538 40.3474 102.781 40.2518 103.015 40.132C103.343 39.9636 103.668 39.7894 103.999 39.626C104.686 39.2865 105.398 38.9898 106.105 38.6933L105.835 38.8062C106.089 38.7001 106.344 38.5998 106.6 38.4988C106.781 38.4269 106.965 38.3546 107.14 38.2676C107.315 38.1804 107.466 38.0641 107.618 37.9396C108.059 37.578 108.237 36.9262 108.077 36.3867C107.988 36.086 107.829 35.8794 107.631 35.6434C107.425 35.3992 107.147 35.275 106.854 35.1678C106.696 35.1189 106.539 35.1119 106.382 35.1468C106.225 35.1539 106.078 35.2004 105.943 35.2862C105.697 35.4287 105.464 35.708 105.399 35.9879C105.331 36.2885 105.345 36.6259 105.519 36.8927L105.703 37.1304C105.851 37.2759 106.025 37.3766 106.225 37.4324C106.241 37.4379 106.257 37.444 106.273 37.4506L105.99 37.3322C106.077 37.3706 106.167 37.416 106.245 37.4696L106.011 37.2899C106.038 37.3129 106.06 37.3384 106.082 37.3663L105.901 37.1343C105.926 37.1695 105.947 37.2052 105.964 37.2447L105.848 36.9713C105.859 37.0035 105.867 37.0348 105.873 37.0685L105.832 36.7646C105.835 36.7999 105.834 36.8332 105.83 36.8684L105.871 36.5649C105.865 36.5988 105.856 36.6309 105.843 36.663L105.959 36.3906C105.945 36.4196 105.928 36.4457 105.908 36.4713L106.088 36.2407C106.051 36.2854 106.008 36.3234 105.962 36.3589L106.194 36.1811C106.044 36.2916 105.873 36.3694 105.702 36.4417C105.793 36.4037 105.883 36.3658 105.974 36.3278C105.219 36.6441 104.478 36.9918 103.724 37.3089L103.992 37.1965C103.574 37.3716 103.157 37.5456 102.75 37.7438C102.424 37.9023 102.107 38.0814 101.776 38.2295C101.867 38.1916 101.957 38.1537 102.047 38.1158C101.828 38.2068 101.594 38.2316 101.366 38.2912C101.042 38.3757 100.763 38.555 100.46 38.6852L100.733 38.5706C100.539 38.6516 100.34 38.708 100.137 38.7633C99.9519 38.8137 99.7673 38.8838 99.5769 38.9105L99.8943 38.8682C99.8254 38.876 99.7579 38.8772 99.6889 38.8693L100.009 38.912C99.9593 38.9044 99.9122 38.8921 99.8651 38.874L100.155 38.9954C100.116 38.9781 100.08 38.9579 100.045 38.9334L100.292 39.1227C100.248 39.0885 100.21 39.0505 100.176 39.0068L100.368 39.2534C100.338 39.2118 100.313 39.1693 100.292 39.1227L100.416 39.4157C100.401 39.3769 100.388 39.3388 100.381 39.298L100.425 39.6238C100.423 39.6014 100.422 39.5811 100.423 39.5587L100.379 39.8839C100.383 39.8554 100.39 39.8293 100.4 39.8023L100.276 40.0938C100.291 40.0598 100.309 40.0296 100.332 39.9997L100.14 40.2459C100.182 40.1949 100.229 40.1516 100.281 40.1109L100.034 40.2999C100.22 40.1599 100.428 40.0509 100.641 39.9601L100.356 40.0795C100.632 39.9649 100.917 39.8765 101.187 39.7486C101.381 39.6566 101.545 39.5207 101.728 39.4116C102.115 39.1811 102.51 38.9632 102.901 38.7407C103.695 38.2895 104.487 37.835 105.295 37.4077C105.75 37.1668 106.216 36.9567 106.691 36.7571L106.557 36.8132C106.635 36.7803 106.714 36.7477 106.792 36.7153C106.93 36.6589 107.04 36.5988 107.118 36.4663C107.187 36.3501 107.216 36.1789 107.174 36.0487C107.083 35.771 106.796 35.5872 106.502 35.6702Z" fill="#18181B"/>
<path d="M137.328 99.369C137.062 98.6943 136.84 98.0025 136.637 97.3066C136.436 96.6179 136.276 95.9141 136.039 95.2362C135.91 94.8689 135.747 94.5153 135.598 94.1558C135.607 94.1772 135.662 94.3095 135.609 94.181C135.594 94.1459 135.58 94.1109 135.565 94.0758C135.536 94.0056 135.508 93.9352 135.48 93.8644C135.415 93.6959 135.355 93.5255 135.304 93.3521C135.206 93.0194 135.139 92.6813 135.082 92.3397C135.057 92.1901 135.082 92.3687 135.087 92.3877C135.075 92.3428 135.075 92.2917 135.069 92.2455C135.061 92.1698 135.053 92.0941 135.046 92.0182C135.029 91.8383 135.018 91.658 135.01 91.4775C134.977 90.7193 134.963 89.9375 135.06 89.1838L135.027 89.4279C135.257 87.7488 135.981 86.1452 135.812 84.4209C135.72 83.4851 135.57 82.5423 135.288 81.6427C135.153 81.2121 134.979 80.7878 134.768 80.3885C134.591 80.0543 134.358 79.7581 134.17 79.4318C134.026 79.1798 133.898 78.9616 133.711 78.731C133.526 78.502 133.278 78.3275 133.028 78.1734C132.646 77.9387 132.22 77.7902 131.86 77.518L132.124 77.7207C131.836 77.4912 131.571 77.2983 131.238 77.1467C131.008 77.0417 130.777 76.9432 130.568 76.7974C130.658 76.8665 130.748 76.9355 130.838 77.0045C130.778 76.9579 130.726 76.9056 130.678 76.8463L130.888 77.1153C130.74 76.9229 130.614 76.7096 130.436 76.5444C130.089 76.2242 129.629 76.0406 129.152 76.0604C129.587 76.3892 130.021 76.7179 130.456 77.0467L130.451 77.0122L130.499 77.3695C130.494 77.3085 130.496 77.2499 130.503 77.1893L130.454 77.5475C130.473 77.4266 130.511 77.3125 130.558 77.1996L130.42 77.5232C130.625 77.0559 130.951 76.6541 131.168 76.1922C131.458 75.5752 131.722 74.9466 132.02 74.3334C132.315 73.7271 132.642 73.1354 132.954 72.5378C133.268 71.9358 133.585 71.3348 133.92 70.744C134.102 70.424 134.289 70.107 134.484 69.795C134.58 69.6413 134.683 69.4932 134.76 69.3286C134.878 69.0757 134.961 68.8169 135.064 68.5596L134.924 68.888C134.978 68.7644 135.045 68.6441 135.127 68.537L134.911 68.8151C134.924 68.7996 134.937 68.7866 134.953 68.7737L134.673 68.9885C134.682 68.9819 134.692 68.9764 134.703 68.9721L134.372 69.1106C134.391 69.1044 134.407 69.1009 134.426 69.0982L134.058 69.1473C134.197 69.1357 134.345 69.1358 134.482 69.1504L134.115 69.1013C134.339 69.1349 134.551 69.215 134.771 69.2675C135.082 69.3418 135.407 69.3548 135.724 69.3966C135.602 69.3802 135.479 69.3639 135.357 69.3475C135.723 69.3987 136.08 69.4913 136.44 69.571C136.854 69.6627 137.27 69.7497 137.684 69.8406C138.463 70.0114 139.276 70.1667 140.016 70.4688L139.687 70.3309C140.03 70.4763 140.337 70.6779 140.632 70.9026L140.354 70.6887C140.878 71.0988 141.329 71.5856 141.865 71.9845C142.251 72.2718 142.706 72.4472 143.089 72.7371C142.997 72.666 142.904 72.5949 142.811 72.5237C142.933 72.6201 143.041 72.7265 143.137 72.8488L142.922 72.5727C143.036 72.7272 143.116 72.895 143.194 73.0691C143.319 73.3482 143.47 73.5649 143.668 73.807C143.911 74.1058 144.251 74.3069 144.49 74.6093L144.282 74.3412C144.609 74.7864 144.875 75.2849 145.147 75.765C145.412 76.2342 145.661 76.7159 145.873 77.2118L145.76 76.9459C145.938 77.3692 146.085 77.8032 146.192 78.2495C146.244 78.4669 146.288 78.6862 146.326 78.9065C146.365 79.1333 146.438 79.3513 146.491 79.5755C146.571 79.9121 146.939 80.1945 147.289 80.1789C147.653 80.1627 147.989 79.9356 148.087 79.5755C148.167 79.2819 148.237 78.9831 148.244 78.678C148.249 78.435 148.233 78.1907 148.207 77.9493C148.147 77.3926 148.053 76.8391 147.906 76.2982C147.779 75.8322 147.615 75.3755 147.467 74.916C147.289 74.3657 147.075 73.833 146.786 73.3303C146.611 73.0265 146.41 72.7335 146.162 72.4833C145.99 72.3098 145.801 72.1558 145.645 71.9672L145.857 72.2402C145.758 72.1127 145.683 71.9766 145.619 71.8291L145.757 72.154C145.622 71.826 145.504 71.4857 145.294 71.1954C145.033 70.8333 144.77 70.5882 144.404 70.3268C144.038 70.0647 143.614 69.8973 143.253 69.6254L143.532 69.839C143.127 69.5254 142.782 69.145 142.386 68.8223C142.119 68.6053 141.841 68.3899 141.547 68.2092C141.275 68.0416 140.979 67.9202 140.682 67.8027C140.169 67.6001 139.619 67.4766 139.084 67.3495C138.51 67.2132 137.932 67.0928 137.356 66.9659C137.053 66.8991 136.752 66.8233 136.447 66.7612C136.07 66.6841 135.685 66.6493 135.303 66.6026L135.67 66.6517C135.391 66.6061 135.129 66.4978 134.85 66.4519C134.476 66.3905 134.036 66.3517 133.662 66.4529C133.204 66.577 132.892 66.8911 132.651 67.2788C132.46 67.5856 132.368 67.9384 132.23 68.2691L132.369 67.9406C132.227 68.255 132.005 68.542 131.828 68.8385C131.649 69.1378 131.476 69.4408 131.307 69.7458C130.969 70.3578 130.646 70.9784 130.321 71.5977C129.987 72.235 129.647 72.867 129.347 73.5213C129.078 74.1092 128.841 74.723 128.521 75.2863C128.374 75.546 128.218 75.8005 128.098 76.0745C128.004 76.2891 127.9 76.5053 127.852 76.7359C127.772 77.1236 127.776 77.3747 127.848 77.7609L127.984 78.0818C128.069 78.2383 128.185 78.364 128.333 78.4587C128.554 78.6289 128.863 78.7704 129.152 78.7471C129.196 78.7435 129.237 78.7426 129.282 78.7456L128.923 78.6977C128.96 78.7032 128.993 78.7106 129.028 78.7225C128.921 78.6775 128.814 78.6325 128.706 78.5875C128.747 78.6053 128.782 78.6261 128.818 78.6531L128.545 78.4441C128.595 78.4876 128.637 78.5364 128.678 78.5884L128.469 78.3187C128.732 78.6611 128.93 78.9172 129.312 79.1404C129.62 79.3208 129.966 79.4338 130.295 79.5708L129.98 79.4389C130.286 79.5695 130.533 79.7714 130.823 79.9284C131.183 80.124 131.574 80.2825 131.952 80.4395L131.647 80.3115C131.79 80.3793 131.931 80.4519 132.058 80.5465L131.804 80.3512C131.879 80.4134 131.945 80.4813 132.006 80.5574L131.811 80.3072C131.913 80.441 131.997 80.5863 132.097 80.7213C132.257 80.9386 132.434 81.1422 132.6 81.3549L132.412 81.1135C132.711 81.5013 132.964 81.9145 133.16 82.3628L133.045 82.093C133.387 82.9804 133.616 83.9056 133.75 84.8461L133.712 84.5671C133.787 85.1414 133.76 85.7166 133.684 86.2892L133.72 86.0231C133.591 86.9532 133.366 87.8659 133.251 88.7986C133.144 89.6654 133.202 90.5533 133.286 91.4203C133.382 92.4199 133.578 93.3834 133.979 94.308C134.157 94.718 134.369 95.1115 134.557 95.517C134.576 95.5601 134.595 95.6036 134.615 95.6468C134.696 95.8223 134.56 95.4998 134.63 95.681C134.673 95.7924 134.715 95.9038 134.756 96.0161C134.839 96.2473 134.92 96.4796 135 96.7123C135.344 97.717 135.651 98.7355 136.065 99.7147C136.135 99.8784 136.205 100.01 136.366 100.103C136.506 100.185 136.713 100.219 136.871 100.169C137.179 100.07 137.462 99.7082 137.328 99.369Z" fill="#18181B"/>
<path d="M136.35 109.276C137.151 109.003 137.953 108.84 138.731 108.506C139.519 108.169 140.334 107.875 141.107 107.505C142.245 106.961 143.212 106.178 144.15 105.349C145.034 104.568 145.989 103.965 146.823 103.128C147.915 102.031 149.001 100.849 150.167 99.8399C150.724 99.3577 151.38 98.9836 151.891 98.4434C152.337 97.9706 152.707 97.4162 153.099 96.8944C153.439 96.4409 153.741 95.9663 154.062 95.4986C154.409 94.9932 154.879 94.6259 155.245 94.1452C155.504 93.8047 155.695 93.5313 155.967 93.2265C156.182 92.9865 156.107 92.7656 156.552 92.8443C156.847 92.8965 157.182 93.4075 157.358 93.5834C158.645 94.8756 159.85 96.2284 160.845 97.7618C161.334 98.5141 161.664 99.3521 162.105 100.131C162.414 100.677 162.608 101.153 162.831 101.738C163.044 102.296 163.415 102.759 163.664 103.302C164.602 105.349 165.295 107.36 165.611 109.587C166.009 112.399 166.133 115.21 166.151 118.044C166.169 120.965 165.784 123.98 164.748 126.73C164.189 128.212 163.404 129.655 162.553 130.991C161.423 132.764 160.23 134.514 158.941 136.178C157.378 138.196 155.33 140.103 153.147 141.441C152.392 141.904 151.719 142.558 150.927 142.94C150.531 143.131 150.099 143.296 149.694 143.477C148.958 143.806 148.225 143.877 147.446 144.043C145.411 144.477 143.515 145.198 141.4 145.266C140.481 145.296 139.553 145.258 138.634 145.257C137.651 145.256 136.732 145.131 135.762 145.053C134.455 144.947 133.133 144.937 131.868 144.531C131.372 144.372 130.911 144.185 130.465 143.912C129.973 143.612 129.648 143.152 129.145 142.883C128.262 142.411 127.458 141.793 126.656 141.19C125.841 140.576 124.786 140.338 124.346 139.329C125.105 139.727 125.684 139.992 126.575 139.798C126.965 139.712 127.222 139.657 127.636 139.652C128.092 139.647 128.493 139.471 128.945 139.444C129.885 139.387 130.81 139.567 131.724 139.313C132.72 139.036 133.478 138.652 134.217 137.906C134.784 137.334 135.3 136.628 135.771 135.972C136.172 135.412 136.544 134.705 136.32 133.99C136.05 133.127 134.995 133.068 134.408 132.503C133.605 131.728 133.229 130.863 133.231 129.757C133.232 128.892 133.445 127.974 134.215 127.435C135.1 126.816 136.067 126.673 137.122 126.688C137.843 126.699 138.687 126.356 139.334 126.062C140.035 125.744 140.578 125.08 140.831 124.372C141.134 123.523 141.115 122.953 140.302 122.421C139.591 121.956 138.821 121.791 137.981 121.843C137.375 121.88 136.791 122.172 136.156 122.053C135.876 122 135.548 121.832 135.319 121.665C134.829 121.306 135.053 121.152 134.995 120.609C134.96 120.281 134.747 120.021 134.773 119.679C134.803 119.294 135.125 118.909 135.298 118.571C135.725 117.737 136.076 116.836 136.328 115.932C136.565 115.085 136.524 114.572 136.367 113.725C136.22 112.936 136.296 112.362 135.752 111.699C135.762 111.859 135.767 112.018 135.766 112.177" fill="#18181B"/>
<path d="M136.483 109.751C136.967 109.62 137.457 109.52 137.944 109.402C138.43 109.284 138.894 109.117 139.367 108.959C140.308 108.644 141.266 108.284 142.136 107.804C142.98 107.338 143.749 106.746 144.49 106.134C145.218 105.534 145.941 105.032 146.719 104.417C147.478 103.817 148.146 103.112 148.839 102.44C149.191 102.098 149.546 101.759 149.908 101.427C150.088 101.262 150.27 101.099 150.454 100.939C150.54 100.865 150.626 100.791 150.713 100.718C150.75 100.687 150.787 100.656 150.824 100.625C150.817 100.631 151.037 100.449 150.932 100.534C150.833 100.614 150.979 100.499 151.003 100.481C151.039 100.455 151.075 100.429 151.111 100.403C151.207 100.334 151.304 100.267 151.401 100.199C151.645 100.027 151.886 99.8526 152.122 99.6699C152.486 99.3885 152.802 99.0726 153.101 98.7245C153.775 97.9395 154.395 97.1067 155.008 96.2751C155.038 96.2347 155.069 96.1947 155.098 96.1541C155.206 96.0054 154.956 96.3073 155.077 96.1852C155.151 96.111 155.217 96.0283 155.29 95.9532C155.456 95.7822 155.633 95.6212 155.803 95.4536C156.123 95.1372 156.385 94.7754 156.678 94.4349C156.856 94.2275 157.057 94.0363 157.21 93.8079C157.219 93.7933 157.314 93.6581 157.308 93.6417C157.349 93.7492 156.898 93.9961 156.9 93.9953C156.667 94.1314 156.461 94.2232 156.189 94.1493C156.182 94.1473 155.857 93.9664 156.011 94.0762C156.019 94.0816 155.78 93.858 155.857 93.9595C155.904 94.0208 155.973 94.0732 156.025 94.1322C156.136 94.2588 156.233 94.397 156.344 94.5237C156.953 95.2187 157.603 95.8764 158.2 96.5829C158.351 96.762 158.5 96.9432 158.646 97.1266C158.675 97.163 158.703 97.2022 158.734 97.2369C158.509 96.9843 158.633 97.1054 158.683 97.1714C158.758 97.2713 158.834 97.3707 158.909 97.4714C159.189 97.8506 159.463 98.2379 159.708 98.6405C159.966 99.0638 160.181 99.5107 160.399 99.9551C160.61 100.385 160.848 100.8 161.062 101.228C161.11 101.324 161.156 101.419 161.2 101.516C161.224 101.57 161.245 101.628 161.273 101.68C161.276 101.686 161.157 101.398 161.215 101.546C161.323 101.821 161.429 102.098 161.544 102.37C161.738 102.825 161.991 103.236 162.231 103.668C162.336 103.855 162.425 104.048 162.513 104.244C162.565 104.36 162.617 104.477 162.668 104.594C162.687 104.638 162.704 104.683 162.725 104.726C162.564 104.384 162.675 104.609 162.708 104.688C162.889 105.123 163.059 105.562 163.216 106.005C163.529 106.887 163.789 107.787 163.981 108.702C164.029 108.934 164.074 109.167 164.114 109.401C164.133 109.511 164.15 109.621 164.167 109.731C164.181 109.823 164.229 110.313 164.192 109.892C164.237 110.407 164.319 110.921 164.371 111.435C164.473 112.463 164.544 113.494 164.591 114.525C164.683 116.522 164.746 118.537 164.59 120.531C164.552 121.012 164.501 121.492 164.438 121.97L164.491 121.58C164.335 122.726 164.106 123.862 163.78 124.972C163.622 125.51 163.442 126.042 163.236 126.563C163.206 126.639 163.175 126.714 163.146 126.789C163.108 126.884 163.104 127.016 163.181 126.709C163.151 126.831 163.075 126.952 163.023 127.067C162.895 127.35 162.76 127.631 162.619 127.908C161.559 130 160.203 131.964 158.833 133.864C158.491 134.339 158.139 134.807 157.785 135.273C157.581 135.542 157.94 135.078 157.811 135.241C157.773 135.288 157.736 135.336 157.698 135.383C157.613 135.49 157.527 135.596 157.44 135.701C157.264 135.913 157.084 136.122 156.9 136.328C156.154 137.164 155.348 137.948 154.488 138.668C154.297 138.827 154.103 138.982 153.907 139.137C153.705 139.297 153.964 139.082 153.987 139.077C153.93 139.09 153.849 139.18 153.801 139.216C153.677 139.307 153.553 139.398 153.427 139.487C152.994 139.793 152.537 140.06 152.1 140.359C151.655 140.664 151.24 141.01 150.79 141.308C150.58 141.448 150.363 141.575 150.135 141.684C150.006 141.745 149.875 141.803 149.743 141.86C149.684 141.885 149.624 141.909 149.565 141.936C150.019 141.735 149.386 142.01 149.297 142.048C149.238 142.073 149.179 142.098 149.12 142.123C149.076 142.142 149.032 142.161 148.988 142.18C148.886 142.225 148.931 142.207 149.123 142.125C149.112 142.114 148.713 142.265 148.681 142.274C148.387 142.359 148.087 142.418 147.786 142.475C147.159 142.593 146.537 142.727 145.919 142.884C144.677 143.2 143.445 143.558 142.173 143.737L142.569 143.684C141.806 143.785 141.042 143.801 140.274 143.794C139.494 143.787 138.71 143.796 137.932 143.755C137.174 143.715 136.421 143.621 135.664 143.562C134.912 143.503 134.158 143.469 133.409 143.375L133.805 143.428C133.28 143.358 132.773 143.246 132.264 143.102C132.061 143.044 131.858 142.987 131.659 142.917C131.603 142.897 131.547 142.877 131.492 142.856C131.349 142.799 131.381 142.813 131.587 142.898C131.541 142.829 130.96 142.63 131.001 142.64C131.365 142.736 131.067 142.637 130.959 142.565C130.913 142.534 130.867 142.502 130.823 142.468C130.991 142.599 131.019 142.619 130.904 142.529C130.686 142.351 130.467 142.173 130.238 142.008C129.854 141.732 129.404 141.557 128.993 141.322C128.196 140.865 127.518 140.241 126.722 139.787C126.412 139.61 126.091 139.45 125.795 139.248C125.757 139.222 125.719 139.194 125.681 139.167C125.833 139.285 125.86 139.304 125.762 139.224C125.695 139.159 125.628 139.093 125.561 139.029C125.478 138.934 125.496 138.96 125.613 139.108C125.584 139.069 125.557 139.029 125.531 138.988C125.476 138.902 125.43 138.812 125.388 138.72C124.837 139.267 124.287 139.813 123.737 140.36C124.169 140.583 124.618 140.812 125.092 140.932C125.662 141.077 126.223 141.067 126.798 140.959C126.992 140.922 127.182 140.875 127.376 140.84C127.412 140.833 127.548 140.81 127.371 140.839C127.184 140.871 127.365 140.844 127.413 140.841C127.536 140.832 127.659 140.834 127.781 140.823C128.076 140.797 128.366 140.745 128.653 140.679C128.681 140.673 128.949 140.586 128.975 140.61C128.955 140.592 128.757 140.622 128.945 140.616C129.029 140.614 129.112 140.607 129.196 140.605C130.245 140.577 131.259 140.683 132.277 140.349C133.177 140.054 133.999 139.62 134.702 138.982C135.427 138.325 135.992 137.487 136.535 136.682C137.112 135.827 137.616 134.774 137.25 133.732C137.075 133.234 136.794 132.864 136.372 132.552C136.121 132.367 135.842 132.238 135.564 132.099C135.419 132.027 135.282 131.946 135.144 131.863C135.004 131.779 135.281 131.999 135.118 131.839C135.042 131.764 134.966 131.69 134.894 131.611C134.831 131.543 134.772 131.472 134.713 131.401C134.833 131.547 134.7 131.376 134.66 131.317C134.612 131.244 134.566 131.17 134.523 131.093C134.499 131.05 134.475 131.007 134.453 130.962C134.44 130.937 134.351 130.746 134.409 130.877C134.459 130.992 134.41 130.877 134.403 130.856C134.386 130.81 134.369 130.764 134.354 130.717C134.327 130.634 134.303 130.551 134.283 130.466C134.262 130.381 134.246 130.294 134.23 130.207C134.204 130.075 134.193 130.194 134.233 130.236C134.214 130.216 134.221 130.106 134.22 130.078C134.206 129.884 134.206 129.688 134.218 129.493C134.219 129.468 134.229 129.233 134.24 129.232C134.246 129.231 134.206 129.422 134.231 129.305C134.245 129.245 134.253 129.183 134.267 129.122C134.286 129.037 134.308 128.953 134.334 128.87C134.349 128.823 134.368 128.777 134.382 128.73C134.416 128.616 134.358 128.798 134.354 128.792C134.34 128.771 134.457 128.591 134.474 128.564C134.499 128.521 134.53 128.482 134.554 128.439C134.617 128.331 134.404 128.595 134.563 128.432C134.626 128.368 134.692 128.308 134.756 128.246C134.832 128.171 134.725 128.27 134.713 128.278C134.765 128.246 134.814 128.209 134.866 128.177C134.954 128.121 135.044 128.07 135.137 128.021C135.189 127.994 135.243 127.972 135.294 127.944C135.423 127.874 135.159 127.988 135.297 127.942C135.5 127.874 135.699 127.805 135.91 127.76C136.007 127.739 136.106 127.724 136.204 127.706C136.319 127.685 136.167 127.712 136.153 127.713C136.225 127.707 136.297 127.698 136.369 127.693C136.869 127.654 137.36 127.683 137.858 127.603C138.295 127.532 138.716 127.39 139.125 127.224C139.632 127.019 140.091 126.815 140.523 126.478C141.855 125.438 142.737 123.059 141.188 121.821C140.357 121.156 139.403 120.79 138.337 120.727C138.127 120.714 137.919 120.716 137.71 120.739C137.533 120.758 137.354 120.776 137.179 120.813L137.134 120.82C137.311 120.801 137.302 120.803 137.105 120.828C136.991 120.843 136.882 120.862 136.769 120.885C136.734 120.893 136.596 120.894 136.743 120.893C136.908 120.892 136.712 120.895 136.67 120.897C136.571 120.904 136.44 120.925 136.345 120.894C136.354 120.897 136.541 120.946 136.435 120.897C136.387 120.876 136.329 120.864 136.278 120.849C136.148 120.81 136.368 120.876 136.366 120.884C136.368 120.877 136.195 120.792 136.174 120.78C136.125 120.752 136.08 120.716 136.03 120.69C135.919 120.631 136.106 120.746 136.113 120.758C136.118 120.766 136.021 120.665 136.011 120.664C136.028 120.666 136.174 120.92 136.104 120.779C136.086 120.743 136.225 121.078 136.187 120.965C136.144 120.837 136.194 121.292 136.216 121.159C136.226 121.097 136.222 121.025 136.226 120.963C136.252 120.51 136.149 120.093 136.006 119.668C135.941 119.474 136.015 119.721 136.014 119.759L135.999 119.843C135.977 119.953 135.978 119.955 136.001 119.851C135.999 119.852 136.089 119.648 135.994 119.846C135.913 120.015 135.999 119.847 136.021 119.806C136.123 119.622 136.244 119.449 136.346 119.265C136.616 118.78 136.832 118.257 137.04 117.744C137.409 116.835 137.75 115.855 137.764 114.864C137.771 114.354 137.673 113.844 137.587 113.343C137.58 113.302 137.574 113.261 137.567 113.219C137.529 112.998 137.579 113.293 137.579 113.318C137.578 113.231 137.557 113.14 137.546 113.054C137.512 112.788 137.485 112.517 137.424 112.254C137.296 111.696 137.007 111.241 136.657 110.796C136.347 110.403 135.677 110.358 135.258 110.533C134.813 110.72 134.442 111.193 134.471 111.696C134.48 111.855 134.484 112.014 134.484 112.174C134.484 112.84 135.073 113.478 135.766 113.448C136.46 113.417 137.049 112.888 137.048 112.174C137.048 112.014 137.042 111.855 137.032 111.696L134.846 112.595C134.823 112.566 134.695 112.367 134.801 112.548C134.822 112.582 134.844 112.616 134.864 112.651C134.884 112.685 134.901 112.719 134.92 112.754C135.022 112.937 134.882 112.682 134.88 112.655C134.893 112.821 134.981 113.005 135.009 113.174C135.056 113.461 134.981 112.94 135.01 113.165C135.031 113.328 135.053 113.491 135.075 113.654C135.105 113.868 135.145 114.08 135.182 114.293C135.192 114.352 135.2 114.411 135.211 114.47C135.236 114.613 135.192 114.348 135.194 114.346C135.171 114.365 135.217 114.582 135.219 114.628C135.225 114.72 135.227 114.811 135.225 114.903C135.224 114.958 135.177 115.195 135.204 115.222C135.199 115.217 135.251 114.956 135.22 115.095C135.207 115.152 135.199 115.211 135.187 115.268C135.164 115.378 135.137 115.486 135.108 115.594C135.048 115.814 134.981 116.032 134.91 116.248C134.839 116.466 134.762 116.681 134.68 116.895C134.639 117.003 134.595 117.108 134.554 117.215C134.502 117.349 134.582 117.152 134.586 117.142C134.559 117.218 134.52 117.293 134.487 117.366C134.307 117.765 134.081 118.128 133.88 118.514C133.582 119.087 133.433 119.685 133.617 120.323C133.628 120.363 133.784 120.849 133.796 120.85C133.775 120.848 133.787 120.595 133.774 120.716C133.77 120.758 133.778 120.804 133.778 120.847C133.778 120.92 133.772 120.993 133.771 121.065C133.752 122.168 134.749 122.948 135.761 123.176C136.349 123.309 136.947 123.239 137.524 123.088C137.628 123.061 137.73 123.029 137.835 123.003C137.873 122.994 138.073 122.922 138.102 122.945C138.069 122.919 137.901 122.961 138.071 122.95C138.116 122.947 138.16 122.943 138.205 122.941C138.321 122.934 138.438 122.931 138.555 122.934C138.574 122.934 138.844 122.928 138.855 122.952C138.855 122.951 138.584 122.903 138.821 122.947C138.863 122.955 138.905 122.963 138.946 122.971C139.044 122.991 139.141 123.015 139.236 123.044C139.303 123.064 139.589 123.175 139.391 123.088C139.551 123.158 139.808 123.248 139.924 123.386C139.921 123.383 139.792 123.264 139.865 123.346C139.888 123.372 139.917 123.394 139.942 123.418C139.933 123.41 140.033 123.515 140.032 123.517C140.012 123.532 139.914 123.32 139.981 123.463C139.984 123.471 140.023 123.557 140.036 123.567C140.022 123.557 139.977 123.371 139.985 123.46C139.988 123.494 140 123.538 140.012 123.57C140.046 123.66 139.989 123.454 139.995 123.445C139.977 123.474 139.987 123.615 139.992 123.655C140.004 123.756 139.991 123.551 140.009 123.545C140.001 123.548 139.979 123.69 139.974 123.71C139.955 123.792 139.931 123.874 139.906 123.954C139.894 123.993 139.806 124.25 139.85 124.127C139.892 124.01 139.849 124.131 139.838 124.152C139.814 124.199 139.792 124.247 139.766 124.294C139.716 124.387 139.661 124.479 139.601 124.567C139.553 124.638 139.448 124.742 139.565 124.622C139.499 124.689 139.441 124.762 139.374 124.829C139.307 124.895 139.236 124.956 139.165 125.016C139.324 124.882 139.103 125.051 139.04 125.088C138.873 125.186 138.693 125.258 138.517 125.337C138.686 125.261 138.435 125.369 138.381 125.39C138.267 125.434 138.151 125.476 138.034 125.514C137.846 125.576 137.654 125.63 137.46 125.669C137.402 125.68 137.343 125.692 137.284 125.7C137.303 125.697 137.445 125.692 137.333 125.689C137.219 125.685 137.101 125.695 136.987 125.695C136.506 125.697 136.023 125.74 135.55 125.828C134.689 125.988 133.725 126.403 133.145 127.077C132.547 127.773 132.296 128.627 132.256 129.531C132.185 131.147 132.954 132.906 134.442 133.687C134.719 133.832 134.999 133.962 135.27 134.119C135.452 134.224 135.189 134.021 135.296 134.137C135.317 134.159 135.34 134.18 135.362 134.201C135.454 134.288 135.369 134.256 135.386 134.222C135.392 134.21 135.321 134.137 135.381 134.228C135.463 134.353 135.334 134.19 135.368 134.176C135.374 134.174 135.399 134.285 135.399 134.286C135.443 134.403 135.407 134.116 135.405 134.342C135.404 134.421 135.37 134.593 135.41 134.432C135.385 134.531 135.352 134.63 135.328 134.729C135.293 134.872 135.399 134.608 135.326 134.736C135.304 134.775 135.287 134.817 135.266 134.856C135.209 134.961 135.147 135.063 135.081 135.163C134.964 135.339 134.832 135.505 134.703 135.673C134.683 135.699 134.581 135.828 134.692 135.687C134.662 135.725 134.633 135.762 134.603 135.8C134.523 135.9 134.443 136 134.362 136.1C134.069 136.456 133.763 136.801 133.429 137.119C133.296 137.246 133.157 137.363 133.018 137.482C132.899 137.583 133.182 137.368 133.054 137.453C133.021 137.475 132.989 137.499 132.957 137.521C132.871 137.58 132.783 137.636 132.694 137.69C132.538 137.782 132.376 137.861 132.213 137.94C132.028 138.028 132.432 137.857 132.161 137.959C132.06 137.997 131.959 138.032 131.857 138.065C131.679 138.122 131.499 138.176 131.316 138.217C131.275 138.227 131.169 138.261 131.119 138.256C131.13 138.257 131.324 138.235 131.184 138.248C131.053 138.261 130.922 138.272 130.79 138.277C130.309 138.294 129.828 138.254 129.347 138.254C128.819 138.254 128.306 138.339 127.793 138.454C127.537 138.512 127.827 138.457 127.829 138.455C127.814 138.471 127.706 138.464 127.685 138.465C127.58 138.469 127.476 138.469 127.371 138.476C127.096 138.496 126.82 138.536 126.549 138.589C126.452 138.607 126.353 138.626 126.257 138.649C126.202 138.662 126.097 138.645 126.23 138.66C126.39 138.678 126.218 138.66 126.168 138.664C126.07 138.67 125.974 138.666 125.876 138.665C125.839 138.664 125.699 138.644 125.877 138.67C126.084 138.699 125.83 138.656 125.806 138.65C125.73 138.633 125.655 138.611 125.581 138.587C125.545 138.575 125.251 138.468 125.427 138.533C125.604 138.599 125.314 138.475 125.27 138.453C125.164 138.401 125.059 138.345 124.955 138.29C124.497 138.048 123.862 138.078 123.493 138.478C123.102 138.9 123.074 139.422 123.304 139.93C123.673 140.745 124.421 141.27 125.179 141.698C125.503 141.881 125.82 142.067 126.117 142.292C126.299 142.429 126.479 142.567 126.661 142.704C126.765 142.782 126.869 142.859 126.974 142.936C127.013 142.965 127.052 142.994 127.092 143.022C127.213 143.108 126.932 142.891 127.111 143.038C127.544 143.394 128.009 143.706 128.479 144.01C128.519 144.036 128.58 144.09 128.62 144.104C128.614 144.102 128.419 143.93 128.514 144.027C128.581 144.095 128.657 144.156 128.726 144.224C128.885 144.379 129.035 144.543 129.202 144.691C130.013 145.411 131.083 145.902 132.141 146.135C133.2 146.368 134.29 146.425 135.37 146.5C136.357 146.569 137.341 146.704 138.331 146.729C139.351 146.754 140.38 146.776 141.4 146.741C142.467 146.704 143.531 146.523 144.569 146.28C145.506 146.06 146.43 145.79 147.366 145.57C148.383 145.331 149.39 145.202 150.355 144.785C150.796 144.595 151.246 144.421 151.677 144.21C152.078 144.014 152.443 143.756 152.8 143.49C153.516 142.958 154.274 142.496 154.999 141.977C156.595 140.837 158.057 139.518 159.328 138.027C160.665 136.458 161.85 134.749 162.984 133.032C164.13 131.298 165.183 129.539 165.976 127.614C166.751 125.732 167.171 123.744 167.419 121.731C167.661 119.766 167.645 117.79 167.585 115.815C167.52 113.669 167.344 111.531 167.048 109.403C166.787 107.526 166.254 105.714 165.522 103.966C165.304 103.446 165.093 102.915 164.835 102.412C164.633 102.018 164.385 101.65 164.184 101.255C164.064 101.019 164.233 101.349 164.223 101.353C164.224 101.353 164.148 101.158 164.153 101.171C164.114 101.07 164.074 100.969 164.033 100.868C163.912 100.573 163.788 100.277 163.652 99.9883C163.449 99.5592 163.203 99.1514 162.99 98.7271C162.558 97.867 162.116 97.0441 161.55 96.262C160.947 95.4294 160.294 94.6314 159.601 93.8705C159.285 93.5232 158.948 93.1934 158.612 92.8653C158.359 92.6179 158.135 92.3367 157.875 92.097C157.352 91.6135 156.647 91.3347 155.93 91.5335C155.529 91.6448 155.215 91.9081 154.989 92.2478C154.956 92.2981 154.928 92.3517 154.898 92.4042C154.884 92.4277 154.867 92.4493 154.856 92.4744C154.812 92.5792 155.053 92.2282 154.9 92.4209C154.721 92.6465 154.546 92.875 154.381 93.1101C154.311 93.209 154.242 93.3087 154.172 93.4075C154.145 93.4461 154.117 93.4841 154.09 93.523C154.034 93.6002 154.055 93.5718 154.154 93.4378L153.951 93.6992C153.97 93.6667 154.135 93.4807 153.984 93.6473C153.954 93.6805 153.925 93.7149 153.896 93.7485C153.827 93.827 153.757 93.9048 153.688 93.9834C153.48 94.2208 153.279 94.4669 153.098 94.7247C152.815 95.1266 152.58 95.5628 152.313 95.9754C152.056 96.374 151.788 96.7682 151.518 97.1583C151.456 97.2478 151.393 97.3367 151.328 97.4245C151.309 97.4502 151.186 97.602 151.272 97.4981C151.352 97.4015 151.252 97.5216 151.242 97.5333C151.084 97.7151 150.92 97.8873 150.739 98.0472C150.408 98.3412 150.045 98.5974 149.703 98.8789C148.96 99.4897 148.298 100.205 147.642 100.905C146.98 101.61 146.35 102.357 145.632 103.008C144.939 103.636 144.183 104.19 143.496 104.825C142.828 105.441 142.199 105.988 141.451 106.461C140.628 106.981 139.718 107.308 138.847 107.733C138.446 107.928 138.05 108.121 137.631 108.276C137.161 108.45 136.683 108.606 136.217 108.793C135.967 108.894 135.791 109.124 135.868 109.404C135.94 109.664 136.222 109.822 136.483 109.751Z" fill="#18181B"/>
<path d="M124.123 138.827C123.85 138.557 123.54 138.317 123.305 138.015C123.192 137.87 123.077 137.725 122.963 137.58C122.819 137.398 122.644 137.252 122.472 137.095C122.183 136.832 121.898 136.567 121.623 136.29C121.384 136.05 121.077 135.709 120.913 135.501C120.454 134.919 120.071 134.279 119.679 133.651C119.289 133.027 118.88 132.417 118.479 131.8C118.058 131.154 117.654 130.493 117.322 129.797C117.283 129.716 117.246 129.633 117.209 129.551C117.207 129.546 117.149 129.41 117.185 129.498C117.222 129.585 117.166 129.45 117.164 129.445C117.089 129.252 117.018 129.059 116.957 128.862C116.845 128.5 116.745 128.134 116.642 127.77C116.591 127.591 116.543 127.411 116.504 127.23C116.494 127.185 116.486 127.139 116.476 127.094C116.474 127.082 116.445 126.931 116.465 127.045C116.484 127.157 116.46 127.01 116.459 126.996C116.453 126.92 116.448 126.844 116.445 126.768C116.43 126.371 116.442 125.972 116.459 125.576C116.477 125.177 116.502 124.778 116.516 124.379C116.524 124.184 116.527 123.989 116.536 123.795C116.54 123.712 116.545 123.63 116.551 123.548C116.554 123.508 116.56 123.468 116.56 123.428C116.567 123.366 116.564 123.375 116.553 123.456C116.536 123.571 116.539 123.545 116.563 123.378C116.606 123.058 116.572 123.305 116.561 123.37C116.568 123.332 116.572 123.294 116.579 123.257C116.591 123.182 116.605 123.107 116.621 123.033C116.657 122.869 116.701 122.708 116.755 122.549C116.761 122.529 116.84 122.322 116.839 122.321C116.841 122.322 116.75 122.516 116.807 122.395C116.825 122.356 116.842 122.316 116.861 122.277C116.926 122.14 117.055 121.993 117.104 121.853C117.103 121.858 116.942 122.032 117.025 121.959C117.048 121.939 117.068 121.91 117.089 121.887C117.134 121.839 117.181 121.793 117.23 121.748C117.279 121.703 117.335 121.664 117.383 121.618C117.388 121.614 117.181 121.764 117.285 121.697C117.323 121.673 117.359 121.644 117.397 121.619C117.512 121.543 117.632 121.474 117.756 121.413C117.786 121.399 117.823 121.387 117.85 121.369C117.855 121.366 117.613 121.458 117.731 121.42C117.818 121.393 117.902 121.359 117.99 121.335C118.055 121.317 118.12 121.304 118.186 121.289C118.216 121.282 118.256 121.283 118.284 121.271C118.284 121.272 118.021 121.287 118.137 121.293C118.2 121.297 118.266 121.285 118.33 121.286C118.361 121.286 118.393 121.289 118.425 121.289C118.585 121.286 118.335 121.282 118.301 121.267C118.353 121.29 118.425 121.291 118.48 121.307C118.508 121.315 118.539 121.33 118.567 121.335C118.668 121.353 118.454 121.288 118.448 121.284C118.565 121.387 118.771 121.447 118.907 121.534C118.975 121.577 119.06 121.664 119.134 121.69C119.131 121.688 118.957 121.545 119.052 121.628C119.082 121.653 119.113 121.677 119.143 121.702C119.273 121.812 119.397 121.928 119.517 122.047C119.75 122.279 119.969 122.525 120.187 122.771C120.292 122.891 120.398 123.01 120.505 123.128C120.565 123.194 120.622 123.269 120.688 123.329C120.772 123.403 120.609 123.224 120.607 123.219C120.615 123.252 120.661 123.297 120.679 123.327C120.706 123.37 120.734 123.468 120.772 123.498C120.768 123.495 120.691 123.262 120.718 123.372C120.725 123.403 120.741 123.435 120.751 123.466C120.771 123.53 120.789 123.595 120.804 123.66C120.811 123.693 120.815 123.727 120.824 123.76C120.862 123.901 120.803 123.507 120.812 123.654C120.82 123.794 120.831 123.932 120.827 124.073C120.825 124.143 120.82 124.214 120.814 124.284C120.789 124.551 120.857 124.06 120.807 124.323C120.781 124.46 120.747 124.595 120.706 124.728C120.686 124.792 120.663 124.856 120.64 124.92C120.553 125.16 120.73 124.752 120.643 124.913C120.492 125.192 120.33 125.462 120.144 125.72C120.123 125.749 120.087 125.783 120.074 125.815C120.084 125.792 120.245 125.604 120.115 125.762C120.066 125.822 120.017 125.881 119.967 125.94C119.859 126.065 119.746 126.186 119.63 126.304C119.405 126.53 119.166 126.737 118.918 126.938C118.749 127.075 119.09 126.813 118.913 126.942C118.85 126.988 118.787 127.034 118.724 127.079C118.574 127.186 118.421 127.289 118.267 127.389C117.97 127.581 117.667 127.761 117.346 127.911C117.307 127.93 117.06 128.037 117.208 127.977C117.356 127.916 117.105 128.015 117.064 128.03C116.873 128.101 116.679 128.163 116.482 128.219C116.13 128.318 115.772 128.394 115.412 128.455C115.241 128.483 115.053 128.533 114.881 128.534C114.89 128.534 115.094 128.506 114.958 128.524C114.912 128.529 114.866 128.535 114.82 128.541C114.712 128.555 114.603 128.568 114.495 128.581C112.946 128.76 111.356 128.886 109.797 128.794C109.627 128.784 109.456 128.771 109.286 128.754C109.201 128.746 109.116 128.737 109.031 128.727C108.988 128.723 108.946 128.717 108.903 128.712C108.69 128.687 109.031 128.734 108.893 128.71C108.538 128.651 108.183 128.595 107.833 128.512C107.483 128.429 107.136 128.33 106.795 128.217C106.618 128.158 106.442 128.095 106.268 128.028C106.19 127.998 106.103 127.973 106.029 127.933C106.215 128.033 106.006 127.922 105.931 127.888C105.246 127.578 104.614 127.188 103.998 126.76C103.676 126.537 103.359 126.306 103.046 126.07C103.009 126.042 102.972 126.013 102.934 125.985C102.948 125.995 103.06 126.083 102.965 126.008C102.891 125.951 102.817 125.894 102.743 125.836C102.572 125.702 102.402 125.566 102.232 125.429C101.015 124.443 99.7722 123.444 98.6864 122.315C98.1487 121.755 97.6422 121.168 97.1275 120.588C96.6253 120.022 96.1109 119.468 95.6317 118.882C95.5747 118.813 95.5186 118.742 95.4622 118.673C95.3368 118.517 95.5266 118.76 95.4055 118.601C95.2875 118.446 95.1712 118.289 95.0588 118.129C94.8372 117.815 94.621 117.495 94.4262 117.164C94.3385 117.015 94.2551 116.863 94.177 116.709C94.1386 116.633 94.1042 116.555 94.0658 116.479C94.0161 116.381 94.0748 116.499 94.0801 116.514C94.0597 116.457 94.0375 116.401 94.0177 116.343C93.8885 115.969 93.8024 115.582 93.6583 115.213C93.5718 114.991 93.4708 114.777 93.3679 114.563C93.3289 114.482 93.2906 114.4 93.2532 114.318C93.2346 114.277 93.2163 114.237 93.1982 114.196C93.1914 114.181 93.1202 114.017 93.1581 114.106C93.1977 114.199 93.1407 114.063 93.1377 114.056C93.121 114.015 93.1042 113.974 93.0878 113.933C93.0549 113.85 93.0228 113.767 92.9915 113.684C92.9229 113.502 92.8581 113.319 92.7968 113.134C92.5362 112.35 92.2959 111.558 92.0496 110.769C91.5613 109.205 91.1371 107.609 90.8633 105.993C90.8313 105.805 90.8014 105.616 90.7738 105.426C90.7523 105.279 90.7373 105.166 90.7117 104.943C90.6651 104.537 90.6295 104.129 90.6072 103.72C90.5619 102.888 90.5333 102.056 90.4839 101.224C90.3847 99.5514 90.3318 97.8864 90.3323 96.2109C90.3328 94.5488 90.2456 92.8636 90.4061 91.2077C90.4808 90.4372 90.577 89.6695 90.5775 88.8942C90.5778 88.4595 90.1925 88.0431 89.7409 88.0632C89.285 88.0835 88.9077 88.4283 88.9044 88.8942C88.8984 89.7315 88.7799 90.5587 88.6997 91.3907C88.6173 92.245 88.637 93.1005 88.6364 93.9575C88.6354 95.7383 88.5953 97.5221 88.6719 99.3017C88.7101 100.189 88.7682 101.076 88.8156 101.963C88.861 102.815 88.8721 103.669 88.9511 104.518C89.1137 106.267 89.4777 107.979 89.9349 109.673C90.1645 110.523 90.3934 111.374 90.6209 112.225C90.8338 113.022 91.0283 113.826 91.3099 114.602C91.3756 114.783 91.4451 114.963 91.5185 115.142C91.5732 115.275 91.6296 115.407 91.6864 115.539C91.6891 115.546 91.7473 115.685 91.7096 115.592C91.668 115.489 91.7536 115.712 91.7606 115.732C91.889 116.107 91.9564 116.498 92.0685 116.877C92.3065 117.682 92.7312 118.463 93.2108 119.151C94.1607 120.513 95.3157 121.73 96.4185 122.969C97.5256 124.213 98.7659 125.291 100.041 126.361C101.333 127.444 102.675 128.569 104.162 129.381C105.561 130.145 107.121 130.624 108.699 130.845C110.372 131.079 112.059 131.043 113.74 130.92C115.469 130.792 117.259 130.628 118.813 129.803C120.17 129.082 121.399 128.035 122.266 126.771C123.151 125.482 123.501 123.773 122.796 122.323C122.63 121.981 122.361 121.704 122.107 121.424C121.868 121.159 121.635 120.889 121.39 120.63C120.824 120.031 120.177 119.511 119.412 119.19C117.89 118.552 116.063 119.371 115.163 120.653C114.697 121.317 114.503 122.175 114.409 122.965C114.316 123.747 114.377 124.55 114.376 125.336C114.375 126.224 114.388 127.12 114.648 127.978C114.898 128.801 115.179 129.634 115.554 130.409C116.252 131.852 117.285 133.099 118.185 134.417C118.642 135.087 119.107 135.753 119.632 136.373C120.167 137.004 120.787 137.545 121.426 138.068C121.571 138.187 121.716 138.307 121.863 138.423C122.042 138.565 122.248 138.668 122.447 138.782C122.811 138.99 123.092 139.261 123.39 139.555C123.864 140.022 124.597 139.294 124.123 138.827Z" fill="#18181B"/>
<path d="M139.221 49.5041C139.236 49.4335 139.258 49.367 139.286 49.3005L139.209 49.4834C139.348 49.1761 139.581 48.9148 139.771 48.6379C139.984 48.3283 140.165 48.0018 140.357 47.6798C140.542 47.37 140.732 47.0627 140.922 46.756C141.11 46.4542 141.298 46.1488 141.514 45.8658L141.367 46.0543C141.519 45.8606 141.699 45.6909 141.853 45.4984C142.03 45.2762 142.148 45.0765 142.239 44.8027C142.276 44.6912 142.28 44.5404 142.267 44.4178C142.255 44.2986 142.245 44.1731 142.204 44.059C142.093 43.7481 141.863 43.522 141.524 43.4767C141.374 43.4568 141.239 43.4739 141.1 43.5322C140.951 43.5945 140.776 43.7122 140.708 43.8648C140.687 43.9135 140.66 43.9569 140.628 43.9995L140.765 43.8223C140.688 43.9177 140.606 43.9952 140.537 44.1037C140.507 44.152 140.475 44.1984 140.44 44.2437L140.588 44.0537C140.487 44.1807 140.388 44.3092 140.289 44.438L140.437 44.2467C140.222 44.5228 139.984 44.78 139.795 45.0763C139.602 45.3798 139.424 45.6933 139.25 46.0079C139.074 46.3247 138.897 46.6408 138.727 46.961C138.555 47.2879 138.395 47.6201 138.229 47.9502C138.147 48.114 138.055 48.2736 137.979 48.4404C137.847 48.7274 137.757 48.987 137.739 49.3048C137.729 49.4824 137.828 49.715 137.96 49.8349C138.085 49.9486 138.225 50.0186 138.393 50.0411C138.743 50.0877 139.145 49.8707 139.221 49.5041Z" fill="#18181B"/>
<path d="M142.481 55.0064C142.67 54.8295 142.87 54.6637 143.076 54.5054L142.931 54.6165C143.561 54.1348 144.251 53.7411 144.901 53.2871C145.289 53.0156 145.653 52.715 146.02 52.4159C146.361 52.1379 146.706 51.8657 147.045 51.5859C147.238 51.4274 147.429 51.2681 147.619 51.106C147.709 51.0285 147.796 50.9487 147.881 50.8647C147.923 50.8229 147.965 50.7808 148.007 50.7386C148.055 50.6892 148.09 50.6448 148.135 50.5871C148.234 50.4594 148.272 50.3486 148.338 50.1919C148.385 50.0206 148.385 49.8494 148.338 49.6781C148.292 49.5145 148.209 49.3723 148.088 49.2518C147.967 49.132 147.824 49.0492 147.659 49.0033C147.487 48.9572 147.314 48.9572 147.142 49.0033C147.046 49.0423 146.922 49.0822 146.845 49.1273C146.737 49.1901 146.69 49.2398 146.616 49.307C146.572 49.3469 146.529 49.388 146.485 49.4281C146.388 49.5165 146.293 49.6051 146.2 49.6971C146.024 49.8717 145.845 50.0437 145.665 50.215C145.314 50.5497 144.967 50.887 144.631 51.2369C144.313 51.5681 143.988 51.8853 143.638 52.1832C143.304 52.467 142.963 52.741 142.626 53.0212C142.237 53.3447 141.856 53.6735 141.516 54.0484C141.395 54.1818 141.316 54.3443 141.316 54.5274C141.316 54.6936 141.391 54.892 141.516 55.0064C141.796 55.2612 142.202 55.2656 142.481 55.0064Z" fill="#18181B"/>
<path d="M145.881 60.4025C146.585 60.2846 147.291 60.1824 147.996 60.0691C148.348 60.0125 148.7 59.9528 149.05 59.8878C149.359 59.8305 149.653 59.7667 149.946 59.6519C150.32 59.5053 150.7 59.3721 151.067 59.2112L150.847 59.3033C150.864 59.2961 150.882 59.2891 150.899 59.2822C151.017 59.2542 151.12 59.2004 151.208 59.1205C151.307 59.0568 151.385 58.9724 151.442 58.8671C151.539 58.6847 151.578 58.4966 151.55 58.2912C151.491 57.8581 151.112 57.4992 150.657 57.508C150.602 57.509 150.548 57.514 150.494 57.5201C150.451 57.525 150.276 57.5374 150.188 57.5653C150.101 57.593 149.955 57.6619 149.908 57.682C149.797 57.7303 149.688 57.7841 149.581 57.8406C149.366 57.9535 149.155 58.0754 148.93 58.1701C149 58.1407 149.071 58.1113 149.141 58.0818C148.864 58.1948 148.568 58.2696 148.281 58.352C147.975 58.4398 147.669 58.5234 147.361 58.6054C146.747 58.7691 146.131 58.9264 145.518 59.096C145.175 59.1911 144.928 59.5804 145.042 59.9293C145.095 60.0933 145.197 60.2514 145.355 60.3342C145.526 60.4241 145.69 60.4344 145.881 60.4025Z" fill="#18181B"/>
<path d="M149.204 67.3912C149.44 67.3954 149.675 67.427 149.911 67.4378C150.031 67.4432 150.151 67.4444 150.271 67.4333C150.381 67.4231 150.498 67.4177 150.603 67.3848C150.764 67.3347 150.877 67.2436 151.006 67.1402C151.087 67.0591 151.143 66.9636 151.174 66.8535C151.205 66.7383 151.205 66.6231 151.174 66.508L151.146 66.3618L151.085 66.2195L150.992 66.0988C150.898 66.0056 150.777 65.9522 150.647 65.9348C150.42 65.9045 150.16 66.0088 150.049 66.2195L149.978 66.3528L150.543 66.0309C150.498 66.0312 150.453 66.0256 150.408 66.0246C150.306 66.0225 150.198 66.0562 150.096 66.0701L150.281 66.0453C149.922 66.0892 149.563 66.032 149.204 66.0364C149.028 66.0385 148.847 66.1104 148.722 66.2348C148.603 66.3523 148.514 66.545 148.522 66.7138C148.539 67.0862 148.822 67.3845 149.204 67.3912Z" fill="#18181B"/>
<path d="M125.906 204.912V220.272C125.906 220.8 125.746 221.256 125.426 221.64C125.106 222.008 124.73 222.192 124.298 222.192C123.194 222.192 122.29 221.552 121.586 220.272L115.682 211.032V222H112.346V204.912H115.562L122.57 216.096V204.912H125.906ZM136.543 215.808V214.56C136.543 213.376 136.367 212.472 136.015 211.848C135.679 211.224 134.967 210.912 133.879 210.912C132.119 210.912 131.239 212.096 131.239 214.464V215.712C131.239 218.256 132.119 219.528 133.879 219.528C135.015 219.528 135.759 219.104 136.111 218.256C136.399 217.584 136.543 216.768 136.543 215.808ZM139.663 215.088C139.663 218.048 139.103 220.032 137.983 221.04C137.039 221.904 135.671 222.336 133.879 222.336C131.591 222.336 130.047 221.664 129.247 220.32C128.495 219.088 128.119 217.344 128.119 215.088C128.119 212.976 128.495 211.32 129.247 210.12C130.079 208.776 131.591 208.104 133.783 208.104C135.991 208.104 137.519 208.696 138.367 209.88C139.231 211.048 139.663 212.784 139.663 215.088Z" fill="#18181B"/>
<path d="M122.518 68.6032C122.404 68.5955 122.29 68.5911 122.176 68.5919C122.117 68.5923 122.058 68.5939 122 68.5964C121.83 68.6036 121.998 68.6176 122.044 68.5842C121.981 68.6304 121.832 68.6402 121.755 68.661C121.659 68.6873 121.562 68.7137 121.464 68.738C121.012 68.8508 120.544 68.9053 120.077 68.8912C119.585 68.8763 119.089 68.7362 118.61 68.6235C118.224 68.5325 117.836 68.4512 117.444 68.3935C117.576 68.4127 117.708 68.432 117.841 68.4512C116.923 68.3213 116 68.3162 115.081 68.4189L115.55 68.3648C114.968 68.4325 114.396 68.5595 113.808 68.4874C113.284 68.423 112.774 68.3371 112.273 68.1661C111.399 67.8678 110.572 67.447 109.749 67.0297C109.363 66.8336 108.975 66.6402 108.576 66.4707L109.046 66.6694C108.59 66.4774 108.119 66.3185 107.629 66.2444C107.8 66.2692 107.971 66.294 108.141 66.3188C107.871 66.2802 107.598 66.2657 107.326 66.2969L107.852 66.2362C107.581 66.2701 107.319 66.338 107.065 66.4374C107.237 66.368 107.41 66.2986 107.583 66.2292C107.351 66.3231 107.137 66.4513 106.911 66.5577C106.665 66.7097 106.402 66.79 106.119 66.7985C105.851 66.8528 105.584 66.8374 105.318 66.7524C104.821 66.6138 104.287 66.2273 104.048 65.759C103.8 65.2729 103.675 64.6932 103.845 64.1596C103.913 63.9942 103.982 63.8289 104.05 63.6636C104.24 63.3363 104.499 63.0788 104.827 62.8911C105.178 62.6384 105.616 62.4958 106.031 62.378C106.408 62.2709 106.813 62.2315 107.2 62.2042C107.428 62.1881 107.66 62.1939 107.888 62.2184C108.263 62.2589 108.646 62.3112 109.012 62.4092C109.614 62.5701 110.195 62.8319 110.753 63.1072C111.191 63.3236 111.616 63.5662 112.043 63.8041C112.523 64.0713 113.006 64.3338 113.511 64.5491L113.055 64.3568C113.491 64.5404 113.942 64.6862 114.41 64.7545C114.25 64.7312 114.089 64.7078 113.929 64.6845C114.322 64.7385 114.72 64.7362 115.115 64.7638C115.783 64.8104 116.453 64.9034 117.108 65.0443C117.642 65.1592 118.167 65.3171 118.678 65.5124C119.267 65.738 119.828 66.0258 120.408 66.2734L120.084 66.1363C120.4 66.2693 120.707 66.4189 121.022 66.5546L120.727 66.4299C121.039 66.5596 121.361 66.6315 121.692 66.6896C121.77 66.7034 121.849 66.7166 121.927 66.7306C121.944 66.7336 121.962 66.7368 121.979 66.74C122.049 66.7524 122.014 66.7475 121.875 66.7253C121.907 66.7176 121.955 66.7277 121.989 66.7291C122.249 66.7406 122.507 66.7773 122.765 66.8185C122.97 66.8514 123.222 67.0676 123.313 67.2475C123.407 67.4307 123.445 67.6187 123.417 67.8231C123.358 68.2494 122.972 68.6337 122.518 68.6032Z" fill="#18181B"/>
<path d="M119.253 57.2431C118.614 57.7172 117.949 58.1555 117.298 58.6146C116.561 59.1351 115.952 59.7707 115.315 60.4017L115.633 60.0882C115.436 60.2811 115.233 60.4636 115.017 60.635C114.674 60.9071 114.373 61.2258 114.07 61.5395C113.659 61.9648 113.262 62.4029 112.872 62.846C112.482 63.2891 112.098 63.7369 111.711 64.1828C111.244 64.722 110.864 65.2801 110.531 65.9108C110.252 66.4398 110.053 67.0113 109.748 67.527L110.027 67.0601C109.763 67.4872 109.402 67.8365 109.07 68.2113C108.622 68.7154 108.28 69.3024 108.014 69.9124C107.747 70.5255 107.535 71.1786 107.413 71.8298C107.343 72.2007 107.313 72.5966 107.364 72.9657C107.415 73.3405 107.546 73.7007 107.641 74.0658C107.593 73.8792 107.544 73.6925 107.496 73.5059C107.528 73.6357 107.552 73.765 107.551 73.8998L107.562 73.3362C107.558 73.4017 107.549 73.4637 107.531 73.5273L107.687 72.9881C107.67 73.0404 107.648 73.0884 107.62 73.1369C107.717 72.9744 107.814 72.812 107.911 72.6495C107.896 72.6747 107.879 72.699 107.861 72.7222L110.509 71.9902C110.469 71.9767 110.429 71.9637 110.388 71.9507C110.218 71.9078 110.048 71.865 109.878 71.8221C109.6 71.7782 109.33 71.8039 109.069 71.8992C108.88 71.9258 108.709 71.9968 108.556 72.1119C108.304 72.2297 108.096 72.4024 107.931 72.6301C107.907 72.6607 107.884 72.6913 107.861 72.7222C107.52 73.1775 107.338 73.7597 107.402 74.3154C107.426 74.6175 107.524 74.8888 107.696 75.1293C107.82 75.3906 108.005 75.6046 108.252 75.7715C108.716 76.0803 109.298 76.2799 109.876 76.1763C110.451 76.0733 111.053 75.8015 111.394 75.3099C111.691 74.8805 111.853 74.5396 111.956 74.0394C111.968 73.9809 111.974 73.9257 111.976 73.8666C111.987 73.6368 112.008 73.3959 111.977 73.1669C111.921 72.7512 111.763 72.357 111.656 71.9537L111.802 72.5121C111.773 72.3944 111.753 72.2772 111.755 72.1552L111.744 72.7144C111.762 72.3729 111.836 72.0365 111.929 71.706C111.878 71.8828 111.827 72.0597 111.775 72.2365C111.918 71.7483 112.095 71.2501 112.356 70.8063L112.074 71.2802C112.279 70.9444 112.541 70.6504 112.8 70.3531C113.166 69.933 113.468 69.4897 113.727 68.9977C113.916 68.6401 114.051 68.2547 114.213 67.8858C114.377 67.5142 114.559 67.1518 114.765 66.7999L114.492 67.257C114.796 66.7499 115.172 66.2798 115.521 65.8006C115.878 65.3086 116.238 64.818 116.611 64.3365C116.982 63.8579 117.39 63.4056 117.724 62.9016C118.106 62.3237 118.402 61.7038 118.754 61.1104L118.55 61.4513C118.853 60.9505 119.21 60.4702 119.603 60.0317C119.996 59.593 120.427 59.1865 120.825 58.7516C120.999 58.5613 121.095 58.1931 121.056 57.9493C121.015 57.7017 120.913 57.4898 120.73 57.3146C120.336 56.9363 119.711 56.904 119.253 57.2431Z" fill="#18181B"/>
</svg>
